<?xml version="1.0" encoding="UTF-8"?>
<svg id="Layer_16" xmlns="http://www.w3.org/2000/svg" viewBox="0 0 2030.152 1141.961">
  <defs>
    <style>
      .cls-1 {
        fill: #2a4e67;
      }

      .cls-2 {
        fill: #2a5c70;
      }

      .cls-3 {
        fill: #a0c7d2;
      }

      .cls-4 {
        fill: #6daabd;
      }

      .cls-5 {
        fill: #d7d9c4;
      }

      .cls-6 {
        fill: #447f95;
      }

      .cls-7 {
        fill: #b6bba1;
      }
    </style>
  </defs>
  <path d="M1164.871,989.807c-42.356-21.146-100.429-10.5-136.052,14.825-44.065,31.326-37.97,73.875-65.889,137.328h273.476c-11.87-77.508-26.481-129.66-71.535-152.153Z"/>
  <path class="cls-1" d="M1028.819,1004.632c35.622-25.325,93.696-35.971,136.052-14.825,45.054,22.493,59.664,74.645,71.535,152.153h100.128c-9.909-32.174-23.108-70.613-40.277-112.52-38.099-92.989-65.855-130.105-92.918-157.404-23.837-24.045-45.054-44.924-76.498-51.009-22.352-4.326-71.03-5.652-151.167,69.807-91.215,85.89-92.234,147.893-148.182,251.126h135.44c27.919-63.453,21.824-106.002,65.889-137.328Z"/>
  <path class="cls-2" d="M1029.455,66.766c17.366,1.682,31.307-7.88,42.323-15.659,17.027-12.025,29.811-28.163,42.171-51.107h-152.196c1.049,1.071,2.086,2.151,3.095,3.25,25.544,27.794,34.898,60.639,64.607,63.517Z"/>
  <path class="cls-2" d="M975.672,890.834c80.138-75.459,128.816-74.133,151.167-69.807,31.444,6.085,52.661,26.964,76.498,51.009,27.063,27.299,54.82,64.415,92.918,157.404,17.169,41.906,30.369,80.346,40.277,112.52h125.227c-2.019-15.189-4.814-34.43-8.794-59.366-13.125-82.229-22.361-121.316-47.004-163.401-9.063-15.478-22.076-31.082-48.102-62.291-69.606-83.467-104.408-125.2-145.378-146.766-66.943-35.238-135.239-27.806-151.022-25.71-108.801,14.446-176.36,101.113-244.307,190.932-108.482,143.403-81.912,188.056-141.351,266.602h151.689c55.948-103.233,56.967-165.236,148.182-251.126Z"/>
  <path class="cls-6" d="M677.433,47.017c41.937-6.744,82.781-34.215,124.718-40.461,49.053-7.305,95.205,6.19,135.724,50.059,22.805,24.691,26.074,62.257,54.978,87.042,9.143,7.84,32.886,27.483,60.516,16.105,8.429-3.471,17.82-13.587,36.603-33.82,30.506-32.861,46.007-49.964,58.154-82.885,5.871-15.912,9.51-31.255,11.783-43.057h-45.963c-12.36,22.944-25.144,39.082-42.171,51.107-11.016,7.78-24.958,17.341-42.323,15.659-29.709-2.878-39.063-35.723-64.607-63.517-1.009-1.098-2.046-2.178-3.095-3.25h-450.999c20.03,11.193,39.991,22.94,59.915,35.394,33.042,20.653,71.439,17.304,106.765,11.623Z"/>
  <path class="cls-6" d="M1061.46,684.427c15.783-2.096,84.079-9.528,151.022,25.71,40.97,21.566,75.772,63.299,145.378,146.766,26.026,31.208,39.039,46.813,48.102,62.291,24.644,42.085,33.879,81.172,47.004,163.401,3.98,24.935,6.775,44.177,8.794,59.366h150.198c-.06-12.274-.359-25.276-2.161-40.725-2.019-17.31-9.637-41.729-24.871-90.567-27.148-87.032-40.722-130.548-60.095-154.119-32.581-39.64-52.858-28.172-108.154-67.91-73.105-52.536-64.375-91.774-135.976-168.188-47.338-50.52-110.887-118.341-186.342-115.753-51.653,1.771-72.616,35.292-184.968,133.119-151.587,131.99-149.444,102.331-204.296,165.513-110.519,127.302-60.959,180.601-168.882,282.048-25.933,24.376-49.193,40.475-71.156,56.582h210.744c59.439-78.546,32.869-123.199,141.351-266.602,67.947-89.82,135.507-176.486,244.307-190.932Z"/>
  <path class="cls-4" d="M705.095,803.331c54.852-63.182,52.709-33.523,204.296-165.513,112.352-97.827,133.315-131.348,184.968-133.119,75.455-2.587,139.004,65.234,186.342,115.753,71.6,76.414,62.871,115.652,135.976,168.188,55.296,39.738,75.573,28.27,108.154,67.91,19.373,23.57,32.948,67.086,60.095,154.119,15.234,48.838,22.851,73.257,24.871,90.567,1.802,15.448,2.102,28.451,2.161,40.725h96.466c-5.402-39.986-13.416-85.869-21.221-143.809-14.982-111.225-5.48-90.88-14.302-125.603-9.726-38.281-37.976-149.476-130.571-220.218-55.993-42.779-74.766-24.352-119.341-69.814-54.029-55.104-31.995-87.833-84.803-130.698-48.76-39.58-92.262-31.741-116.698-78.573-8.146-15.613-10.895-31.019-28.321-46.267-16.942-14.825-28.453-12.018-50.64-30.961-9.886-8.441-19.687-19.114-29.586-33.65-18.477-27.134-18.869-40.666-18.585-46.112,1.257-24.069,22.872-27.119,45.465-62.487,12.448-19.487,9.765-24.633,31.011-78.182,13.045-32.88,24.583-57.325,34.484-75.586h-45.406c-2.273,11.801-5.913,27.145-11.783,43.057-12.147,32.921-27.648,50.023-58.154,82.885-18.783,20.233-28.174,30.35-36.603,33.82-27.63,11.378-51.373-8.265-60.516-16.105-28.904-24.784-32.173-62.351-54.978-87.042C897.357,12.746,851.204-.749,802.152,6.556c-41.937,6.245-82.781,33.717-124.718,40.461-35.326,5.681-73.723,9.03-106.765-11.623-19.925-12.454-39.885-24.2-59.915-35.394h-190.017c-8.98,38.062.687,80.179,23.832,99.053,8.054,6.568,17.309,11.307,25.879,10.917,30.458-1.385,60.833-6.415,91.291-7.827,13.211-.613,26.562,3.882,39.823,6.637,45.178,9.387,90.796,13.952,135.365,30.275,32.439,11.88,62.511,1.444,93.462-6.801,36.271-9.662,72.424-24.608,108.907-26.808,4.645-.28,27.045,14.28,71.87,40.879,28.944,17.175,59.076,35.807,88.175,81.993,10.158,16.123,13.182,24.48,14.229,30.413.343,1.946.439,3.426.478,3.863,1.867,20.762,16.946,84.933,17.79,88.725,10.618,47.695-98.461,121.26-193.015,193.909-89.802,68.998-134.703,103.497-179.065,152.541-91.661,101.334-66.843,131.477-153.981,235.087-108.486,128.995-159.856,97.612-218.983,204.452-.87,1.572-1.705,3.118-2.526,4.652h180.79c21.963-16.106,45.224-32.205,71.156-56.582,107.923-101.446,58.363-154.745,168.882-282.048Z"/>
  <path class="cls-3" d="M505.775,932.856c87.137-103.61,62.32-133.753,153.981-235.087,44.363-49.045,89.264-83.544,179.065-152.541,94.554-72.649,203.633-146.214,193.015-193.909-.844-3.792-15.923-67.963-17.79-88.725-.039-.437-.135-1.917-.478-3.863-1.047-5.932-4.071-14.289-14.229-30.413-29.099-46.186-59.231-64.818-88.175-81.993-44.825-26.599-67.225-41.159-71.87-40.879-36.483,2.2-72.635,17.146-108.907,26.808-30.951,8.245-61.023,18.68-93.462,6.801-44.568-16.322-90.187-20.888-135.365-30.275-13.261-2.755-26.612-7.25-39.823-6.637-30.458,1.413-60.833,6.443-91.291,7.827-8.57.39-17.824-4.349-25.879-10.917-23.145-18.875-32.812-60.991-23.832-99.053h-97.684c8.16,12.727,15.634,24.393,23.17,35.896,23.031,35.153,49.19,62.018,67.569,109.285,13.852,35.625,36.052,43.954,57.655,37.444,58.572-17.65,85.291,1.302,162.983-3.08,85.615-4.829,170.074,13.718,170.074,13.718,26.297,5.775,38.794,10.417,62.404,9.673,53.78-1.695,66.227-28.218,103.299-17.58,33.517,9.617,72.341,45.357,73.076,82.001.517,25.777-18.291,28.237-43.891,96.293-9.865,26.226-11.189,36.804-22.753,62.596-3.114,6.946-17.67,39.41-31.537,55.666-7.312,8.571-15.92,11.784-18.596,13.257-60.89,33.512-115.908,76.825-175.578,112.462-82.416,49.222-75.328,77.602-193.323,175.438-177.464,147.145-254.418,133.462-296.887,236.083-17.18,41.515-22.022,85.886-64.006,112.272-7.171,4.506-14.489,7.899-21.791,10.536h209.347c.82-1.535,1.656-3.081,2.526-4.652,59.127-106.84,110.496-75.457,218.983-204.452Z"/>
  <path class="cls-3" d="M1139.822,153.769c-22.593,35.369-44.208,38.418-45.465,62.487-.284,5.446.108,18.978,18.585,46.112,9.899,14.536,19.699,25.209,29.586,33.65,22.187,18.943,33.698,16.136,50.64,30.961,17.426,15.248,20.175,30.654,28.321,46.267,24.436,46.832,67.939,38.993,116.698,78.573,52.808,42.866,30.774,75.594,84.803,130.698,44.575,45.462,63.348,27.036,119.341,69.814,92.595,70.743,120.846,181.938,130.571,220.218,8.822,34.723-.68,14.378,14.302,125.603,7.805,57.94,15.819,103.823,21.221,143.809h105.335c4.811-56.616,14.132-110.92-6.735-212.045-4.405-21.346-20.487-94.851-60.928-183.038-35.758-77.976-55.889-121.874-99.988-163.212-87.106-81.654-147.884-40.978-208.715-119.562-43.862-56.662-34.829-106.96-87.968-132.388-18.329-8.771-39.436-12.372-85.385-34.783-28.522-13.911-42.888-20.792-49.213-29.643-29.142-40.778,3.606-105.717,28.241-154.569,20.974-41.592,38.552-55.743,46.701-61.573,10.824-7.743,13.145-6.62,51.024-25.473,27.224-13.55,34.751-18.472,48.924-25.674h-184.4c-9.901,18.261-21.439,42.706-34.484,75.586-21.246,53.55-18.563,58.696-31.011,78.182Z"/>
  <path class="cls-5" d="M160.717,1019.152c42.469-102.621,119.423-88.938,296.887-236.083,117.995-97.836,110.907-126.217,193.323-175.438,59.671-35.637,114.688-78.951,175.578-112.462,2.676-1.473,11.284-4.686,18.596-13.257,13.868-16.256,28.423-48.72,31.537-55.666,11.564-25.792,12.888-36.371,22.753-62.596,25.6-68.056,44.408-70.516,43.891-96.293-.735-36.644-39.559-72.383-73.076-82.001-37.072-10.638-49.52,15.886-103.299,17.58-23.61.744-36.107-3.899-62.404-9.673,0,0-84.459-18.547-170.074-13.718-77.693,4.382-104.411-14.57-162.983,3.08-21.603,6.51-43.803-1.819-57.655-37.444-18.379-47.267-44.538-74.132-67.569-109.285-7.536-11.502-15.01-23.168-23.17-35.896h-61.137c-1.691,3.131-3.545,6.519-5.649,10.227,7.207,8.55,18.608,20.863,34.522,33.327,25.222,19.755,37.78,18.809,54.015,33.836,17.715,16.397,33.692,38.999,46.804,72.476,29.838,76.18,68.77,87.202,114.337,68.793,22.781-9.204,47.489-3.163,71.327-2.344,55.724,1.914,83.549-1.557,103.382,6.596,51.212,21.052,54.424,55.928,89.877,50.606,14.524-2.18,33.626-10.982,45.684,10.779,7.52,13.571,8.618,32.381,8.739,34.757.688,13.503-.6,43.542-42.313,103.303-33.585,48.117-63.774,73.091-73.671,80.956-42.07,33.433-77.047,41.825-87.059,45.954-27.565,11.368-54.301,4.478-81.535,4.431-31.777-.055-63.676,2.7-95.165,9.466-14.175,3.046-25.156,23.014-29.168,52.724-7.76,57.461-30.535,75.659-58.369,81.407-11.311,2.336-24.597,1.615-33.208,12.835-24.139,31.456-49.919,33.087-77.527,27.241-13.759-2.913-27.783.307-41.69-.11-8.624-.259-17.55.314-25.825-3.719-32.332-15.758-36.489-12.435-57.339,39.128-7.759,19.186-14.624,22.974-22.083,30.051v339.241h74.92c7.301-2.637,14.62-6.03,21.791-10.536,41.984-26.386,46.826-70.757,64.006-112.272Z"/>
  <path class="cls-5" d="M1289.769,51.147c-8.149,5.829-25.727,19.981-46.701,61.573-24.635,48.852-57.383,113.791-28.241,154.569,6.325,8.851,20.691,15.732,49.213,29.643,45.949,22.411,67.056,26.012,85.385,34.783,53.139,25.428,44.106,75.726,87.968,132.388,60.832,78.584,121.609,37.909,208.715,119.562,44.099,41.338,64.229,85.236,99.988,163.212,40.441,88.187,56.523,161.692,60.928,183.038,20.867,101.125,11.546,155.429,6.735,212.045h216.394v-231.59c-1.321-2.712-2.208-4.44-2.533-5.061-13.346-25.493-35.865-61.438-55.36-121.082-15.012-45.93-9.839-49.642-23.395-85.711-12.7-33.792-21.353-41.477-79.947-132.174-43.331-67.071-48.767-78.609-71.093-103.04-25.652-28.071-48.906-46.141-68.262-58.816-13.2-8.644-28.59-18.723-50.65-27.04-41.249-15.553-50.233-3.99-87.067-15.973-15.052-4.897-62.049-20.186-87.47-60.935-16.98-27.218-21.436-35.736-33.964-50.675-1.957-2.334-6.285-7.314-13.249-11.938-3.085-2.048-9.412-6.676-18.286-8.1-6.661-1.069-16.727-.041-27.132,1.696-15.695,2.619-20.949,6.88-33.705,2.981-36.191-11.063-65.161-64.524-50.918-100.145,5.154-12.889,14.43-19.603,30.011-30.882,25.508-18.465,48.759-22.262,90.767-41.267,36.652-16.582,26.929-21.631,75.489-44.855,13.798-6.599,25.477-11.365,37.118-17.352h-170.789c-14.173,7.202-21.7,12.125-48.924,25.674-37.879,18.853-40.2,17.729-51.024,25.473Z"/>
  <path class="cls-7" d="M1447.899,62.207c-42.008,19.006-65.258,22.803-90.767,41.267-15.581,11.278-24.857,17.993-30.011,30.882-14.244,35.621,14.727,89.082,50.918,100.145,12.756,3.899,18.01-.362,33.705-2.981,10.406-1.737,20.471-2.765,27.132-1.696,8.874,1.425,15.201,6.052,18.286,8.1,6.964,4.625,11.291,9.604,13.249,11.938,12.528,14.94,16.984,23.457,33.964,50.675,25.421,40.749,72.419,56.039,87.47,60.935,36.833,11.983,45.818.421,87.067,15.973,22.059,8.317,37.449,18.396,50.65,27.04,19.356,12.675,42.61,30.745,68.262,58.816,22.326,24.431,27.763,35.969,71.093,103.04,58.594,90.697,67.247,98.382,79.947,132.174,13.556,36.069,8.383,39.781,23.395,85.711,19.495,59.643,42.013,95.588,55.36,121.082.325.621,1.212,2.349,2.533,5.061V0h-469.646c-11.641,5.987-23.321,10.753-37.118,17.352-48.56,23.224-38.837,28.273-75.489,44.855ZM1914.599,453.742l7.327,12.012-28.61,37.82,33.039-9.117c2.719-.751,4.715-1.515,5.991-2.293.873-.532,1.371-1.258,1.493-2.174.122-.917-.329-2.214-1.352-3.89-.173-.284-.342-.586-.506-.908l1.549-.41,9.422,15.448-1.57.375c-.957-1.621-1.849-2.713-2.679-3.277-1.173-.808-2.316-1.246-3.426-1.313-1.572-.078-3.977.336-7.215,1.242l-46.509,12.859-.777-1.275,30.789-40.705-35.15,9.723c-2.657.745-4.588,1.485-5.792,2.22-.898.548-1.401,1.251-1.508,2.111-.108.86.418,2.427,1.579,4.701l-1.527.446-9.207-15.095,1.614-.304c1.199,1.862,2.136,3.024,2.809,3.489,1.016.709,2.009,1.091,2.983,1.146,1.457.05,3.933-.406,7.428-1.371l39.227-10.848c.855-1.786,1.228-3.367,1.119-4.741-.11-1.376-.807-3.195-2.09-5.459l1.548-.409ZM1876.836,413.356c3.955,1.914,7.35,4.607,10.186,8.079,2.363,2.894,3.827,5.966,4.393,9.22.566,3.252.138,6.513-1.283,9.781-1.423,3.269-3.451,5.978-6.087,8.131-4.672,3.815-10.682,6.462-18.028,7.942-7.347,1.48-14.155,1.136-20.427-1.031-6.27-2.168-11.313-5.588-15.128-10.259-2.748-3.365-4.299-6.786-4.656-10.263-.357-3.478.245-6.756,1.805-9.832,1.559-3.078,3.486-5.551,5.78-7.424,4.072-3.325,8.896-5.63,14.473-6.915,5.577-1.285,10.811-1.656,15.702-1.112,4.891.543,9.314,1.772,13.271,3.685ZM1846.787,373.931c-.294-.722-1.15-1.877-2.57-3.465l1.477-.652,14.496,16.212-1.45.684c-1.16-1.339-2.18-2.19-3.061-2.552-1.243-.559-2.462-.74-3.659-.543-1.197.198-3.446,1.086-6.748,2.665l-31.809,15.359c-2.922,1.424-4.702,2.422-5.341,2.994-.516.461-.84.982-.969,1.562-.131.581-.04,1.242.271,1.984.31.743,1.208,2.066,2.688,3.972l-1.449.683-15.437-17.264,1.532-.591c1.591,1.697,2.758,2.712,3.503,3.048,1.162.594,2.247.831,3.252.711,1.578-.187,3.938-1.034,7.079-2.544l31.838-15.328c2.657-1.263,4.522-2.373,5.595-3.332.536-.479.869-1.019,1.001-1.619.132-.6.05-1.262-.241-1.983ZM1794.438,328.58l36.194,22.746-11.85,10.2-1.336-.839c1.608-1.571,2.868-3.082,3.781-4.536,1.075-1.71,1.358-3.33.848-4.859-.385-1.156-2.228-2.773-5.531-4.848l-3.76-2.363-30.044,26.903c-3.786,3.373-5.981,5.539-6.584,6.499-.56.891-.646,1.858-.256,2.903.388,1.046,1.532,2.165,3.43,3.357l1.616,1.016-1.239,1.035-20.733-13.03,1.204-1.057.913.574c1.828,1.149,3.417,1.74,4.769,1.772.929.029,1.998-.305,3.203-1.002,1.205-.696,3.361-2.423,6.464-5.177l31.141-27.634-2.846-1.789c-2.741-1.723-5.17-2.759-7.286-3.109-2.117-.35-4.111-.181-5.98.507-1.87.688-3.906,2.055-6.108,4.103l-1.3-.816,11.289-10.553ZM1706.137,337.227c.57-1.529,1.322-3.11,2.255-4.74.632-1.063,1.873-2.845,3.72-5.345l11.895-15.985c1.692-2.322,2.767-4.092,3.221-5.311.358-.959.266-1.842-.275-2.65-.541-.806-2.274-1.843-5.196-3.111l.926-1.294,22.283,8.309-.965,1.279c-2.3-.798-4.007-1.191-5.12-1.179-1.112.014-2.192.372-3.235,1.075-1.045.703-2.427,2.211-4.145,4.524l-12.365,16.651c-2.198,2.961-3.58,4.927-4.148,5.895-.929,1.543-1.661,3.029-2.192,4.454-1.17,3.137-.991,6.223.535,9.258,1.526,3.035,4.246,5.282,8.161,6.741,2.567.957,5.042,1.327,7.427,1.108,2.384-.218,4.622-.934,6.714-2.147,2.092-1.214,4.291-3.095,6.601-5.646,2.309-2.55,4.487-5.185,6.535-7.906l10.67-14.359c2.665-3.583,4.225-5.984,4.679-7.203.32-.856.196-1.736-.366-2.64-.564-.903-2.027-1.869-4.39-2.899l.965-1.279,16.761,6.249-.964,1.28c-1.971-.735-3.461-1.076-4.468-1.024-1.009.052-2.019.443-3.029,1.174-1.011.731-2.44,2.346-4.288,4.847l-13.01,17.429c-4.209,5.666-7.693,9.704-10.452,12.115-2.76,2.412-6.069,4.057-9.925,4.937-3.857.88-8.08.465-12.668-1.246-5.289-1.972-8.995-5.059-11.12-9.262-2.125-4.203-2.467-8.235-1.026-12.099ZM1669.629,289.006c6.424-1.648,12.447-1.685,18.069-.11,2.637.739,5.42,2.194,8.346,4.363,1.289.936,2.254,1.494,2.893,1.672.639.179,1.236.203,1.79.071.554-.132,1.566-.668,3.036-1.607l1.478.414-8.951,16.414-1.439-.404,1.072-4.441c.314-1.636.408-3.146.279-4.534-.129-1.386-.544-2.673-1.246-3.861s-1.713-2.247-3.032-3.177-2.873-1.645-4.657-2.145c-4.77-1.336-9.305-1.199-13.607.413-5.49,2.054-10.377,5.756-14.663,11.107-3.536,4.413-6.023,9.19-7.463,14.331-1.471,5.25-1.112,9.868,1.076,13.857,2.186,3.989,5.731,6.67,10.634,8.044,3.703,1.037,7.231,1.135,10.585.292,3.353-.841,6.75-2.634,10.191-5.377l1.878.527c-4.237,3.841-8.448,6.361-12.634,7.56-4.186,1.198-8.771,1.099-13.753-.297-4.422-1.239-8.08-3.262-10.971-6.069-2.892-2.807-4.76-6.139-5.605-9.997-.844-3.857-.726-7.717.356-11.581,1.657-5.915,4.854-11.225,9.592-15.933,4.738-4.707,10.319-7.885,16.744-9.533ZM1610.736,260.866l35.768,18.837-9.409,10.384-1.359-.716c.764-1.035,1.347-1.933,1.747-2.692.682-1.297.938-2.555.766-3.771-.24-1.564-1-3.06-2.282-4.485-.943-1.06-3.532-2.704-7.768-4.935l-6.316-3.326-16.058,16.685,4.664,2.456c3.329,1.753,6.009,2.516,8.037,2.286,2.028-.229,4.303-1.432,6.825-3.606l1.358.715-14.62,15.379-1.468-.774c1.24-1.285,2.143-2.467,2.71-3.545.554-1.052.785-2.009.692-2.872-.094-.862-.433-1.642-1.018-2.342-.586-.699-2.078-1.68-4.477-2.944l-4.737-2.495-13.494,13.955c-1.304,1.347-2.175,2.436-2.613,3.268-.335.637-.326,1.361.029,2.173.235.562,1.185,1.281,2.85,2.158l4.407,2.321c4.774,2.514,9.044,3.684,12.81,3.51,3.766-.175,7.89-1.756,12.371-4.742l1.359.716-11.992,11.369-38.485-20.269,1.193-1.107c1.936.956,3.311,1.462,4.127,1.516,1.211.075,2.218-.114,3.019-.567,1.19-.656,3.082-2.348,5.677-5.078l24.56-25.436c1.962-2.063,3.279-3.731,3.949-5.004.49-.93.548-1.829.177-2.697-.372-.868-1.5-1.798-3.385-2.791l-.771-.406,1.156-1.126ZM1565.029,230.107l1.3-.917,15.483,12.863-1.365.863c-1.427-1.184-2.465-1.893-3.115-2.129-.65-.234-1.264-.275-1.838-.124-.577.151-1.058.461-1.447.929-.424.512-1.16,1.916-2.204,4.213l-5.922,13.102,12.422-1.118c4.909-.454,8.545-1.084,10.907-1.892.838-.274,1.444-.635,1.816-1.082.406-.49.521-1.041.348-1.653-.256-.861-1.146-1.978-2.667-3.35l1.332-.89,14.653,12.174-1.332.89c-2.313-1.417-4.633-2.293-6.962-2.628-2.331-.335-6.001-.191-11.013.429l-20.784,2.157-6.468,14.214c-.621,1.354-1.492,3.528-2.61,6.519-.727,1.914-1.091,3.392-1.093,4.434-.003,1.042.247,2.05.751,3.025.502.975,1.514,2.149,3.037,3.521l-1.332.89-16.984-14.11,1.332-.89c1.798,1.387,3.328,2.099,4.589,2.141.928.052,1.676-.263,2.241-.944.495-.595,1.306-2.135,2.433-4.617l6.011-13.405-18.666,1.813c-3.66.378-5.945.727-6.858,1.046-.553.188-.98.464-1.28.826-.531.639-.645,1.426-.341,2.36.156.418.91,1.349,2.262,2.797l-1.301.916-14.398-11.961,1.332-.89c1.95,1.333,3.775,2.147,5.472,2.441,2.512.397,6.485.335,11.919-.188l23.08-2.192,6.923-15.346c2.14-4.698,3.188-7.81,3.145-9.339-.044-1.528-.98-3.161-2.81-4.897ZM1534.484,185.872l-.518-.7,1.53-.513,24.043,32.498-12.984,5.269-.913-1.234c1.138-.602,2.052-1.157,2.742-1.667,1.178-.872,1.955-1.894,2.328-3.065.463-1.513.428-3.19-.108-5.031-.39-1.363-2.008-3.971-4.855-7.818l-4.246-5.739-21.71,8.059,3.135,4.237c2.238,3.025,4.32,4.875,6.247,5.548,1.926.674,4.497.579,7.713-.285l.913,1.235-19.847,7.506-.987-1.334c1.675-.62,3.002-1.292,3.981-2.016.956-.707,1.579-1.47,1.87-2.287.291-.817.323-1.668.1-2.552-.225-.884-1.142-2.416-2.755-4.596l-3.184-4.304-18.215,6.712c-1.759.648-3.017,1.251-3.773,1.81-.578.429-.884,1.084-.917,1.97-.032.609.511,1.669,1.63,3.182l2.962,4.004c3.209,4.337,6.547,7.244,10.017,8.723,3.468,1.477,7.869,1.844,13.203,1.099l.913,1.234-15.738,5.036-25.87-34.967,1.556-.479c1.328,1.702,2.348,2.755,3.059,3.158,1.058.594,2.048.86,2.966.8,1.356-.074,3.795-.778,7.319-2.11l33.168-12.251c2.663-1.007,4.573-1.938,5.729-2.793.845-.625,1.288-1.41,1.331-2.353.042-.943-.571-2.271-1.837-3.984Z"/>
  <path class="cls-7" d="M1837.249,425.639c-3.044,2.485-5.1,5.467-6.17,8.948-1.07,3.481-.283,6.84,2.36,10.076,1.592,1.95,3.635,3.469,6.132,4.557,2.495,1.088,5.742,1.697,9.742,1.825,5.018.153,10.513-.762,16.486-2.744,5.971-1.983,10.929-4.584,14.873-7.804,2.915-2.38,4.852-5.266,5.815-8.66.961-3.393.157-6.665-2.415-9.816-1.75-2.143-3.991-3.806-6.723-4.986-2.733-1.18-6.127-1.794-10.183-1.839-4.056-.046-8.691.72-13.904,2.297-6.412,1.948-11.749,4.664-16.014,8.146Z"/>
  <polygon class="cls-7" points="320.847 266.669 297.32 281.006 310.41 286.386 320.847 266.669"/>
  <path class="cls-7" d="M256.363,241.293c3.308,3.421,6.874,5.207,10.698,5.358,3.822.151,7.146-1.139,9.97-3.871,2.207-2.135,3.296-4.392,3.267-6.77-.029-2.378-1.246-4.81-3.651-7.296-.616-.636-1.427-1.315-2.432-2.036l-20.874,10.955c1.052,1.445,2.059,2.665,3.021,3.66Z"/>
  <path class="cls-7" d="M22.083,772.669c20.851-51.563,25.008-54.887,57.339-39.128,8.274,4.033,17.201,3.461,25.825,3.719,13.906.417,27.931-2.803,41.69.11,27.608,5.846,53.388,4.215,77.527-27.241,8.611-11.221,21.897-10.5,33.208-12.835,27.834-5.748,50.609-23.946,58.369-81.407,4.012-29.71,14.993-49.678,29.168-52.724,31.489-6.766,63.388-9.522,95.165-9.466,27.234.047,53.97,6.937,81.535-4.431,10.012-4.129,44.989-12.521,87.059-45.954,9.897-7.865,40.086-32.84,73.671-80.956,41.713-59.761,43.001-89.799,42.313-103.303-.121-2.376-1.219-21.187-8.739-34.757-12.058-21.761-31.16-12.96-45.684-10.779-35.453,5.322-38.665-29.553-89.877-50.606-19.833-8.153-47.658-4.682-103.382-6.596-23.838-.819-48.546-6.86-71.327,2.344-45.567,18.41-84.498,7.387-114.337-68.793-13.112-33.477-29.089-56.079-46.804-72.476-16.235-15.027-28.792-14.081-54.015-33.836-15.914-12.464-27.315-24.777-34.522-33.327,2.104-3.708,3.958-7.096,5.649-10.227H0v802.719c7.459-7.076,14.325-10.864,22.083-30.051ZM520.138,322.006c2.236.731,3.775,1.068,4.616,1.013,1.34-.056,2.435-.374,3.285-.953,1.31-.887,2.983-2.718,5.018-5.492l10.126-13.856.788-20.319c.124-3.595-.101-5.933-.672-7.015-.572-1.082-1.882-2.087-3.931-3.015l.902-1.31,19.609,6.918-.981,1.282c-2.518-.682-3.969-1.018-4.354-1.008-.639-.02-1.237.179-1.796.599-.559.419-.967.994-1.225,1.725-.378,1.07-.644,3.03-.798,5.88l-.79,15.962,15.083-10.567c3.907-2.759,6.041-4.647,6.399-5.665.202-.573.09-1.149-.338-1.725-.428-.576-1.931-1.408-4.511-2.494l.902-1.31,16.674,5.883-.824,1.337c-1.692-.362-2.879-.532-3.561-.508-1.077.06-2.22.347-3.428.859-1.613.663-4.147,2.19-7.601,4.58l-19.319,13.342-8.54,11.731c-2.126,2.947-3.409,5.047-3.851,6.299-.285.809-.352,1.475-.199,1.998.152.524.561,1.049,1.226,1.577.881.663,2.335,1.367,4.361,2.111l-.902,1.31-22.349-7.885.981-1.282ZM456.232,292.199c.48-4.846,1.955-9.35,4.425-13.513,2.47-4.162,5.375-7.6,8.717-10.314,3.341-2.714,6.888-4.761,10.639-6.141,5.166-1.907,10.461-2.592,15.885-2.055,3.992.395,7.534,1.413,10.625,3.054,1.242.651,2.166,1.007,2.772,1.067.688.068,1.289-.032,1.802-.301.513-.269,1.215-.971,2.107-2.106l1.569.156-5.918,17.223-1.57-.155c.452-2.04.727-3.557.826-4.548.267-2.698-.688-5.205-2.863-7.52-2.176-2.314-5.356-3.679-9.542-4.094-8.563-.848-15.955,2.48-22.176,9.982-4.953,5.932-7.82,12.836-8.599,20.711-.518,5.232.37,9.879,2.664,13.944,2.294,4.064,6.223,6.372,11.785,6.923,1.377.136,2.69.141,3.94.015,1.25-.127,3.156-.494,5.719-1.102l5.517-14.009c.775-1.925,1.22-3.48,1.338-4.664.098-.991-.185-1.784-.849-2.378-1.078-.913-2.91-1.498-5.499-1.754l-1.156-.115.614-1.566,23.294,2.307-.573,1.57c-2.123-.182-3.689-.087-4.699.285-1.01.373-1.916,1.089-2.715,2.15-.542.697-1.513,2.784-2.914,6.259l-5.533,13.758c-3.934,1.251-7.083,2.03-9.449,2.338-2.366.308-4.83.335-7.39.081-5.893-.583-10.56-2.166-14.002-4.744-3.443-2.579-5.858-5.779-7.244-9.601-1.388-3.821-1.902-7.535-1.545-11.143ZM396.84,310.704c.727-1.147,1.571-3.541,2.532-7.184l9.288-34.116c.727-2.752,1.078-4.848,1.054-6.286-.018-1.051-.4-1.867-1.143-2.45-.744-.582-2.181-.855-4.311-.818l-.871.015.471-1.544,40.419-.7-3.25,13.63-1.535.027c.171-1.275.25-2.342.235-3.2-.026-1.466-.407-2.691-1.143-3.675-.963-1.256-2.349-2.201-4.159-2.834-1.337-.475-4.398-.671-9.184-.588l-7.138.124-6.047,22.354,5.27-.092c3.762-.065,6.477-.686,8.145-1.864,1.667-1.177,3.083-3.326,4.247-6.445l1.536-.027-5.414,20.517-1.66.029c.468-1.723.692-3.194.671-4.411-.021-1.189-.28-2.14-.776-2.851-.497-.711-1.17-1.231-2.02-1.563-.85-.331-2.631-.473-5.341-.426l-5.353.093-5.113,18.727c-.494,1.807-.734,3.181-.717,4.122.013.72.369,1.35,1.071,1.891.477.38,1.656.553,3.537.52l4.98-.086c5.395-.093,9.701-1.122,12.919-3.088,3.218-1.965,6.072-5.335,8.563-10.111l1.535-.026-5.041,15.736-43.489.754.513-1.544c2.157-.093,3.606-.312,4.347-.657,1.098-.517,1.889-1.167,2.374-1.951ZM342.213,313.967l1.078.039c2.157.078,3.828-.207,5.015-.857.818-.441,1.575-1.265,2.27-2.472.694-1.206,1.694-3.78,3-7.72l13.102-39.52-3.36-.122c-3.235-.117-5.857.203-7.863.961s-3.648,1.903-4.921,3.435c-1.275,1.532-2.351,3.736-3.23,6.611l-1.535-.056,4.482-14.789,42.721,1.548-5.145,14.765-1.576-.057c.604-2.165.938-4.105,1-5.82.073-2.018-.494-3.562-1.701-4.63-.913-.808-3.318-1.283-7.217-1.425l-4.438-.161-12.52,38.337c-1.587,4.816-2.401,7.79-2.441,8.924-.038,1.051.372,1.931,1.233,2.64.86.71,2.41,1.105,4.65,1.186l1.908.069-.553,1.516-24.471-.887.512-1.518ZM332.358,256.457l1.344.552-21.75,41.677c-1.036,1.938-1.685,3.227-1.948,3.866-.421,1.024-.549,1.883-.386,2.578.18.942.614,1.764,1.298,2.463.684.701,2.012,1.455,3.983,2.265l-1.006,1.247-20.499-8.425,1.006-1.247.883.363c1.663.684,3.167.883,4.511.598.942-.181,1.849-.75,2.721-1.708.607-.677,1.644-2.435,3.11-5.274l3.328-6.35-14.895-6.121-8.248,5.001c-1.866,1.118-3.096,1.966-3.693,2.543-.597.578-1.021,1.174-1.273,1.788-.337.819-.293,1.659.13,2.522.423.862,1.392,1.635,2.907,2.316l-1.006,1.247-15.394-6.326,1.006-1.247c1.926.702,3.855.754,5.791.159,1.935-.596,5.135-2.249,9.6-4.962l48.481-29.525ZM265.456,215.057l1.45-.71,12.755,13.185c4.271,4.415,6.514,8.404,6.729,11.97.215,3.565-1.04,6.665-3.764,9.3-2.606,2.521-5.954,3.825-10.045,3.913-4.091.089-8.109-1.328-12.052-4.25l-8.033,15.394c-1.981,3.763-2.946,6.546-2.898,8.347s1.042,3.823,2.982,6.066l-1.421.74-9.35-9.665,13.396-25.49c-1.482-1.492-2.834-3.188-4.055-5.086l-15.606,8.341c-2.034,1.082-3.597,2.152-4.691,3.21-.835.808-1.213,1.731-1.132,2.77.065.784.961,2.227,2.687,4.33l-1.363.799-15.151-15.661,1.421-.74c1.484,1.414,2.594,2.264,3.333,2.55,1.127.488,2.161.643,3.104.462,1.55-.268,3.844-1.198,6.885-2.792l31.269-16.565c2.092-1.1,3.586-2.083,4.481-2.949.915-.885,1.329-2.008,1.245-3.369-.085-1.362-.811-2.729-2.177-4.102ZM261.571,209.031l-15.029,4.311-.863-1.321c2.117-.755,3.895-1.601,5.331-2.539,1.691-1.104,2.625-2.457,2.801-4.06.134-1.211-.865-3.45-2.998-6.717l-2.428-3.718-38.54,11.879c-4.849,1.481-7.749,2.531-8.698,3.151-.881.575-1.363,1.418-1.446,2.53-.084,1.112.487,2.607,1.713,4.483l1.044,1.599-1.558.422-13.387-20.504,1.535-.457.59.904c1.18,1.807,2.377,3.008,3.591,3.603.832.415,1.942.558,3.329.429,1.386-.129,4.065-.796,8.037-2.001l39.843-12.085-1.838-2.815c-1.769-2.711-3.543-4.668-5.319-5.87-1.777-1.203-3.658-1.883-5.644-2.04-1.987-.158-4.408.234-7.264,1.173l-.84-1.286,14.667-4.867,23.371,35.795ZM176.021,145.877l.86,1.119c-1.719,1.078-3.105,2.021-4.158,2.831-3.005,2.311-4.713,5.151-5.123,8.52-.411,3.37.574,6.601,2.952,9.694,2.209,2.873,4.77,4.377,7.683,4.511,2.912.134,5.521-.685,7.824-2.456,1.492-1.147,2.589-2.533,3.296-4.157,1.027-2.431,2.113-7.646,3.257-15.646.523-3.858,1.086-6.508,1.689-7.948,1.001-2.375,2.477-4.313,4.429-5.814,3.115-2.395,6.673-3.282,10.677-2.66,4.003.621,7.404,2.753,10.205,6.394.944,1.228,1.717,2.484,2.32,3.766.391.781.905,2.358,1.543,4.73.473,1.66.739,2.573.797,2.738.17.358.398.723.685,1.096.489.636,1.076,1.058,1.759,1.265.683.208,1.798.205,3.345-.007l.962,1.25-17.437,7.963-.86-1.119c1.383-.925,2.481-1.698,3.293-2.322,2.654-2.041,4.15-4.588,4.49-7.642.339-3.054-.596-6.017-2.805-8.89-1.755-2.281-3.849-3.62-6.283-4.017-2.435-.397-4.529.08-6.284,1.429-1.535,1.181-2.65,2.762-3.342,4.743-.693,1.981-1.353,5.822-1.978,11.521-.626,5.699-1.451,9.711-2.474,12.034-1.024,2.323-2.534,4.252-4.529,5.786-2.259,1.738-4.907,2.822-7.942,3.255-3.037.432-5.996-.023-8.879-1.367-2.882-1.344-5.345-3.342-7.385-5.996-1.012-1.316-1.836-2.637-2.472-3.963-.635-1.327-1.444-3.602-2.423-6.828-.329-1.109-.713-1.948-1.151-2.518-.996-1.294-2.648-1.628-4.96-1.003l-.962-1.25,19.383-9.041Z"/>
  <path d="M1534.99,192.209c-1.157.856-3.066,1.787-5.729,2.793l-33.168,12.251c-3.523,1.333-5.962,2.036-7.319,2.11-.919.06-1.908-.207-2.966-.8-.711-.403-1.731-1.455-3.059-3.158l-1.556.479,25.87,34.967,15.738-5.036-.913-1.234c-5.334.745-9.735.378-13.203-1.099-3.469-1.479-6.808-4.386-10.017-8.723l-2.962-4.004c-1.119-1.513-1.663-2.573-1.63-3.182.033-.886.339-1.541.917-1.97.756-.558,2.014-1.162,3.773-1.81l18.215-6.712,3.184,4.304c1.613,2.18,2.53,3.712,2.755,4.596.223.885.191,1.735-.1,2.552-.291.817-.914,1.58-1.87,2.287-.979.724-2.306,1.396-3.981,2.016l.987,1.334,19.847-7.506-.913-1.235c-3.216.864-5.787.96-7.713.285-1.928-.674-4.01-2.523-6.247-5.548l-3.135-4.237,21.71-8.059,4.246,5.739c2.847,3.847,4.465,6.454,4.855,7.818.536,1.841.571,3.518.108,5.031-.373,1.171-1.149,2.193-2.328,3.065-.69.51-1.604,1.065-2.742,1.667l.913,1.234,12.984-5.269-24.043-32.498-1.53.513.518.7c1.267,1.713,1.879,3.041,1.837,3.984-.043.943-.486,1.728-1.331,2.353Z"/>
  <path d="M1557.771,259.69l-23.08,2.192c-5.434.523-9.407.585-11.919.188-1.697-.295-3.521-1.108-5.472-2.441l-1.332.89,14.398,11.961,1.301-.916c-1.352-1.448-2.107-2.379-2.262-2.797-.303-.935-.189-1.721.341-2.36.3-.362.727-.637,1.28-.826.913-.319,3.199-.668,6.858-1.046l18.666-1.813-6.011,13.405c-1.127,2.482-1.938,4.021-2.433,4.617-.566.681-1.313.996-2.241.944-1.261-.041-2.791-.754-4.589-2.141l-1.332.89,16.984,14.11,1.332-.89c-1.522-1.372-2.534-2.546-3.037-3.521-.503-.975-.754-1.983-.751-3.025.002-1.042.366-2.52,1.093-4.434,1.118-2.991,1.989-5.165,2.61-6.519l6.468-14.214,20.784-2.157c5.012-.62,8.682-.764,11.013-.429,2.329.335,4.65,1.211,6.962,2.628l1.332-.89-14.653-12.174-1.332.89c1.521,1.372,2.411,2.489,2.667,3.35.174.612.058,1.163-.348,1.653-.372.447-.978.807-1.816,1.082-2.362.808-5.998,1.438-10.907,1.892l-12.422,1.118,5.922-13.102c1.044-2.296,1.78-3.701,2.204-4.213.389-.467.87-.778,1.447-.929.575-.151,1.188-.11,1.838.124.65.235,1.688.944,3.115,2.129l1.365-.863-15.483-12.863-1.3.917c1.83,1.736,2.766,3.37,2.81,4.897.043,1.529-1.005,4.641-3.145,9.339l-6.923,15.346Z"/>
  <path d="M1613.736,265.189c.371.868.313,1.768-.177,2.697-.67,1.273-1.987,2.941-3.949,5.004l-24.56,25.436c-2.595,2.73-4.487,4.422-5.677,5.078-.801.454-1.808.642-3.019.567-.816-.054-2.191-.56-4.127-1.516l-1.193,1.107,38.485,20.269,11.992-11.369-1.359-.716c-4.481,2.987-8.605,4.568-12.371,4.742-3.766.174-8.036-.995-12.81-3.51l-4.407-2.321c-1.665-.877-2.615-1.596-2.85-2.158-.355-.812-.364-1.536-.029-2.173.438-.832,1.308-1.921,2.613-3.268l13.494-13.955,4.737,2.495c2.399,1.263,3.891,2.245,4.477,2.944.585.7.925,1.481,1.018,2.342.093.863-.138,1.82-.692,2.872-.568,1.078-1.471,2.26-2.71,3.545l1.468.774,14.62-15.379-1.358-.715c-2.522,2.174-4.797,3.377-6.825,3.606-2.029.23-4.708-.533-8.037-2.286l-4.664-2.456,16.058-16.685,6.316,3.326c4.236,2.231,6.825,3.875,7.768,4.935,1.282,1.425,2.042,2.921,2.282,4.485.173,1.216-.083,2.474-.766,3.771-.4.759-.983,1.656-1.747,2.692l1.359.716,9.409-10.384-35.768-18.837-1.156,1.126.771.406c1.885.993,3.013,1.923,3.385,2.791Z"/>
  <path d="M1642.937,326.052c.845,3.858,2.713,7.19,5.605,9.997,2.891,2.807,6.549,4.83,10.971,6.069,4.982,1.396,9.567,1.495,13.753.297,4.186-1.199,8.397-3.718,12.634-7.56l-1.878-.527c-3.441,2.743-6.838,4.536-10.191,5.377-3.354.843-6.883.744-10.585-.292-4.903-1.374-8.448-4.055-10.634-8.044-2.188-3.989-2.546-8.607-1.076-13.857,1.44-5.141,3.927-9.918,7.463-14.331,4.286-5.35,9.173-9.053,14.663-11.107,4.301-1.611,8.836-1.748,13.607-.413,1.784.5,3.337,1.215,4.657,2.145s2.331,1.989,3.032,3.177,1.117,2.476,1.246,3.861c.129,1.388.036,2.898-.279,4.534l-1.072,4.441,1.439.404,8.951-16.414-1.478-.414c-1.47.939-2.482,1.475-3.036,1.607-.554.132-1.151.108-1.79-.071-.639-.178-1.605-.736-2.893-1.672-2.926-2.17-5.709-3.625-8.346-4.363-5.622-1.575-11.645-1.538-18.069.11-6.424,1.648-12.005,4.826-16.744,9.533-4.738,4.707-7.935,10.017-9.592,15.933-1.083,3.864-1.201,7.724-.356,11.581Z"/>
  <path d="M1718.283,358.588c4.588,1.711,8.812,2.126,12.668,1.246,3.856-.88,7.165-2.525,9.925-4.937,2.759-2.411,6.243-6.449,10.452-12.115l13.01-17.429c1.848-2.501,3.277-4.116,4.288-4.847,1.01-.731,2.02-1.121,3.029-1.174,1.008-.052,2.498.289,4.468,1.024l.964-1.28-16.761-6.249-.965,1.279c2.363,1.029,3.825,1.995,4.39,2.899.563.905.686,1.784.366,2.64-.454,1.219-2.014,3.62-4.679,7.203l-10.67,14.359c-2.048,2.721-4.227,5.356-6.535,7.906-2.309,2.55-4.509,4.432-6.601,5.646-2.091,1.213-4.329,1.929-6.714,2.147-2.385.219-4.86-.151-7.427-1.108-3.915-1.46-6.636-3.706-8.161-6.741-1.527-3.035-1.705-6.121-.535-9.258.531-1.425,1.263-2.911,2.192-4.454.568-.969,1.95-2.934,4.148-5.895l12.365-16.651c1.718-2.312,3.1-3.82,4.145-4.524,1.044-.703,2.123-1.061,3.235-1.075,1.113-.013,2.819.38,5.12,1.179l.965-1.279-22.283-8.309-.926,1.294c2.923,1.267,4.655,2.305,5.196,3.111.54.807.632,1.691.275,2.65-.454,1.219-1.529,2.989-3.221,5.311l-11.895,15.985c-1.847,2.5-3.088,4.282-3.72,5.345-.933,1.631-1.685,3.212-2.255,4.74-1.441,3.864-1.098,7.896,1.026,12.099,2.124,4.203,5.83,7.29,11.12,9.262Z"/>
  <path d="M1790.557,335.846c1.869-.687,3.863-.857,5.98-.507,2.116.35,4.545,1.387,7.286,3.109l2.846,1.789-31.141,27.634c-3.104,2.755-5.259,4.482-6.464,5.177-1.206.697-2.274,1.031-3.203,1.002-1.352-.032-2.941-.623-4.769-1.772l-.913-.574-1.204,1.057,20.733,13.03,1.239-1.035-1.616-1.016c-1.897-1.192-3.042-2.311-3.43-3.357-.39-1.045-.304-2.012.256-2.903.603-.96,2.798-3.126,6.584-6.499l30.044-26.903,3.76,2.363c3.304,2.075,5.147,3.692,5.531,4.848.51,1.529.226,3.149-.848,4.859-.913,1.453-2.173,2.965-3.781,4.536l1.336.839,11.85-10.2-36.194-22.746-11.289,10.553,1.3.816c2.202-2.048,4.238-3.415,6.108-4.103Z"/>
  <path d="M1846.027,377.533c-1.073.959-2.938,2.07-5.595,3.332l-31.838,15.328c-3.141,1.51-5.5,2.357-7.079,2.544-1.006.12-2.09-.117-3.252-.711-.745-.336-1.913-1.351-3.503-3.048l-1.532.591,15.437,17.264,1.449-.683c-1.48-1.906-2.378-3.229-2.688-3.972-.311-.742-.402-1.404-.271-1.984.13-.58.453-1.101.969-1.562.639-.572,2.419-1.57,5.341-2.994l31.809-15.359c3.302-1.579,5.551-2.468,6.748-2.665,1.196-.197,2.416-.017,3.659.543.881.362,1.901,1.214,3.061,2.552l1.45-.684-14.496-16.212-1.477.652c1.42,1.588,2.276,2.743,2.57,3.465.292.722.373,1.383.241,1.983-.132.599-.465,1.14-1.001,1.619Z"/>
  <path d="M1847.863,410.783c-5.577,1.286-10.401,3.591-14.473,6.915-2.294,1.873-4.22,4.347-5.78,7.424-1.56,3.077-2.162,6.354-1.805,9.832.357,3.477,1.909,6.898,4.656,10.263,3.815,4.672,8.858,8.092,15.128,10.259,6.271,2.167,13.079,2.511,20.427,1.031,7.346-1.48,13.356-4.127,18.028-7.942,2.636-2.153,4.665-4.862,6.087-8.131,1.421-3.268,1.849-6.529,1.283-9.781-.566-3.253-2.031-6.326-4.393-9.22-2.835-3.472-6.23-6.165-10.186-8.079-3.957-1.914-8.38-3.142-13.271-3.685-4.891-.544-10.124-.172-15.702,1.112ZM1867.166,415.196c4.056.045,7.45.659,10.183,1.839,2.732,1.181,4.973,2.843,6.723,4.986,2.572,3.151,3.377,6.423,2.415,9.816-.963,3.393-2.901,6.28-5.815,8.66-3.944,3.221-8.902,5.821-14.873,7.804-5.973,1.982-11.468,2.897-16.486,2.744-3.999-.129-7.246-.737-9.742-1.825-2.496-1.088-4.54-2.607-6.132-4.557-2.643-3.237-3.43-6.595-2.36-10.076,1.069-3.481,3.126-6.464,6.17-8.948,4.265-3.482,9.602-6.197,16.014-8.146,5.213-1.577,9.848-2.343,13.904-2.297Z"/>
  <path d="M1914.021,464.352l-39.227,10.848c-3.495.965-5.972,1.422-7.428,1.371-.974-.055-1.968-.437-2.983-1.146-.673-.465-1.609-1.628-2.809-3.489l-1.614.304,9.207,15.095,1.527-.446c-1.161-2.274-1.687-3.841-1.579-4.701.107-.859.61-1.562,1.508-2.111,1.205-.735,3.135-1.474,5.792-2.22l35.15-9.723-30.789,40.705.777,1.275,46.509-12.859c3.239-.906,5.643-1.32,7.215-1.242,1.111.068,2.253.505,3.426,1.313.829.563,1.722,1.656,2.679,3.277l1.57-.375-9.422-15.448-1.549.41c.164.322.333.624.506.908,1.023,1.676,1.473,2.974,1.352,3.89-.121.917-.619,1.643-1.493,2.174-1.276.779-3.273,1.543-5.991,2.293l-33.039,9.117,28.61-37.82-7.327-12.012-1.548.409c1.283,2.264,1.98,4.083,2.09,5.459.109,1.374-.263,2.955-1.119,4.741Z"/>
  <path d="M162.559,157.171c.439.57.822,1.41,1.151,2.518.979,3.226,1.788,5.501,2.423,6.828.636,1.325,1.46,2.647,2.472,3.963,2.041,2.654,4.503,4.653,7.385,5.996,2.883,1.343,5.842,1.799,8.879,1.367,3.035-.432,5.683-1.517,7.942-3.255,1.996-1.534,3.506-3.463,4.529-5.786,1.023-2.323,1.848-6.334,2.474-12.034.626-5.7,1.285-9.54,1.978-11.521.693-1.981,1.807-3.562,3.342-4.743,1.755-1.349,3.849-1.825,6.284-1.429,2.434.397,4.528,1.736,6.283,4.017,2.209,2.873,3.144,5.837,2.805,8.89-.34,3.054-1.837,5.601-4.49,7.642-.812.624-1.909,1.398-3.293,2.322l.86,1.119,17.437-7.963-.962-1.25c-1.547.212-2.662.214-3.345.007-.683-.207-1.27-.629-1.759-1.265-.287-.373-.515-.738-.685-1.096-.058-.165-.324-1.078-.797-2.738-.638-2.372-1.152-3.949-1.543-4.73-.603-1.283-1.375-2.538-2.32-3.766-2.8-3.641-6.202-5.772-10.205-6.394-4.004-.622-7.563.266-10.677,2.66-1.952,1.502-3.428,3.439-4.429,5.814-.603,1.441-1.166,4.091-1.689,7.948-1.144,8-2.23,13.215-3.257,15.646-.706,1.624-1.804,3.01-3.296,4.157-2.303,1.771-4.911,2.59-7.824,2.456-2.913-.134-5.474-1.637-7.683-4.511-2.378-3.093-3.362-6.324-2.952-9.694.41-3.37,2.118-6.21,5.123-8.52,1.053-.81,2.438-1.753,4.158-2.831l-.86-1.119-19.383,9.041.962,1.25c2.311-.625,3.964-.291,4.96,1.003Z"/>
  <path d="M224.373,179.389c2.856-.94,5.277-1.331,7.264-1.173,1.986.157,3.867.837,5.644,2.04,1.776,1.202,3.55,3.159,5.319,5.87l1.838,2.815-39.843,12.085c-3.971,1.205-6.651,1.872-8.037,2.001-1.387.128-2.496-.015-3.329-.429-1.215-.595-2.412-1.796-3.591-3.603l-.59-.904-1.535.457,13.387,20.504,1.558-.422-1.044-1.599c-1.225-1.877-1.797-3.371-1.713-4.483.083-1.112.565-1.955,1.446-2.53.95-.62,3.849-1.67,8.698-3.151l38.54-11.879,2.428,3.718c2.133,3.267,3.132,5.505,2.998,6.717-.176,1.602-1.111,2.956-2.801,4.06-1.437.938-3.214,1.784-5.331,2.539l.863,1.321,15.029-4.311-23.371-35.795-14.667,4.867.84,1.286Z"/>
  <path d="M261.908,225.477l-31.269,16.565c-3.041,1.593-5.336,2.524-6.885,2.792-.943.18-1.977.026-3.104-.462-.739-.287-1.85-1.136-3.333-2.55l-1.421.74,15.151,15.661,1.363-.799c-1.727-2.103-2.622-3.547-2.687-4.33-.081-1.039.297-1.961,1.132-2.77,1.094-1.058,2.657-2.128,4.691-3.21l15.606-8.341c1.221,1.898,2.572,3.594,4.055,5.086l-13.396,25.49,9.35,9.665,1.421-.74c-1.939-2.244-2.933-4.265-2.982-6.066s.917-4.583,2.898-8.347l8.033-15.394c3.943,2.922,7.961,4.34,12.052,4.25,4.091-.088,7.439-1.393,10.045-3.913,2.724-2.635,3.979-5.736,3.764-9.3-.215-3.566-2.458-7.555-6.729-11.97l-12.755-13.185-1.45.71c1.366,1.373,2.092,2.74,2.177,4.102.085,1.361-.33,2.484-1.245,3.369-.895.866-2.389,1.849-4.481,2.949ZM274.216,226.678c1.005.721,1.816,1.4,2.432,2.036,2.404,2.486,3.622,4.918,3.651,7.296.029,2.378-1.06,4.635-3.267,6.77-2.824,2.732-6.148,4.022-9.97,3.871-3.824-.152-7.39-1.938-10.698-5.358-.963-.995-1.969-2.215-3.021-3.66l20.874-10.955Z"/>
  <path d="M274.277,290.943c-1.935.595-3.865.543-5.791-.159l-1.006,1.247,15.394,6.326,1.006-1.247c-1.515-.682-2.484-1.454-2.907-2.316-.424-.862-.467-1.702-.13-2.522.253-.614.677-1.209,1.273-1.788.596-.577,1.827-1.425,3.693-2.543l8.248-5.001,14.895,6.121-3.328,6.35c-1.466,2.838-2.503,4.596-3.11,5.274-.872.958-1.78,1.527-2.721,1.708-1.344.286-2.848.086-4.511-.598l-.883-.363-1.006,1.247,20.499,8.425,1.006-1.247c-1.971-.81-3.299-1.564-3.983-2.265-.685-.7-1.118-1.521-1.298-2.463-.163-.695-.034-1.554.386-2.578.263-.639.912-1.928,1.948-3.866l21.75-41.677-1.344-.552-48.481,29.525c-4.466,2.713-7.666,4.366-9.6,4.962ZM320.847,266.669l-10.437,19.717-13.09-5.38,23.527-14.337Z"/>
  <path d="M366.726,314.855l-1.908-.069c-2.24-.081-3.79-.476-4.65-1.186-.861-.71-1.271-1.589-1.233-2.64.041-1.134.855-4.108,2.441-8.924l12.52-38.337,4.438.161c3.899.141,6.304.616,7.217,1.425,1.207,1.068,1.774,2.612,1.701,4.63-.062,1.715-.396,3.655-1,5.82l1.576.057,5.145-14.765-42.721-1.548-4.482,14.789,1.535.056c.879-2.875,1.955-5.079,3.23-6.611,1.273-1.532,2.914-2.677,4.921-3.435s4.629-1.078,7.863-.961l3.36.122-13.102,39.52c-1.305,3.939-2.306,6.513-3,7.72-.695,1.207-1.452,2.031-2.27,2.472-1.187.649-2.858.934-5.015.857l-1.078-.039-.512,1.518,24.471.887.553-1.516Z"/>
  <path d="M389.606,314.856l43.489-.754,5.041-15.736-1.535.026c-2.491,4.776-5.345,8.146-8.563,10.111-3.218,1.965-7.524,2.995-12.919,3.088l-4.98.086c-1.881.033-3.061-.14-3.537-.52-.701-.541-1.058-1.171-1.071-1.891-.016-.94.223-2.314.717-4.122l5.113-18.727,5.353-.093c2.711-.047,4.491.095,5.341.426.849.332,1.523.852,2.02,1.563.496.711.755,1.661.776,2.851.021,1.218-.202,2.688-.671,4.411l1.66-.029,5.414-20.517-1.536.027c-1.164,3.12-2.58,5.269-4.247,6.445-1.668,1.177-4.383,1.799-8.145,1.864l-5.27.092,6.047-22.354,7.138-.124c4.786-.083,7.847.113,9.184.588,1.809.633,3.196,1.578,4.159,2.834.736.983,1.117,2.209,1.143,3.675.015.858-.064,1.925-.235,3.2l1.535-.027,3.25-13.63-40.419.7-.471,1.544.871-.015c2.13-.037,3.567.236,4.311.818.743.583,1.124,1.399,1.143,2.45.025,1.439-.327,3.534-1.054,6.286l-9.288,34.116c-.961,3.642-1.805,6.037-2.532,7.184-.484.784-1.276,1.433-2.374,1.951-.741.345-2.19.564-4.347.657l-.513,1.544Z"/>
  <path d="M465.021,312.943c3.442,2.578,8.109,4.161,14.002,4.744,2.56.254,5.024.227,7.39-.081,2.366-.308,5.515-1.087,9.449-2.338l5.533-13.758c1.401-3.475,2.371-5.562,2.914-6.259.799-1.06,1.705-1.777,2.715-2.15,1.01-.373,2.576-.467,4.699-.285l.573-1.57-23.294-2.307-.614,1.566,1.156.115c2.588.256,4.421.841,5.499,1.754.664.594.947,1.387.849,2.378-.117,1.184-.563,2.739-1.338,4.664l-5.517,14.009c-2.562.608-4.469.975-5.719,1.102-1.25.126-2.563.122-3.94-.015-5.562-.551-9.491-2.859-11.785-6.923-2.295-4.065-3.182-8.712-2.664-13.944.78-7.875,3.646-14.778,8.599-20.711,6.221-7.503,13.612-10.83,22.176-9.982,4.185.415,7.365,1.78,9.542,4.094,2.175,2.315,3.13,4.822,2.863,7.52-.098.991-.373,2.507-.826,4.548l1.57.155,5.918-17.223-1.569-.156c-.891,1.135-1.594,1.838-2.107,2.106-.513.269-1.114.369-1.802.301-.606-.06-1.53-.415-2.772-1.067-3.091-1.641-6.633-2.659-10.625-3.054-5.425-.537-10.719.148-15.885,2.055-3.751,1.38-7.298,3.427-10.639,6.141-3.341,2.714-6.247,6.152-8.717,10.314-2.47,4.163-3.945,8.667-4.425,13.513-.357,3.607.157,7.321,1.545,11.143,1.387,3.822,3.801,7.022,7.244,9.601Z"/>
  <path d="M542.408,329.863c-2.026-.744-3.48-1.448-4.361-2.111-.665-.528-1.074-1.053-1.226-1.577-.153-.523-.087-1.189.199-1.998.442-1.253,1.725-3.352,3.851-6.299l8.54-11.731,19.319-13.342c3.454-2.39,5.988-3.917,7.601-4.58,1.208-.513,2.351-.799,3.428-.859.682-.023,1.87.147,3.561.508l.824-1.337-16.674-5.883-.902,1.31c2.58,1.086,4.084,1.918,4.511,2.494.427.576.54,1.152.338,1.725-.359,1.018-2.492,2.905-6.399,5.665l-15.083,10.567.79-15.962c.154-2.85.42-4.81.798-5.88.258-.731.666-1.306,1.225-1.725.558-.419,1.157-.618,1.796-.599.385-.011,1.836.325,4.354,1.008l.981-1.282-19.609-6.918-.902,1.31c2.049.929,3.359,1.933,3.931,3.015.571,1.082.796,3.42.672,7.015l-.788,20.319-10.126,13.856c-2.035,2.774-3.708,4.605-5.018,5.492-.85.58-1.945.898-3.285.953-.841.055-2.38-.282-4.616-1.013l-.981,1.282,22.349,7.885.902-1.31Z"/>
</svg>