<?xml version="1.0" encoding="UTF-8"?>
<svg id="Layer_2" xmlns="http://www.w3.org/2000/svg" viewBox="0 0 2355.72 2845.71">
  <defs>
    <style>
      .cls-1 {
        fill: #2a4e67;
      }

      .cls-2 {
        fill: #2a5c70;
      }

      .cls-3 {
        fill: #a0c7d2;
      }

      .cls-4 {
        fill: #bfdce2;
      }

      .cls-5 {
        fill: #6daabd;
      }

      .cls-6 {
        fill: #d7d9c4;
      }

      .cls-7 {
        fill: #447f95;
      }
    </style>
  </defs>
  <g id="Layer_1-2" data-name="Layer_1">
    <g>
      <g>
        <path id="sea-8" d="M2353.98,2839.4H3.94C6.34,1897.25,8.73,955.11,11.13,12.97l2342.85-2.82v2829.25Z"/>
        <path id="sea-6" class="cls-1" d="M1490.46,2839.4c-2.26-18.23-108.12-553.76-123.71-579.56-8.99-14.88-16.89-24.22-22.48-29.2-40.35-35.95-57.62-113.48-62.65-199.21-1.46-24.85-4.52-48.16-11.81-68.89-3.5-9.95-5.97-13.59-11.23-24.07-23.46-46.71-20.35-63.79-36.28-86.73-1.25-1.79-25.58-36.04-40.56-19.35-3.6,4.01-5.7,9.9-9.72,26.91-9.82,41.6-10.54,59.19-16.1,91.57-8.28,48.25-23.57,84.69-47.65,107.14-14.46,13.48-27.85,26.57-34.7,60.35-4.48,22.09-19.34,27.49-32.88,27.84-18.35.48-20.44,7.3-17.95,41.64,1.9,26.2-8.13,49.6-28.57,96.44-4.55,10.42-118.36,541.06-127.91,557.63-323.11,0-539.19-2.54-862.3-2.54C6.34,2275.63,8.73,568.84,11.13,5.07c350.17,0,700.33,2.54,1050.5,2.54,38.98,123.17,44.98,222.99,43.14,291.81-4.26,158.75-51.64,202.48-20.3,294.34,0,0,38.41,112.58,37.95,202.84,0,0,0,.33,0,.77,0,1.1,0,3.15.08,5.75.31,11.63,2.04,35.33,11.73,62.37,1.36,3.79,2.91,7.45,2.91,7.45,3.84,9.08,7.58,15.33,8.33,16.61,9.83,16.93,12.46,55.32,36.28,86.73,3.47,4.58,21.37,27.44,34.42,23.43,2.64-.81,4.5-2.55,6.14-4.08,7.65-7.14,8.35-17.09,9.72-26.91,1.48-10.64,5.08-20.91,6.67-31.53,3.67-24.54,7.22-48.28,9.43-60.04,4.55-24.26,14.45-77.04,47.65-107.14,5.94-5.38,13.93-11.23,20.6-23.17,4.12-7.38,4.16-10.7,14.1-37.18,3.97-10.59,6.34-15.82,9.03-18.85,11.6-13.03,31.86-12.26,36.98-12.4,34.24-.92,77.89-60.85,101.29-107.49,53.02-105.67,31.11-200.93,55.82-334.94,10.21-55.38,31.48-134.18,81.2-225.83,123.49-.85,246.98-1,370.47-2.54,104.35-1.3,208.7-2.59,370.47-2.54-.58,562.5-1.16,2271.82-1.74,2834.32-321.25,1.24-806.26.36-863.53,0Z"/>
        <path id="sea-5" class="cls-2" d="M2353.19,5.07c-.85,945.62-1.69,1891.24-2.54,2836.86h-756.16c10.27-185.76-8.87-286.59-30.45-345.09-14.47-39.23-37.39-79.41-40.6-142.1-.47-9.13-2.18-51.22-13.59-100.42-4-17.27-6.97-30.94-15.37-44.62-41.15-67.08-52.62-61.21-60.03-88.56-3.52-12.98-3.62-36.91-3.82-84.77-.05-11.8-.07-17.71.13-22.59,2.8-66.36,37.88-118.56,39.88-166.34.35-8.44-.13-21.37-8.28-32.24-4.61-6.15-9.88-9.25-13.64-11.48-51.35-30.34-47.56-30-57.66-33.9-20.7-7.99-19.46-2.8-51.58-11.71-24.95-6.92-43.25-14.91-59.86-22.17-33.89-14.81-50.84-22.21-57.34-27.99-7.12-6.33-21.77-21.24-39.83-19.43,0,0-.39.04-.72.08-24.14,3.06-38.99,94-80.61,163.33-24.66,41.07-43.67,72.74-80.28,85.33-45.94,15.79-105.31,34.18-105.31,34.18-2.87.89-8.41,2.6-13.06,7.55-9.19,9.77-5.44,22.08-8.99,38.34-1.41,6.46-5.33,24.41-17.71,33.67-20.45,15.28-64.01,6.89-85.32,2.78-3.17-.61-9.95-2-16.27,1.38-10.66,5.7-12.69,21.03-13.53,27.16-10.13,73.81-23.04,67.52-23.95,129.87-.47,32.07,2.74,48.59-10.01,63.88-8.96,10.74-21.27,15.46-30.45,17.76,1.49,4.23,5.66,17.78,0,32.99-8.78,23.57-33.3,29.91-35.52,30.45,1.65,3.46,9.27,20.38,2.54,40.6-6.5,19.54-21.87,28.51-25.37,30.45,4.4,10.42,9.64,26.25,10.15,45.67,1.1,41.82-20.43,73.35-25.37,81.2-20.72,32.93-37.54,107.18-25.37,284.19-98.89.85-197.78,1.17-296.67,2.54-91.91,1.27-183.82,2.54-296.67,2.54,1.8-287.45,2.68-1093.71,2.64-1381.17-.04-275.72-.92-1174.9-2.64-1450.61,34.13-.17,245.39-1.2,490.78-2.54,222.55-1.21,417.04-2.37,445.11-2.54,52.3,182.56,38.72,296.58,15.22,367.93-14.74,44.76-44.86,107.55-22.84,177.62,8.85,28.14,24.77,53.23,37.35,110.79,9.14,41.8,7.91,64.32,3.82,84.77-5.83,29.1-18.02,37.52-29.75,62.09-12.21,25.57-22.47,65.55-10.26,126.84.14,29.7,11.29,36.91,21.92,43.71,19.08,12.2,38.1,25.47,57.66,33.9,16.82,7.24,34.31,10.17,51.58,11.71,25.26,2.24,44.29,15.31,59.86,22.17,12.01,5.29,27.12,12.85,57.34,27.99,38.6,19.33,38.34,19.76,40.56,19.34,32.15-5.96,35.53-85.94,80.61-163.33,13.54-23.24,40.03-73.37,80.28-85.33,35.18-10.45,70.21-22.67,105.31-34.18,13.41-4.4,23.8-13.19,22.04-45.88-1.25-23.25,8.49-32.63,17.71-33.67,28.42-3.18,57.13-7.63,85.32-2.78,15.55,2.68,24.62-1.46,29.8-28.55,2.59-13.57,5.76-19.91,6.66-25.35,17.76-106.99,20.58-157.23,20.58-157.23,3.12-53.5,8.11-139.27,50.75-220.76,29.29-55.98,47.92-55.62,83.74-116.72,39.16-66.81,54.27-131,60.9-175.08l487.19-2.54Z"/>
        <path id="sea-4" class="cls-7" d="M1675.69,2841.93c30.75-95.64,33.85-172.21,30.45-225.83-4.25-67.03-18.91-102.6-12.69-185.23,5.72-75.91,20.27-74.83,15.22-121.8-8.4-78.18-50.64-98.94-48.21-172.55.65-19.57,3.28-7.57,21.31-85.49,19.09-82.53,19.79-127.84,24.42-180.45,1.87-21.24-5.48-45.79-9.21-68.46-2.78-16.89-8.91-32.94-9.39-49.8-1.51-53.15-12.31-81.96-40.22-86.91-20.29-3.6-41.29-2.05-61.47,3.76-27.43,7.9-54.12,28.27-81.57,32.31-10.18,1.5-141.86,62.25-218.36-52.85-14.79-22.25-33.34-59.74-63.69-64.43-18.92-2.93-33.77,8.24-42.54,15.05-26.68,20.72-47.19,64.09-87.13,149.97-12.52,26.93-20.02,36.23-30.03,56.5-14.13,28.6-31.63,39.18-51.68,42.42-37.16,6-74.4,23.48-111.21,20.1-39.22-3.61-73.76,16.75-109.45,39.85-29.17,18.88-59.43,31.64-89.29,46.47-17.87,8.87-50.58,80.36-53.61,118.61-.71,8.9-.9,18.05-2.07,26.71-8.98,66.35-46.16,133.52-81.38,133.66-8.44.03-12.28-3.79-17.36-.61-15.29,9.57,7.1,51.93-10.15,71.05-5.25,5.82-16.34,11.9-43.14,7.61,5.69,10.92,11.83,26.98,10.15,45.67-2.15,23.86-15.55,35.49-25.37,53.29-19.85,35.95-3.32,57.61-7.61,114.18-4.36,57.57-22.33,46.39-35.52,121.8-9.07,51.83-8.23,100.8-7.61,137.02.4,23.21,1.55,42.47,2.54,55.82-64.62,1.69-129.26,2.95-193.9,3.81-77.31,1.02-154.63,1.44-231.96,1.27C3.94,2268.47-9.66,573.28,13.67,12.69c120.53.13,241.06-.29,361.59-1.27,104.45-.85,208.91-2.12,313.37-3.81,10.27,32.51,21.9,72.71,32.99,119.26,5.81,24.4,17.52,75.96,27.91,144.63,12.67,83.76,19.01,125.64,15.22,172.55-5,61.91-17.87,61.59-25.37,126.87-11.48,99.79,18.42,102.09,7.61,182.7-12,89.53-55.66,137.31-49.16,203.83.3,3.04,3.14,31.22,9.21,68.46,3.68,22.59,5.61,34.45,9.39,49.8,11.73,47.7,18.6,75.64,40.22,86.91,15.08,7.86,30.75,4.09,61.47-3.76,41.99-10.74,61.26-24.31,81.57-32.31,65.84-25.95,168.11-3.43,218.36,52.85,25.14,28.16,34.03,61.13,63.69,64.43,17.34,1.93,31.42-7.43,42.54-15.05,35.56-24.36,53.24-66.56,87.13-149.97,2.51-6.17,11.68-22.94,30.03-56.5,6.81-12.45,14.72-26.51,30.68-35.36,9.17-5.09,17.39-6.45,21.01-7.06,37.15-6.21,74.08-13.74,111.21-20.1,28.17-4.82,55.26-16.5,109.45-39.85,50.11-21.6,75.17-32.4,89.29-46.47,43.41-43.27,51.89-105.86,53.61-118.61.67-4.97.95-8.7,1.05-9.91,4.85-57.96,14-167.18,29.6-224.76,18.09-66.75,52.75-93.18,91.35-147.17,48.99-68.52,103.64-180.44,114.18-365.39,70.2,0,140.4,0,210.61,0,47.37,0,94.73,0,142.1,0,.85,943.93,1.69,1887.86,2.54,2831.78-224.14.85-448.28,1.69-672.42,2.54Z"/>
        <path id="sea-3" class="cls-5" d="M2353.98,0c0,279.87-.8,2456.46-.8,2839.4-177.89,0-385.43,2.54-563.31,2.54,6.42-87.77,3.75-158.83,0-208.07-9.82-129.08-30.33-152.4-7.61-205.53,11.45-26.79,43.58-83.81,32.17-125.63-.66-2.42-3.95-14.65-9.07-29.77-6.76-19.97-12.31-31.85-18.62-51.8-10.19-32.2-12.44-58.55-14.18-78.91-1.46-17.1-1.05-33.04-.22-64.92,1.05-40.4,3.61-57.11,15.12-63.98,5.41-3.23,6.93-.78,14.92-4.17,22.61-9.6,30.09-37.54,30.71-39.99,2.06-8.13,2.27-16.08-7.08-52.26-13.08-50.59-18.86-55.82-18.75-77.05.04-8.78,3.16-22.07,9.38-48.65,10.52-44.92,17.68-58.05,10.79-74.13-5.21-12.16-15.15-18.31-27.09-25.48-74.11-44.5-111.33-66.8-119.76-69.44-32.92-10.29-65.81-20.57-106.59-13.15-21.76,3.96-46.27,13.06-125.28,38.67-6.47,2.1-20.22,6.39-37.25,3.7-5.08-.8-16.08-3.11-30.38-12.19-22.99-14.6-23-26.68-48.21-53.51-5.01-5.34-21.44-22.34-46.47-38.64-22.07-14.37-38.65-20.26-43.77-22-17.54-5.95-32.48-10.8-50.06-5.95-12.08,3.33-20.09,9.78-24.1,13.08-18.19,14.94-24.83,34.8-27.19,41.62-9.73,28.06-26.24,58.8-59.26,120.27-32.7,60.87-50.47,74.14-57.68,79.07-20.02,13.71-38.78,18.13-65.14,24.09-63.49,14.34-69.24-.12-111.02,10.52-61.4,15.64-90.52,57.44-139.3,74.08-15.41,5.26-23.51,8.62-39.71,15.35-18.51,7.69-22.52,10.12-25.23,11.96-17,11.59-24.5,28.47-28.49,37.78-31.9,74.34-34.64,103.01-61.4,134.07-23.75,27.56-52.4,40.73-61.65,34.13-3.06-2.18-5.86-7.86-13.96-11.08-2.98-1.19-8.37-3.33-12.74-1.45-5.84,2.51-8.06,11.43-9.07,35.6-1.11,26.71,1.18,26-.12,38.2-.77,7.28-5.68,46.07-29.7,56.67-7.43,3.28-8.75.36-16.26,4.09-11.62,5.78-13.64,15.35-26.21,37.62-11.1,19.68-16.88,29.65-27.62,35.96-9.89,5.81-20.22,6.67-27.25,6.52-8.81,16.74-19.58,39.69-29.08,67.99-7.88,23.47-12.97,44.88-17.76,71.05-11.39,62.13-7.69,77.61-15.22,131.95-9.84,70.95-20.44,75.61-27.91,137.02-5.96,49.01-4.46,89.26-2.54,114.18-28.99,2.27-59.04,4-90.08,5.07-50.23,1.74-98.11,1.56-143.37,0C15.36,2245.1-.71,609.52,11.13,10.15c104.44-.36,208.9-.79,313.37-1.27,79.44-.37,170.5-.83,249.94-1.27,89.15,260.13,84.56,388,60.9,456.74-8.78,25.5-26.84,62.18-25.37,116.72,1.2,44.84,15.15,84.98,21.71,169.66,1.05,13.52,2.87,52.24-15.12,63.98-4.09,2.67-9.05,4.06-14.92,4.17-15.83.29-25.21,19.67-30.71,39.99-3.23,11.94,3.32,35.35,7.08,52.26,5.82,26.14,15.25,50.07,18.75,77.05,1.83,14.09-3.68,36.11-9.38,48.65-23.76,52.29-19.99,80.58,16.3,99.61,40.27,21.12,80.11,43.86,119.76,69.44,32.74,21.12,71.18,18.32,106.59,13.15,42.03-6.14,83.26-33.03,125.28-38.67,49.15-6.6,95.11,7.55,134.99,52,22.45,25.01,25.18,62.62,53.73,87.82,9.03,7.97,32.49,27.95,60.28,16.97,8.48-3.35,18.01-13.33,37.08-33.29,30.97-32.42,46.72-49.3,59.33-82.04,7.9-20.5,12.05-40.12,14.22-52.32,1.07-8.93,3.07-21.7,7.05-35.5,3.4-11.77,15.64-49.91,57.68-79.07,26.06-18.07,47.53-21.48,65.14-24.09,36.97-5.48,74.95,2.47,111.02-10.52,47.18-17,92.85-49.31,139.31-74.08,12.98-6.92,26.37-11.42,39.71-15.35,20.65-6.07,39.43-17.66,53.72-49.74,20.14-45.23,41.19-88.95,61.4-134.07,12.9-28.8,42.15-46.12,61.65-34.13,4.78,2.94,9.12,8.88,13.96,11.08,5.33,2.43,9.52,3,12.74,1.45,10.23-4.9,9.28-30.74,9.07-35.6-2.47-56.57,7.74-113.08,7.42-169.7-.42-74.29,43.64-110.45,91.35-192.85,38.52-66.53,83.14-169.65,98.96-322.25"/>
        <g id="sea-2">
          <path class="cls-3" d="M491.66,7.61c35.71,148.59,34.9,263.57,26.96,342.55-10.46,104.13-34.67,159.23-10.15,253.74,14.51,55.93,35.99,86.75,20.3,129.41-19.55,53.14-79.02,76.36-72.09,121.94,1.5,9.88-2.03,9.37,12.09,28.68,19.56,26.76,20.19,60.24,16.02,100.12-2.05,19.59-.64,40.65-.29,61.01.62,36.27,7.94,72.75-5.81,107.34-16.31,41.07-8.08,92.19,17.76,113.89,7.96,6.68,17.15,11.55,25.72,11.29,30.47-.95,60.92-5.54,91.39-6.52,13.22-.42,26.5,4.26,39.72,7.21,45.04,10.03,90.59,15.25,134.92,32.21,32.27,12.34,62.48,2.34,93.55-5.46,36.41-9.14,72.77-23.57,109.28-25.25,4.65-.21,26.84,14.66,71.28,41.9,28.7,17.59,58.56,36.65,86.99,83.25,12.27,20.1,13.81,28.19,14.22,34.48,2.57,39.8-37.54,51.05-82.47,133.96-31.16,57.48-40.65,98.18-76.21,128.72-7.37,6.33-15.78,11.1-23.76,11.32-41.05,1.12-82.12-.58-123.16,1.04-17.25.68-35.32,1.94-51.47,12.06-30.45,19.07-59.99,43.85-89.53,67.93-29.43,24-59.97,27.56-91.44,27.14-45.74-.61-85.08,27.63-113.45,102.24-17.11,44.99-32.7,49.24-70.13,26.56-27.5,52.71-60.77,80.74-100.49,76.83-4.66-.46-9.26-3.17-13.91-3.58-14.73-1.29-19.76,11.04-15.9,38.09.72,5.06,1.16,10.3,2.02,15.27,9.77,56.04,6.87,77.33-15.98,106.86-16.61,21.47-33.76,41.41-54.05,66.16-8.14,14.63-18.77,36.41-26.92,64.14-9.89,33.66-11.28,59.65-12.69,109.11-3.67,129.14.9,126.49-5.07,154.78-11.71,55.44-28.11,60.26-40.6,111.65-13.88,57.09-7.97,110.09,2.54,152.25-52.44.85-104.88,1.69-157.32,2.54C6.05,1900.54,8.59,956.61,11.13,12.69c160.18,0,320.35-5.07,480.53-5.07Z"/>
          <path class="cls-3" d="M1845.7,2841.93c20.15-82.26,19.36-147.12,15.22-190.31-8.81-92.08-35.74-116.26-17.76-175.08,17.91-58.58,55.41-69.93,58.36-131.95,1.28-26.95-4.94-43.04,2.56-79.76,5.43-26.58,11.33-36.49,12.33-60.43.63-15.26-2.48-33.89-14.08-59.41-14.98-32.94-6.71-82.77,13.26-109.89,6.16-8.37,11.92-17.84,17.92-26.65,17.52-25.74,18.8-41.04,1.75-64.37-19.56-26.76-20.19-60.24-16.02-100.12,2.05-19.59.64-40.65.29-61.01-.62-36.27-7.94-72.75,5.81-107.34,16.32-41.07,8.08-92.19-17.76-113.89-7.96-6.68-17.15-11.55-25.72-11.29-30.47.95-60.92,5.54-91.39,6.52-13.22.42-26.5-4.26-39.72-7.21-45.04-10.03-90.59-15.25-134.92-32.21-32.27-12.34-62.48-2.34-93.55,5.46-36.41,9.14-72.77,23.57-109.28,25.25-19.46.89-8.1-8.1-71.28-41.9-28.13-15.05-53.56-26.78-79.29-65.75-18.09-27.4-18.29-40.93-17.92-46.37,1.6-24.05,23.26-26.79,46.35-61.83,12.73-19.31,10.12-24.49,32.13-77.73,42.71-103.31,69.18-122.68,76.21-128.72,7.37-6.33,15.78-11.1,23.76-11.32,41.05-1.12,82.12.58,123.16-1.04,17.25-.68,35.32-1.94,51.47-12.06,30.45-19.07,59.99-43.85,89.53-67.93,29.43-24,59.97-27.56,91.44-27.14,45.74.61,85.08-27.63,113.45-102.24,17.11-44.99,32.7-49.24,70.13-26.56,27.5-52.71,60.77-80.74,100.49-76.83,4.66.46,9.26,3.17,13.91,3.58,14.73,1.29,19.76-11.04,15.9-38.09-.72-5.06-1.16-10.3-2.02-15.27,0,0,0,0,0,0-22.57-33.86-3.82-68.92-1.34-75.98,14.28-40.66-14.25-106.12-17.54-159.97-4.87-79.64,46.08-123.76,129.41-246.13,40.05-58.82,95.72-147.66,152.25-266.43-.85,473.23-1.31,946.47-2.54,1419.7-1.33,516.26-2.67,1032.51-2.54,1419.7h-502.41Z"/>
        </g>
        <g id="sea-1">
          <path class="cls-4" d="M452.64,5.07c6.72,49.33,12.77,124.52,2.54,215.68-4.51,40.14-7.01,37.42-15.22,96.42-18.48,132.69-27.72,199.04-12.69,261.36,13.8,57.22,36.94,89.13,25.37,124.33-1.35,4.12-11.06,32.25-30.27,85.61-.03.07-.1.27-.19.52-1.41,3.98-7.13,20.75-7.2,40.9-.05,14.14,2.69,24.73,3.54,28.22,19.24,78.97-2.28,144.84-21.78,209.57-8.31,27.61-19.74,51.75-31.02,80.72,12.4,19.88,22.78,36.77,33.3,53.33,22.53,35.48,48.3,62.72,66,110.24,13.34,35.82,35.42,44.46,57.11,38.26,58.82-16.81,85.26,2.52,163.01-.75,85.67-3.6,169.86,16.15,169.86,16.15,26.21,6.15,38.64,10.97,62.26,10.57,53.8-.93,66.62-27.27,103.54-16.1,33.38,10.1,71.68,46.39,71.9,83.04.15,25.78-18.69,27.97-45.26,95.66-10.24,26.08-11.71,36.64-23.65,62.26-3.21,6.9-18.23,39.15-32.33,55.21-28.25,32.18-53.88.53-103.46-5.51-40.84-4.98-72.95,5.14-99.72,24.38-38.62,27.77-77.49,55.57-117.33,75.33-21.27,10.55-45.16,9.55-67.25,4.26-36.34-8.71-70.74,6.51-105.23,21.52-7.58,3.3-15.83,19.37-19.56,33.63-12.35,47.28-32.2,71.65-58.01,84.06-19.48,9.37-38.29,23.76-57.72,33.57-14.28,7.21-28.99,13.01-43.67,15.15-30.11,4.38-41.84-2.08-69.51,4.28-15.89,3.65-28.12,9.87-35.89,14.49v55.82c5.13,18.58,8.32,43.57-4.76,62.34-9.75,14-23.54,20.82-28.86,23.13-1.02.44-1.79.75-1.91.8-35.9,14.39-45.67,111.65-45.67,111.65-19.77,196.81-20.4,185.76-20.3,208.07.37,84.99,8.74,89.9,2.54,147.17-5.54,51.12-14.51,68.43-22.84,124.33-8.48,56.97-9.21,106.45-7.61,144.63-27.07,1.69-54.13,3.38-81.2,5.07,2.45-580.88,4.36-1161.74,5.71-1742.59.85-365.61,1.49-731.21,1.9-1096.81,67.66.78,135.32,1.21,203,1.27,79.51.07,159.02-.35,238.52-1.27Z"/>
          <path class="cls-4" d="M2193.33,787.88c2.12-11.12,6.78-25.89,18.4-31.08,8.44-3.77,14.19.52,19.75-.57,25.5-4.99,15.94-116.7,32.9-195.45,8.7-40.39,30-98.21,88.81-162.4-.43,451.48-1.14,902.95-2.14,1354.43-.8,361.35-1.78,722.7-2.94,1084.05-129.97,0-291.24,2.54-421.22,2.54-24.5-125.88-8.19-213.44,12.69-271.51,16.02-44.54,34.13-70.06,40.6-126.87,7.1-62.34-9.36-78.59,0-162.4,4.78-42.78,10.64-52.67,7.61-83.74-4.13-42.38-17.69-51.1-15.5-91.59,2.07-38.08,9.36-63.75,9.36-63.75,7.02-23.51,10.46-42.5,3.85-69.65-19.24-78.97,2.28-144.84,21.78-209.57,8.31-27.61,19.74-51.75,31.02-80.72-12.4-19.88-22.78-36.77-33.3-53.33-22.53-35.48-48.3-62.72-66-110.24-13.34-35.82-35.42-44.46-57.11-38.26-59.84,17.1-158.87,1.35-163.01.75-29.95-4.38-24.86-7.72-73-16.32-53.64-9.59-74.71-8.09-89.44-5.71-22.41,3.63-18.98,7.5-51.38,15.22-34.16,8.15-61.71,14.72-92.04,5.6-12.15-3.65-35.05-10.53-48.78-30.34-28.56-41.19,5.12-105.65,30.45-154.15,21.57-41.29,39.35-55.19,47.58-60.9,10.93-7.59,13.24-6.43,51.38-24.74,33.91-16.27,37.49-19.78,60.9-30.45,33.52-15.27,38.63-13.76,61.22-23.87,65.8-29.45,69.19-51.45,117.33-75.33,21.27-10.55,45.16-9.55,67.25-4.26,36.34,8.71,70.74-6.51,105.23-21.52,7.58-3.3,15.83-19.37,19.56-33.63,12.35-47.28,32.2-71.65,58.01-84.06,19.48-9.37,38.29-23.76,57.72-33.57,14.28-7.21,28.99-13.01,43.67-15.15,30.83-4.48,43.51-6.9,53.61-11.17,0,0,6.5-2.93,12.09-6.38,30.16-18.65,40.59-66.68,43.14-79.93Z"/>
        </g>
        <g id="Land">
          <path class="cls-6" d="M2353.98,799.29c-3.91,1.59-8.86,8.21-14.43,11.1,0,0-10.11,5.25-19.35,11.74-15.67,11.01-29.39,34.08-58.36,65.97-14.49,15.95-18.69,34.49-65.97,35.52-12.49.27-49.82,1.76-85.64,17.13-75.86,32.54-117.09,115.8-121.8,125.6-7.76,16.15-10.61,26.48-22.84,38.06-24.16,22.87-57.87,24.98-91.35,26.64-53.24,2.64-70.13-9.56-97.06,5.71-14.06,7.97-10.54,11.91-32.35,28.55-24.46,18.65-42.82,24.32-68.51,36.16-48.89,22.53-39.24,27.71-76.12,43.77-42.28,18.4-65.58,21.87-91.35,39.96-15.74,11.05-25.11,17.64-30.45,30.45-14.75,35.41,13.45,89.28,49.48,100.86,18.11,5.82,21.2-5.17,60.9-3.81,17.92.62,19.23,2.41,68.51,9.52,28.4,4.09,42.6,6.14,60.9,7.61,7.12.57,30.53,2.34,62.8,1.9,50.49-.68,53.24-5.79,85.64-5.71,40.89.11,75.22.2,102.77,20.93,23.43,17.64,14.01,29.18,47.58,81.83,22.9,35.92,30.46,35.53,66.61,87.54,21.26,30.6,31.89,45.9,37.15,60.9,10.22,29.15,4.43,40.67,8.52,104.67,3.1,48.35,6.48,43.07,7.61,78.03,1.77,54.82-5.6,97.47-7.61,108.48-7.09,38.89-14.05,49.66-18.74,69.58-2.64,11.25-3.4,19.87-4.1,27.14-1.99,20.84-5.58,58.35,8.25,101.83,3.2,10.07,8.58,24.35,17.76,40.6-6.88,9.47-15.97,23.94-22.84,43.14-5.68,15.88-9.21,33.22-10.15,58.36-1.51,40.61,4.93,69.54,7.61,86.27,8.72,54.36-4.06,92.82-12.69,137.02-10.8,55.35-20.43,147.14-15.22,307.03,45.67.42,91.35,2.11,137.02,1.27,46.35-.85,92.7-1.71,137.02,1.27l.8-2042.64Z"/>
          <path class="cls-6" d="M363.83,7.61c-11.54,72.53-15.88,131.43-17.76,170.01-8.12,166.1,18.54,172.74,5.07,304.49-7.11,69.54-17.94,101.02,2.54,139.56,11.68,21.98,37.49,53.68,40.6,96.42,1.29,17.71-.6,31.88-.6,31.88-4.33,29.05-18.29,43.23-17.16,92.46.93,40.56,11.15,63.58,4.81,118.89-1.07,9.31-3.75,15.44-4.02,26.45-1.71,67.62-18.85,116.84-47.75,153.1-5.81,7.29-10.57,17.65-20.12,33.93,7.08,8.65,18.31,21.13,34.04,33.82,24.94,20.11,37.51,19.35,53.53,34.61,17.48,16.65,33.13,39.48,45.76,73.14,28.75,76.6,67.52,88.18,113.34,70.42,22.91-8.88,47.53-2.48,71.35-1.32,55.69,2.71,83.56-.36,103.28,8.07,50.91,21.78,53.62,56.7,89.14,51.89,14.55-1.97,33.78-10.5,45.53,11.43,7.33,13.68,8.15,32.5,8.24,34.88.49,13.51-1.22,43.53-43.79,102.69-34.27,47.63-64.81,72.17-74.82,79.89-42.54,32.83-77.64,40.72-87.71,44.7-27.73,10.97-54.36,3.7-81.59,3.26-31.77-.51-63.71,1.79-95.29,8.1-14.22,2.84-25.48,22.65-29.92,52.3-8.58,57.34-31.61,75.21-59.53,80.56-11.34,2.17-24.62,1.26-33.39,12.36-24.59,31.11-50.39,32.37-77.91,26.13-13.72-3.11-27.78-.09-41.68-.71-8.62-.38-17.55.06-25.77-4.09-32.1-16.22-36.31-12.96-57.89,38.3-12.34,29.31-22.06,22.28-35.51,46.68-11.67,21.17-9.59,30.43-21.31,70.87-8.31,28.68-15.42,44.94-20.3,58.36-4.83,13.29-23.71,68.37-30.45,205.53-6.32,128.51,7.28,140.57-7.61,208.07-11.69,52.98-30.85,94.45-45.67,121.8,2.48-524.38,4.38-1048.79,5.71-1573.21.9-356.1,1.53-712.19,1.9-1068.26,119.26-.31,233.44,2.85,352.7,2.54Z"/>
        </g>
      </g>
      <g id="Text-1">
        <g id="_x3C_Group_x3E_">
          <path d="M1533.74,1334.34l-.67,21.79,4.81-1.23c3.43-.88,5.78-2.04,7.05-3.48,1.27-1.44,2.1-3.72,2.48-6.83l1.4-.36-.49,19.96-1.51.39c.05-1.68-.06-3.08-.35-4.19-.28-1.08-.72-1.9-1.33-2.44-.61-.54-1.34-.87-2.19-.99-.85-.12-2.51.14-4.98.77l-4.88,1.25-.6,18.26c-.06,1.76.02,3.07.24,3.93.17.66.63,1.16,1.39,1.5.52.24,1.64.15,3.35-.29l4.54-1.16c4.92-1.26,8.64-3.14,11.16-5.64,2.52-2.5,4.4-6.21,5.64-11.12l1.4-.36-1.19,15.51-39.65,10.17.13-1.53c1.95-.55,3.23-1.07,3.84-1.55.89-.71,1.48-1.48,1.75-2.3.42-1.21.67-3.58.75-7.13l1.07-33.26c.07-2.68-.07-4.67-.41-5.99-.25-.96-.77-1.62-1.58-1.99-.81-.37-2.18-.31-4.12.19l-.79.2.1-1.52,36.85-9.45v13.19s-1.41.36-1.41.36c-.12-1.21-.28-2.2-.48-2.98-.34-1.34-.96-2.38-1.85-3.12-1.16-.94-2.63-1.5-4.43-1.69-1.33-.14-4.17.34-8.54,1.46l-6.51,1.67Z"/>
          <path d="M1609.57,1319.72l17.86-1.54-.3,1.48c-2.49.58-4.62,1.53-6.4,2.84-1.78,1.32-4.15,3.84-7.09,7.57l-12.49,15.19,5.07,13.8c.48,1.32,1.33,3.35,2.56,6.09.78,1.76,1.51,2.99,2.2,3.69.69.7,1.52,1.21,2.5,1.53.98.32,2.44.44,4.36.35l-.3,1.48-20.71,1.78.3-1.48c2.12-.26,3.62-.8,4.49-1.6.66-.58.95-1.28.88-2.11-.06-.73-.54-2.29-1.42-4.7l-4.84-12.95-11.3,13.56c-2.2,2.67-3.5,4.42-3.9,5.24-.25.49-.35.96-.31,1.4.07.78.51,1.38,1.33,1.81.38.18,1.5.3,3.37.38l-.26,1.47-17.55,1.51.3-1.48c2.19-.4,3.95-1.06,5.28-1.98,1.94-1.4,4.56-4.06,7.86-8.01l14.01-16.73-5.51-14.85c-1.67-4.56-3.03-7.34-4.07-8.33s-2.75-1.47-5.12-1.42l.26-1.47,18.88-1.63-.34,1.48c-1.74.15-2.9.36-3.49.63s-1.03.65-1.31,1.13c-.29.48-.4,1.01-.35,1.58.05.62.49,2.05,1.31,4.28l4.7,12.69,7.58-8.96c2.99-3.55,5-6.38,6.05-8.48.38-.74.55-1.38.5-1.92-.05-.6-.34-1.04-.86-1.34-.74-.41-2.07-.57-4-.48l.3-1.48Z"/>
          <path d="M1657.99,1326.38l-8.88,19.9,4.91.68c3.51.49,6.12.31,7.84-.55,1.72-.85,3.35-2.64,4.89-5.37l1.43.2-8.03,18.29-1.55-.22c.69-1.53,1.11-2.87,1.27-4,.15-1.11.05-2.03-.31-2.76-.36-.73-.91-1.32-1.65-1.75-.74-.43-2.38-.82-4.9-1.18l-4.99-.69-7.48,16.67c-.72,1.61-1.15,2.85-1.27,3.73-.09.67.15,1.31.72,1.91.39.42,1.46.75,3.21,1l4.64.65c5.03.7,9.18.37,12.46-.99,3.28-1.36,6.42-4.08,9.44-8.15l1.43.2-6.98,13.9-40.55-5.64.7-1.36c2.02.23,3.4.24,4.14.02,1.1-.32,1.93-.81,2.49-1.47.84-.96,1.98-3.06,3.4-6.31l13.61-30.37c1.08-2.45,1.71-4.35,1.9-5.69.14-.98-.1-1.79-.71-2.44-.61-.65-1.9-1.11-3.89-1.39l-.81-.11.66-1.37,37.68,5.24-5.01,12.2-1.43-.2c.35-1.16.57-2.14.69-2.94.19-1.37.01-2.56-.53-3.58-.71-1.31-1.86-2.39-3.45-3.24-1.17-.64-3.99-1.27-8.45-1.89l-6.65-.93Z"/>
          <path d="M1743.36,1334.98l-5.81,16.61-1.4-.15.32-4.29c.04-1.57-.1-2.98-.43-4.25-.33-1.27-.91-2.4-1.75-3.4s-1.93-1.83-3.3-2.49c-1.37-.66-2.92-1.09-4.65-1.28-4.63-.51-8.82.31-12.57,2.46-4.78,2.75-8.76,6.93-11.92,12.55-2.61,4.64-4.19,9.45-4.74,14.45-.56,5.1.47,9.33,3.11,12.7,2.64,3.37,6.34,5.32,11.1,5.85,3.6.4,6.89-.05,9.88-1.34,2.99-1.29,5.87-3.48,8.64-6.55l1.82.2c-3.35,4.21-6.88,7.2-10.58,8.95s-7.98,2.36-12.82,1.82c-4.3-.48-8-1.8-11.12-3.96-3.11-2.17-5.36-4.98-6.73-8.43s-1.85-7.06-1.44-10.81c.64-5.75,2.79-11.17,6.48-16.26s8.38-8.9,14.09-11.41c5.71-2.51,11.3-3.46,16.76-2.86,2.56.28,5.37,1.21,8.42,2.78,1.34.67,2.32,1.04,2.94,1.11s1.18,0,1.67-.21c.49-.21,1.35-.86,2.57-1.96l1.44.16Z"/>
          <path d="M1754.67,1335.32l22.37-.76-.38,1.46c-2.29.13-3.91.4-4.88.81-.96.41-1.77,1.11-2.43,2.09-.66.99-1.32,2.79-1.99,5.42l-4.79,18.92c-.85,3.36-1.35,5.57-1.5,6.62-.26,1.68-.36,3.23-.31,4.66.11,3.15,1.37,5.77,3.78,7.86,2.42,2.09,5.59,3.07,9.52,2.94,2.58-.09,4.86-.65,6.86-1.7s3.69-2.47,5.07-4.28c1.39-1.81,2.63-4.23,3.72-7.28,1.1-3.05,2.05-6.12,2.85-9.22l4.14-16.32c1.04-4.07,1.53-6.72,1.49-7.95-.03-.86-.45-1.58-1.26-2.17-.82-.58-2.43-.9-4.86-.95l.38-1.46,16.83-.57-.38,1.46c-1.98.07-3.4.3-4.26.71-.86.41-1.6,1.11-2.21,2.11-.62,1-1.28,2.92-1.99,5.75l-5.08,19.83c-1.63,6.44-3.22,11.2-4.75,14.29s-3.83,5.71-6.87,7.85c-3.04,2.15-6.87,3.3-11.47,3.46-5.31.18-9.64-1.18-13-4.08-3.36-2.9-5.1-6.28-5.23-10.16-.05-1.54.04-3.18.26-4.93.17-1.15.61-3.15,1.32-5.99l4.62-18.17c.64-2.63.94-4.55.9-5.78-.03-.96-.43-1.7-1.19-2.21s-2.64-.79-5.64-.85l.34-1.46Z"/>
          <path d="M1819.85,1332.79l40.2-1.67-3.75,14.23-1.48.06c.41-2.08.58-3.92.51-5.53-.08-1.9-.72-3.31-1.93-4.22-.92-.69-3.21-.96-6.88-.81l-4.18.17-8.94,36.89c-1.14,4.63-1.68,7.49-1.64,8.55.04.99.49,1.78,1.35,2.39.86.6,2.34.86,4.45.77l1.8-.07-.41,1.46-23.03.96.37-1.46,1.01-.04c2.03-.08,3.58-.47,4.64-1.17.74-.47,1.39-1.3,1.95-2.49.56-1.18,1.31-3.67,2.25-7.46l9.4-38.04-3.16.13c-3.04.13-5.48.62-7.31,1.48-1.83.86-3.28,2.05-4.37,3.58-1.08,1.53-1.93,3.68-2.55,6.44l-1.44.06,3.12-14.2Z"/>
          <path d="M1880.92,1381.46l-.34,1.47-21.76,1.27.46-1.48c2.18-.18,3.61-.45,4.3-.8,1.12-.51,1.93-1.17,2.43-1.98.79-1.27,1.54-3.51,2.27-6.71l7.34-32.44c.62-2.7.9-4.72.82-6.07-.04-.68-.24-1.24-.61-1.69-.37-.45-.9-.78-1.6-.98-.7-.21-2.06-.25-4.06-.13l.38-1.47,20.43-1.19-.34,1.47c-1.67.07-2.89.33-3.67.76-1.14.59-1.99,1.38-2.54,2.38-.55,1-1.22,3.18-1.99,6.53l-7.3,32.43c-.66,2.99-.97,4.88-.92,5.69.04.65.23,1.19.58,1.63.35.44.89.76,1.62.96.73.21,2.23.32,4.5.34Z"/>
          <path d="M1934.58,1326.77c3.51.13,6.59,1.01,9.24,2.64,2.65,1.62,4.68,3.96,6.11,6.99,1.42,3.04,2.07,6.16,1.95,9.36-.22,5.67-2.09,11.56-5.62,17.67-3.53,6.11-8.01,10.7-13.44,13.78s-10.99,4.51-16.66,4.29c-4.09-.16-7.47-1.19-10.14-3.1s-4.62-4.38-5.82-7.39-1.75-5.92-1.64-8.7c.19-4.94,1.56-9.78,4.13-14.52s5.56-8.66,8.99-11.78,7.05-5.47,10.86-7.07c3.81-1.6,7.83-2.32,12.04-2.16ZM1933.16,1329.22c-2.6-.1-5.17.45-7.71,1.64-2.53,1.19-5.08,3.21-7.64,6.04-2.56,2.83-4.9,6.58-7.03,11.25-2.62,5.74-4.02,11.2-4.22,16.38-.14,3.7.68,7,2.48,9.93,1.79,2.92,4.65,4.46,8.58,4.61,2.37.09,4.71-.41,7.03-1.49s4.77-3,7.35-5.74c3.23-3.45,6.01-7.9,8.33-13.35,2.32-5.45,3.57-10.57,3.75-15.36.13-3.54-.7-6.7-2.49-9.5-1.8-2.79-4.61-4.26-8.43-4.41Z"/>
          <path d="M1996.98,1349.88l-6.57,44.15,23.18-22.44c1.91-1.85,3.21-3.38,3.91-4.6.48-.83.56-1.66.25-2.47-.31-.81-1.27-1.68-2.87-2.6-.27-.16-.55-.33-.83-.52l1.09-1.04,14.75,8.51-1.13,1.02c-1.52-.91-2.75-1.41-3.69-1.5-1.33-.14-2.47.02-3.42.46-1.33.64-3.13,2.07-5.4,4.28l-32.61,31.6-1.22-.7,7.07-47.51-24.65,23.89c-1.86,1.81-3.12,3.3-3.78,4.45-.5.86-.59,1.66-.29,2.42.3.76,1.44,1.82,3.42,3.17l-1.06,1.06-14.42-8.31,1.2-.98c1.83,1,3.13,1.53,3.89,1.61,1.16.13,2.15,0,2.98-.4,1.23-.62,3.07-2.11,5.52-4.48l27.51-26.66c-.1-1.86-.5-3.33-1.22-4.42-.71-1.09-2.11-2.28-4.19-3.57l1.09-1.04,11.47,6.62Z"/>
        </g>
        <g id="_x3C_Group_x3E_-2" data-name="_x3C_Group_x3E_">
          <path d="M308,1306.68l15.07-13.35,1.08.78c-1.26,1.43-2.26,2.66-2.99,3.67-2.09,2.89-2.87,5.91-2.34,9.06.53,3.15,2.29,5.8,5.26,7.96,2.76,2,5.48,2.67,8.14,2.01,2.66-.66,4.8-2.1,6.4-4.31,1.04-1.43,1.66-2.98,1.86-4.63.28-2.47-.14-7.46-1.25-14.99-.56-3.62-.76-6.16-.6-7.62.27-2.41,1.08-4.55,2.44-6.43,2.17-3,5.14-4.75,8.92-5.26,3.78-.51,7.42.5,10.92,3.04,1.18.85,2.21,1.78,3.1,2.78.56.6,1.45,1.88,2.66,3.85.87,1.37,1.36,2.12,1.45,2.26.25.28.55.54.91.8.61.44,1.25.67,1.93.67s1.68-.3,3.02-.9l1.2.87-13.6,11.86-1.08-.78c1-1.2,1.78-2.2,2.35-2.98,1.85-2.55,2.52-5.25,2-8.1-.51-2.85-2.15-5.27-4.91-7.27-2.19-1.59-4.44-2.23-6.74-1.94-2.3.29-4.06,1.29-5.29,2.97-1.07,1.48-1.65,3.2-1.75,5.17-.09,1.97.34,5.62,1.3,10.92.96,5.31,1.29,9.15.99,11.52-.3,2.37-1.15,4.52-2.54,6.43-1.57,2.17-3.67,3.86-6.29,5.06-2.62,1.2-5.42,1.58-8.38,1.15-2.96-.44-5.72-1.58-8.27-3.43-1.27-.92-2.36-1.89-3.29-2.91-.93-1.03-2.27-2.86-4.02-5.51-.59-.91-1.16-1.57-1.71-1.96-1.24-.9-2.83-.76-4.74.42l-1.2-.87Z"/>
          <path d="M382.76,1319.21l19.14,35.39-14.43,2.88-.71-1.31c2.04-.54,3.78-1.2,5.2-1.97,1.67-.9,2.65-2.1,2.94-3.59.22-1.13-.54-3.3-2.29-6.53l-1.99-3.68-37.07,8.15c-4.66,1.01-7.46,1.77-8.4,2.28-.87.47-1.39,1.22-1.55,2.26-.17,1.04.25,2.48,1.26,4.34l.85,1.58-1.49.28-10.96-20.27,1.48-.31.48.89c.97,1.79,2,3.01,3.09,3.66.75.45,1.78.67,3.09.66,1.31-.01,3.88-.43,7.69-1.25l38.31-8.24-1.5-2.78c-1.45-2.68-2.96-4.65-4.53-5.92-1.57-1.27-3.28-2.05-5.14-2.35-1.85-.3-4.15-.12-6.9.54l-.69-1.27,14.13-3.43Z"/>
          <path d="M378.41,1411.59l15.46-22.26c-1.21-1.57-2.28-3.31-3.2-5.22l-15.54,5.98c-2.03.77-3.61,1.59-4.75,2.46-.87.66-1.33,1.48-1.38,2.46-.03.74.64,2.19,2.01,4.36l-1.37.59-12.34-16.38,1.41-.53c1.22,1.49,2.16,2.41,2.82,2.77,1,.59,1.94.85,2.85.79,1.48-.07,3.73-.67,6.75-1.81l31.12-11.85c2.08-.79,3.59-1.53,4.53-2.24.96-.72,1.47-1.72,1.55-3,.08-1.28-.44-2.64-1.56-4.08l1.44-.5,10.39,13.79c3.48,4.62,5.11,8.6,4.9,11.96-.21,3.35-1.74,6.1-4.59,8.25-2.73,2.05-6,2.88-9.83,2.49-3.83-.39-7.42-2.18-10.76-5.37l-9.29,13.45c-2.29,3.29-3.51,5.77-3.67,7.46-.16,1.69.53,3.69,2.08,6.01l-1.41.53-7.61-10.11ZM392.85,1383.31c.82,1.47,1.61,2.73,2.4,3.77,2.69,3.58,5.82,5.66,9.37,6.24,3.55.58,6.81-.24,9.76-2.46,2.31-1.74,3.59-3.72,3.84-5.95.25-2.22-.61-4.64-2.57-7.24-.5-.67-1.18-1.39-2.04-2.18l-20.77,7.81Z"/>
          <path d="M467.99,1418.33l-29.1,33.33c-1.38,1.54-2.25,2.58-2.64,3.11-.61.84-.92,1.6-.92,2.27-.04.9.17,1.75.64,2.54.47.79,1.52,1.78,3.14,2.95l-1.2.92-16.89-12.24,1.2-.92.73.53c1.37.99,2.7,1.51,3.99,1.54.9.04,1.86-.28,2.87-.96.71-.49,2.04-1.86,4.01-4.14l4.45-5.07-12.27-8.89-8.65,2.75c-1.95.61-3.27,1.11-3.94,1.51-.67.4-1.19.85-1.56,1.35-.49.68-.64,1.45-.44,2.34.2.88.91,1.8,2.15,2.76l-1.2.92-12.69-9.19,1.2-.92c1.61,1.07,3.36,1.54,5.26,1.42,1.9-.12,5.19-.92,9.88-2.42l50.88-16.3,1.11.8ZM454.1,1424.33l-24.69,7.92,10.79,7.81,13.9-15.73Z"/>
          <path d="M485.13,1427.13l38.76,10.8-7.95,12.38-1.43-.4c1.03-1.85,1.76-3.55,2.19-5.11.51-1.83.33-3.37-.54-4.61-.66-.94-2.75-1.9-6.29-2.89l-4.03-1.12-19.88,32.33c-2.51,4.06-3.91,6.6-4.19,7.63-.27.95-.08,1.85.55,2.69.63.84,1.96,1.54,3.99,2.11l1.73.48-.84,1.27-22.2-6.19.8-1.28.98.27c1.96.55,3.55.65,4.78.32.85-.22,1.72-.81,2.62-1.76.9-.95,2.38-3.09,4.44-6.41l20.67-33.29-3.05-.85c-2.94-.82-5.4-1.1-7.41-.85-2,.25-3.76.94-5.26,2.06-1.5,1.12-2.97,2.9-4.41,5.34l-1.39-.39,7.35-12.55Z"/>
          <path d="M545.62,1439.09l-6.21,20.89,4.96.04c3.54.03,6.11-.5,7.71-1.57s2.98-3.06,4.14-5.97h1.45s-5.57,19.19-5.57,19.19h-1.56c.48-1.62.72-3,.73-4.15,0-1.12-.21-2.02-.66-2.7-.45-.68-1.07-1.19-1.86-1.52-.79-.33-2.46-.51-5.02-.52l-5.04-.04-5.24,17.5c-.51,1.69-.76,2.98-.77,3.86,0,.68.32,1.28.96,1.8.44.37,1.55.56,3.32.57l4.69.03c5.08.04,9.15-.83,12.23-2.61,3.07-1.77,5.84-4.88,8.29-9.32h1.45s-5.11,14.7-5.11,14.7l-40.94-.29.52-1.44c2.03-.04,3.4-.21,4.11-.52,1.04-.46,1.8-1.05,2.28-1.78.71-1.06,1.56-3.3,2.55-6.7l9.53-31.89c.75-2.57,1.13-4.54,1.14-5.89,0-.99-.33-1.77-1.02-2.33s-2.03-.85-4.04-.87h-.82s.48-1.45.48-1.45l38.05.27-3.37,12.75h-1.45c.19-1.21.29-2.21.29-3.02,0-1.38-.32-2.54-.99-3.48-.88-1.2-2.16-2.12-3.85-2.76-1.25-.48-4.12-.73-8.63-.77l-6.72-.05Z"/>
          <path d="M631.1,1427.93l-2.76,16.92-1.48.1c.1-1.96.11-3.42.04-4.35-.18-2.55-1.46-4.72-3.85-6.52-2.39-1.8-5.55-2.56-9.5-2.28-8.08.57-14.41,4.83-18.99,12.78-3.65,6.29-5.22,13.15-4.69,20.58.35,4.94,1.91,9.11,4.69,12.51,2.77,3.41,6.78,4.92,12.03,4.55,1.3-.09,2.52-.3,3.66-.61,1.14-.32,2.85-.96,5.13-1.93l2.89-13.87c.41-1.91.58-3.42.5-4.54-.07-.94-.45-1.63-1.17-2.07-1.14-.68-2.94-.93-5.38-.75l-1.09.08.32-1.55,21.98-1.56-.28,1.55c-2,.17-3.44.5-4.31,1.01-.88.51-1.6,1.31-2.18,2.43-.39.73-.96,2.82-1.71,6.27l-2.95,13.64c-3.45,1.79-6.25,3.01-8.39,3.67-2.15.66-4.43,1.08-6.84,1.25-5.56.39-10.14-.33-13.74-2.18-3.6-1.85-6.35-4.43-8.25-7.76-1.89-3.32-2.96-6.69-3.2-10.09-.32-4.57.33-8.98,1.96-13.24,1.63-4.25,3.78-7.9,6.45-10.95,2.67-3.05,5.63-5.51,8.89-7.39,4.49-2.59,9.29-4.07,14.41-4.43,3.77-.27,7.21.12,10.34,1.15,1.26.41,2.17.59,2.74.55.65-.05,1.19-.23,1.62-.57.43-.33.97-1.09,1.62-2.29l1.48-.1Z"/>
          <path d="M669.1,1456.15l10.87-13.5c2.81-3.52,4.24-5.78,4.3-6.8.03-.57-.22-1.06-.76-1.47-.54-.41-2.11-.77-4.73-1.07l.47-1.42,16.61.95-.39,1.42c-1.62.12-2.74.27-3.35.47-.96.34-1.92.9-2.87,1.67-1.28,1.02-3.18,3.07-5.67,6.13l-13.97,17.12-4.65,12.84c-1.15,3.22-1.76,5.46-1.83,6.7-.05.81.07,1.43.34,1.86.27.43.78.8,1.52,1.1.97.37,2.47.62,4.49.77l-.47,1.42-22.27-1.28.55-1.42c2.21.07,3.69-.02,4.44-.29,1.2-.4,2.1-.98,2.72-1.72.95-1.15,1.98-3.24,3.1-6.28l5.53-15.18-4.61-18.58c-.83-3.28-1.64-5.34-2.44-6.17-.8-.83-2.25-1.39-4.34-1.7l.47-1.42,19.54,1.12-.55,1.42c-2.45.04-3.85.12-4.2.23-.58.15-1.07.49-1.47,1.01-.4.52-.61,1.15-.66,1.88-.06,1.07.21,2.91.82,5.52l3.47,14.64Z"/>
        </g>
      </g>
    </g>
  </g>
</svg>