<?xml version="1.0" encoding="UTF-8"?>
<svg id="Layer_16" xmlns="http://www.w3.org/2000/svg" viewBox="0 0 2030.152 1141.961">
  <defs>
    <style>
      .cls-1 {
        fill: #2a4e67;
      }

      .cls-2 {
        fill: #2a5c70;
      }

      .cls-3 {
        fill: #a0c7d2;
      }

      .cls-4 {
        fill: #6daabd;
      }

      .cls-5 {
        fill: #d7d9c4;
      }

      .cls-6 {
        fill: #447f95;
      }

      .cls-7 {
        fill: #b6bba1;
      }
    </style>
  </defs>
  <path d="M1147.831,995.289c-40.524-24.474-99.264-18.519-136.803,3.867-49.227,29.357-43.272,75.806-83.031,142.805h278.122c-5.835-72.36-17.183-121.846-58.288-146.672Z"/>
  <path class="cls-1" d="M1275.615,1045.331c-30.519-95.745-55.21-134.967-79.997-164.349-21.832-25.879-41.307-48.392-72.161-56.98-21.933-6.104-70.348-11.33-156.279,57.46-104.919,83.99-104.181,148.905-182.789,260.498h143.608c39.759-66.999,33.804-113.448,83.031-142.805,37.539-22.386,96.279-28.341,136.803-3.867,41.105,24.826,52.453,74.312,58.288,146.672h96.311c-6.815-28.705-15.589-61.41-26.816-96.63Z"/>
  <path class="cls-2" d="M967.179,881.463c85.931-68.79,134.346-63.564,156.279-57.46,30.854,8.587,50.329,31.1,72.161,56.98,24.787,29.382,49.478,68.604,79.997,164.349,11.227,35.22,20.001,67.925,26.816,96.63h127.399c-.624-9.263-1.372-19.566-2.271-31.08-6.489-83.017-12.56-122.718-33.75-166.644-7.793-16.155-19.512-32.752-42.952-65.948-62.688-88.78-94.032-133.17-133.14-157.951-63.902-40.493-132.573-38.561-148.474-37.738-109.609,5.674-183.901,86.644-258.832,170.726-137.073,153.812-87.025,192.619-197.301,288.636h171.281c78.608-111.594,77.87-176.508,182.789-260.498Z"/>
  <path class="cls-2" d="M1086.871,64.361c17.175,3.069,31.839-5.344,43.443-12.215,19.163-11.348,33.875-27.762,49.042-52.146h-148.693c20.789,28.646,28.179,59.352,56.209,64.361Z"/>
  <path class="cls-6" d="M737.567,16.447c22.31-1.77,44.778-9.299,67.232-16.447h-167.358c30.258,19.488,66.47,19.117,100.126,16.447Z"/>
  <path class="cls-6" d="M810.41,853.325c74.931-84.082,149.223-165.052,258.832-170.726,15.901-.823,84.572-2.755,148.474,37.738,39.108,24.782,70.452,69.172,133.14,157.951,23.439,33.195,35.159,49.793,42.952,65.948,21.189,43.926,27.261,83.627,33.75,166.644.9,11.514,1.648,21.818,2.271,31.08h152.555c-.638-17.413-6.272-42.363-17.524-92.193-20.082-88.929-30.122-133.393-47.543-158.442-29.297-42.125-50.428-32.32-102.36-76.364-68.656-58.229-56.809-96.641-122.051-178.55-43.134-54.153-101.04-126.852-176.459-130.324-51.628-2.377-75.213,29.355-195.047,117.857-161.683,119.409-157.169,90.018-216.911,148.597-120.371,118.03-75.245,175.131-190.956,267.596-55.507,44.356-97.758,56.689-142.925,101.821h242.5c110.276-96.016,60.228-134.823,197.301-288.636Z"/>
  <path class="cls-6" d="M996.401,46.899c20.752,26.44,20.998,64.148,47.821,91.17,8.485,8.548,30.576,30.032,59.03,20.906,8.68-2.784,18.853-12.115,39.198-30.776,33.043-30.309,49.866-46.114,64.613-77.954,8.98-19.388,14.362-38.165,17.378-50.245h-45.086c-15.167,24.384-29.879,40.799-49.042,52.146-11.604,6.871-26.268,15.284-43.443,12.215-28.03-5.009-35.419-35.715-56.209-64.361h-90.137c20.111,9.892,38.854,25.21,55.876,46.899Z"/>
  <path class="cls-4" d="M704.49,772.544c59.742-58.58,55.228-29.188,216.911-148.597,119.834-88.502,143.419-120.234,195.047-117.857,75.42,3.472,133.325,76.17,176.459,130.324,65.242,81.909,53.394,120.321,122.051,178.55,51.932,44.044,73.062,34.239,102.36,76.364,17.421,25.048,27.462,69.513,47.543,158.442,11.252,49.83,16.886,74.78,17.524,92.193h91.846c-2.064-28.461-4.469-60.137-6.419-96.468-6.014-112.068,1.825-91.027-4.183-126.345-6.625-38.937-25.867-152.04-112.491-229.98-52.382-47.131-72.572-30.269-113.358-79.159-49.436-59.259-24.849-90.115-74.049-137.078-45.429-43.363-89.42-39.037-110.022-87.678-6.868-16.216-8.373-31.792-24.52-48.389-15.698-16.136-27.397-14.261-47.994-34.922-9.177-9.206-18.091-20.631-26.792-35.914-16.242-28.528-15.548-42.048-14.827-47.454,3.183-23.891,24.973-25.197,50.33-58.64,13.971-18.426,11.709-23.77,37.181-75.444,19.533-39.627,35.669-66.331,48.503-84.49h-51.149c-3.016,12.08-8.398,30.857-17.378,50.245-14.748,31.841-31.57,47.645-64.613,77.954-20.345,18.662-30.517,27.992-39.198,30.776-28.454,9.125-50.544-12.358-59.03-20.906-26.823-27.022-27.069-64.73-47.821-91.17-17.023-21.689-35.765-37.007-55.876-46.899h-135.726c-22.454,7.147-44.922,14.677-67.232,16.447-33.656,2.67-69.868,3.041-100.126-16.447h-255.908c3.007,16.895,9.793,31.772,20.067,41.623,7.502,7.193,16.347,12.658,24.92,12.957,30.471,1.062,61.152-1.516,91.625-.482,13.218.449,26.165,6,39.163,9.809,44.28,12.979,89.385,21.189,132.501,41.032,31.382,14.443,62.193,6.452,93.706.716,36.93-6.722,74.164-18.721,110.706-17.988,4.652.093,25.812,16.402,68.36,46.51,27.474,19.441,56.014,40.429,81.316,88.8,8.833,16.886,11.177,25.459,11.744,31.456.186,1.967.163,3.451.167,3.889.196,20.845,10.08,86.018,10.618,89.866,6.759,48.393-107.868,112.974-207.943,177.806-95.045,61.574-142.568,92.361-190.721,137.691-99.492,93.657-77.171,125.693-172.337,221.982-118.481,119.88-167.168,84.479-234.673,186.233-17.866,26.931-27.036,48.378-34.76,70.06h144.617c45.167-45.131,87.418-57.464,142.925-101.821,115.71-92.465,70.584-149.567,190.956-267.596Z"/>
  <path class="cls-3" d="M495.424,885.667c95.165-96.289,72.845-128.325,172.337-221.982,48.153-45.329,95.676-76.116,190.721-137.691,100.075-64.833,214.702-129.413,207.943-177.806-.537-3.848-10.422-69.021-10.618-89.866-.004-.438.019-1.922-.167-3.889-.568-5.997-2.912-14.57-11.744-31.456-25.302-48.371-53.842-69.359-81.316-88.8-42.548-30.108-63.708-46.417-68.36-46.51-36.542-.733-73.776,11.266-110.706,17.988-31.512,5.736-62.324,13.727-93.706-.716-43.116-19.844-88.221-28.053-132.501-41.032-12.997-3.81-25.945-9.361-39.163-9.809-30.473-1.034-61.154,1.544-91.625.482-8.573-.299-17.418-5.764-24.92-12.957-10.274-9.851-17.06-24.728-20.067-41.623h-55.682c15.38,25.059,30.843,49.92,41.373,85.134,10.951,36.621,32.411,46.703,54.467,41.947,59.799-12.896,84.912,8.137,162.706,9.999,85.726,2.052,168.426,27.313,168.426,27.313,25.749,7.865,37.834,13.495,61.427,14.647,53.743,2.624,68.277-22.816,104.377-9.24,32.638,12.274,68.471,51.012,66.265,87.596-1.552,25.736-20.497,26.68-51.472,92.463-11.937,25.35-14.104,35.788-27.699,60.57-3.661,6.674-20.773,37.866-35.9,52.958-7.976,7.957-16.813,10.47-19.599,11.723-63.381,28.521-121.695,67.283-184.031,98.02-86.098,42.454-81.308,71.312-206.769,159.371-188.692,132.44-264.301,112.63-314.863,211.515-20.454,40.003-28.839,83.843-72.803,106.777-24.937,13.008-50.517,13.656-71.754,15.421v75.747h225.992c7.724-21.683,16.894-43.129,34.76-70.06,67.504-101.754,116.191-66.353,234.673-186.233Z"/>
  <path class="cls-3" d="M1189.905,159.934c-25.357,33.443-47.147,34.749-50.33,58.64-.72,5.406-1.415,18.926,14.827,47.454,8.701,15.283,17.615,26.708,26.792,35.914,20.597,20.661,32.295,18.786,47.994,34.922,16.147,16.596,17.651,32.173,24.52,48.389,20.602,48.641,64.593,44.316,110.022,87.678,49.2,46.962,24.613,77.819,74.049,137.078,40.786,48.89,60.975,32.028,113.358,79.159,86.624,77.94,105.867,191.043,112.491,229.98,6.009,35.318-1.831,14.277,4.183,126.345,1.95,36.33,4.355,68.007,6.419,96.468h117.826c5.874-40.026,9.126-86.531.662-154.876-2.679-21.63-12.815-96.188-46.054-187.334-29.39-80.592-45.936-125.963-86.577-170.705-80.278-88.376-144.122-52.705-198.455-135.914-39.177-59.997-26.139-109.409-77.069-139.016-17.567-10.212-38.316-15.495-82.32-41.518-27.315-16.154-41.082-24.164-46.677-33.494-25.778-42.984,12.072-105.088,40.545-151.807,24.242-39.776,42.898-52.472,51.488-57.63,11.41-6.85,13.633-5.544,52.902-21.299,34.905-14.004,38.716-17.269,62.773-26.368,34.454-13.032,39.448-11.18,62.657-19.78,2.005-.743,3.951-1.483,5.848-2.22h-256.19c-12.834,18.159-28.969,44.863-48.503,84.49-25.472,51.674-23.21,57.018-37.181,75.444Z"/>
  <path class="cls-5" d="M144.558,944.015c50.561-98.885,126.171-79.075,314.863-211.515,125.461-88.059,120.672-116.917,206.769-159.371,62.336-30.738,120.65-69.499,184.031-98.02,2.786-1.253,11.623-3.766,19.599-11.723,15.127-15.092,32.238-46.284,35.9-52.958,13.595-24.782,15.763-35.22,27.699-60.57,30.975-65.784,49.92-66.728,51.472-92.463,2.206-36.585-33.627-75.322-66.265-87.596-36.1-13.576-50.634,11.864-104.377,9.24-23.594-1.152-35.678-6.782-61.427-14.647,0,0-82.7-25.26-168.426-27.313-77.794-1.862-102.907-22.896-162.706-9.999-22.056,4.757-43.516-5.325-54.467-41.947-10.53-35.214-25.992-60.074-41.373-85.134h-36.259c4.82,3.164,9.436,6.739,14.302,12.029,16.343,17.764,30.456,41.575,40.841,75.995,23.633,78.327,61.556,92.436,108.452,77.74,23.445-7.347,47.589.655,71.285,3.383,55.391,6.377,83.405,5.148,102.52,14.865,49.359,25.091,49.764,60.112,85.529,57.65,14.652-1.008,34.398-8.25,44.673,14.408,6.407,14.13,5.993,32.968,5.923,35.346-.397,13.515-4.09,43.353-50.461,99.577-37.335,45.268-69.43,67.742-79.926,74.788-44.616,29.951-80.153,35.512-90.464,38.824-28.388,9.121-54.485.109-81.628-2.122-31.67-2.603-63.688-2.415-95.618,1.805-14.374,1.899-26.92,20.922-33.302,50.215-12.343,56.654-36.504,72.967-64.709,76.464-11.461,1.421-24.647-.363-34.13,10.131-26.584,29.419-52.412,28.978-79.462,20.936-13.481-4.007-27.718-1.922-41.546-3.453-8.575-.949-17.519-1.095-25.443-5.778-30.964-18.3-35.374-15.321-60.292,34.404-9.929,19.812-17.422,22.111-26.136,29.613v349.392c21.237-1.765,46.817-2.412,71.754-15.421,43.965-22.934,52.349-66.775,72.803-106.777Z"/>
  <path class="cls-5" d="M1463.275,22c-24.057,9.1-27.868,12.365-62.773,26.368-39.269,15.754-41.492,14.449-52.902,21.299-8.59,5.157-27.246,17.854-51.488,57.63-28.473,46.719-66.323,108.823-40.545,151.807,5.595,9.33,19.362,17.34,46.677,33.494,44.004,26.023,64.754,31.306,82.32,41.518,50.929,29.608,37.891,79.019,77.069,139.016,54.334,83.209,118.177,47.539,198.455,135.914,40.641,44.741,57.187,90.112,86.577,170.705,33.239,91.146,43.375,165.704,46.054,187.334,8.464,68.345,5.212,114.85-.662,154.876h238.097v-117.058c-7.713-25.667-14.602-42.364-15.575-44.654-11.259-26.481-30.823-64.117-45.472-125.131-11.281-46.986-5.827-50.271-16.446-87.311-9.949-34.701-17.958-43.056-69.09-138.159-37.812-70.33-42.306-82.266-62.601-108.409-23.318-30.037-45.049-49.914-63.326-64.101-12.465-9.675-26.997-20.955-48.318-31.015-39.869-18.81-49.752-8.006-85.506-22.904-14.61-6.088-60.231-25.097-82.302-67.753-14.743-28.492-18.501-37.339-29.791-53.236-1.764-2.483-5.678-7.794-12.249-12.962-2.91-2.289-8.846-7.409-17.577-9.54-6.554-1.6-16.67-1.382-27.181-.485-15.855,1.352-21.434,5.178-33.836.268-35.187-13.93-59.777-69.542-42.723-103.906,6.171-12.434,15.956-18.383,32.391-28.376,26.907-16.36,50.387-18.28,93.784-33.856,37.864-13.59,28.577-19.402,78.843-38.657,26.418-10.12,45.108-14.563,70.746-31.563,19.215-12.742,19.986-17.717,28.385-23.152h-150.526c-1.897.737-3.843,1.477-5.848,2.22-23.209,8.6-28.203,6.748-62.657,19.78Z"/>
  <path class="cls-7" d="M1863.285,486.856c-3.233,2.232-5.522,5.041-6.867,8.424-1.346,3.384-.831,6.795,1.544,10.233,1.43,2.071,3.346,3.749,5.747,5.034,2.4,1.285,5.588,2.152,9.564,2.601,4.99.555,10.54.084,16.653-1.413,6.111-1.498,11.262-3.693,15.451-6.587,3.096-2.139,5.259-4.86,6.491-8.166,1.23-3.305.691-6.631-1.62-9.978-1.572-2.277-3.673-4.114-6.301-5.509-2.629-1.396-5.964-2.28-10.002-2.65-4.039-.371-8.72.021-14.043,1.175-6.547,1.428-12.085,3.706-16.615,6.835Z"/>
  <path class="cls-7" d="M1583.176,54.716c-50.266,19.255-40.979,25.067-78.843,38.657-43.396,15.576-66.877,17.496-93.784,33.856-16.435,9.993-26.22,15.942-32.391,28.376-17.054,34.364,7.536,89.976,42.723,103.906,12.402,4.91,17.981,1.084,33.836-.268,10.511-.897,20.627-1.115,27.181.485,8.731,2.132,14.667,7.251,17.577,9.54,6.571,5.168,10.485,10.479,12.249,12.962,11.289,15.896,15.048,24.743,29.791,53.236,22.071,42.656,67.692,61.665,82.302,67.753,35.754,14.898,45.637,4.093,85.506,22.904,21.321,10.06,35.854,21.34,48.318,31.015,18.277,14.187,40.008,34.063,63.326,64.101,20.295,26.143,24.789,38.079,62.601,108.409,51.132,95.103,59.141,103.458,69.09,138.159,10.62,37.04,5.166,40.326,16.446,87.311,14.649,61.014,34.213,98.65,45.472,125.131.974,2.29,7.863,18.987,15.575,44.654V0h-347.846c-8.399,5.435-9.169,10.41-28.385,23.152-25.638,17-44.328,21.443-70.746,31.563ZM1525.998,239.258l1.589-.353c1.187,1.803,2.119,2.934,2.796,3.393,1.007.676,1.972,1.022,2.893,1.035,1.358.035,3.845-.471,7.464-1.517l34.043-9.552c2.735-.79,4.713-1.565,5.935-2.325.892-.555,1.397-1.302,1.516-2.239.118-.937-.387-2.309-1.512-4.119l-.46-.74,1.567-.389,21.359,34.322-13.365,4.21-.811-1.303c1.182-.509,2.138-.989,2.867-1.442,1.244-.775,2.1-1.731,2.566-2.869.583-1.47.682-3.145.296-5.023-.279-1.39-1.683-4.119-4.212-8.182l-3.772-6.061-22.286,6.292,2.785,4.475c1.988,3.195,3.915,5.205,5.782,6.031,1.865.827,4.436.938,7.711.334l.811,1.304-20.385,5.891-.877-1.409c1.719-.484,3.096-1.047,4.13-1.69,1.01-.628,1.692-1.339,2.047-2.13.355-.791.456-1.637.304-2.536-.153-.899-.945-2.5-2.378-4.802l-2.828-4.546-18.695,5.23c-1.805.505-3.107,1.005-3.906,1.501-.611.381-.968,1.01-1.072,1.89-.081.604.376,1.704,1.37,3.302l2.632,4.229c2.851,4.581,5.945,7.746,9.285,9.498,3.338,1.751,7.696,2.469,13.073,2.154l.811,1.303-16.091,3.758-22.982-36.929ZM1597.096,315.477c-.728,1.3-1.77,3.397-3.124,6.289-.878,1.85-1.36,3.294-1.445,4.332-.086,1.038.082,2.063.506,3.075.423,1.012,1.337,2.263,2.745,3.753l-1.399.78-15.798-15.426,1.399-.78c1.681,1.526,3.149,2.36,4.403,2.502.921.126,1.691-.128,2.31-.762.541-.554,1.473-2.023,2.795-4.407l7.067-12.88-18.751.311c-3.678.084-5.984.248-6.92.493-.566.143-1.014.384-1.342.721-.58.594-.757,1.37-.529,2.325.122.429.799,1.418,2.031,2.969l-1.37.809-13.392-13.077,1.399-.78c1.837,1.485,3.59,2.442,5.258,2.872,2.472.597,6.437.854,11.896.769l23.182-.334,8.131-14.741c2.509-4.511,3.804-7.529,3.884-9.057.079-1.526-.723-3.23-2.408-5.107l1.37-.81,14.402,14.064-1.43.751c-1.327-1.295-2.305-2.085-2.934-2.372-.629-.286-1.237-.376-1.822-.271-.587.104-1.092.375-1.517.81-.464.476-1.31,1.817-2.535,4.022l-6.953,12.585,12.472-.119c4.93-.059,8.605-.395,11.024-1.011.858-.206,1.49-.517,1.896-.932.444-.456.603-.996.479-1.62-.187-.879-.984-2.063-2.39-3.553l1.399-.78,13.63,13.309-1.399.78c-2.192-1.598-4.435-2.657-6.729-3.178-2.297-.521-5.967-.672-11.012-.456l-20.89.483-7.587,13.649ZM1938.132,521.071l6.34,12.561-31.551,35.404,33.664-6.438c2.77-.53,4.822-1.132,6.156-1.805.913-.46,1.468-1.144,1.662-2.048.195-.904-.15-2.233-1.035-3.986-.15-.297-.293-.612-.431-.945l1.577-.284,8.153,16.154-1.595.248c-.824-1.692-1.626-2.853-2.407-3.481-1.105-.899-2.208-1.427-3.31-1.584-1.561-.204-3.991.016-7.292.659l-47.39,9.088-.673-1.334,33.954-38.105-35.816,6.873c-2.708.53-4.692,1.112-5.952,1.748-.939.475-1.497,1.135-1.672,1.983-.177.848.222,2.452,1.197,4.813l-1.558.322-7.967-15.785,1.633-.173c1.046,1.952,1.886,3.186,2.52,3.703.956.788,1.916,1.248,2.882,1.381,1.448.167,3.953-.089,7.514-.771l39.971-7.667c.996-1.712,1.495-3.258,1.496-4.636,0-1.38-.548-3.25-1.645-5.609l1.576-.284ZM1903.729,477.787c3.789,2.225,6.957,5.181,9.505,8.87,2.123,3.074,3.336,6.254,3.639,9.542.303,3.287-.385,6.503-2.063,9.647-1.68,3.144-3.919,5.682-6.72,7.617-4.963,3.428-11.166,5.585-18.607,6.471-7.442.886-14.201-.003-20.278-2.666-6.076-2.664-10.828-6.477-14.256-11.44-2.469-3.575-3.741-7.109-3.818-10.604-.077-3.496.786-6.714,2.588-9.656,1.801-2.943,3.92-5.254,6.356-6.937,4.325-2.987,9.319-4.898,14.981-5.732,5.662-.833,10.909-.784,15.74.15,4.831.933,9.142,2.513,12.933,4.738ZM1876.939,436.079c-.235-.743-.996-1.963-2.284-3.66l1.524-.531,13.15,17.322-1.5.565c-1.049-1.427-1.998-2.358-2.846-2.789-1.194-.657-2.395-.935-3.603-.834-1.209.101-3.522.806-6.94,2.115l-32.938,12.758c-3.027,1.185-4.881,2.037-5.564,2.556-.551.418-.916.911-1.092,1.479-.177.568-.139,1.235.111,2,.25.765,1.038,2.156,2.361,4.175l-1.499.565-14.002-18.447,1.574-.466c1.449,1.819,2.532,2.924,3.248,3.319,1.111.685,2.173,1.008,3.185.969,1.588-.06,4.008-.715,7.26-1.968l32.964-12.725c2.75-1.045,4.698-2.003,5.844-2.873.573-.435.948-.946,1.128-1.533.18-.588.151-1.253-.082-1.996ZM1828.396,386.677l34.253,25.575-12.63,9.217-1.264-.944c1.729-1.437,3.106-2.842,4.133-4.218,1.208-1.618,1.621-3.21,1.235-4.775-.291-1.183-1.998-2.943-5.125-5.276l-3.558-2.657-32.105,24.407c-4.045,3.058-6.406,5.041-7.084,5.95-.63.843-.793,1.8-.488,2.873.303,1.073,1.354,2.28,3.15,3.621l1.53,1.143-1.318.932-19.621-14.65,1.285-.957.864.645c1.73,1.292,3.267,2.008,4.612,2.149.924.103,2.016-.144,3.273-.742,1.257-.597,3.544-2.145,6.859-4.642l33.257-25.048-2.694-2.011c-2.594-1.937-4.932-3.165-7.014-3.684-2.082-.518-4.083-.51-6.002.026-1.919.536-4.058,1.735-6.417,3.6l-1.231-.918,12.099-9.614ZM1746.45,378.641l13.139-14.98c1.873-2.179,3.086-3.857,3.636-5.035.433-.927.413-1.815-.061-2.663-.475-.847-2.119-2.02-4.93-3.518l1.026-1.215,21.545,10.069-1.064,1.198c-2.229-.98-3.898-1.509-5.009-1.585-1.11-.075-2.214.195-3.311.812-1.098.617-2.596,2.01-4.494,4.177l-13.66,15.605c-2.428,2.776-3.963,4.624-4.607,5.544-1.05,1.463-1.898,2.886-2.542,4.264-1.417,3.033-1.487,6.124-.209,9.271,1.277,3.148,3.809,5.605,7.594,7.374,2.482,1.16,4.919,1.727,7.314,1.7,2.394-.026,4.682-.561,6.864-1.602,2.183-1.042,4.526-2.741,7.032-5.098,2.506-2.357,4.888-4.808,7.148-7.356l11.787-13.458c2.944-3.358,4.691-5.626,5.242-6.805.387-.828.335-1.714-.154-2.661-.49-.946-1.87-2.026-4.143-3.241l1.064-1.198,16.206,7.573-1.064,1.199c-1.905-.891-3.363-1.351-4.372-1.379-1.01-.029-2.048.28-3.113.927-1.066.647-2.62,2.143-4.663,4.487l-14.366,16.33c-4.65,5.31-8.447,9.056-11.39,11.238-2.944,2.182-6.375,3.557-10.289,4.125-3.915.568-8.091-.184-12.528-2.258-5.114-2.39-8.561-5.764-10.341-10.124-1.781-4.36-1.798-8.406-.053-12.143.691-1.478,1.567-2.994,2.628-4.544.716-1.009,2.095-2.686,4.137-5.029ZM1689.708,345.381c5.101-4.312,10.918-7.032,17.454-8.16,6.536-1.128,12.542-.682,18.02,1.339,2.57.948,5.227,2.621,7.969,5.019,1.21,1.037,2.127,1.67,2.75,1.899.623.23,1.216.301,1.779.215.563-.087,1.614-.54,3.155-1.358l1.44.531-10.238,15.644-1.402-.518,1.425-4.341c.445-1.605.659-3.103.641-4.497-.018-1.391-.328-2.708-.932-3.949-.604-1.241-1.527-2.378-2.768-3.41-1.241-1.033-2.732-1.87-4.47-2.511-4.648-1.714-9.179-1.941-13.596-.68-5.637,1.607-10.805,4.906-15.506,9.895-3.878,4.115-6.74,8.678-8.588,13.687-1.887,5.115-1.9,9.747-.039,13.899,1.859,4.151,5.177,7.108,9.955,8.87,3.608,1.33,7.117,1.711,10.528,1.14,3.41-.57,6.94-2.084,10.59-4.543l1.83.675c-4.531,3.489-8.931,5.663-13.199,6.522-4.269.858-8.83.392-13.685-1.399-4.309-1.59-7.792-3.9-10.449-6.93-2.658-3.03-4.253-6.501-4.785-10.414-.532-3.912-.105-7.75,1.284-11.515,2.126-5.763,5.739-10.8,10.839-15.112ZM1674.645,335.69l-1.297-.823c.845-.971,1.497-1.819,1.957-2.543.784-1.239,1.14-2.472,1.066-3.698-.114-1.578-.751-3.131-1.915-4.654-.855-1.132-3.303-2.979-7.347-5.542l-6.029-3.822-17.345,15.343,4.452,2.822c3.178,2.015,5.788,2.99,7.828,2.923,2.04-.066,4.404-1.082,7.092-3.047l1.297.822-15.806,14.157-1.401-.889c1.339-1.182,2.334-2.287,2.986-3.316.636-1.004.943-1.94.92-2.807-.024-.866-.3-1.672-.827-2.416-.528-.743-1.937-1.841-4.227-3.293l-4.521-2.867-14.57,12.828c-1.408,1.238-2.363,2.254-2.867,3.048-.385.608-.434,1.33-.146,2.168.189.579,1.079,1.372,2.668,2.38l4.207,2.667c4.557,2.889,8.719,4.397,12.488,4.526,3.768.128,8.005-1.117,12.712-3.735l1.297.823-12.865,10.37-36.736-23.29,1.278-1.007c1.853,1.108,3.183,1.723,3.992,1.842,1.201.172,2.22.065,3.055-.323,1.239-.558,3.261-2.094,6.066-4.606l26.52-23.385c2.121-1.899,3.567-3.456,4.338-4.671.563-.887.693-1.779.393-2.674-.301-.895-1.351-1.912-3.15-3.053l-.737-.467,1.243-1.03,34.142,21.644-10.211,9.596Z"/>
  <path class="cls-7" d="M26.136,687.208c24.919-49.725,29.329-52.704,60.292-34.404,7.924,4.683,16.868,4.829,25.443,5.778,13.828,1.531,28.065-.554,41.546,3.453,27.05,8.041,52.878,8.483,79.462-20.936,9.483-10.494,22.669-8.71,34.13-10.131,28.206-3.497,52.367-19.81,64.709-76.464,6.382-29.293,18.928-48.315,33.302-50.215,31.93-4.219,63.948-4.408,95.618-1.805,27.143,2.231,53.24,11.243,81.628,2.122,10.311-3.313,45.848-8.873,90.464-38.824,10.496-7.046,42.59-29.52,79.926-74.788,46.371-56.224,50.064-86.062,50.461-99.577.07-2.378.484-21.216-5.923-35.346-10.275-22.658-30.021-15.417-44.673-14.408-35.765,2.462-36.171-32.559-85.529-57.65-19.115-9.717-47.129-8.489-102.52-14.865-23.696-2.728-47.84-10.731-71.285-3.383-46.896,14.696-84.818.587-108.452-77.74-10.386-34.42-24.498-58.231-40.841-75.995-4.866-5.289-9.482-8.864-14.302-12.029H0v716.821c8.714-7.502,16.208-9.801,26.136-29.613ZM563.246,279.316c1.34.052,2.457-.177,3.351-.687,1.377-.779,3.192-2.47,5.443-5.072l11.204-12.999,2.414-20.191c.412-3.573.376-5.922-.107-7.046-.484-1.124-1.709-2.231-3.677-3.321l1.004-1.234,18.991,8.468-1.08,1.2c-2.455-.882-3.875-1.333-4.259-1.354-.635-.071-1.247.08-1.838.453-.591.373-1.044.913-1.359,1.621-.462,1.036-.885,2.968-1.267,5.797l-2.067,15.847,15.881-9.323c4.116-2.437,6.394-4.147,6.833-5.133.248-.555.182-1.138-.198-1.747-.38-.608-1.812-1.558-4.297-2.848l1.004-1.234,16.148,7.201-.929,1.267c-1.657-.496-2.827-.761-3.509-.792-1.079-.027-2.241.167-3.486.581-1.661.532-4.309,1.85-7.944,3.956l-20.326,11.749-9.453,11.009c-2.355,2.767-3.803,4.757-4.344,5.97-.349.783-.469,1.442-.358,1.976.11.534.475,1.091,1.095,1.67.825.732,2.218,1.55,4.177,2.454l-1.004,1.234-21.644-9.652,1.08-1.2c2.17.908,3.677,1.367,4.52,1.38ZM497.416,243.1c.867-4.792,2.698-9.163,5.494-13.115,2.796-3.951,5.968-7.145,9.516-9.582,3.548-2.437,7.247-4.193,11.097-5.268,5.302-1.487,10.635-1.745,15.999-.774,3.947.714,7.396,2.013,10.346,3.897,1.185.749,2.078,1.177,2.677,1.286.681.123,1.288.072,1.821-.155.533-.227,1.289-.87,2.269-1.931l1.552.281-7.28,16.693-1.552-.281c.614-1.998,1.01-3.487,1.188-4.467.483-2.668-.268-5.243-2.251-7.725-1.984-2.482-5.044-4.097-9.183-4.846-8.468-1.532-16.103,1.192-22.905,8.172-5.413,5.516-8.824,12.168-10.232,19.954-.936,5.173-.424,9.877,1.537,14.113,1.961,4.235,5.692,6.85,11.192,7.846,1.361.246,2.67.356,3.926.331,1.256-.026,3.186-.239,5.789-.64l6.623-13.522c.926-1.857,1.495-3.371,1.707-4.541.177-.98-.041-1.793-.655-2.438-1.001-.997-2.781-1.727-5.34-2.19l-1.144-.207.738-1.511,23.034,4.168-.697,1.519c-2.102-.352-3.67-.383-4.707-.092-1.037.291-1.997.932-2.879,1.925-.597.651-1.732,2.654-3.406,6.005l-6.619,13.269c-4.021.932-7.223,1.456-9.606,1.573s-4.841-.054-7.373-.512c-5.827-1.054-10.353-3.005-13.577-5.852-3.225-2.847-5.376-6.23-6.451-10.151-1.077-3.92-1.292-7.663-.646-11.231ZM452.437,207.849c-.695-.64-2.105-1.027-4.231-1.161l-.87-.055.594-1.501,40.345,2.543-4.333,13.326-1.532-.097c.273-1.257.437-2.315.491-3.171.092-1.463-.189-2.715-.844-3.754-.859-1.329-2.165-2.382-3.918-3.158-1.294-.581-4.33-1.022-9.107-1.323l-7.125-.449-7.82,21.797,5.261.331c3.755.237,6.511-.165,8.268-1.205,1.756-1.039,3.339-3.068,4.75-6.084l1.533.096-7.042,20.017-1.657-.104c.605-1.68.946-3.128,1.022-4.344.075-1.187-.107-2.155-.544-2.904-.439-.748-1.068-1.321-1.888-1.72-.821-.398-2.584-.683-5.29-.853l-5.343-.337-6.599,18.257c-.638,1.762-.986,3.112-1.046,4.051-.045.719.26,1.375.916,1.971.445.417,1.606.684,3.484.802l4.97.313c5.385.34,9.759-.341,13.125-2.042,3.365-1.701,6.48-4.831,9.346-9.392l1.532.097-6.286,15.281-43.41-2.736.635-1.498c2.157.081,3.619-.022,4.386-.306,1.136-.428,1.977-1.012,2.523-1.754.817-1.085,1.85-3.404,3.1-6.958l11.994-33.261c.945-2.685,1.464-4.746,1.554-6.182.066-1.049-.249-1.893-.942-2.534ZM382.019,255.655l1.072.126c2.144.251,3.833.101,5.068-.452.851-.374,1.672-1.135,2.461-2.282.788-1.147,1.992-3.632,3.609-7.454l16.229-38.342-3.339-.391c-3.215-.376-5.854-.267-7.915.328-2.061.594-3.789,1.604-5.181,3.029-1.393,1.425-2.643,3.535-3.75,6.331l-1.525-.179,5.653-14.382,42.459,4.969-6.312,14.305-1.566-.184c.776-2.109,1.264-4.016,1.463-5.721.235-2.006-.207-3.59-1.324-4.751-.845-.879-3.204-1.545-7.079-1.999l-4.411-.516-15.553,37.209c-1.968,4.673-3.018,7.573-3.149,8.699-.122,1.045.216,1.954,1.017,2.731.801.776,2.314,1.294,4.54,1.555l1.896.222-.673,1.467-24.321-2.846.632-1.472ZM376.808,197.54l1.295.658-25.022,39.799c-1.189,1.849-1.939,3.082-2.252,3.698-.501.987-.699,1.833-.592,2.539.104.954.47,1.807,1.096,2.56.626.753,1.889,1.612,3.789,2.577l-1.103,1.162-19.758-10.042,1.103-1.162.851.433c1.603.815,3.086,1.134,4.448.957.953-.105,1.903-.599,2.85-1.485.659-.627,1.834-2.296,3.523-5.007l3.826-6.063-14.356-7.296-8.622,4.324c-1.95.964-3.244,1.711-3.885,2.239-.641.529-1.112,1.088-1.413,1.68-.401.79-.425,1.631-.072,2.524.353.894,1.257,1.741,2.712,2.542l-1.103,1.162-14.837-7.54,1.103-1.163c1.863.854,3.782,1.061,5.759.623,1.976-.439,5.299-1.83,9.967-4.176l50.692-25.542ZM314.943,150.317l11.656,14.165c3.903,4.743,5.819,8.899,5.747,12.471-.072,3.57-1.571,6.56-4.498,8.969-2.799,2.304-6.241,3.335-10.326,3.095-4.085-.239-7.976-1.974-11.672-5.203l-9.242,14.701c-2.276,3.592-3.461,6.288-3.557,8.087-.096,1.799.732,3.894,2.485,6.286l-1.476.623-8.545-10.383,15.397-24.334c-1.358-1.606-2.569-3.405-3.634-5.395l-16.225,7.063c-2.114.915-3.758,1.856-4.933,2.823-.897.738-1.348,1.628-1.35,2.67.002.786.779,2.297,2.331,4.532l-1.423.687-13.846-16.825,1.476-.623c1.365,1.528,2.404,2.464,3.118,2.809,1.084.577,2.103.814,3.057.71,1.566-.143,3.928-.886,7.087-2.23l32.497-14.004c2.174-.928,3.742-1.789,4.703-2.58.983-.809,1.486-1.895,1.511-3.259.024-1.364-.59-2.785-1.841-4.263l1.502-.591ZM310.052,144.591l-15.326,3.092-.754-1.386c2.171-.582,4.01-1.284,5.518-2.103,1.774-.965,2.814-2.239,3.118-3.822.231-1.197-.585-3.509-2.449-6.936l-2.122-3.901-39.368,8.75c-4.952,1.087-7.927,1.902-8.923,2.443-.924.503-1.472,1.305-1.644,2.406-.173,1.102.277,2.637,1.348,4.606l.912,1.677-1.587.296-11.7-21.512,1.567-.333.516.948c1.031,1.896,2.128,3.189,3.291,3.88.796.48,1.891.712,3.284.695,1.392-.017,4.116-.467,8.172-1.35l40.684-8.851-1.607-2.953c-1.546-2.844-3.157-4.937-4.832-6.278-1.674-1.341-3.495-2.17-5.462-2.486-1.968-.316-4.412-.121-7.334.587l-.734-1.349,15.01-3.676,20.425,37.554ZM229.841,74.779l.767,1.184c-1.8.936-3.257,1.766-4.371,2.489-3.181,2.062-5.111,4.756-5.79,8.082-.68,3.326.042,6.626,2.165,9.899,1.972,3.041,4.404,4.745,7.297,5.112,2.892.367,5.558-.24,7.995-1.821,1.579-1.023,2.784-2.317,3.618-3.879,1.219-2.341,2.72-7.452,4.501-15.334.831-3.803,1.604-6.399,2.321-7.787,1.188-2.287,2.814-4.1,4.881-5.44,3.297-2.137,6.915-2.736,10.856-1.796,3.94.94,7.16,3.338,9.659,7.191.843,1.3,1.513,2.613,2.01,3.94.327.81.713,2.423,1.159,4.838.339,1.692.53,2.624.575,2.793.141.37.339.752.595,1.147.437.673.987,1.141,1.652,1.402.664.262,1.776.349,3.335.262l.858,1.323-18.019,6.539-.767-1.184c1.453-.811,2.609-1.494,3.468-2.051,2.809-1.822,4.505-4.24,5.089-7.257.583-3.017-.111-6.045-2.083-9.087-1.566-2.415-3.546-3.917-5.94-4.508-2.395-.591-4.521-.284-6.378.92-1.625,1.054-2.863,2.54-3.712,4.46-.85,1.919-1.815,5.694-2.896,11.325-1.081,5.631-2.225,9.563-3.431,11.797-1.207,2.233-2.867,4.035-4.979,5.404-2.391,1.551-5.118,2.42-8.178,2.607-3.062.187-5.975-.504-8.74-2.074-2.765-1.57-5.06-3.76-6.881-6.569-.903-1.393-1.618-2.776-2.146-4.148-.527-1.373-1.15-3.706-1.868-7-.239-1.131-.554-1.999-.945-2.602-.888-1.37-2.509-1.836-4.863-1.398l-.858-1.323,20.046-7.458Z"/>
  <path class="cls-7" d="M302.273,176.331c3.023,3.675,6.435,5.741,10.234,6.199,3.798.457,7.214-.562,10.249-3.059,2.372-1.952,3.638-4.114,3.8-6.487.162-2.373-.857-4.894-3.054-7.565-.563-.684-1.317-1.425-2.261-2.225l-21.686,9.246c.933,1.525,1.838,2.822,2.718,3.891Z"/>
  <polygon class="cls-7" points="364.515 206.796 339.914 219.2 352.53 225.612 364.515 206.796"/>
  <path d="M1564.26,271.126c-5.377.315-9.734-.404-13.073-2.154-3.34-1.752-6.434-4.918-9.285-9.498l-2.632-4.229c-.994-1.598-1.451-2.698-1.37-3.302.104-.88.461-1.509,1.072-1.89.798-.496,2.1-.997,3.906-1.501l18.695-5.23,2.828,4.546c1.433,2.302,2.225,3.903,2.378,4.802.151.9.051,1.745-.304,2.536-.355.791-1.038,1.502-2.047,2.13-1.034.643-2.411,1.206-4.13,1.69l.877,1.409,20.385-5.891-.811-1.304c-3.275.603-5.846.492-7.711-.334-1.867-.826-3.794-2.837-5.782-6.031l-2.785-4.475,22.286-6.292,3.772,6.061c2.529,4.063,3.933,6.791,4.212,8.182.387,1.878.287,3.553-.296,5.023-.466,1.137-1.322,2.093-2.566,2.869-.729.453-1.685.933-2.867,1.442l.811,1.303,13.365-4.21-21.359-34.322-1.567.389.46.74c1.125,1.809,1.63,3.182,1.512,4.119-.119.937-.623,1.683-1.516,2.239-1.222.76-3.2,1.535-5.935,2.325l-34.043,9.552c-3.619,1.046-6.106,1.551-7.464,1.517-.921-.014-1.885-.359-2.893-1.035-.677-.459-1.609-1.59-2.796-3.393l-1.589.353,22.982,36.929,16.091-3.758-.811-1.303Z"/>
  <path d="M1636.585,301.8c2.295.521,4.538,1.58,6.729,3.178l1.399-.78-13.63-13.309-1.399.78c1.406,1.489,2.203,2.674,2.39,3.553.124.624-.035,1.164-.479,1.62-.406.415-1.039.726-1.896.932-2.42.616-6.094.952-11.024,1.011l-12.472.119,6.953-12.585c1.225-2.205,2.071-3.546,2.535-4.022.425-.435.93-.706,1.517-.81.585-.105,1.193-.014,1.822.271.629.287,1.607,1.077,2.934,2.372l1.43-.751-14.402-14.064-1.37.81c1.685,1.877,2.487,3.581,2.408,5.107-.08,1.528-1.374,4.546-3.884,9.057l-8.131,14.741-23.182.334c-5.459.085-9.424-.172-11.896-.769-1.668-.43-3.421-1.387-5.258-2.872l-1.399.78,13.392,13.077,1.37-.809c-1.232-1.551-1.909-2.54-2.031-2.969-.227-.956-.051-1.731.529-2.325.328-.336.776-.577,1.342-.721.936-.245,3.242-.409,6.92-.493l18.751-.311-7.067,12.88c-1.322,2.383-2.254,3.853-2.795,4.407-.618.634-1.389.888-2.31.762-1.253-.142-2.722-.976-4.403-2.502l-1.399.78,15.798,15.426,1.399-.78c-1.407-1.49-2.322-2.741-2.745-3.753-.424-1.012-.592-2.037-.506-3.075.085-1.038.567-2.483,1.445-4.332,1.354-2.892,2.396-4.989,3.124-6.289l7.587-13.649,20.89-.483c5.046-.216,8.716-.065,11.012.456Z"/>
  <path d="M1649.472,305.479l.737.467c1.799,1.141,2.849,2.158,3.15,3.053.3.895.17,1.787-.393,2.674-.771,1.216-2.217,2.772-4.338,4.671l-26.52,23.385c-2.805,2.513-4.827,4.048-6.066,4.606-.835.388-1.854.495-3.055.323-.809-.119-2.139-.734-3.992-1.842l-1.278,1.007,36.736,23.29,12.865-10.37-1.297-.823c-4.707,2.618-8.944,3.863-12.712,3.735-3.768-.129-7.93-1.637-12.488-4.526l-4.207-2.667c-1.589-1.008-2.479-1.8-2.668-2.38-.289-.838-.239-1.56.146-2.168.503-.794,1.458-1.81,2.867-3.048l14.57-12.828,4.521,2.867c2.29,1.452,3.699,2.55,4.227,3.293.527.745.803,1.55.827,2.416.023.868-.283,1.803-.92,2.807-.652,1.029-1.647,2.134-2.986,3.316l1.401.889,15.806-14.157-1.297-.822c-2.688,1.965-5.052,2.981-7.092,3.047-2.041.066-4.65-.909-7.828-2.923l-4.452-2.822,17.345-15.343,6.029,3.822c4.043,2.563,6.492,4.41,7.347,5.542,1.164,1.523,1.801,3.075,1.915,4.654.074,1.226-.281,2.459-1.066,3.698-.46.724-1.112,1.572-1.957,2.543l1.297.823,10.211-9.596-34.142-21.644-1.243,1.03Z"/>
  <path d="M1677.585,372.008c.532,3.913,2.127,7.384,4.785,10.414,2.657,3.03,6.14,5.34,10.449,6.93,4.854,1.791,9.416,2.257,13.685,1.399,4.269-.859,8.668-3.033,13.199-6.522l-1.83-.675c-3.65,2.458-7.18,3.973-10.59,4.543-3.411.571-6.92.19-10.528-1.14-4.777-1.763-8.096-4.719-9.955-8.87-1.861-4.152-1.848-8.784.039-13.899,1.848-5.009,4.71-9.571,8.588-13.687,4.701-4.989,9.87-8.288,15.506-9.895,4.417-1.261,8.948-1.034,13.596.68,1.738.641,3.229,1.479,4.47,2.511,1.241,1.033,2.163,2.17,2.768,3.41.604,1.241.915,2.557.932,3.949.017,1.394-.197,2.892-.641,4.497l-1.425,4.341,1.402.518,10.238-15.644-1.44-.531c-1.541.818-2.592,1.271-3.155,1.358-.563.087-1.156.015-1.779-.215-.623-.229-1.541-.862-2.75-1.899-2.743-2.397-5.4-4.071-7.969-5.019-5.477-2.021-11.484-2.467-18.02-1.339-6.536,1.128-12.354,3.848-17.454,8.16-5.101,4.312-8.713,9.349-10.839,15.112-1.389,3.764-1.816,7.603-1.284,11.515Z"/>
  <path d="M1739.737,400.358c1.78,4.359,5.227,7.734,10.341,10.124,4.436,2.074,8.613,2.826,12.528,2.258,3.914-.568,7.344-1.943,10.289-4.125,2.943-2.182,6.74-5.928,11.39-11.238l14.366-16.33c2.042-2.345,3.596-3.84,4.663-4.487,1.065-.647,2.104-.956,3.113-.927,1.009.029,2.466.489,4.372,1.379l1.064-1.199-16.206-7.573-1.064,1.198c2.273,1.215,3.653,2.296,4.143,3.241.488.947.541,1.833.154,2.661-.551,1.179-2.298,3.447-5.242,6.805l-11.787,13.458c-2.26,2.548-4.643,5-7.148,7.356-2.506,2.357-4.849,4.056-7.032,5.098-2.182,1.042-4.47,1.576-6.864,1.602-2.395.027-4.833-.54-7.314-1.7-3.785-1.769-6.317-4.227-7.594-7.374-1.278-3.148-1.209-6.238.209-9.271.644-1.378,1.492-2.8,2.542-4.264.644-.92,2.179-2.768,4.607-5.544l13.66-15.605c1.898-2.167,3.397-3.559,4.494-4.177,1.097-.617,2.201-.887,3.311-.812,1.11.077,2.78.605,5.009,1.585l1.064-1.198-21.545-10.069-1.026,1.215c2.812,1.498,4.456,2.67,4.93,3.518.474.848.495,1.736.061,2.663-.551,1.179-1.764,2.857-3.636,5.035l-13.139,14.98c-2.042,2.343-3.421,4.021-4.137,5.029-1.061,1.551-1.937,3.066-2.628,4.544-1.746,3.736-1.728,7.782.053,12.143Z"/>
  <path d="M1823.944,393.609c1.918-.535,3.919-.544,6.002-.026,2.081.519,4.419,1.747,7.014,3.684l2.694,2.011-33.257,25.048c-3.314,2.497-5.601,4.045-6.859,4.642-1.258.598-2.349.845-3.273.742-1.345-.14-2.882-.857-4.612-2.149l-.864-.645-1.285.957,19.621,14.65,1.318-.932-1.53-1.143c-1.796-1.341-2.846-2.548-3.15-3.621-.305-1.073-.142-2.03.488-2.873.678-.909,3.039-2.892,7.084-5.95l32.105-24.407,3.558,2.657c3.127,2.334,4.834,4.093,5.125,5.276.385,1.565-.027,3.157-1.235,4.775-1.026,1.375-2.404,2.781-4.133,4.218l1.264.944,12.63-9.217-34.253-25.575-12.099,9.614,1.231.918c2.359-1.865,4.498-3.064,6.417-3.6Z"/>
  <path d="M1875.892,439.609c-1.147.87-3.095,1.827-5.844,2.873l-32.964,12.725c-3.252,1.253-5.672,1.909-7.26,1.968-1.012.039-2.074-.284-3.185-.969-.716-.395-1.798-1.5-3.248-3.319l-1.574.466,14.002,18.447,1.499-.565c-1.323-2.018-2.111-3.41-2.361-4.175-.251-.765-.288-1.431-.111-2,.176-.568.54-1.061,1.092-1.479.682-.519,2.537-1.371,5.564-2.556l32.938-12.758c3.418-1.309,5.731-2.015,6.94-2.115,1.208-.101,2.41.177,3.603.834.849.432,1.797,1.362,2.846,2.789l1.5-.565-13.15-17.322-1.524.531c1.288,1.697,2.048,2.917,2.284,3.66.233.743.261,1.408.082,1.996-.18.587-.555,1.099-1.128,1.533Z"/>
  <path d="M1875.056,472.899c-5.662.834-10.656,2.745-14.981,5.732-2.437,1.683-4.555,3.994-6.356,6.937-1.802,2.942-2.664,6.16-2.588,9.656.078,3.494,1.349,7.029,3.818,10.604,3.428,4.963,8.18,8.776,14.256,11.44,6.077,2.663,12.836,3.551,20.278,2.666,7.441-.886,13.644-3.043,18.607-6.471,2.801-1.934,5.04-4.473,6.72-7.617,1.678-3.144,2.366-6.359,2.063-9.647-.303-3.288-1.517-6.468-3.639-9.542-2.548-3.688-5.716-6.644-9.505-8.87-3.791-2.225-8.101-3.804-12.933-4.738-4.832-.934-10.078-.983-15.74-.15ZM1893.943,478.846c4.039.37,7.373,1.254,10.002,2.65,2.628,1.396,4.729,3.232,6.301,5.509,2.311,3.347,2.851,6.673,1.62,9.978-1.232,3.305-3.395,6.027-6.491,8.166-4.189,2.894-9.34,5.089-15.451,6.587-6.112,1.497-11.663,1.968-16.653,1.413-3.976-.449-7.164-1.316-9.564-2.601-2.401-1.284-4.317-2.963-5.747-5.034-2.375-3.438-2.89-6.849-1.544-10.233,1.345-3.384,3.634-6.192,6.867-8.424,4.53-3.129,10.068-5.407,16.615-6.835,5.323-1.154,10.004-1.546,14.043-1.175Z"/>
  <path d="M1936.705,531.601l-39.971,7.667c-3.562.682-6.066.938-7.514.771-.967-.133-1.927-.593-2.882-1.381-.634-.517-1.474-1.752-2.52-3.703l-1.633.173,7.967,15.785,1.558-.322c-.975-2.36-1.373-3.964-1.197-4.813.176-.848.733-1.508,1.672-1.983,1.26-.636,3.244-1.218,5.952-1.748l35.816-6.873-33.954,38.105.673,1.334,47.39-9.088c3.301-.643,5.731-.863,7.292-.659,1.102.156,2.205.684,3.31,1.584.782.628,1.583,1.789,2.407,3.481l1.595-.248-8.153-16.154-1.577.284c.138.334.281.648.431.945.885,1.753,1.23,3.082,1.035,3.986-.195.904-.749,1.588-1.662,2.048-1.334.674-3.386,1.275-6.156,1.805l-33.664,6.438,31.551-35.404-6.34-12.561-1.576.284c1.097,2.359,1.646,4.229,1.645,5.609-.001,1.379-.5,2.925-1.496,4.636Z"/>
  <path d="M215.517,84.958c.391.603.707,1.471.945,2.602.717,3.294,1.341,5.627,1.868,7,.528,1.372,1.243,2.755,2.146,4.148,1.821,2.809,4.115,4.999,6.881,6.569,2.766,1.57,5.679,2.261,8.74,2.074,3.06-.188,5.786-1.056,8.178-2.607,2.112-1.369,3.772-3.171,4.979-5.404,1.206-2.234,2.35-6.166,3.431-11.797,1.081-5.631,2.046-9.406,2.896-11.325.849-1.919,2.087-3.406,3.712-4.46,1.857-1.204,3.983-1.511,6.378-.92,2.394.591,4.374,2.094,5.94,4.508,1.972,3.041,2.666,6.07,2.083,9.087-.584,3.016-2.28,5.435-5.089,7.257-.86.557-2.015,1.24-3.468,2.051l.767,1.184,18.019-6.539-.858-1.323c-1.559.087-2.671,0-3.335-.262-.664-.261-1.215-.729-1.652-1.402-.256-.395-.454-.777-.595-1.147-.044-.169-.236-1.101-.575-2.793-.445-2.416-.832-4.029-1.159-4.838-.498-1.327-1.167-2.64-2.01-3.94-2.499-3.854-5.719-6.251-9.659-7.191-3.941-.941-7.559-.342-10.856,1.796-2.067,1.34-3.693,3.153-4.881,5.44-.717,1.388-1.49,3.984-2.321,7.787-1.782,7.883-3.282,12.993-4.501,15.334-.834,1.562-2.039,2.856-3.618,3.879-2.437,1.581-5.103,2.188-7.995,1.821-2.893-.367-5.325-2.071-7.297-5.112-2.122-3.273-2.844-6.573-2.165-9.899.679-3.326,2.609-6.02,5.79-8.082,1.114-.723,2.571-1.552,4.371-2.489l-.767-1.184-20.046,7.458.858,1.323c2.354-.438,3.975.028,4.863,1.398Z"/>
  <path d="M275.351,112.061c2.922-.708,5.367-.904,7.334-.587,1.967.316,3.788,1.144,5.462,2.486,1.674,1.341,3.285,3.434,4.832,6.278l1.607,2.953-40.684,8.851c-4.055.883-6.78,1.333-8.172,1.35-1.393.017-2.487-.215-3.284-.695-1.163-.69-2.26-1.983-3.291-3.88l-.516-.948-1.567.333,11.7,21.512,1.587-.296-.912-1.677c-1.071-1.969-1.521-3.505-1.348-4.606.172-1.102.72-1.903,1.644-2.406.996-.542,3.971-1.356,8.923-2.443l39.368-8.75,2.122,3.901c1.864,3.427,2.68,5.739,2.449,6.936-.304,1.583-1.344,2.857-3.118,3.822-1.507.82-3.347,1.521-5.518,2.103l.754,1.386,15.326-3.092-20.425-37.554-15.01,3.676.734,1.349Z"/>
  <path d="M313.772,158.43c-.961.791-2.529,1.652-4.703,2.58l-32.497,14.004c-3.159,1.344-5.521,2.088-7.087,2.23-.954.104-1.973-.132-3.057-.71-.714-.345-1.753-1.281-3.118-2.809l-1.476.623,13.846,16.825,1.423-.687c-1.552-2.235-2.329-3.745-2.331-4.532.003-1.042.453-1.931,1.35-2.67,1.175-.967,2.819-1.908,4.933-2.823l16.225-7.063c1.064,1.99,2.276,3.789,3.634,5.395l-15.397,24.334,8.545,10.383,1.476-.623c-1.753-2.392-2.582-4.486-2.485-6.286.096-1.799,1.281-4.495,3.557-8.087l9.242-14.701c3.696,3.229,7.587,4.964,11.672,5.203,4.085.24,7.527-.792,10.326-3.095,2.927-2.408,4.426-5.398,4.498-8.969.072-3.571-1.844-7.728-5.747-12.471l-11.656-14.165-1.502.591c1.251,1.478,1.866,2.899,1.841,4.263-.025,1.364-.528,2.45-1.511,3.259ZM323.501,165.419c2.197,2.671,3.216,5.192,3.054,7.565-.162,2.373-1.428,4.535-3.8,6.487-3.034,2.497-6.451,3.516-10.249,3.059-3.799-.458-7.21-2.524-10.234-6.199-.88-1.068-1.785-2.365-2.718-3.891l21.686-9.246c.944.8,1.698,1.541,2.261,2.225Z"/>
  <path d="M316.148,227.258c-1.977.438-3.896.231-5.759-.623l-1.103,1.163,14.837,7.54,1.103-1.162c-1.455-.801-2.359-1.648-2.712-2.542-.353-.893-.329-1.734.072-2.524.301-.592.771-1.151,1.413-1.68.641-.528,1.935-1.274,3.885-2.239l8.622-4.324,14.356,7.296-3.826,6.063c-1.689,2.712-2.863,4.381-3.523,5.007-.946.885-1.897,1.38-2.85,1.485-1.363.177-2.845-.143-4.448-.957l-.851-.433-1.103,1.162,19.758,10.042,1.103-1.162c-1.9-.965-3.163-1.824-3.789-2.577-.626-.752-.992-1.606-1.096-2.56-.107-.706.09-1.552.592-2.539.313-.616,1.063-1.849,2.252-3.698l25.022-39.799-1.295-.658-50.692,25.542c-4.669,2.346-7.991,3.737-9.967,4.176ZM364.515,206.796l-11.985,18.817-12.617-6.412,24.601-12.404Z"/>
  <path d="M406.381,258.506l-1.896-.222c-2.226-.261-3.74-.779-4.54-1.555-.801-.776-1.14-1.686-1.017-2.731.132-1.127,1.181-4.026,3.149-8.699l15.553-37.209,4.411.516c3.875.454,6.234,1.12,7.079,1.999,1.117,1.162,1.559,2.746,1.324,4.751-.2,1.704-.688,3.611-1.463,5.721l1.566.184,6.312-14.305-42.459-4.969-5.653,14.382,1.525.179c1.107-2.796,2.356-4.906,3.75-6.331,1.392-1.425,3.119-2.435,5.181-3.029,2.061-.595,4.7-.704,7.915-.328l3.339.391-16.229,38.342c-1.617,3.822-2.821,6.307-3.609,7.454-.789,1.147-1.61,1.908-2.461,2.282-1.235.552-2.924.702-5.068.452l-1.072-.126-.632,1.472,24.321,2.846.673-1.467Z"/>
  <path d="M439.831,249.826c-1.25,3.554-2.283,5.873-3.1,6.958-.546.742-1.387,1.326-2.523,1.754-.767.284-2.229.387-4.386.306l-.635,1.498,43.41,2.736,6.286-15.281-1.532-.097c-2.866,4.561-5.981,7.691-9.346,9.392-3.365,1.701-7.74,2.382-13.125,2.042l-4.97-.313c-1.878-.118-3.04-.385-3.484-.802-.656-.596-.961-1.252-.916-1.971.059-.938.408-2.289,1.046-4.051l6.599-18.257,5.343.337c2.706.17,4.469.455,5.29.853.82.399,1.449.972,1.888,1.72.437.749.619,1.717.544,2.904-.076,1.216-.417,2.663-1.022,4.344l1.657.104,7.042-20.017-1.533-.096c-1.411,3.016-2.994,5.045-4.75,6.084-1.757,1.04-4.513,1.442-8.268,1.205l-5.261-.331,7.82-21.797,7.125.449c4.777.301,7.813.742,9.107,1.323,1.753.776,3.059,1.829,3.918,3.158.655,1.039.936,2.291.844,3.754-.054.856-.218,1.914-.491,3.171l1.532.097,4.333-13.326-40.345-2.543-.594,1.501.87.055c2.126.134,3.536.521,4.231,1.161.694.64,1.008,1.485.942,2.534-.091,1.436-.609,3.497-1.554,6.182l-11.994,33.261Z"/>
  <path d="M504.514,264.482c3.224,2.846,7.75,4.798,13.577,5.852,2.532.458,4.989.629,7.373.512s5.585-.641,9.606-1.573l6.619-13.269c1.675-3.352,2.81-5.354,3.406-6.005.882-.993,1.842-1.635,2.879-1.925,1.037-.291,2.605-.259,4.707.092l.697-1.519-23.034-4.168-.738,1.511,1.144.207c2.559.463,4.339,1.193,5.34,2.19.614.645.833,1.458.655,2.438-.212,1.171-.781,2.685-1.707,4.541l-6.623,13.522c-2.603.401-4.533.614-5.789.64-1.256.026-2.565-.084-3.926-.331-5.5-.995-9.231-3.61-11.192-7.846-1.961-4.236-2.474-8.939-1.537-14.113,1.409-7.787,4.82-14.438,10.232-19.954,6.802-6.979,14.437-9.704,22.905-8.172,4.138.749,7.199,2.364,9.183,4.846,1.983,2.482,2.733,5.057,2.251,7.725-.177.98-.573,2.469-1.188,4.467l1.552.281,7.28-16.693-1.552-.281c-.98,1.06-1.736,1.704-2.269,1.931-.533.227-1.14.278-1.821.155-.599-.108-1.492-.537-2.677-1.286-2.95-1.883-6.398-3.182-10.346-3.897-5.364-.97-10.697-.712-15.999.774-3.85,1.075-7.55,2.831-11.097,5.268-3.548,2.437-6.72,5.631-9.516,9.582-2.796,3.951-4.627,8.323-5.494,13.115-.645,3.567-.431,7.31.646,11.231,1.076,3.921,3.226,7.305,6.451,10.151Z"/>
  <path d="M579.29,288.787l1.004-1.234c-1.96-.904-3.352-1.722-4.177-2.454-.621-.579-.986-1.136-1.095-1.67-.111-.534.009-1.192.358-1.976.541-1.213,1.989-3.203,4.344-5.97l9.453-11.009,20.326-11.749c3.635-2.105,6.283-3.424,7.944-3.956,1.245-.414,2.407-.608,3.486-.581.682.032,1.852.296,3.509.792l.929-1.267-16.148-7.201-1.004,1.234c2.485,1.29,3.917,2.239,4.297,2.848.38.609.446,1.192.198,1.747-.439.986-2.717,2.696-6.833,5.133l-15.881,9.323,2.067-15.847c.382-2.828.805-4.76,1.267-5.797.315-.708.768-1.248,1.359-1.621.59-.373,1.203-.524,1.838-.453.384.02,1.804.472,4.259,1.354l1.08-1.2-18.991-8.468-1.004,1.234c1.968,1.09,3.193,2.197,3.677,3.321.483,1.124.519,3.473.107,7.046l-2.414,20.191-11.204,12.999c-2.251,2.602-4.065,4.293-5.443,5.072-.894.51-2.011.739-3.351.687-.843-.013-2.35-.472-4.52-1.38l-1.08,1.2,21.644,9.652Z"/>
</svg>