<?xml version="1.0" encoding="UTF-8"?>
<svg id="Layer_16" xmlns="http://www.w3.org/2000/svg" viewBox="0 0 2030.152 1141.961">
  <defs>
    <style>
      .cls-1 {
        fill: #2a4e67;
      }

      .cls-2 {
        fill: #2a5c70;
      }

      .cls-3 {
        fill: #a0c7d2;
      }

      .cls-4 {
        fill: #6daabd;
      }

      .cls-5 {
        fill: #d7d9c4;
      }

      .cls-6 {
        fill: #447f95;
      }

      .cls-7 {
        fill: #b6bba1;
      }
    </style>
  </defs>
  <path d="M1182.64,28.342c2.762-.05,5.028-1.203,7.031-2.221,9.328-4.745,12.762-14.109,16.792-23.165.443-.996.918-1.977,1.398-2.956h-50.294c3.884,9.122,13.473,28.551,25.073,28.342Z"/>
  <path class="cls-1" d="M955.809,1003.348c-20.128-10.638-66.317-26.061-164.934,22.837-71.565,35.485-105.223,72.341-141.871,115.776h390.856c-7.577-29.542-16.336-49.858-25.691-67.564-15.816-29.937-30.045-56.083-58.361-71.048Z"/>
  <path class="cls-1" d="M1080.789,50.401c10.073,8.406,22.495,19.864,47.338,42.779,31.732,29.268,31.368,29.605,33.609,29.824,30.533,2.982,54.784-63.662,111.153-123.003h-65.029c-.479.979-.954,1.959-1.398,2.956-4.03,9.056-7.463,18.42-16.792,23.165-2.003,1.019-4.269,2.171-7.031,2.221-11.6.21-21.189-19.219-25.073-28.342h-155.279c8.78,4.939,17.922,8.957,27.124,12.519,23.654,9.156,38.317,26.982,51.378,37.882Z"/>
  <path class="cls-2" d="M756.098,70.974c43.323,1.319,65.6-6.382,87.326-8.446,70.456-6.696,162.475,43.28,195.17,111.273,16.359,34.02,15.758,68.166,43.347,79.558,16.126,6.659,32.246,1.564,45.048-2.677,40.922-13.556,69.594-49.21,125.268-119.965,4.116-5.231,17.581-18.81,44.509-45.969,9.991-10.076,21.493-21.394,39.272-25.479,10.22-2.348,18.499-1.384,22.139-.964,37.422,4.323,74.989,7.317,112.427,11.5,28.403,3.174,57.671-.54,116.206-7.968,54.135-6.869,81.203-10.304,98.665-19.913,20.44-11.248,36.789-26.588,49.491-41.925h-462.077c-56.369,59.341-80.62,125.985-111.153,123.003-2.241-.219-1.877-.555-33.609-29.824-24.843-22.915-37.265-34.372-47.338-42.779-13.062-10.9-27.724-28.726-51.378-37.882-9.201-3.562-18.343-7.579-27.124-12.519h-321.914c-.027,27.355,2.978,45.516,15.619,57.556,12.317,11.731,28.414,12.453,60.105,13.418Z"/>
  <path class="cls-2" d="M1069.994,922.15c-53.805-53.181-121.311-65.927-137.022-68.511-108.3-17.814-198.141,45.465-289.268,111.647-113.883,82.709-131.002,131.587-171.292,176.674h176.593c36.648-43.434,70.306-80.291,141.871-115.776,98.616-48.898,144.805-33.475,164.934-22.837,28.316,14.965,42.545,41.111,58.361,71.048,9.354,17.707,18.114,38.023,25.691,67.564h142.043c-4.07-10.114-9.142-22.108-15.488-37.115-42.329-100.099-63.494-150.149-96.423-182.696Z"/>
  <path class="cls-6" d="M1242.54,1056.634c-54.671-71.522-34.91-106.527-81.198-200.458-30.603-62.101-71.687-145.469-144.634-164.934-49.936-13.324-79.741,12.653-215.682,73.586-183.415,82.211-172.742,54.457-243.594,98.96-142.759,89.667-110.838,155.074-243.594,220.757-55.699,27.558-96.269,33.337-141.526,57.415h300.101c40.29-45.088,57.409-93.966,171.292-176.674,91.128-66.182,180.968-129.461,289.268-111.647,15.711,2.584,83.216,15.33,137.022,68.511,32.929,32.547,54.093,82.596,96.423,182.696,6.346,15.007,11.417,27.001,15.488,37.115h139.239c-18.552-35.861-40.796-35.865-78.604-85.326Z"/>
  <path class="cls-6" d="M652.1,89.944c25.609,29.368,63.321,37.328,98.772,42.164,42.086,5.741,89.153-8.668,131.094-2.449,49.057,7.273,89.292,33.605,115.305,87.36,14.641,30.255,6.846,67.149,27.294,99.267,6.469,10.16,23.474,35.858,53.219,33.005,9.074-.87,21.001-7.819,44.856-21.716,38.743-22.571,58.547-34.428,79.741-62.395,13.268-17.508,22.694-35.214,28.154-46.332,3.503-8.28,8.96-19.998,16.615-32.158,6.525-10.365,28.857-43.628,77.327-59.996,30.042-10.145,51.619-7.47,69.263-5.1,37.037,4.975,71.331,23.142,109.586,20.645,50.043-3.266,102.876-21.66,154.377-32.589,14.39-3.054,28.505-3.669,42.406-3.743,21.522-.115,42.777-6.042,65.398-32.914,20.833-24.749,41.862-48.779,62.84-72.992h-93.381c-12.702,15.337-29.05,30.677-49.491,41.925-17.462,9.609-44.53,13.044-98.665,19.913-58.535,7.428-87.803,11.141-116.206,7.968-37.438-4.183-75.004-7.177-112.427-11.5-3.64-.42-11.919-1.385-22.139.964-17.779,4.085-29.281,15.403-39.272,25.479-26.929,27.158-40.393,40.737-44.509,45.969-55.673,70.755-84.345,106.409-125.268,119.965-12.802,4.241-28.922,9.336-45.048,2.677-27.589-11.392-26.989-45.538-43.347-79.558-32.696-67.994-124.714-117.969-195.17-111.273-21.726,2.065-44.003,9.765-87.326,8.446-31.691-.965-47.789-1.687-60.105-13.418-12.641-12.04-15.646-30.201-15.619-57.556h-113.802c29.236,28.435,57.771,58.112,85.528,89.944Z"/>
  <path class="cls-4" d="M557.431,863.789c70.853-44.503,60.179-16.749,243.594-98.96,135.942-60.933,165.746-86.91,215.682-73.586,72.947,19.464,114.031,102.832,144.634,164.934,46.289,93.931,26.527,128.936,81.198,200.458,37.808,49.461,60.052,49.466,78.604,85.326h141.741c-3.813-51.735-17.523-119.458-60.486-179.212-41.136-57.211-64.455-45.039-93.885-101.498-35.672-68.433-5.074-93.341-43.136-149.709-35.145-52.047-79.047-57.196-88.81-109.11-3.255-17.307-1.406-32.846-13.645-52.503-11.899-19.11-23.729-19.772-39.45-44.347-7.005-10.95-13.279-24.012-18.523-40.798-9.79-31.334-6.23-44.395-4.375-49.523,8.201-22.664,29.769-19.297,61.67-46.568,17.577-15.025,16.506-20.729,52.404-65.788,69.661-87.436,100.461-98.71,108.889-102.564,8.83-4.037,18.242-6.292,25.963-4.291,39.751,10.298,78.745,23.31,118.628,33.121,16.765,4.124,34.472,7.918,52.795,2.674,34.544-9.887,69.785-25.51,104.847-40.471,34.929-14.904,65.254-9.867,95.381-.742,43.783,13.261,89.407-2.977,137.339-66.809,28.9-38.486,45.063-38.251,74.749-6.094,33.407-35.04,65.956-53.287,96.914-50.886V0h-201.805c-20.979,24.214-42.007,48.243-62.84,72.992-22.621,26.873-43.876,32.799-65.398,32.914-13.902.075-28.016.689-42.406,3.743-51.501,10.929-104.333,29.323-154.377,32.589-38.255,2.496-72.548-15.67-109.586-20.645-17.644-2.37-39.22-5.045-69.263,5.1-48.47,16.368-70.803,49.63-77.327,59.996-7.655,12.16-13.112,23.878-16.615,32.158-5.46,11.118-14.886,28.824-28.154,46.332-21.194,27.967-40.998,39.823-79.741,62.395-23.855,13.897-35.782,20.846-44.856,21.716-29.745,2.852-46.75-22.845-53.219-33.005-20.449-32.118-12.654-69.012-27.294-99.267-26.013-53.755-66.248-80.087-115.305-87.36-41.941-6.218-89.008,8.191-131.094,2.449-35.452-4.836-73.163-12.796-98.772-42.164-27.758-31.832-56.293-61.509-85.528-89.944h-151.372c-12.06,30.365-11.969,64.235,2.058,85.111,5.797,8.626,13.274,15.851,21.586,17.97,29.545,7.531,60.07,11.55,89.623,19.055,12.818,3.255,24.286,11.438,36.173,17.93,40.497,22.117,82.817,39.75,120.714,68.326,27.583,20.799,59.39,19.557,91.401,20.668,37.514,1.302,76.45-2.487,111.996,6.016,4.525,1.083,21.724,21.526,56.878,60.009,22.7,24.849,46.112,51.437,60.525,104.089,5.031,18.38,5.495,27.256,4.771,33.236-.237,1.962-.576,3.406-.666,3.835-4.251,20.408-8.482,86.191-8.776,90.065-3.708,48.722-129.465,87.392-241.057,129.409-105.984,39.906-158.976,59.859-215.682,93.885-117.165,70.304-102.184,106.361-215.682,180.158-141.306,91.878-181.331,46.915-268.969,131.947-30.404,29.5-44.205,52.977-60.093,79.54v.712h172.311c45.257-24.077,85.827-29.857,141.526-57.415,132.757-65.683,100.836-131.09,243.594-220.757Z"/>
  <path class="cls-3" d="M60.093,1061.709c87.638-85.032,127.662-40.069,268.969-131.947,113.498-73.797,98.517-109.854,215.682-180.158,56.707-34.027,109.699-53.979,215.682-93.885,111.592-42.018,237.348-80.688,241.057-129.409.295-3.874,4.526-69.656,8.776-90.065.089-.429.428-1.874.666-3.835.723-5.98.26-14.855-4.771-33.236-14.413-52.651-37.825-79.24-60.525-104.089-35.154-38.483-52.353-58.927-56.878-60.009-35.547-8.503-74.483-4.714-111.996-6.016-32.011-1.111-63.818.13-91.401-20.668-37.897-28.576-80.217-46.208-120.714-68.326-11.887-6.492-23.354-14.675-36.173-17.93-29.553-7.504-60.078-11.523-89.623-19.055-8.313-2.119-15.79-9.343-21.586-17.97-14.027-20.876-14.118-54.746-2.058-85.111h-72.504c11.751,38.602,27.987,71.373,31.704,120.297,2.895,38.114,21.714,52.537,44.277,52.59,61.174.143,81.227,26.045,156.837,44.442,83.32,20.273,158.737,62.577,158.737,62.577,23.482,13.171,34.089,21.247,56.895,27.4,51.949,14.016,71.571-7.742,103.948,13.215,29.272,18.947,56.027,64.431,46.076,99.706-7,24.814-25.711,21.699-69.993,79.371-17.065,22.224-21.407,31.961-39.971,53.276-5,5.741-28.365,32.57-46.36,44.091-9.488,6.075-18.658,6.646-21.647,7.277-68.003,14.359-133.238,39.804-200.692,56.552-93.167,23.132-94.637,52.347-235.982,111.647C140.036,850.681,63.545,832.998,0,885.428v255.821c15.888-26.563,29.689-50.04,60.093-79.54Z"/>
  <path class="cls-3" d="M1933.238,117.728c-29.686-32.157-45.849-32.392-74.749,6.094-47.933,63.832-93.557,80.07-137.339,66.809-30.127-9.125-60.453-14.162-95.381.742-35.062,14.961-70.303,30.584-104.847,40.471-18.323,5.244-36.03,1.45-52.795-2.674-39.882-9.811-78.876-22.823-118.628-33.121-7.721-2-17.133.254-25.963,4.291-8.428,3.854-39.229,15.128-108.889,102.564-35.898,45.059-34.828,50.762-52.404,65.788-31.901,27.271-53.469,23.904-61.67,46.568-1.856,5.128-5.415,18.19,4.375,49.523,5.245,16.786,11.518,29.848,18.523,40.798,15.721,24.576,27.55,25.237,39.45,44.347,12.239,19.656,10.39,35.196,13.645,52.503,9.763,51.914,53.666,57.062,88.81,109.11,38.062,56.368,7.464,81.276,43.136,149.709,29.43,56.458,52.75,44.287,93.885,101.498,42.964,59.754,56.673,127.476,60.486,179.212h110.486c-.976-9.578-2.133-19.423-3.502-29.503-11.541-85.004-18.038-132.859-48.211-185.233-59.601-103.453-129.58-82.207-164.934-175.083-25.492-66.968-2.224-112.466-45.674-152.246-14.987-13.721-34.134-23.304-71.582-58.107-23.245-21.604-34.989-32.363-38.468-42.671-16.026-47.49,34.189-100.101,71.964-139.68,32.161-33.696,53.094-42.126,62.586-45.334,12.608-4.261,14.501-2.512,56.226-9.536,37.088-6.244,41.507-8.622,66.951-12.386,36.44-5.391,40.925-2.517,65.433-5.973,71.384-10.067,80.733-30.272,133.604-39.878,23.362-4.245,46.034,3.335,65.793,14.539,32.509,18.435,69.775,13.348,107.07,8.479,8.2-1.07,20.579-14.225,28.111-26.9,24.962-42.004,50.791-59.919,79.025-64.703,21.31-3.61,43.376-12.225,64.763-16.263,9.275-1.751,18.555-2.985,27.626-3.295v-91.347c-30.958-2.401-63.507,15.846-96.914,50.886Z"/>
  <path class="cls-5" d="M562.506,660.794c67.455-16.748,132.689-42.192,200.692-56.552,2.989-.631,12.159-1.202,21.647-7.277,17.995-11.522,41.361-38.351,46.36-44.091,18.564-21.316,22.906-31.052,39.971-53.276,44.282-57.672,62.993-54.557,69.993-79.371,9.951-35.274-16.804-80.758-46.076-99.706-32.378-20.957-51.999.801-103.948-13.215-22.807-6.153-33.414-14.229-56.895-27.4,0,0-75.417-42.303-158.737-62.577-75.61-18.398-95.664-44.299-156.837-44.442-22.563-.053-41.381-14.476-44.277-52.59-3.716-48.924-19.953-81.695-31.704-120.297h-46.56c13.152,15.167,22.93,19.914,31.968,35.376,12.182,20.839,20.896,47.11,23.709,82.953,6.399,81.564,40.444,103.43,89.394,99.065,24.472-2.182,46.357,10.782,68.927,18.496,52.76,18.034,80.392,22.803,96.997,36.371,42.878,35.034,35.811,69.336,71.28,74.552,14.53,2.137,35.366-.73,40.576,23.597,3.249,15.171-1.17,33.488-1.745,35.797-3.268,13.12-13.235,41.486-70.522,86.536-46.125,36.272-82.271,51.39-94.027,56.038-49.973,19.756-85.88,17.615-96.659,18.655-29.68,2.862-53.257-11.504-79.301-19.468-30.388-9.292-61.71-15.931-93.806-18.613-14.448-1.207-30.76,14.705-43.238,41.965-24.132,52.723-51.215,63.512-79.517,60.918-11.501-1.054-24.003-5.607-35.505,2.625-32.243,23.078-57.383,17.143-82.099,3.522-12.317-6.788-26.672-7.785-39.856-12.227-.898-.303-1.803-.596-2.711-.888v260.158c63.545-52.429,140.036-34.747,326.524-112.987,141.345-59.301,142.815-88.516,235.982-111.647Z"/>
  <path class="cls-5" d="M1937.763,177.747c-28.234,4.783-54.062,22.699-79.025,64.703-7.532,12.675-19.912,25.829-28.111,26.9-37.295,4.869-74.561,9.955-107.07-8.479-19.759-11.204-42.431-18.784-65.793-14.539-52.871,9.606-62.22,29.811-133.604,39.878-24.508,3.456-28.993.583-65.433,5.973-25.444,3.764-29.863,6.142-66.951,12.386-41.725,7.024-43.618,5.275-56.226,9.536-9.492,3.208-30.425,11.638-62.586,45.334-37.775,39.578-87.99,92.19-71.964,139.68,3.479,10.308,15.223,21.068,38.468,42.671,37.448,34.803,56.595,44.385,71.582,58.107,43.45,39.781,20.182,85.279,45.674,152.246,35.354,92.876,105.333,71.63,164.934,175.083,30.174,52.374,36.671,100.229,48.211,185.233,1.369,10.08,2.525,19.924,3.502,29.503h205.172c-.007-4.828-.183-10.298-.604-16.816-2.326-36.024-8.371-45.894-38.062-149.709-21.957-76.773-23.804-89.392-38.062-119.26-16.382-34.317-33.377-58.367-48.211-76.123-10.116-12.109-21.911-26.227-40.599-40.599-34.944-26.874-46.903-18.424-78.661-40.599-12.978-9.062-53.499-37.356-65.973-83.736-8.332-30.979-10.12-40.424-17.762-58.361-1.194-2.802-3.887-8.825-9.205-15.275-2.356-2.857-7.064-9.124-15.14-13.067-6.063-2.96-15.992-4.902-26.453-6.266-15.779-2.057-22.045.492-33.116-6.948-31.41-21.108-43.585-80.683-19.599-110.623,8.679-10.833,19.507-14.561,37.693-20.821,29.775-10.25,53.125-7.122,98.844-13.093,39.89-5.209,32.055-12.866,85.27-20.968,27.968-4.258,47.175-4.616,75.847-15.762,25.566-9.939,23.278-14.702,38.995-18.466,30.1-7.208,42.955,9.194,94.84,21.404,32.631,7.679,65.608,14.986,95.154-.293,14.959-7.736,20.557-16.874,32.488-30.245,6.397-7.168,56.016-61.463,123.927-81.131v-67.016c-9.072.31-18.352,1.544-27.626,3.295-21.386,4.038-43.452,12.653-64.763,16.263Z"/>
  <path class="cls-7" d="M1906.225,306.335c-11.931,13.371-17.528,22.509-32.488,30.245-29.546,15.278-62.523,7.972-95.154.293-51.885-12.21-64.739-28.612-94.84-21.404-15.717,3.764-13.429,8.527-38.995,18.466-28.671,11.146-47.879,11.505-75.847,15.762-53.215,8.102-45.38,15.759-85.27,20.968-45.719,5.97-69.069,2.843-98.844,13.093-18.187,6.261-29.015,9.988-37.693,20.821-23.986,29.941-11.811,89.515,19.599,110.623,11.071,7.44,17.337,4.891,33.116,6.948,10.461,1.364,20.391,3.306,26.453,6.266,8.076,3.943,12.785,10.21,15.14,13.067,5.318,6.45,8.011,12.472,9.205,15.275,7.643,17.937,9.43,27.382,17.762,58.361,12.474,46.38,52.996,74.674,65.973,83.736,31.758,22.175,43.716,13.725,78.661,40.599,18.688,14.372,30.483,28.49,40.599,40.599,14.834,17.756,31.83,41.807,48.211,76.123,14.258,29.867,16.105,42.487,38.062,119.26,29.691,103.815,35.736,113.685,38.062,149.709.421,6.518.596,11.987.604,16.816h251.609V225.204c-67.911,19.668-117.53,73.962-123.927,81.131ZM1473.712,517.816l1.628-.006c.775,2.015,1.445,3.318,2.009,3.911.84.875,1.709,1.418,2.605,1.628,1.319.323,3.857.359,7.616.109l35.297-2.078c2.841-.189,4.938-.524,6.294-1.007.99-.353,1.643-.974,1.958-1.864.314-.89.114-2.339-.6-4.346l-.292-.821,1.613-.046,13.555,38.085-13.955,1.266-.515-1.446c1.264-.245,2.3-.511,3.108-.798,1.381-.492,2.421-1.244,3.118-2.256.883-1.312,1.337-2.928,1.359-4.845.023-1.418-.767-4.383-2.372-8.892l-2.394-6.726-23.115,1.398,1.768,4.966c1.262,3.545,2.716,5.92,4.364,7.125,1.646,1.205,4.135,1.861,7.463,1.97l.515,1.447-21.172,1.411-.557-1.563c1.783-.106,3.248-.363,4.396-.771,1.12-.398,1.938-.947,2.454-1.645s.794-1.502.838-2.413c.042-.911-.391-2.644-1.3-5.198l-1.795-5.044-19.38,1.126c-1.871.108-3.25.32-4.136.635-.678.242-1.161.78-1.45,1.618-.208.573.004,1.745.635,3.519l1.67,4.692c1.81,5.083,4.158,8.835,7.048,11.259,2.889,2.422,6.993,4.053,12.313,4.891l.515,1.446-16.522.242-14.585-40.979ZM1522.542,612.914c-1.252,1.62-2.03,2.929-2.335,3.925-.306.996-.359,2.033-.161,3.112.197,1.079.824,2.496,1.882,4.252l-1.533.464-12.147-18.438,1.533-.464c1.317,1.85,2.574,2.977,3.769,3.383.873.319,1.68.235,2.419-.252.646-.426,1.87-1.663,3.67-3.71l9.649-11.078-18.387-3.692c-3.611-.702-5.899-1.033-6.866-.993-.584.02-1.072.159-1.465.418-.693.457-1.031,1.177-1.013,2.159.027.445.479,1.556,1.352,3.334l-1.511.498-10.298-15.631,1.533-.464c1.479,1.843,2.987,3.151,4.525,3.927,2.288,1.11,6.107,2.206,11.459,3.286l22.721,4.613,11.086-12.67c3.413-3.873,5.321-6.546,5.725-8.021.402-1.475-.019-3.31-1.265-5.503l1.511-.499,11.074,16.81-1.557.429c-1.021-1.548-1.808-2.528-2.361-2.942-.554-.413-1.129-.631-1.723-.653-.596-.023-1.146.134-1.654.468-.555.366-1.667,1.496-3.334,3.39l-9.476,10.814,12.211,2.542c4.829.993,8.491,1.447,10.986,1.361.882-.019,1.566-.188,2.052-.507.531-.351.802-.845.813-1.48.005-.898-.521-2.226-1.578-3.98l1.533-.464,10.48,15.908-1.533.464c-1.801-2.028-3.767-3.541-5.897-4.539-2.133-.998-5.687-1.928-10.662-2.792l-20.514-3.979-10.321,11.719c-.988,1.115-2.453,2.941-4.393,5.479ZM1573.167,635.223c2.676,2.646,5.018,4.154,7.025,4.524,2.007.37,4.533-.119,7.578-1.466l1.092,1.079-18.46,10.464-1.18-1.167c1.56-.869,2.768-1.737,3.624-2.604.836-.846,1.335-1.694,1.497-2.547.161-.852.063-1.697-.293-2.537-.357-.839-1.5-2.212-3.428-4.118l-3.807-3.765-16.969,9.429c-1.64.909-2.789,1.698-3.45,2.367-.506.512-.708,1.207-.604,2.087.062.606.762,1.57,2.1,2.894l3.542,3.502c3.837,3.794,7.582,6.154,11.236,7.083,3.654.928,8.06.614,13.216-.94l1.092,1.08-14.779,7.391-30.929-30.583,1.463-.712c1.574,1.478,2.743,2.361,3.508,2.65,1.137.424,2.155.536,3.054.335,1.329-.281,3.632-1.351,6.908-3.208l30.895-17.196c2.477-1.403,4.222-2.616,5.233-3.64.739-.747,1.057-1.591.954-2.529-.104-.938-.912-2.156-2.427-3.654l-.62-.613,1.434-.741,28.745,28.423-12.021,7.199-1.092-1.08c1.032-.769,1.851-1.458,2.454-2.067,1.03-1.043,1.641-2.172,1.829-3.386.226-1.566-.066-3.219-.879-4.955-.594-1.288-2.593-3.614-5.997-6.98l-5.076-5.019-20.216,11.295,3.748,3.706ZM1632.805,656.245c-5.85.369-11.603,2.49-17.259,6.363-4.666,3.194-8.435,7.042-11.308,11.542-2.934,4.596-3.934,9.118-3,13.571.932,4.452,3.544,8.048,7.836,10.788,3.241,2.068,6.589,3.188,10.043,3.357,3.453.17,7.225-.558,11.314-2.182l1.644,1.05c-5.171,2.443-9.933,3.63-14.286,3.56-4.354-.071-8.711-1.499-13.072-4.283-3.871-2.472-6.782-5.471-8.732-8.997-1.951-3.526-2.77-7.258-2.456-11.194.313-3.936,1.549-7.595,3.708-10.977,3.306-5.178,7.908-9.329,13.811-12.455s12.166-4.544,18.792-4.253,12.399,2.007,17.32,5.148c2.309,1.474,4.548,3.675,6.717,6.602.961,1.271,1.723,2.085,2.282,2.441.56.357,1.124.554,1.692.589s1.692-.184,3.372-.654l1.294.826-13.337,13.103-1.26-.805,2.317-3.938c.776-1.474,1.305-2.892,1.585-4.257.279-1.363.257-2.716-.069-4.057s-.985-2.648-1.978-3.922-2.271-2.409-3.832-3.406c-4.176-2.665-8.555-3.853-13.139-3.562ZM1667.917,737.734c-3.946-.279-7.866-1.904-11.759-4.876-4.487-3.425-7.136-7.456-7.946-12.095-.811-4.64.034-8.597,2.536-11.875.99-1.297,2.169-2.591,3.536-3.88.914-.833,2.619-2.178,5.113-4.032l16.029-11.836c2.294-1.729,3.837-3.11,4.626-4.145.621-.813.79-1.686.508-2.615-.283-.929-1.64-2.425-4.067-4.487l1.262-.969,18.904,14.429-1.295.943c-1.969-1.433-3.487-2.305-4.556-2.616-1.068-.31-2.205-.281-3.408.088-1.204.369-2.965,1.41-5.281,3.123l-16.672,12.336c-2.964,2.194-4.857,3.673-5.683,4.435-1.338,1.206-2.47,2.415-3.393,3.624-2.031,2.661-2.758,5.666-2.18,9.014.577,3.348,2.527,6.288,5.849,8.823,2.178,1.662,4.438,2.735,6.784,3.22,2.345.484,4.694.45,7.048-.103,2.354-.553,5.006-1.714,7.957-3.482,2.95-1.769,5.801-3.656,8.552-5.664l14.384-10.637c3.592-2.653,5.782-4.497,6.571-5.531.555-.727.692-1.604.417-2.633-.277-1.028-1.396-2.378-3.357-4.05l1.295-.943,14.22,10.853-1.295.944c-1.672-1.276-2.998-2.036-3.978-2.279-.98-.243-2.061-.163-3.239.242-1.18.405-3.017,1.535-5.512,3.391l-17.516,12.894c-5.675,4.197-10.183,7.048-13.523,8.553-3.342,1.505-6.986,2.117-10.932,1.838ZM1707.255,774.675l1.251,1.442-1.486.63-16.049-18.495,1.459-.661.707.814c1.415,1.631,2.764,2.658,4.048,3.082.881.298,2,.289,3.356-.027,1.355-.315,3.92-1.341,7.69-3.074l37.831-17.386-2.203-2.539c-2.122-2.445-4.145-4.144-6.067-5.094-1.924-.95-3.881-1.368-5.869-1.254-1.989.114-4.335.83-7.037,2.149l-1.007-1.159,13.87-6.814,28.017,32.287-14.304,6.313-1.034-1.191c1.995-1.035,3.641-2.115,4.937-3.24,1.525-1.323,2.268-2.791,2.225-4.402-.032-1.218-1.325-3.301-3.883-6.247l-2.91-3.354-36.568,17.005c-4.604,2.126-7.333,3.561-8.189,4.304-.795.689-1.158,1.59-1.089,2.703.067,1.113.837,2.517,2.306,4.209ZM1728.73,803.035c-.628.291-1.089.695-1.382,1.213-.294.518-.399,1.177-.317,1.978.081.801.555,2.328,1.417,4.582l-1.585.232-9.75-21.007,1.638-.12c1.028,2.086,1.851,3.396,2.466,3.935.939.906,1.908,1.448,2.905,1.626,1.564.28,4.068.155,7.513-.376l34.919-5.408c2.909-.436,5.017-.956,6.322-1.562.652-.303,1.128-.723,1.429-1.258.301-.536.415-1.192.346-1.968-.071-.776-.555-2.13-1.451-4.062l1.603-.194,9.156,19.727-1.586.232c-.721-1.618-1.449-2.729-2.187-3.332-1.026-.896-2.141-1.424-3.343-1.583-1.203-.159-3.613.037-7.231.588l-34.9,5.446c-3.21.513-5.203.95-5.98,1.312ZM1738.302,848.363c-1.65-4.019-2.14-7.743-1.471-11.174.67-3.432,2.198-6.393,4.586-8.883,2.387-2.491,4.949-4.298,7.688-5.423,4.862-1.997,10.148-2.8,15.858-2.408,5.71.393,10.825,1.559,15.347,3.501,4.521,1.941,8.396,4.403,11.626,7.385,3.228,2.981,5.693,6.545,7.396,10.691,1.419,3.456,1.927,6.821,1.522,10.099-.404,3.276-1.762,6.271-4.071,8.985-2.312,2.714-5.04,4.717-8.188,6.01-5.58,2.292-12.1,3.077-19.559,2.357-7.46-.721-13.874-3.029-19.244-6.926-5.369-3.897-9.199-8.636-11.491-14.215ZM1828.327,933.608c-.444-1.829-.98-3.134-1.61-3.914-.888-1.114-1.854-1.865-2.896-2.253-1.481-.532-3.902-.835-7.265-.91l-48.238-1.22-.373-1.446,41.294-29.994-36.458-.917c-2.759-.06-4.821.087-6.188.439-1.019.264-1.704.79-2.057,1.581-.354.791-.306,2.443.144,4.957l-1.591-.018-4.42-17.12,1.633.179c.606,2.13,1.164,3.515,1.673,4.155.766.974,1.605,1.628,2.521,1.964,1.379.472,3.881.755,7.506.848l40.687,1.026c1.338-1.46,2.154-2.864,2.449-4.211.295-1.349.157-3.292-.412-5.831l1.601.059,3.518,13.623-38.371,27.867,34.263.884c2.819.072,4.952-.078,6.399-.452.99-.255,1.678-.805,2.061-1.646s.329-2.214-.162-4.115c-.083-.322-.156-.66-.22-1.016l1.602.059,4.523,17.521-1.611-.098Z"/>
  <path class="cls-7" d="M1787.715,858.445c3.48-1.43,6.174-3.628,8.082-6.595,1.906-2.967,2.088-6.331.543-10.094-1.051-2.56-2.712-4.802-4.982-6.726-2.271-1.924-5.341-3.498-9.208-4.721-3.867-1.224-8.524-1.838-13.971-1.845-6.701,0-12.598,1.046-17.69,3.138-3.635,1.492-6.47,3.748-8.505,6.768-2.036,3.02-2.26,6.462-.672,10.327.956,2.328,2.47,4.376,4.542,6.143,2.071,1.767,5.001,3.293,8.79,4.579,4.757,1.605,10.28,2.328,16.571,2.168,6.29-.161,11.79-1.208,16.5-3.143Z"/>
  <path class="cls-7" d="M42.567,638.385c24.715,13.621,49.856,19.556,82.099-3.522,11.502-8.232,24.004-3.679,35.505-2.625,28.303,2.594,55.385-8.196,79.517-60.918,12.477-27.26,28.789-43.172,43.238-41.965,32.096,2.682,63.418,9.321,93.806,18.613,26.044,7.964,49.621,22.33,79.301,19.468,10.78-1.039,46.686,1.101,96.659-18.655,11.756-4.648,47.903-19.766,94.027-56.038,57.287-45.051,67.254-73.417,70.522-86.536.575-2.309,4.994-20.626,1.745-35.797-5.21-24.327-26.046-21.46-40.576-23.597-35.468-5.216-28.401-39.519-71.28-74.552-16.606-13.568-44.238-18.337-96.997-36.371-22.57-7.715-44.454-20.679-68.927-18.496-48.951,4.365-82.995-17.501-89.394-99.065-2.812-35.843-11.527-62.114-23.709-82.953-9.038-15.461-18.816-20.209-31.968-35.376H0v625.27c.907.292,1.812.586,2.711.888,13.184,4.442,27.539,5.439,39.856,12.227ZM548.074,337.726l6.662-19.212c1.164-3.403,1.629-5.706,1.397-6.907-.233-1.202-1.194-2.544-2.885-4.028l1.244-.991,16.75,12.321-1.311.942c-2.21-1.385-3.501-2.128-3.873-2.23-.605-.205-1.236-.188-1.892.051-.657.238-1.214.67-1.673,1.294-.672.914-1.497,2.711-2.473,5.394l-5.397,15.042,17.503-5.725c4.541-1.504,7.131-2.689,7.77-3.559.36-.49.42-1.073.179-1.749-.242-.675-1.438-1.908-3.591-3.698l1.244-.991,14.243,10.477-1.177,1.04c-1.514-.838-2.6-1.346-3.26-1.522-1.048-.256-2.225-.314-3.53-.175-1.736.166-4.604.89-8.604,2.172l-22.363,7.148-11.582,8.741c-2.891,2.202-4.729,3.837-5.516,4.907-.508.691-.766,1.309-.771,1.854-.007.545.231,1.167.714,1.865.65.891,1.836,1.987,3.559,3.288l-1.244.991-19.09-14.042,1.311-.942c1.927,1.349,3.301,2.119,4.122,2.311,1.298.336,2.438.351,3.42.043,1.512-.468,3.645-1.733,6.398-3.795l13.717-10.313ZM476.101,290.737c3.573-3.264,7.353-5.709,11.339-7.334,3.985-1.625,7.974-2.552,11.965-2.782,5.497-.323,10.762.562,15.796,2.653,3.705,1.539,6.797,3.543,9.278,6.012.999.984,1.779,1.593,2.342,1.827.639.265,1.243.344,1.812.236.569-.108,1.445-.576,2.628-1.403l1.456.605-10.67,14.758-1.457-.605c1.026-1.821,1.73-3.191,2.112-4.111,1.04-2.504.855-5.18-.553-8.027-1.409-2.847-4.055-5.078-7.939-6.691-7.947-3.301-15.987-2.267-24.12,3.103-6.464,4.236-11.214,10.008-14.25,17.315-2.017,4.855-2.519,9.56-1.505,14.116,1.013,4.556,4.101,7.906,9.263,10.05,1.277.531,2.533.917,3.765,1.16,1.232.242,3.164.445,5.792.608l9.352-11.8c1.301-1.617,2.179-2.975,2.636-4.073.382-.92.342-1.761-.121-2.522-.766-1.187-2.349-2.28-4.751-3.277l-1.073-.446,1.043-1.319,21.617,8.98-1.004,1.335c-1.979-.792-3.504-1.156-4.579-1.093-1.075.063-2.15.485-3.223,1.268-.722.509-2.257,2.224-4.608,5.142l-9.294,11.554c-4.127.053-7.367-.117-9.721-.51s-4.718-1.084-7.094-2.071c-5.469-2.271-9.475-5.143-12.018-8.61-2.544-3.469-3.924-7.233-4.14-11.293-.217-4.06.371-7.763,1.762-11.11,1.868-4.497,4.589-8.378,8.163-11.643ZM427.68,254.738l38.876,11.082-7.073,12.096-1.477-.421c.535-1.17.92-2.168,1.155-2.994.402-1.41.394-2.693-.025-3.848-.556-1.481-1.608-2.789-3.155-3.92-1.141-.843-4.013-1.921-8.616-3.233l-6.865-1.957-12.285,19.63,5.069,1.445c3.618,1.032,6.397,1.227,8.335.585,1.938-.641,3.917-2.286,5.938-4.932l1.477.421-11.146,18.056-1.597-.455c.949-1.513,1.591-2.854,1.924-4.026.326-1.144.354-2.128.087-2.953-.269-.825-.762-1.519-1.478-2.083-.717-.564-2.379-1.218-4.987-1.961l-5.149-1.468-10.337,16.431c-.999,1.585-1.627,2.831-1.885,3.735-.197.692-.039,1.399.475,2.121.346.502,1.424,1.01,3.233,1.526l4.79,1.365c5.189,1.479,9.608,1.747,13.258.802,3.65-.945,7.361-3.339,11.133-7.185l1.477.421-9.398,13.591-41.83-11.924.94-1.329c2.09.539,3.541.75,4.35.636,1.201-.176,2.147-.567,2.838-1.176,1.029-.886,2.533-2.932,4.511-6.137l18.807-29.941c1.496-2.422,2.441-4.325,2.836-5.708.288-1.011.161-1.903-.381-2.676-.542-.773-1.838-1.452-3.887-2.036l-.838-.239.9-1.34ZM366.589,282.825l24.027-34.003-3.179-1.093c-3.061-1.053-5.663-1.508-7.803-1.367s-4.043.76-5.707,1.855c-1.665,1.095-3.335,2.891-5.013,5.386l-1.452-.5,8.588-12.847,40.425,13.903-9.216,12.631-1.491-.513c1.208-1.896,2.091-3.655,2.649-5.277.657-1.91.563-3.551-.281-4.924-.638-1.039-2.801-2.192-6.491-3.461l-4.199-1.444-23.125,33.04c-2.918,4.146-4.562,6.756-4.931,7.829-.342.995-.205,1.956.412,2.885.617.929,1.985,1.758,4.104,2.487l1.805.621-.97,1.29-23.156-7.964.931-1.304,1.021.351c2.041.702,3.723.915,5.047.639.911-.184,1.875-.752,2.891-1.705,1.015-.953,2.72-3.125,5.115-6.514ZM359.809,232.164l1.125.919-32.929,33.552c-1.555,1.553-2.551,2.598-2.988,3.133-.7.857-1.073,1.642-1.119,2.354-.102.954.074,1.866.526,2.734.451.869,1.502,1.977,3.152,3.325l-1.325.9-17.164-14.021,1.325-.9.739.604c1.393,1.138,2.773,1.766,4.142,1.883.954.101,1.987-.18,3.101-.843.778-.472,2.281-1.852,4.509-4.142l5.03-5.108-12.471-10.188-9.346,2.387c-2.11.527-3.534.98-4.272,1.359-.739.38-1.318.826-1.738,1.34-.561.686-.763,1.502-.608,2.451.154.948.857,1.969,2.108,3.062l-1.325.9-12.889-10.529,1.325-.901c1.639,1.231,3.469,1.843,5.494,1.836,2.024-.008,5.567-.659,10.628-1.956l54.971-14.153ZM308.725,177.657c.314-1.328.017-2.847-.891-4.558l1.594-.257,8.37,16.324c2.803,5.466,3.789,9.935,2.958,13.409-.831,3.473-2.933,6.075-6.306,7.804-3.226,1.654-6.809,1.929-10.749.824-3.94-1.104-7.373-3.628-10.295-7.571l-12.162,12.394c-2.989,3.025-4.722,5.406-5.199,7.144s-.114,3.96,1.089,6.671l-1.575.294-6.136-11.966,20.229-20.494c-.984-1.859-1.785-3.874-2.4-6.045l-17.357,3.443c-2.261.443-4.067,1.013-5.421,1.707-1.034.53-1.664,1.303-1.888,2.321-.166.769.271,2.41,1.312,4.924l-1.537.368-9.942-19.389,1.575-.294c1.008,1.784,1.824,2.92,2.448,3.409.936.795,1.881,1.243,2.835,1.345,1.561.194,4.027-.029,7.399-.669l34.735-6.757c2.322-.444,4.037-.95,5.145-1.519,1.132-.581,1.855-1.535,2.17-2.862ZM305.87,166.205l-15.633-.245-.441-1.515c2.245-.106,4.192-.399,5.839-.879,1.939-.565,3.226-1.588,3.861-3.07.48-1.12.176-3.553-.915-7.298l-1.242-4.264-40.329.16c-5.07.007-8.15.169-9.239.486-1.01.294-1.716.961-2.119,2-.404,1.04-.292,2.636.335,4.788l.534,1.833-1.613-.049-6.847-23.511,1.602.009.302,1.036c.604,2.072,1.399,3.569,2.389,4.492.676.639,1.696,1.098,3.06,1.378,1.363.28,4.121.421,8.271.422l41.635.022-.94-3.228c-.905-3.108-2.033-5.496-3.383-7.163-1.35-1.667-2.953-2.865-4.807-3.593-1.855-.729-4.285-1.058-7.291-.989l-.43-1.474,15.448-.393,11.953,41.044ZM242.378,80.904l.498,1.32c-1.958.531-3.559,1.031-4.801,1.5-3.547,1.337-6.007,3.558-7.379,6.663-1.373,3.105-1.371,6.483.005,10.133,1.278,3.392,3.292,5.575,6.04,6.55,2.748.975,5.481.95,8.2-.075,1.761-.664,3.214-1.67,4.362-3.019,1.69-2.027,4.245-6.701,7.666-14.023,1.622-3.539,2.931-5.911,3.927-7.114,1.648-1.981,3.624-3.406,5.928-4.275,3.676-1.386,7.339-1.2,10.989.559,3.649,1.758,6.284,4.787,7.905,9.084.546,1.45.921,2.875,1.125,4.278.147.861.181,2.519.101,4.974-.03,1.726-.041,2.677-.034,2.852.059.392.171.807.337,1.248.283.751.722,1.325,1.315,1.722.593.397,1.661.719,3.203.966l.557,1.476-18.999,2.549-.498-1.32c1.592-.482,2.867-.904,3.826-1.265,3.132-1.181,5.305-3.183,6.518-6.006,1.212-2.823,1.18-5.93-.099-9.322-1.016-2.693-2.63-4.583-4.843-5.67-2.214-1.087-4.356-1.241-6.428-.46-1.812.684-3.338,1.872-4.577,3.566-1.239,1.694-2.987,5.177-5.243,10.448-2.256,5.271-4.212,8.869-5.866,10.794-1.655,1.925-3.661,3.332-6.016,4.219-2.667,1.006-5.516,1.273-8.545.805-3.031-.47-5.73-1.766-8.098-3.889-2.367-2.124-4.142-4.752-5.323-7.885-.586-1.553-.99-3.057-1.213-4.51-.222-1.454-.334-3.866-.333-7.237.008-1.156-.115-2.071-.369-2.744-.576-1.528-2.061-2.328-4.454-2.402l-.557-1.476,21.174-3.015Z"/>
  <path class="cls-7" d="M291.506,195.559c2.171,4.235,5.063,6.98,8.678,8.237,3.613,1.256,7.168.988,10.665-.805,2.733-1.401,4.431-3.244,5.095-5.528.664-2.284.206-4.964-1.372-8.042-.404-.788-.983-1.673-1.735-2.655l-23.158,4.412c.586,1.689,1.195,3.149,1.827,4.38Z"/>
  <polygon class="cls-7" points="345.826 238.587 319.146 245.464 330.107 254.418 345.826 238.587"/>
  <path d="M1504.305,557.106c-5.32-.838-9.425-2.469-12.313-4.891-2.89-2.424-5.238-6.176-7.048-11.259l-1.67-4.692c-.631-1.773-.843-2.945-.635-3.519.289-.838.772-1.376,1.45-1.618.886-.314,2.265-.526,4.136-.635l19.38-1.126,1.795,5.044c.909,2.555,1.342,4.287,1.3,5.198-.044.911-.322,1.716-.838,2.413s-1.334,1.246-2.454,1.645c-1.147.408-2.612.665-4.396.771l.557,1.563,21.172-1.411-.515-1.447c-3.328-.108-5.816-.765-7.463-1.97-1.648-1.205-3.103-3.58-4.364-7.125l-1.768-4.966,23.115-1.398,2.394,6.726c1.605,4.509,2.396,7.474,2.372,8.892-.022,1.917-.477,3.532-1.359,4.845-.697,1.012-1.737,1.764-3.118,2.256-.809.287-1.845.553-3.108.798l.515,1.446,13.955-1.266-13.555-38.085-1.613.046.292.821c.714,2.007.914,3.456.6,4.346-.315.89-.968,1.512-1.958,1.864-1.355.482-3.453.818-6.294,1.007l-35.297,2.078c-3.759.25-6.297.214-7.616-.109-.896-.209-1.766-.752-2.605-1.628-.563-.592-1.233-1.896-2.009-3.911l-1.628.006,14.585,40.979,16.522-.242-.515-1.446Z"/>
  <path d="M1557.77,599.696c4.976.864,8.529,1.794,10.662,2.792,2.131.998,4.097,2.511,5.897,4.539l1.533-.464-10.48-15.908-1.533.464c1.057,1.755,1.583,3.082,1.578,3.98-.012.636-.282,1.13-.813,1.48-.485.319-1.17.488-2.052.507-2.495.086-6.157-.368-10.986-1.361l-12.211-2.542,9.476-10.814c1.667-1.894,2.779-3.023,3.334-3.39.508-.334,1.059-.491,1.654-.468.594.022,1.169.24,1.723.653.554.414,1.341,1.395,2.361,2.942l1.557-.429-11.074-16.81-1.511.499c1.246,2.193,1.667,4.028,1.265,5.503-.403,1.476-2.312,4.148-5.725,8.021l-11.086,12.67-22.721-4.613c-5.352-1.08-9.171-2.176-11.459-3.286-1.538-.775-3.047-2.084-4.525-3.927l-1.533.464,10.298,15.631,1.511-.498c-.873-1.778-1.324-2.889-1.352-3.334-.019-.982.319-1.702,1.013-2.159.393-.259.881-.398,1.465-.418.967-.04,3.255.291,6.866.993l18.387,3.692-9.649,11.078c-1.8,2.047-3.023,3.284-3.67,3.71-.739.487-1.546.571-2.419.252-1.194-.406-2.451-1.533-3.769-3.383l-1.533.464,12.147,18.438,1.533-.464c-1.058-1.756-1.685-3.173-1.882-4.252-.198-1.079-.145-2.116.161-3.112.305-.996,1.083-2.305,2.335-3.925,1.939-2.537,3.404-4.363,4.393-5.479l10.321-11.719,20.514,3.979Z"/>
  <path d="M1594.711,625.241c3.404,3.366,5.403,5.692,5.997,6.98.812,1.736,1.104,3.389.879,4.955-.188,1.214-.799,2.343-1.829,3.386-.604.609-1.422,1.299-2.454,2.067l1.092,1.08,12.021-7.199-28.745-28.423-1.434.741.62.613c1.515,1.498,2.323,2.716,2.427,3.654.103.938-.215,1.782-.954,2.529-1.012,1.023-2.757,2.236-5.233,3.64l-30.895,17.196c-3.276,1.857-5.579,2.927-6.908,3.208-.898.201-1.917.089-3.054-.335-.765-.289-1.934-1.173-3.508-2.65l-1.463.712,30.929,30.583,14.779-7.391-1.092-1.08c-5.156,1.555-9.562,1.868-13.216.94-3.654-.929-7.399-3.289-11.236-7.083l-3.542-3.502c-1.338-1.323-2.038-2.287-2.1-2.894-.104-.88.099-1.575.604-2.087.661-.669,1.811-1.458,3.45-2.367l16.969-9.429,3.807,3.765c1.928,1.906,3.07,3.279,3.428,4.118.356.84.454,1.686.293,2.537-.162.853-.661,1.701-1.497,2.547-.856.866-2.064,1.734-3.624,2.604l1.18,1.167,18.46-10.464-1.092-1.079c-3.045,1.347-5.571,1.836-7.578,1.466-2.008-.37-4.35-1.879-7.025-4.524l-3.748-3.706,20.216-11.295,5.076,5.019Z"/>
  <path d="M1649.776,663.212c.992,1.273,1.651,2.581,1.978,3.922s.349,2.693.069,4.057c-.28,1.365-.809,2.783-1.585,4.257l-2.317,3.938,1.26.805,13.337-13.103-1.294-.826c-1.68.471-2.804.689-3.372.654s-1.133-.231-1.692-.589c-.56-.356-1.321-1.171-2.282-2.441-2.169-2.927-4.408-5.128-6.717-6.602-4.921-3.142-10.694-4.857-17.32-5.148s-12.89,1.127-18.792,4.253-10.505,7.277-13.811,12.455c-2.159,3.382-3.395,7.041-3.708,10.977-.313,3.937.505,7.668,2.456,11.194,1.95,3.526,4.861,6.525,8.732,8.997,4.361,2.784,8.719,4.212,13.072,4.283,4.354.07,9.115-1.116,14.286-3.56l-1.644-1.05c-4.09,1.624-7.861,2.352-11.314,2.182-3.454-.169-6.802-1.289-10.043-3.357-4.292-2.74-6.904-6.336-7.836-10.788-.934-4.453.066-8.976,3-13.571,2.873-4.5,6.642-8.348,11.308-11.542,5.656-3.873,11.409-5.994,17.259-6.363,4.584-.291,8.963.896,13.139,3.562,1.562.997,2.84,2.133,3.832,3.406Z"/>
  <path d="M1709.888,714.45c2.495-1.855,4.332-2.985,5.512-3.391,1.179-.405,2.259-.485,3.239-.242.979.243,2.306,1.003,3.978,2.279l1.295-.944-14.22-10.853-1.295.943c1.962,1.672,3.08,3.021,3.357,4.05.275,1.029.138,1.906-.417,2.633-.789,1.034-2.979,2.878-6.571,5.531l-14.384,10.637c-2.751,2.008-5.602,3.896-8.552,5.664-2.951,1.769-5.603,2.93-7.957,3.482-2.354.553-4.703.587-7.048.103-2.346-.484-4.606-1.558-6.784-3.22-3.321-2.535-5.271-5.476-5.849-8.823-.578-3.348.148-6.353,2.18-9.014.923-1.209,2.055-2.418,3.393-3.624.825-.762,2.719-2.24,5.683-4.435l16.672-12.336c2.316-1.713,4.077-2.754,5.281-3.123,1.203-.369,2.34-.397,3.408-.088,1.068.312,2.587,1.184,4.556,2.616l1.295-.943-18.904-14.429-1.262.969c2.428,2.062,3.784,3.559,4.067,4.487.282.93.113,1.802-.508,2.615-.789,1.034-2.332,2.415-4.626,4.145l-16.029,11.836c-2.494,1.854-4.199,3.199-5.113,4.032-1.367,1.289-2.546,2.583-3.536,3.88-2.502,3.278-3.347,7.235-2.536,11.875.811,4.639,3.459,8.67,7.946,12.095,3.893,2.972,7.812,4.597,11.759,4.876,3.945.279,7.59-.333,10.932-1.838,3.341-1.505,7.849-4.355,13.523-8.553l17.516-12.894Z"/>
  <path d="M1714.228,763.459l36.568-17.005,2.91,3.354c2.558,2.946,3.851,5.029,3.883,6.247.043,1.611-.699,3.079-2.225,4.402-1.296,1.125-2.941,2.205-4.937,3.24l1.034,1.191,14.304-6.313-28.017-32.287-13.87,6.814,1.007,1.159c2.702-1.319,5.048-2.035,7.037-2.149,1.988-.114,3.945.304,5.869,1.254,1.923.95,3.945,2.648,6.067,5.094l2.203,2.539-37.831,17.386c-3.771,1.733-6.335,2.759-7.69,3.074-1.356.316-2.476.325-3.356.027-1.284-.424-2.633-1.451-4.048-3.082l-.707-.814-1.459.661,16.049,18.495,1.486-.63-1.251-1.442c-1.469-1.692-2.238-3.096-2.306-4.209-.069-1.113.294-2.014,1.089-2.703.856-.743,3.586-2.178,8.189-4.304Z"/>
  <path d="M1776.842,795.689c1.202.159,2.316.687,3.343,1.583.737.603,1.466,1.714,2.187,3.332l1.586-.232-9.156-19.727-1.603.194c.896,1.933,1.38,3.286,1.451,4.062.069.775-.045,1.432-.346,1.968-.301.535-.776.955-1.429,1.258-1.306.605-3.413,1.126-6.322,1.562l-34.919,5.408c-3.444.531-5.948.656-7.513.376-.997-.178-1.966-.72-2.905-1.626-.615-.538-1.438-1.849-2.466-3.935l-1.638.12,9.75,21.007,1.585-.232c-.862-2.254-1.336-3.781-1.417-4.582-.082-.801.023-1.46.317-1.978.293-.518.754-.922,1.382-1.213.777-.361,2.771-.799,5.98-1.312l34.9-5.446c3.618-.551,6.028-.747,7.231-.588Z"/>
  <path d="M1788.596,867.146c3.148-1.293,5.877-3.296,8.188-6.01,2.31-2.714,3.667-5.709,4.071-8.985.404-3.277-.104-6.643-1.522-10.099-1.703-4.146-4.169-7.71-7.396-10.691-3.229-2.981-7.104-5.443-11.626-7.385-4.521-1.942-9.637-3.108-15.347-3.501-5.71-.392-10.996.411-15.858,2.408-2.739,1.125-5.302,2.932-7.688,5.423-2.388,2.49-3.916,5.451-4.586,8.883-.669,3.431-.18,7.155,1.471,11.174,2.292,5.579,6.122,10.317,11.491,14.215,5.37,3.896,11.784,6.205,19.244,6.926,7.459.72,13.979-.065,19.559-2.357ZM1754.644,859.419c-3.789-1.286-6.719-2.812-8.79-4.579-2.072-1.767-3.586-3.814-4.542-6.143-1.588-3.865-1.364-7.308.672-10.327,2.035-3.02,4.87-5.275,8.505-6.768,5.093-2.092,10.989-3.138,17.69-3.138,5.446.007,10.104.621,13.971,1.845,3.867,1.223,6.937,2.797,9.208,4.721,2.271,1.924,3.932,4.166,4.982,6.726,1.545,3.763,1.363,7.127-.543,10.094-1.908,2.967-4.602,5.165-8.082,6.595-4.71,1.935-10.21,2.981-16.5,3.143-6.291.16-11.814-.562-16.571-2.168Z"/>
  <path d="M1823.813,916.126c.063.355.137.693.22,1.016.491,1.901.545,3.273.162,4.115s-1.07,1.392-2.061,1.646c-1.447.374-3.58.524-6.399.452l-34.263-.884,38.371-27.867-3.518-13.623-1.601-.059c.569,2.539.707,4.482.412,5.831-.295,1.347-1.111,2.751-2.449,4.211l-40.687-1.026c-3.625-.093-6.127-.376-7.506-.848-.916-.336-1.756-.99-2.521-1.964-.509-.641-1.066-2.025-1.673-4.155l-1.633-.179,4.42,17.12,1.591.018c-.449-2.514-.497-4.166-.144-4.957.353-.791,1.038-1.317,2.057-1.581,1.366-.353,3.429-.499,6.188-.439l36.458.917-41.294,29.994.373,1.446,48.238,1.22c3.362.075,5.783.378,7.265.91,1.043.388,2.009,1.139,2.896,2.253.63.78,1.166,2.085,1.61,3.914l1.611.098-4.523-17.521-1.602-.059Z"/>
  <path d="M226.214,87.796c.254.673.377,1.588.369,2.744,0,3.371.111,5.783.333,7.237.223,1.453.627,2.957,1.213,4.51,1.181,3.133,2.956,5.761,5.323,7.885,2.368,2.124,5.066,3.419,8.098,3.889,3.03.469,5.878.201,8.545-.805,2.355-.888,4.361-2.294,6.016-4.219,1.654-1.925,3.61-5.523,5.866-10.794,2.256-5.271,4.003-8.754,5.243-10.448,1.239-1.694,2.765-2.883,4.577-3.566,2.071-.781,4.213-.627,6.428.46,2.213,1.088,3.828,2.978,4.843,5.67,1.278,3.392,1.311,6.499.099,9.322-1.213,2.823-3.386,4.825-6.518,6.006-.958.361-2.233.782-3.826,1.265l.498,1.32,18.999-2.549-.557-1.476c-1.542-.247-2.609-.569-3.203-.966-.593-.397-1.032-.971-1.315-1.722-.166-.44-.278-.856-.337-1.248-.007-.175.004-1.126.034-2.852.08-2.455.046-4.113-.101-4.974-.204-1.402-.578-2.828-1.125-4.278-1.621-4.298-4.255-7.326-7.905-9.084-3.65-1.759-7.313-1.945-10.989-.559-2.305.869-4.28,2.294-5.928,4.275-.996,1.203-2.305,3.575-3.927,7.114-3.42,7.322-5.976,11.996-7.666,14.023-1.148,1.349-2.601,2.355-4.362,3.019-2.718,1.025-5.452,1.05-8.2.075-2.748-.975-4.761-3.158-6.04-6.55-1.376-3.65-1.378-7.028-.005-10.133,1.372-3.105,3.832-5.326,7.379-6.663,1.243-.469,2.843-.969,4.801-1.5l-.498-1.32-21.174,3.015.557,1.476c2.393.074,3.877.874,4.454,2.402Z"/>
  <path d="M278.898,127.028c3.006-.069,5.436.261,7.291.989,1.854.728,3.457,1.925,4.807,3.593,1.35,1.667,2.478,4.055,3.383,7.163l.94,3.228-41.635-.022c-4.15-.001-6.908-.143-8.271-.422-1.364-.28-2.384-.74-3.06-1.378-.989-.922-1.785-2.419-2.389-4.492l-.302-1.036-1.602-.009,6.847,23.511,1.613.049-.534-1.833c-.626-2.152-.739-3.748-.335-4.788.403-1.04,1.109-1.706,2.119-2,1.089-.317,4.168-.479,9.239-.486l40.329-.16,1.242,4.264c1.091,3.746,1.396,6.178.915,7.298-.635,1.482-1.922,2.505-3.861,3.07-1.647.479-3.594.772-5.839.879l.441,1.515,15.633.245-11.953-41.044-15.448.393.43,1.474Z"/>
  <path d="M266.675,188.795c-3.373.64-5.839.863-7.399.669-.955-.102-1.899-.55-2.835-1.345-.624-.489-1.439-1.625-2.448-3.409l-1.575.294,9.942,19.389,1.537-.368c-1.041-2.514-1.478-4.156-1.312-4.924.225-1.018.854-1.791,1.888-2.321,1.354-.694,3.161-1.264,5.421-1.707l17.357-3.443c.616,2.171,1.416,4.187,2.4,6.045l-20.229,20.494,6.136,11.966,1.575-.294c-1.203-2.71-1.566-4.934-1.089-6.671s2.21-4.119,5.199-7.144l12.162-12.394c2.923,3.942,6.355,6.467,10.295,7.571,3.94,1.105,7.522.831,10.749-.824,3.373-1.729,5.475-4.331,6.306-7.804.831-3.474-.155-7.943-2.958-13.409l-8.37-16.324-1.594.257c.908,1.711,1.205,3.23.891,4.558-.315,1.327-1.038,2.281-2.17,2.862-1.108.568-2.823,1.075-5.145,1.519l-34.735,6.757ZM312.837,186.766c.752.982,1.331,1.867,1.735,2.655,1.578,3.078,2.035,5.758,1.372,8.042-.664,2.284-2.362,4.126-5.095,5.528-3.497,1.793-7.052,2.061-10.665.805-3.614-1.257-6.507-4.002-8.678-8.237-.632-1.231-1.24-2.691-1.827-4.38l23.158-4.412Z"/>
  <path d="M294.21,248.272c-2.025.007-3.855-.604-5.494-1.836l-1.325.901,12.889,10.529,1.325-.9c-1.251-1.093-1.954-2.113-2.108-3.062-.155-.948.048-1.765.608-2.451.42-.514.999-.96,1.738-1.34.738-.379,2.162-.833,4.272-1.359l9.346-2.387,12.471,10.188-5.03,5.108c-2.228,2.29-3.731,3.67-4.509,4.142-1.113.663-2.147.944-3.101.843-1.369-.118-2.75-.746-4.142-1.883l-.739-.604-1.325.9,17.164,14.021,1.325-.9c-1.65-1.348-2.702-2.456-3.152-3.325-.452-.869-.627-1.78-.526-2.734.046-.712.419-1.497,1.119-2.354.438-.535,1.433-1.58,2.988-3.133l32.929-33.552-1.125-.919-54.971,14.153c-5.062,1.297-8.604,1.948-10.628,1.956ZM345.826,238.587l-15.719,15.831-10.96-8.954,26.68-6.877Z"/>
  <path d="M353.536,290.405l-1.021-.351-.931,1.304,23.156,7.964.97-1.29-1.805-.621c-2.12-.729-3.488-1.558-4.104-2.487-.617-.929-.754-1.89-.412-2.885.369-1.073,2.012-3.682,4.931-7.829l23.125-33.04,4.199,1.444c3.689,1.269,5.853,2.423,6.491,3.461.844,1.373.938,3.015.281,4.924-.558,1.623-1.441,3.382-2.649,5.277l1.491.513,9.216-12.631-40.425-13.903-8.588,12.847,1.452.5c1.677-2.496,3.348-4.291,5.013-5.386,1.664-1.096,3.566-1.714,5.707-1.855s4.742.314,7.803,1.367l3.179,1.093-24.027,34.003c-2.395,3.39-4.1,5.562-5.115,6.514-1.016.953-1.979,1.521-2.891,1.705-1.324.276-3.006.063-5.047-.639Z"/>
  <path d="M431.504,258.353c.542.773.669,1.666.381,2.676-.395,1.384-1.34,3.287-2.836,5.708l-18.807,29.941c-1.979,3.206-3.482,5.251-4.511,6.137-.691.609-1.638,1-2.838,1.176-.81.114-2.26-.097-4.35-.636l-.94,1.329,41.83,11.924,9.398-13.591-1.477-.421c-3.772,3.845-7.483,6.24-11.133,7.185-3.65.945-8.069.678-13.258-.802l-4.79-1.365c-1.81-.516-2.888-1.024-3.233-1.526-.514-.722-.672-1.428-.475-2.121.258-.904.886-2.149,1.885-3.735l10.337-16.431,5.149,1.468c2.607.743,4.27,1.397,4.987,1.961.716.564,1.209,1.258,1.478,2.083.268.825.239,1.809-.087,2.953-.333,1.171-.975,2.513-1.924,4.026l1.597.455,11.146-18.056-1.477-.421c-2.021,2.646-4,4.291-5.938,4.932-1.938.642-4.717.447-8.335-.585l-5.069-1.445,12.285-19.63,6.865,1.957c4.603,1.312,7.476,2.39,8.616,3.233,1.547,1.131,2.599,2.439,3.155,3.92.418,1.155.427,2.438.025,3.848-.235.825-.621,1.823-1.155,2.994l1.477.421,7.073-12.096-38.876-11.082-.9,1.34.838.239c2.049.584,3.344,1.263,3.887,2.036Z"/>
  <path d="M466.177,313.49c.215,4.06,1.595,7.824,4.14,11.293,2.543,3.468,6.549,6.339,12.018,8.61,2.376.987,4.741,1.678,7.094,2.071s5.593.563,9.721.51l9.294-11.554c2.351-2.918,3.886-4.632,4.608-5.142,1.073-.782,2.148-1.205,3.223-1.268,1.075-.063,2.601.302,4.579,1.093l1.004-1.335-21.617-8.98-1.043,1.319,1.073.446c2.402.998,3.985,2.09,4.751,3.277.462.761.503,1.602.121,2.522-.457,1.099-1.335,2.457-2.636,4.073l-9.352,11.8c-2.628-.163-4.56-.366-5.792-.608-1.232-.243-2.488-.629-3.765-1.16-5.162-2.145-8.25-5.495-9.263-10.05-1.014-4.556-.512-9.261,1.505-14.116,3.036-7.308,7.786-13.08,14.25-17.315,8.133-5.37,16.173-6.404,24.12-3.103,3.884,1.614,6.53,3.844,7.939,6.691,1.408,2.848,1.593,5.523.553,8.027-.382.92-1.086,2.291-2.112,4.111l1.457.605,10.67-14.758-1.456-.605c-1.183.827-2.059,1.295-2.628,1.403-.569.108-1.173.029-1.812-.236-.562-.233-1.343-.842-2.342-1.827-2.48-2.469-5.573-4.473-9.278-6.012-5.034-2.091-10.299-2.976-15.796-2.653-3.991.23-7.979,1.157-11.965,2.782-3.986,1.625-7.766,4.07-11.339,7.334-3.574,3.265-6.294,7.146-8.163,11.643-1.391,3.348-1.979,7.051-1.762,11.11Z"/>
  <path d="M524.538,351.791c-.821-.192-2.195-.962-4.122-2.311l-1.311.942,19.09,14.042,1.244-.991c-1.722-1.301-2.908-2.397-3.559-3.288-.483-.698-.721-1.32-.714-1.865.005-.545.263-1.163.771-1.854.787-1.07,2.625-2.706,5.516-4.907l11.582-8.741,22.363-7.148c4-1.282,6.868-2.006,8.604-2.172,1.305-.139,2.481-.081,3.53.175.66.176,1.746.684,3.26,1.522l1.177-1.04-14.243-10.477-1.244.991c2.153,1.79,3.35,3.022,3.591,3.698.241.676.182,1.259-.179,1.749-.639.87-3.229,2.055-7.77,3.559l-17.503,5.725,5.397-15.042c.976-2.682,1.801-4.479,2.473-5.394.459-.624,1.017-1.056,1.673-1.294.656-.239,1.287-.255,1.892-.051.371.102,1.662.845,3.873,2.23l1.311-.942-16.75-12.321-1.244.991c1.69,1.484,2.652,2.827,2.885,4.028.232,1.201-.233,3.504-1.397,6.907l-6.662,19.212-13.717,10.313c-2.754,2.062-4.887,3.328-6.398,3.795-.982.308-2.122.293-3.42-.043Z"/>
</svg>