<?xml version="1.0" encoding="UTF-8"?>
<svg id="Layer_2" xmlns="http://www.w3.org/2000/svg" viewBox="0 0 84.02 96">
  <defs>
    <style>
      .cls-1 {
        fill: gray;
      }

      .cls-2 {
        fill: #4d4d4d;
      }

      .cls-3 {
        fill: #1b1f3b;
      }

      .cls-4 {
        fill: #fff;
      }

      .cls-5 {
        fill: #c2371e;
      }
    </style>
  </defs>
  <g id="Layer_1-2" data-name="Layer_1">
    <g id="People_Cube">
      <polygon class="cls-3" points="1.05 71.2 .79 24.12 41.77 .92 82.97 24.79 83.22 70.65 42.26 95.08 1.05 71.2"/>
      <path class="cls-3" d="M41.76,1.83c13.47,7.8,26.95,15.61,40.42,23.42.08,14.99.16,29.97.24,44.96-13.39,7.98-26.78,15.97-40.16,23.95L1.84,70.74c-.08-15.39-.17-30.77-.25-46.16C14.98,16.99,28.37,9.41,41.76,1.83"/>
      <polyline points="42.27 96 43.07 95.52 64.98 82.46 83.24 71.57 84.02 71.1 84.01 70.2 83.88 45.25 83.77 25.24 83.77 24.33 82.98 23.87 61.7 11.55 42.56 .46 41.77 0 41.77 0 41.77 0 40.98 .45 .81 23.19 0 23.65 0 24.59 .25 70.75 .26 71.66 1.05 72.11 41.46 95.53 42.27 96"/>
      <path class="cls-3" d="M4.16,29.35c11.6,6.72,23.2,13.44,34.8,20.16-3.92-6.64-7.84-13.29-11.76-19.93l-23.04-.23h0Z"/>
      <g>
        <polygon class="cls-2" points="40.77 45.09 4.36 24.32 41.7 3.14 77.97 24.36 64.84 45.09 40.77 45.09"/>
        <path d="M41.69,4.06c11.72,6.86,23.44,13.71,35.17,20.57l-12.45,19.66c-7.81,0-15.62,0-23.42,0L5.97,24.33c11.91-6.76,23.82-13.51,35.72-20.27M41.7,2.22l-.8.45L5.18,22.94l-2.43,1.38,2.43,1.38,35.01,19.97.37.21h24.72l.47-.74,12.45-19.66.88-1.39-1.42-.83L42.49,2.68l-.79-.46h0Z"/>
      </g>
      <g>
        <polygon class="cls-2" points="3.29 70.03 3.35 28.53 27.66 28.78 39.76 49.29 39.7 91.12 3.29 70.03"/>
        <path d="M4.15,29.33c7.69.08,15.37.16,23.06.24,3.92,6.64,7.84,13.29,11.76,19.93l-.06,40.24L4.09,69.57l.06-40.24M2.56,27.73v1.6s-.06,40.24-.06,40.24v.92l.79.46,34.82,20.17,2.38,1.38v-2.75s.07-40.24.07-40.24v-.44l-.22-.38-1.55-2.63-10.2-17.3-.46-.77h-.9s-7.52-.09-7.52-.09l-15.54-.16-1.6-.02h0Z"/>
      </g>
      <g>
        <polygon class="cls-5" points="33.16 69.45 44.87 48.4 50.6 45.1 64.83 45.08 73.04 32.19 81.14 27.53 81.07 69.61 45.11 90.3 33.16 69.45"/>
        <path d="M80.34,28.91c-.02,13.41-.04,26.83-.06,40.24l-34.88,20.07c-3.78-6.59-7.55-13.18-11.32-19.77l11.38-20.47,5.35-3.08c4.82,0,9.64-.02,14.45-.02,2.78-4.36,5.56-8.73,8.33-13.09,2.24-1.29,4.49-2.58,6.74-3.88M81.93,26.16l-2.39,1.37-3.67,2.11-3.06,1.76-.34.19-.21.33-2.78,4.36-5.09,7.99h-6.36s-7.23.02-7.23.02h-.42l-.37.21-5.35,3.08-.38.22-.21.38-5.69,10.24-5.69,10.24-.44.78.45.78,4.62,8.06,6.71,11.71.79,1.38,1.38-.79,34.88-20.07.79-.46v-.92l.03-20.12.03-20.12v-2.75h0,0Z"/>
      </g>
      <g>
        <path class="cls-1" d="M38.08,16.14c-.02.35.25.75.73,1.06l.1.07c.39.25.65.57.72.87l.91,4.3-7.01-.85c-.6-.58-1.4-1.1-2.32-1.5-2.87-1.26-6.17-1.1-7.36.36l5.64.66,2.2,1.93-1.47,1.5-5.63-.66c.29.28.64.55,1.04.81.39.25.81.48,1.26.67,2.88,1.26,6.18,1.1,7.38-.35l7,.79.33,1.55-1.5.3c-.59.12-.9.47-.81.9l1.15,5.42c.13.63,1.08,1.24,2.1,1.36l4.17.49c1.03.12,1.75-.29,1.62-.92l-1.15-5.42c-.09-.43-.57-.87-1.24-1.14l-1.71-.68-.33-1.56,6.93.79c.31.32.69.62,1.11.89,2.46,1.59,6,2.01,7.9.94,1.9-1.08,1.44-3.25-1.02-4.84-.43-.28-.9-.52-1.4-.73-2.9-1.22-6.17-1.01-7.29.48l-6.94-.85-.92-4.32c-.07-.3.07-.57.38-.74l.08-.05c.37-.21.49-.56.31-.93l-2.06-4.4-2.63-.31-.25,4.13h0ZM43.13,28.54c.51.06.98.37,1.05.68l1.03,4.84c.07.31-.3.52-.81.46-.52-.06-.99-.37-1.05-.68l-1.03-4.84h0c-.07-.31.3-.52.81-.46h0ZM53.3,23.82l.64-.32.99.24h.94s.82.48.82.48l.98.3.42.61.76.53-.08.57.33.62-.57.37-.18.54-.9.07-.64.32-.99-.24h-.94s-.82-.48-.82-.48l-.98-.3-.42-.61-.76-.53.08-.57-.33-.62.57-.37.18-.54.9-.07Z"/>
        <g>
          <path class="cls-4" d="M61.14,75.34c-2.24.94-4.45,1.27-6.7,1.24-.94-.01-1.08-.29-.97-1.69.24-3.06,1.56-5.19,3.39-6.89.49-.46.94-.62,1.46-.48,1.7.45,3.35-.12,4.92-1.54.42-.38.76-.42,1.16-.3,1.3.38,2.39,1.15,2.93,2.93.2.65.25,1.43.35,2.17.07.52-.12.86-.47,1.14-1.93,1.55-3.95,2.82-6.06,3.42Z"/>
          <path class="cls-4" d="M56.61,61.63c-.09-3.19,1.63-6.1,3.86-6.59,2.13-.48,3.86,1.53,3.94,4.5.08,3.02-1.5,5.98-3.61,6.64-2.26.71-4.2-1.48-4.18-4.54Z"/>
          <path class="cls-4" d="M70.77,54.14c.09,3.9-2.63,7.17-5.07,5.93-.37-.19-.58-.51-.62-1.14-.08-1.34-.42-2.49-1.08-3.38-.32-.43-.37-.9-.23-1.56.51-2.35,1.97-4.22,3.45-4.41,1.65-.21,2.99,1.11,3.44,3.39.07.37.08.78.11,1.17Z"/>
          <path class="cls-4" d="M69.07,68.62c-.79.28-.78.28-1.1-.66-.6-1.75-1.62-2.73-2.94-3.21-.15-.05-.3-.09-.45-.14-.5-.16-.53-.33-.25-1.07.17-.46.33-.93.46-1.4.13-.47.32-.71.63-.62,1.6.42,3.11-.19,4.53-1.59.11-.11.27-.16.38-.13,1.25.36,2.4.94,2.98,2.7.24.72.34,1.58.46,2.4.06.41-.07.78-.36,1.01-1.41,1.13-2.87,2.09-4.37,2.71Z"/>
        </g>
        <g>
          <path class="cls-1" d="M22.67,52.25c-.02.23-.02.46-.05.68-.04.33.06.62.29.91.22.26.43.53.63.81.24.33.49.43.74.36.21-.06.42-.12.64-.15.29-.05.47.06.68.46.22.42.43.86.63,1.3.15.33.14.6-.04.78-.17.18-.33.37-.51.54-.18.18-.21.44-.12.79.09.35.18.7.27,1.05.08.34.25.57.5.72.26.15.51.31.77.47.29.19.42.4.45.78.03.47.04.93.04,1.38,0,.31-.17.41-.4.39-.26-.03-.52-.05-.79-.09-.23-.03-.38.07-.44.34-.07.3-.14.6-.22.9-.07.27-.02.54.16.84.19.3.37.61.54.92.21.37.24.61.09.88-.17.28-.35.55-.54.79-.18.22-.34.2-.62-.04-.25-.22-.5-.45-.75-.69-.21-.21-.39-.25-.57-.15-.24.14-.48.28-.72.41-.16.09-.21.27-.18.53.05.37.1.73.13,1.09.04.45-.03.57-.35.61-.26.03-.52.05-.79.06-.37,0-.55-.15-.77-.67-.13-.32-.27-.63-.4-.95-.11-.28-.27-.44-.48-.51-.28-.1-.57-.2-.85-.32-.24-.1-.41-.04-.52.18-.12.25-.24.51-.37.76-.17.31-.3.33-.65.09-.3-.21-.6-.43-.89-.68-.34-.28-.42-.5-.41-.94.01-.33.02-.67.04-1.01,0-.23-.06-.44-.22-.64-.28-.35-.55-.71-.85-1.03-.12-.13-.32-.21-.46-.2-.27.01-.52.1-.78.15-.33.06-.49-.04-.74-.49-.22-.39-.43-.8-.62-1.2-.18-.39-.17-.6.01-.82.16-.19.33-.38.51-.55.19-.19.21-.47.1-.84-.09-.31-.19-.62-.26-.92-.1-.4-.28-.68-.59-.84-.26-.14-.52-.3-.77-.48-.32-.22-.46-.44-.5-.86-.04-.44-.06-.87-.06-1.3,0-.36.13-.5.42-.48.25.02.5.06.76.1.28.04.46-.05.52-.4.05-.3.12-.58.2-.85.09-.31.01-.62-.21-.96-.19-.29-.37-.59-.54-.89-.25-.42-.28-.67-.11-.97.16-.29.34-.56.54-.81.2-.25.36-.23.68.05.27.24.53.5.8.75.22.21.42.27.6.17.25-.14.49-.28.74-.42.18-.1.21-.32.17-.61-.05-.36-.1-.72-.14-1.08-.05-.47.02-.63.34-.67.31-.03.63-.05.96-.02.32.03.47.2.66.64.14.34.28.68.41,1.02.13.34.31.56.58.66.27.09.54.21.81.33.28.12.46.05.58-.21.11-.25.22-.49.34-.73.17-.33.31-.36.65-.12.28.2.57.42.84.66.4.35.45.51.44,1.24ZM16.18,58.07c.05,2.5,1.66,5.1,3.62,5.9,1.93.79,3.48-.55,3.46-2.99-.02-2.45-1.61-5.11-3.55-5.93-2.02-.85-3.58.49-3.53,3.02Z"/>
          <path class="cls-1" d="M26.18,49.2c-.03-.26-.05-.42-.07-.59-.04-.28-.1-.57-.12-.84-.04-.57.21-.9.6-.83.42.08.79.51.92,1.1.08.38.13.75.19,1.13.14.83.28,1.65.41,2.47.11.66-.1,1.04-.56,1.03-.89-.03-1.79-.06-2.69-.11-.47-.02-.9-.48-1.04-1.07-.15-.62.09-1.07.57-1.07.28,0,.56.02.84.03v-.1c-.08-.12-.17-.24-.26-.35-1.96-2.31-4.1-3.84-6.37-4.58-2.2-.72-4.21-.62-5.88.49-3.36,2.23-4.51,6.36-3.47,12.24.12.68.34,1.36.5,2.04.06.24.11.5.1.72-.03.41-.29.59-.62.51-.38-.1-.68-.41-.84-.94-.17-.56-.33-1.12-.46-1.67-.61-2.56-.78-4.99-.49-7.26.39-3.03,1.47-5.36,3.28-6.9,2.5-2.12,5.57-2.33,9.13-.69,2.14.98,4.11,2.62,5.94,4.79.11.13.21.25.39.45Z"/>
          <path class="cls-1" d="M13.43,69.71c.07.5.12.89.18,1.28.07.46-.04.76-.33.89-.45.2-1.06-.35-1.2-1.09-.13-.7-.24-1.39-.35-2.09-.08-.48-.15-.95-.22-1.43-.1-.67.09-1.05.58-1.02.87.06,1.75.14,2.62.23.44.05.84.52.94,1.07.11.54-.12.96-.52.96-.25,0-.5-.03-.84-.05.15.19.22.3.3.39,3.89,4.24,8.66,5.6,11.93,3.45,2.06-1.36,3.26-3.68,3.61-6.93.21-1.97.03-4.08-.53-6.29-.03-.12-.06-.24-.08-.36-.1-.57.08-.94.46-.96.34-.01.74.35.88.89.18.69.35,1.39.46,2.08.85,5.27.05,9.33-2.46,12.09-2.37,2.6-5.49,3.06-9.25,1.54-2.05-.83-3.98-2.29-5.8-4.27-.1-.1-.2-.2-.38-.38Z"/>
        </g>
      </g>
    </g>
  </g>
</svg>