<?xml version="1.0" encoding="UTF-8"?>
<svg id="Layer_2" xmlns="http://www.w3.org/2000/svg" xmlns:xlink="http://www.w3.org/1999/xlink" viewBox="0 0 175.04 200">
  <defs>
    <style>
      .cls-1 {
        fill: url(#linear-gradient);
      }
    </style>
    <linearGradient id="linear-gradient" x1="149.91" y1="162.38" x2="23.95" y2="36.42" gradientUnits="userSpaceOnUse">
      <stop offset="0" stop-color="#f9b214"/>
      <stop offset=".24" stop-color="#e88d16"/>
      <stop offset=".58" stop-color="#d35e1a"/>
      <stop offset=".85" stop-color="#c6411d"/>
      <stop offset="1" stop-color="#c2371e"/>
    </linearGradient>
  </defs>
  <g id="Layer_1-2" data-name="Layer_1">
    <g>
      <polyline points="88.07 200 89.74 199 135.38 171.78 173.41 149.1 175.04 148.13 175.03 146.24 174.75 94.27 174.52 52.59 174.51 50.69 172.87 49.74 128.54 24.06 88.67 .95 87.03 0 87.03 0 87.02 0 85.37 .93 1.69 48.32 0 49.28 0 51.22 .53 147.39 .54 149.29 2.18 150.24 86.38 199.02 88.07 200"/>
      <polyline class="cls-1" points="88.02 191.98 89.56 191.06 131.54 166.03 166.52 145.16 168.02 144.27 168.01 142.53 167.75 94.73 167.54 56.39 167.54 54.64 166.02 53.77 125.25 30.15 88.58 8.9 87.07 8.02 87.07 8.02 87.06 8.02 85.55 8.88 8.57 52.47 7.02 53.35 7.03 55.13 7.5 143.59 7.51 145.34 9.02 146.21 86.47 191.08 88.02 191.98"/>
    </g>
  </g>
</svg>