<?xml version="1.0" encoding="UTF-8"?>
<svg id="Layer_2" xmlns="http://www.w3.org/2000/svg" xmlns:xlink="http://www.w3.org/1999/xlink" viewBox="0 0 175.04 200">
  <defs>
    <style>
      .cls-1 {
        fill: #f9b214;
      }

      .cls-2 {
        fill: #2c699a;
      }

      .cls-3 {
        fill: url(#radial-gradient);
      }

      .cls-4 {
        fill: #c2371e;
      }
    </style>
    <radialGradient id="radial-gradient" cx="87.52" cy="100" fx="87.52" fy="100" r="86.43" gradientUnits="userSpaceOnUse">
      <stop offset="0" stop-color="#000" stop-opacity=".3"/>
      <stop offset="1" stop-color="#000" stop-opacity=".2"/>
    </radialGradient>
  </defs>
  <g id="Layer_1-2" data-name="Layer_1">
    <g>
      <polyline points="88.07 200 89.74 199 135.38 171.78 173.41 149.1 175.04 148.13 175.03 146.24 174.75 94.27 174.52 52.59 174.51 50.69 172.87 49.74 128.54 24.06 88.67 .95 87.03 0 87.03 0 87.02 0 85.37 .93 1.69 48.32 0 49.28 0 51.22 .53 147.39 .54 149.29 2.18 150.24 86.38 199.02 88.07 200"/>
      <g>
        <polygon class="cls-2" points="84.94 93.93 9.08 50.67 86.87 6.54 162.43 50.74 135.09 93.93 84.94 93.93"/>
        <path d="M86.85,8.45c24.42,14.28,48.84,28.57,73.26,42.85l-25.94,40.97c-16.27,0-32.53,0-48.8,0L12.43,50.68c24.81-14.07,49.62-28.15,74.42-42.22M86.88,4.63l-1.66.94L10.8,47.8l-5.06,2.87,5.06,2.88,72.95,41.59.76.43h51.5l.97-1.54,25.94-40.97,1.83-2.9-2.96-1.73L88.52,5.59l-1.65-.96h0Z"/>
      </g>
      <g>
        <polygon class="cls-1" points="6.86 145.9 6.98 59.44 57.63 59.96 82.83 102.69 82.7 189.84 6.86 145.9"/>
        <path d="M8.64,61.11c16.02.17,32.03.33,48.05.5,8.16,13.84,16.33,27.69,24.49,41.53l-.13,83.83L8.51,144.94l.13-83.83M5.33,57.77v3.34s-.13,83.83-.13,83.83v1.91l1.65.96,72.53,42.02,4.96,2.87v-5.74s.14-83.83.14-83.83v-.91l-.46-.78-3.24-5.49-21.26-36.04-.95-1.61-1.87-.02-15.67-.16-32.37-.33-3.34-.03h0Z"/>
      </g>
      <g>
        <polygon class="cls-4" points="69.09 144.69 93.49 100.83 105.42 93.96 135.07 93.91 152.16 67.07 169.03 57.36 168.9 145.01 93.97 188.12 69.09 144.69"/>
        <path d="M167.37,60.23c-.04,27.94-.08,55.89-.13,83.83l-72.66,41.81c-7.87-13.73-15.73-27.46-23.59-41.18l23.72-42.65,11.15-6.42c10.04-.02,20.08-.03,30.11-.05,5.79-9.09,11.57-18.18,17.36-27.26,4.68-2.69,9.36-5.38,14.03-8.07M170.7,54.49l-4.97,2.86-7.65,4.4-6.38,3.67-.71.4-.44.69-5.79,9.09-10.6,16.65-13.24.02-15.05.02h-.88l-.77.44-11.15,6.42-.79.46-.45.8-11.86,21.32-11.86,21.32-.91,1.63.93,1.62,9.62,16.79,13.98,24.4,1.65,2.88,2.87-1.66,72.66-41.81,1.66-.95v-1.91l.07-41.92.06-41.92v-5.74h0,0Z"/>
      </g>
      <polyline class="cls-3" points="88.02 191.98 89.56 191.06 131.54 166.03 166.52 145.16 168.02 144.27 168.01 142.53 167.75 94.73 167.54 56.39 167.54 54.64 166.02 53.77 125.25 30.15 88.58 8.9 87.07 8.02 87.07 8.02 87.06 8.02 85.55 8.88 8.57 52.47 7.02 53.35 7.03 55.13 7.5 143.59 7.51 145.34 9.02 146.21 86.47 191.08 88.02 191.98"/>
    </g>
  </g>
</svg>