<?xml version="1.0" encoding="UTF-8"?>
<svg id="Layer_2" xmlns="http://www.w3.org/2000/svg" viewBox="0 0 570.947 261.164">
  <g id="Left">
    <g id="hex-outer">
      <path  fill="black" d="M84.601,2.475c-5.716-3.3-15.069-3.3-20.785,0L10.392,33.32C4.677,36.62,0,44.72,0,51.32v61.689c0,6.6,4.677,14.7,10.392,18l53.424,30.845c5.716,3.3,15.069,3.3,20.785,0l53.424-30.845c5.716-3.3,10.392-11.4,10.392-18v-61.689c0-6.6-4.677-14.7-10.392-18L84.601,2.475Z"/>
    </g>
    <g id="body">
      <rect  fill="black" x="70.947" y="41.181" width="500" height="219.983" rx="12" ry="12"/>
    </g>
    <g id="hex-inner">
      <polygon  fill="black" points="74.209 17.02 130.625 49.592 130.625 114.736 74.209 147.308 17.793 114.736 17.793 49.592 74.209 17.02"/>
    </g>
  </g>
</svg>