<?xml version="1.0" encoding="UTF-8"?>
<svg id="Layer_2" xmlns="http://www.w3.org/2000/svg" viewBox="0 0 570.947 261.164">
  <g id="Right">
    <g id="hex-inner">
      <polygon  fill="white" points="496.738 17.02 440.322 49.592 440.322 114.736 496.738 147.308 553.154 114.736 553.154 49.592 496.738 17.02"/>
    </g>
    <g id="body">
      <rect  fill="black" x="0" y="41.181" width="500" height="219.983" rx="12" ry="12"/>
    </g>
    <g id="hex-outer">
      <path  fill="black" d="M486.345,2.475c5.716-3.3,15.069-3.3,20.785,0l53.424,30.845c5.716,3.3,10.392,11.4,10.392,18v61.689c0,6.6-4.677,14.7-10.392,18l-53.424,30.845c-5.716,3.3-15.069,3.3-20.785,0l-53.424-30.845c-5.716-3.3-10.392-11.4-10.392-18v-61.689c0-6.6,4.677-14.7,10.392-18l53.424-30.845Z"/>
    </g>
  </g>
</svg>