<?xml version="1.0" encoding="UTF-8"?>
<svg id="Layer_2" xmlns="http://www.w3.org/2000/svg" viewBox="0 0 146.57 101.54">
  <defs>
    <style>
      .cls-1 {
        stroke-width: 2px;
      }

      .cls-1, .cls-2 {
        stroke-linecap: round;
      }

      .cls-1, .cls-2, .cls-3 {
        fill: none;
        stroke: #000;
        stroke-miterlimit: 10;
      }
    </style>
  </defs>
  <g id="Layer_1-2" data-name="Layer_1">
    <g>
      <g>
        <path d="M113.3.16v2c.33,0,.66.03.99.09,3,.57,5.62,3.82,7.2,8.93,1.75,5.65,2.04,12.78.82,20.08-2.41,14.39-9.45,22.99-14.87,22.99-.51,0-1.02-.07-1.52-.22-6.36-1.9-9.8-15.12-7.5-28.88,2.41-14.39,9.45-22.98,14.87-22.98V.16M113.3.16c-7.2,0-14.49,10.59-16.85,24.65-2.5,14.96,1.41,28.89,8.9,31.13.69.21,1.39.31,2.09.31,7.11,0,14.44-10.32,16.84-24.66,2.63-15.75-1.78-29.81-9.62-31.3-.45-.09-.91-.13-1.36-.13h0Z"/>
        <path d="M112.46,8.72h0c.24,0,.48.02.71.07,4.27.86,7.66,9.96,5.71,21.63-1.38,8.26-5.94,17.18-10.9,17.18-.33,0-.66-.05-.98-.14-5.09-1.45-6.95-12.53-5.44-21.56,1.77-10.61,7.04-17.18,10.91-17.18M112.46,6.72c-5.5,0-11.08,8.07-12.88,18.85-1.92,11.5,1.11,22.18,6.87,23.82.51.14,1.02.21,1.53.21,5.45,0,11.05-7.91,12.87-18.85,2-11.97-1.32-22.71-7.29-23.92-.37-.07-.74-.11-1.11-.11h0Z"/>
        <path d="M111.66,15.3h0c.13,0,.26.01.39.04,2.66.57,4.7,6.79,3.45,14.26-1.14,6.81-4.51,11.38-6.94,11.38-.17,0-.33-.02-.49-.07-2.59-.7-4.57-6.94-3.35-14.24,1.14-6.81,4.51-11.38,6.94-11.38M111.66,13.3c-3.8,0-7.66,5.57-8.91,13.05-1.34,8.01.79,15.41,4.8,16.5.34.09.67.14,1.01.14,3.77,0,7.65-5.49,8.91-13.05,1.38-8.24-.89-15.67-5-16.55-.27-.06-.54-.09-.81-.09h0Z"/>
        <path d="M110.9,19.88l.03,2c.7.16,1.89,2.93,1.22,6.91-.65,3.86-2.41,5.57-3.01,5.57h0c-.66-.17-1.91-2.8-1.22-6.91.65-3.86,2.41-5.58,2.98-5.58v-2M110.9,19.88c-2.11,0-4.25,3.08-4.95,7.25-.75,4.49.45,8.59,2.69,9.17.18.05.36.07.54.07,2.1,0,4.25-3.06,4.95-7.25.76-4.55-.48-8.67-2.75-9.19-.16-.04-.32-.05-.48-.05h0Z"/>
      </g>
      <path class="cls-1" d="M114.19,1c3.94.66,7.88,1.32,11.82,1.98,1.88,3.74,6.36,13.88,4.58,27.1-2.02,15.01-10.8,24.3-13.64,27.09l-10.84-1.81"/>
      <path d="M128.13,88.34c-.85,0-1.54-.61-1.59-.66-.43-.39-.72-.93-.79-1.56l-4.02-35.7c1.04-1.25,2.09-2.5,3.13-3.76.61,1.07,1.23,2.13,1.84,3.2l4.02,35.7c-.29,1.65-1.45,2.77-2.59,2.78Z"/>
      <path d="M98.02,78.58c-.33-.01-.66-.09-.97-.24-1.25-.6-1.77-2.09-1.18-3.33l9.87-20.61c1.5.72,3.01,1.44,4.51,2.16l-9.87,20.61c-.45.93-1.39,1.46-2.36,1.42Z"/>
      <path d="M144.15,76.5c-.16,0-.88-.05-1.52-.6-.19-.16-.36-.36-.5-.58l-17.82-28.77c.91-1.26,1.82-2.53,2.73-3.79.51.39,1.01.77,1.52,1.16l17.82,28.77c.46,1.44.09,2.84-.81,3.44-.6.4-1.34.38-1.42.37Z"/>
      <g>
        <line class="cls-3" x1="9.08" y1="55.91" x2="26.46" y2="82.78"/>
        <path class="cls-2" d="M10.81,51.22c-.58,1.56-1.15,3.13-1.73,4.69-1.66-.12-3.33-.23-4.99-.35"/>
        <path class="cls-2" d="M7.82,46.61c-.58,1.56-1.15,3.13-1.73,4.69-1.66-.12-3.33-.23-4.99-.35"/>
        <path class="cls-2" d="M9.32,48.91c-.58,1.56-1.15,3.13-1.73,4.69-1.66-.12-3.33-.23-4.99-.35"/>
      </g>
      <g>
        <line class="cls-3" x1="35.95" y1="53.01" x2="48.12" y2="82.61"/>
        <path class="cls-2" d="M38.51,48.72c-.85,1.43-1.71,2.86-2.56,4.3-1.61-.42-3.23-.84-4.84-1.25"/>
        <path class="cls-2" d="M36.42,43.63c-.85,1.43-1.71,2.86-2.56,4.3-1.61-.42-3.23-.84-4.84-1.25"/>
        <path class="cls-2" d="M37.46,46.18c-.85,1.43-1.71,2.86-2.56,4.3-1.61-.42-3.23-.84-4.84-1.25"/>
      </g>
      <g>
        <line class="cls-3" x1="9.76" y1="81.9" x2="35.99" y2="100.22"/>
        <path class="cls-2" d="M9.59,76.9c.06,1.67.11,3.33.17,5-1.58.52-3.17,1.04-4.75,1.56"/>
        <path class="cls-2" d="M5.08,73.75c.06,1.67.11,3.33.17,5-1.58.52-3.17,1.04-4.75,1.56"/>
        <path class="cls-2" d="M7.33,75.33c.06,1.67.11,3.33.17,5-1.58.52-3.17,1.04-4.75,1.56"/>
      </g>
      <path class="cls-3" d="M39.46,100.03c-.68-.15-1.76-.29-3,0-1.37.32-1.86.92-3,1-.66.05-1.68-.07-3-1"/>
      <path class="cls-3" d="M52.46,82.03c-.82.75-1.52.95-2,1-1.35.15-2.09-.74-4-1-.85-.12-1.56-.06-2,0"/>
      <path class="cls-3" d="M31.46,82.03c-.46-.1-1.19-.2-2,0-1.11.28-1.14.8-2,1-1.29.3-1.93-.71-4-1-.85-.12-1.56-.06-2,0"/>
    </g>
  </g>
</svg>