<?xml version="1.0" encoding="UTF-8"?>
<svg id="Layer_2" xmlns="http://www.w3.org/2000/svg" viewBox="0 0 183.72 94.97">
  <defs>
    <style>
      .cls-1 {
        fill: #222935;
      }

      .cls-2 {
        stroke-dasharray: 2.99 2;
      }

      .cls-2, .cls-3, .cls-4 {
        fill: none;
        stroke: #000;
        stroke-miterlimit: 10;
        stroke-width: 2px;
      }

      .cls-3 {
        stroke-dasharray: 3.11 2.07;
      }
    </style>
  </defs>
  <g id="Layer_1-2" data-name="Layer_1">
    <path class="cls-1" d="M79.69,58.06h-26.2c-.6,0-1.09.49-1.09,1.09v8.55h-25.11c-.6,0-1.09.49-1.09,1.09v7.59H1.09c-.6,0-1.09.49-1.09,1.09v16.39c0,.6.49,1.09,1.09,1.09h78.6c.6,0,1.09-.49,1.09-1.09v-34.72c0-.6-.49-1.09-1.09-1.09ZM2.18,78.56h24.01v14.21H2.18v-14.21ZM28.38,77.47v-7.59h24.01v22.89h-24.01v-15.3ZM78.6,92.78h-24.02v-32.53h24.02v32.53Z"/>
    <path class="cls-1" d="M83.57,40.76c.4,0,.79-.08,1.15-.21v12.33c0,2.4,1.95,4.35,4.35,4.35,1.3,0,2.46-.57,3.26-1.48.8.9,1.96,1.48,3.26,1.48h.21c2.4,0,4.35-1.95,4.35-4.35v-12.34c.36.14.76.22,1.17.22,1.8,0,3.27-1.47,3.27-3.27v-14.52c0-4.76-3.87-8.63-8.63-8.63h-7.05c-4.76,0-8.63,3.87-8.63,8.63v14.52c0,1.8,1.47,3.27,3.29,3.27ZM82.46,22.97c0-3.55,2.89-6.44,6.44-6.44h7.05c3.55,0,6.44,2.89,6.44,6.44v14.52c0,.6-.49,1.08-1.08,1.08s-1.08-.48-1.08-1.08l-.09-11.99c0-.6-.49-1.08-1.09-1.08h0c-.6,0-1.09.5-1.08,1.1l.07,9.31c-.04.12-.07.24-.07.37v17.68c0,1.19-.97,2.16-2.16,2.16h-.21c-1.19,0-2.16-.97-2.16-2.16v-17.68c0-.6-.49-1.09-1.09-1.09s-1.09.49-1.09,1.09v17.68c0,1.19-.97,2.16-2.16,2.16s-2.16-.97-2.16-2.16v-17.68c0-.11-.02-.21-.05-.31l.05-9.85c0-.6-.48-1.09-1.09-1.1-.59,0-1.09.48-1.1,1.09l-.06,12.47c0,.6-.49,1.08-1.11,1.08s-1.08-.49-1.08-1.08v-14.52Z"/>
    <path class="cls-1" d="M92.32,12.53c3.46,0,6.27-2.81,6.27-6.27s-2.81-6.27-6.27-6.27-6.27,2.81-6.27,6.27,2.81,6.27,6.27,6.27ZM92.32,2.18c2.25,0,4.08,1.83,4.08,4.08s-1.83,4.08-4.08,4.08-4.08-1.83-4.08-4.08,1.83-4.08,4.08-4.08Z"/>
    <g>
      <polyline class="cls-4" points="105.58 92.47 105.58 93.97 107.08 93.97"/>
      <line class="cls-3" x1="109.15" y1="93.97" x2="128.84" y2="93.97"/>
      <polyline class="cls-4" points="129.87 93.97 131.37 93.97 131.37 92.47"/>
      <line class="cls-2" x1="131.37" y1="90.48" x2="131.37" y2="61.54"/>
      <polyline class="cls-4" points="131.37 60.54 131.37 59.04 129.87 59.04"/>
      <line class="cls-3" x1="127.8" y1="59.04" x2="108.11" y2="59.04"/>
      <polyline class="cls-4" points="107.08 59.04 105.58 59.04 105.58 60.54"/>
      <line class="cls-2" x1="105.58" y1="62.54" x2="105.58" y2="91.48"/>
    </g>
    <rect class="cls-4" x="79.78" y="59.04" width="25.8" height="34.93"/>
    <g>
      <polyline class="cls-4" points="131.37 92.47 131.37 93.97 132.87 93.97"/>
      <line class="cls-3" x1="134.95" y1="93.97" x2="154.63" y2="93.97"/>
      <polyline class="cls-4" points="155.67 93.97 157.17 93.97 157.17 92.47"/>
      <line class="cls-2" x1="157.17" y1="90.48" x2="157.17" y2="61.54"/>
      <polyline class="cls-4" points="157.17 60.54 157.17 59.04 155.67 59.04"/>
      <line class="cls-3" x1="153.6" y1="59.04" x2="133.91" y2="59.04"/>
      <polyline class="cls-4" points="132.87 59.04 131.37 59.04 131.37 60.54"/>
      <line class="cls-2" x1="131.37" y1="62.54" x2="131.37" y2="91.48"/>
    </g>
    <g>
      <polyline class="cls-4" points="156.93 92.47 156.93 93.97 158.43 93.97"/>
      <line class="cls-3" x1="160.5" y1="93.97" x2="180.19" y2="93.97"/>
      <polyline class="cls-4" points="181.22 93.97 182.72 93.97 182.72 92.47"/>
      <line class="cls-2" x1="182.72" y1="90.48" x2="182.72" y2="61.54"/>
      <polyline class="cls-4" points="182.72 60.54 182.72 59.04 181.22 59.04"/>
      <line class="cls-3" x1="179.15" y1="59.04" x2="159.46" y2="59.04"/>
      <polyline class="cls-4" points="158.43 59.04 156.93 59.04 156.93 60.54"/>
      <line class="cls-2" x1="156.93" y1="62.54" x2="156.93" y2="91.48"/>
    </g>
  </g>
</svg>