<?xml version="1.0" encoding="UTF-8"?>
<svg id="Layer_2" xmlns="http://www.w3.org/2000/svg" viewBox="0 0 216.78 142.841">
  <defs>
    <style>
      .cls-1 {
        stroke-linecap: round;
      }

      .cls-1, .cls-2 {
        fill: none;
        stroke: #000;
        stroke-miterlimit: 10;
        stroke-width: 2px;
      }

      .cls-3 {
        fill: #8bbb9c;
      }
    </style>
  </defs>
  <g id="Layer_1-2" data-name="Layer_1">
    <path class="cls-3" d="M137.496,113.475c38.008-1.735,55.03,15.051,69.359,2.357,13.823-12.247,10.114-38.621,7.071-60.268-3.063-21.786-5.331-37.911-18.181-47.81-17.124-13.191-41.949-6.782-64.308-1.01-12.074,3.117-24.957,7.842-51.514,22.558C27.882,58.14,1.862,72.56.126,91.59c-1.747,19.145,14.962,42.09,35.353,49.157,31.741,11.001,48.314-24.82,102.018-27.272Z"/>
    <g>
      <g>
        <path d="M162.343,2.985v2s0,0,0,0c.492,0,.986.047,1.47.138,4.336.824,8.098,5.418,10.321,12.605,2.404,7.772,2.806,17.564,1.133,27.571-2.98,17.823-12.149,31.784-20.874,31.784-.763,0-1.524-.112-2.263-.332-8.963-2.671-13.85-20.982-10.672-39.986,2.98-17.82,12.153-31.78,20.884-31.781v-2M162.342,2.985c-9.772.001-19.665,14.363-22.857,33.451-3.393,20.292,1.908,39.203,12.074,42.232.938.279,1.883.415,2.834.415,9.649,0,19.593-13.998,22.846-33.454,3.574-21.372-2.409-40.449-13.053-42.471-.614-.117-1.228-.174-1.844-.174h0Z"/>
        <path d="M161.202,13.891h0c.369,0,.74.037,1.102.11,3.125.633,5.853,4.05,7.484,9.377,1.796,5.866,2.091,13.249.83,20.788-2.503,14.966-9.844,23.909-15.495,23.909-.515,0-1.03-.072-1.529-.215-6.685-1.906-10.299-15.672-7.893-30.062,2.242-13.405,9.051-23.907,15.502-23.907M161.202,11.891c-7.46,0-15.028,10.95-17.474,25.577-2.61,15.61,1.501,30.087,9.317,32.316.688.196,1.382.291,2.078.291,7.388,0,14.986-10.737,17.468-25.579,2.716-16.241-1.794-30.816-9.889-32.455-.498-.101-.998-.15-1.499-.15h0Z"/>
        <path d="M160.116,22.808h0c.228,0,.456.024.679.072,3.928.845,7.043,9.335,5.231,20.168-1.656,9.905-6.542,16.037-10.119,16.037-.286,0-.573-.038-.851-.114-4.75-1.293-6.48-11.645-5.062-20.127,1.656-9.905,6.544-16.036,10.122-16.036M160.116,20.808c-5.156,0-10.397,7.557-12.095,17.706-1.818,10.873,1.069,20.906,6.509,22.387.456.124.916.185,1.377.185,5.121,0,10.377-7.454,12.092-17.707,1.869-11.175-1.209-21.255-6.784-22.454-.365-.079-.732-.117-1.1-.117h0Z"/>
        <path d="M159.083,31.736c.069,0,.135.008.203.023,1.499.341,3.143,4.578,2.205,10.186-.879,5.258-3.362,8.167-4.742,8.167-.079,0-.154-.01-.232-.03-1.517-.393-3.12-4.555-2.179-10.179.879-5.258,3.363-8.166,4.744-8.166M159.082,29.736c-2.862,0-5.769,4.178-6.715,9.836-1.018,6.086.606,11.656,3.649,12.445.243.063.488.094.734.094,2.851,0,5.763-4.147,6.714-9.837,1.033-6.18-.649-11.763-3.734-12.466-.215-.049-.431-.073-.648-.073h0Z"/>
      </g>
      <path class="cls-1" d="M163.545,4.125c5.347.894,10.694,1.788,16.04,2.682,2.552,5.073,8.627,18.833,6.218,36.766-2.736,20.367-14.65,32.974-18.513,36.752-4.901-.82-9.802-1.639-14.704-2.459"/>
      <path class="cls-2" d="M182.471,122.631c-1.154.008-2.083-.83-2.158-.899-.577-.533-.973-1.269-1.068-2.111-1.763-15.662-3.526-31.323-5.289-46.985,1.451-2.025,3.581-6.409,5.032-8.434.742,1.289.844,6.006,1.586,7.295l5.413,47.365c-.393,2.242-1.973,3.758-3.516,3.768Z"/>
      <path class="cls-2" d="M141.607,109.388c-.446-.019-.895-.126-1.322-.331-1.69-.809-2.404-2.835-1.595-4.524l13.496-26.455c2.04.976,3.969.447,6.008,1.423l-13.386,27.96c-.604,1.263-1.887,1.981-3.202,1.926Z"/>
      <path class="cls-2" d="M204.196,106.561c-.219-.009-1.199-.069-2.065-.81-.26-.222-.49-.488-.679-.794-7.026-11.343-13.613-22.513-20.639-33.856-.803-1.296-1.068-4.792-1.871-6.087.009-.018.522-1.083.529-1.102.444-1.137.889-2.273,1.506-3.131.688.525,1.376,1.05,2.064,1.575l24.177,39.03c.618,1.95.116,3.859-1.097,4.669-.809.54-1.814.51-1.924.506Z"/>
      <g>
        <line class="cls-2" x1="20.942" y1="78.631" x2="44.523" y2="115.086"/>
        <path class="cls-1" d="M23.288,72.266c-.782,2.122-1.564,4.244-2.346,6.365-2.256-.157-4.512-.313-6.768-.47"/>
        <path class="cls-1" d="M19.236,66.002c-.782,2.122-1.564,4.244-2.346,6.365-2.256-.157-4.512-.313-6.768-.47"/>
        <path class="cls-1" d="M21.262,69.134c-.782,2.122-1.564,4.244-2.346,6.365-2.256-.157-4.512-.313-6.768-.47"/>
      </g>
      <g>
        <line class="cls-2" x1="57.396" y1="74.697" x2="73.903" y2="114.854"/>
        <path class="cls-1" d="M60.868,68.869c-1.157,1.943-2.315,3.885-3.472,5.828-2.189-.567-4.378-1.134-6.567-1.701"/>
        <path class="cls-1" d="M58.032,61.969c-1.157,1.943-2.315,3.885-3.472,5.828-2.189-.567-4.378-1.134-6.567-1.701"/>
        <path class="cls-1" d="M59.45,65.419c-1.157,1.943-2.315,3.885-3.472,5.828-2.189-.567-4.378-1.134-6.567-1.701"/>
      </g>
      <g>
        <line class="cls-2" x1="21.858" y1="113.889" x2="57.455" y2="138.748"/>
        <path class="cls-1" d="M21.629,107.109c.077,2.26.153,4.52.23,6.78-2.148.706-4.296,1.413-6.445,2.119"/>
        <path class="cls-1" d="M15.513,102.838c.077,2.26.153,4.52.23,6.78-2.148.706-4.296,1.413-6.445,2.119"/>
        <path class="cls-1" d="M18.571,104.973c.077,2.26.153,4.52.23,6.78-2.148.706-4.296,1.413-6.445,2.119"/>
      </g>
      <path class="cls-1" d="M62.164,138.487c-.921-.199-2.39-.393-4.07,0-1.853.434-2.526,1.245-4.07,1.357-.902.065-2.283-.095-4.07-1.357"/>
      <path class="cls-1" d="M79.802,114.065c-1.108,1.011-2.069,1.284-2.714,1.357-1.833.208-2.835-.998-5.427-1.357-1.155-.16-2.118-.081-2.714,0"/>
      <path class="cls-1" d="M51.31,114.065c-.63-.142-1.611-.273-2.714,0-1.51.374-1.545,1.084-2.714,1.357-1.752.409-2.614-.968-5.427-1.357-1.155-.16-2.118-.081-2.714,0"/>
    </g>
  </g>
</svg>