<?xml version="1.0" encoding="UTF-8"?>
<svg xmlns="http://www.w3.org/2000/svg" version="1.1" viewBox="0 0 205.7 137.9">
  <defs>
    <style>
      .cls-1 {
        stroke-linecap: round;
      }

      .cls-1, .cls-2, .cls-3 {
        fill: none;
        stroke: #000;
        stroke-miterlimit: 10;
      }

      .cls-1, .cls-3 {
        stroke-width: 2px;
      }

      .cls-4 {
        fill: #d4d4d4;
      }
    </style>
  </defs>
  <!-- Generator: Adobe Illustrator 28.6.0, SVG Export Plug-In . SVG Version: 1.2.0 Build 709)  -->
  <g>
    <g id="Layer_2">
      <g id="Layer_1-2">
        <path class="cls-4" d="M66.8,133.1c51.3-.9,76.9-1.4,90.4-9.5,36.1-21.6,59.3-75.2,41.6-100.9-13.6-19.7-48.3-19-60.9-18.7-21.3.5-36.8,7.2-54.4,14.9-5.1,2.2-24.8,11-47.4,28.8C13.1,65.9,1.1,75.4.8,90.5c-.3,17.2,15,30.1,17,31.7,12.7,10.4,27.3,11.3,49,10.9h0Z"/>
        <g>
          <g>
            <path class="cls-2" d="M152.3,10.3v1.8h0c.4,0,.9,0,1.3.1,3.9.7,7.3,4.9,9.3,11.4,2.2,7,2.5,15.9,1,24.9-2.7,16.1-11,28.7-18.8,28.7s-1.4-.1-2-.3c-8.1-2.4-12.5-18.9-9.6-36.1,2.7-16.1,11-28.7,18.9-28.7v-1.8M152.3,10.3c-8.8,0-17.8,13-20.6,30.2-3.1,18.3,1.7,35.4,10.9,38.1.8.3,1.7.4,2.6.4,8.7,0,17.7-12.6,20.6-30.2,3.2-19.3-2.2-36.5-11.8-38.3-.6-.1-1.1-.2-1.7-.2h0Z"/>
            <path class="cls-2" d="M151.3,20.2h0c.3,0,.7,0,1,0,2.8.6,5.3,3.7,6.8,8.5,1.6,5.3,1.9,12,.7,18.8-2.3,13.5-8.9,21.6-14,21.6s-.9,0-1.4-.2c-6-1.7-9.3-14.2-7.1-27.1,2-12.1,8.2-21.6,14-21.6M151.3,18.3c-6.7,0-13.6,9.9-15.8,23.1-2.4,14.1,1.4,27.2,8.4,29.2.6.2,1.2.3,1.9.3,6.7,0,13.5-9.7,15.8-23.1,2.5-14.7-1.6-27.8-8.9-29.3-.4,0-.9-.1-1.4-.1h0Z"/>
            <path class="cls-2" d="M150.3,28.2h0c.2,0,.4,0,.6,0,3.5.8,6.4,8.4,4.7,18.2-1.5,8.9-5.9,14.5-9.1,14.5s-.5,0-.8-.1c-4.3-1.2-5.9-10.5-4.6-18.2,1.5-8.9,5.9-14.5,9.1-14.5M150.3,26.4c-4.7,0-9.4,6.8-10.9,16-1.6,9.8,1,18.9,5.9,20.2.4.1.8.2,1.2.2,4.6,0,9.4-6.7,10.9-16,1.7-10.1-1.1-19.2-6.1-20.3-.3,0-.7-.1-1-.1h0Z"/>
            <path class="cls-2" d="M149.4,36.3c0,0,.1,0,.2,0,1.4.3,2.8,4.1,2,9.2-.8,4.7-3,7.4-4.3,7.4s-.1,0-.2,0c-1.4-.4-2.8-4.1-2-9.2.8-4.7,3-7.4,4.3-7.4M149.4,34.5c-2.6,0-5.2,3.8-6.1,8.9-.9,5.5.5,10.5,3.3,11.2.2,0,.4,0,.7,0,2.6,0,5.2-3.7,6.1-8.9.9-5.6-.6-10.6-3.4-11.3-.2,0-.4,0-.6,0h0Z"/>
          </g>
          <path class="cls-1" d="M153.4,11.3c4.8.8,9.7,1.6,14.5,2.4,2.3,4.6,7.8,17,5.6,33.2-2.5,18.4-13.2,29.8-16.7,33.2-4.4-.7-8.9-1.5-13.3-2.2"/>
          <path class="cls-3" d="M170.5,118.3c-1,0-1.9-.7-1.9-.8-.5-.5-.9-1.1-1-1.9-1.6-14.1-3.2-28.3-4.8-42.4,1.3-1.8,3.2-5.8,4.5-7.6.7,1.2.8,5.4,1.4,6.6l4.9,42.8c-.4,2-1.8,3.4-3.2,3.4h0Z"/>
          <path class="cls-3" d="M133.6,106.4c-.4,0-.8-.1-1.2-.3-1.5-.7-2.2-2.6-1.4-4.1l12.2-23.9c1.8.9,3.6.4,5.4,1.3l-12.1,25.2c-.5,1.1-1.7,1.8-2.9,1.7h0Z"/>
          <path class="cls-3" d="M190.1,103.8c-.2,0-1.1,0-1.9-.7-.2-.2-.4-.4-.6-.7-6.3-10.2-12.3-20.3-18.6-30.6-.7-1.2-1-4.3-1.7-5.5,0,0,.5-1,.5-1,.4-1,.8-2.1,1.4-2.8.6.5,1.2.9,1.9,1.4l21.8,35.2c.6,1.8.1,3.5-1,4.2-.7.5-1.6.5-1.7.5h0Z"/>
          <g>
            <line class="cls-3" x1="24.7" y1="78.6" x2="46" y2="111.5"/>
            <path class="cls-1" d="M26.8,72.9c-.7,1.9-1.4,3.8-2.1,5.7-2-.1-4.1-.3-6.1-.4"/>
            <path class="cls-1" d="M23.1,67.2c-.7,1.9-1.4,3.8-2.1,5.7-2-.1-4.1-.3-6.1-.4"/>
            <path class="cls-1" d="M25,70c-.7,1.9-1.4,3.8-2.1,5.7-2-.1-4.1-.3-6.1-.4"/>
          </g>
          <g>
            <line class="cls-3" x1="57.6" y1="75.1" x2="72.5" y2="111.3"/>
            <path class="cls-1" d="M60.7,69.8c-1,1.8-2.1,3.5-3.1,5.3-2-.5-4-1-5.9-1.5"/>
            <path class="cls-1" d="M58.2,63.6c-1,1.8-2.1,3.5-3.1,5.3-2-.5-4-1-5.9-1.5"/>
            <path class="cls-1" d="M59.4,66.7c-1,1.8-2.1,3.5-3.1,5.3-2-.5-4-1-5.9-1.5"/>
          </g>
          <g>
            <line class="cls-3" x1="25.5" y1="110.4" x2="57.6" y2="132.9"/>
            <path class="cls-1" d="M25.3,104.3c0,2,.1,4.1.2,6.1-1.9.6-3.9,1.3-5.8,1.9"/>
            <path class="cls-1" d="M19.8,100.5c0,2,.1,4.1.2,6.1-1.9.6-3.9,1.3-5.8,1.9"/>
            <path class="cls-1" d="M22.5,102.4c0,2,.1,4.1.2,6.1-1.9.6-3.9,1.3-5.8,1.9"/>
          </g>
          <path class="cls-1" d="M61.9,132.6c-.8-.2-2.2-.4-3.7,0-1.7.4-2.3,1.1-3.7,1.2-.8,0-2.1,0-3.7-1.2"/>
          <path class="cls-1" d="M77.8,110.6c-1,.9-1.9,1.2-2.5,1.2-1.7.2-2.6-.9-4.9-1.2-1-.1-1.9,0-2.5,0"/>
          <path class="cls-1" d="M52.1,110.6c-.6-.1-1.5-.2-2.5,0-1.4.3-1.4,1-2.5,1.2-1.6.4-2.4-.9-4.9-1.2-1-.1-1.9,0-2.5,0"/>
        </g>
      </g>
    </g>
  </g>
</svg>