<?xml version="1.0" encoding="UTF-8"?>
<svg xmlns="http://www.w3.org/2000/svg" version="1.1" viewBox="0 0 205.7 137.9">
  <defs>
    <style>
      .cls-1 {
        fill: #575757;
      }

      .cls-2, .cls-3, .cls-4 {
        fill: none;
        stroke: #e3e3e3;
        stroke-miterlimit: 10;
      }

      .cls-2, .cls-4 {
        stroke-width: 2px;
      }

      .cls-4 {
        stroke-linecap: round;
      }
    </style>
  </defs>
  <!-- Generator: Adobe Illustrator 28.6.0, SVG Export Plug-In . SVG Version: 1.2.0 Build 709)  -->
  <g>
    <g id="Layer_2">
      <g id="Layer_1-2">
        <path class="cls-1" d="M62.1,136c56.8-1,85.2-1.5,100.1-10.5,40-23.9,65.7-83.3,46.1-111.7-15-21.8-53.5-21-67.5-20.7-23.5.5-40.7,8-60.2,16.5-5.6,2.5-27.4,12.2-52.5,31.9C2.6,61.6-10.7,72.1-11,88.8c-.3,19.1,16.6,33.3,18.8,35.1,14,11.5,30.3,12.5,54.3,12h0Z"/>
        <g>
          <g>
            <path class="cls-3" d="M156.8,0v2h0c.5,0,1,0,1.5.1,4.3.8,8.1,5.4,10.3,12.6,2.4,7.8,2.8,17.6,1.1,27.6-3,17.8-12.1,31.8-20.9,31.8s-1.5-.1-2.3-.3c-9-2.7-13.9-21-10.7-40,3-17.8,12.2-31.8,20.9-31.8V0M156.8,0c-9.8,0-19.7,14.4-22.9,33.5-3.4,20.3,1.9,39.2,12.1,42.2.9.3,1.9.4,2.8.4,9.6,0,19.6-14,22.8-33.5,3.6-21.4-2.4-40.4-13.1-42.5-.6-.1-1.2-.2-1.8-.2h0Z"/>
            <path class="cls-3" d="M155.7,10.9h0c.4,0,.7,0,1.1.1,3.1.6,5.9,4.1,7.5,9.4,1.8,5.9,2.1,13.2.8,20.8-2.5,15-9.8,23.9-15.5,23.9s-1,0-1.5-.2c-6.7-1.9-10.3-15.7-7.9-30.1,2.2-13.4,9.1-23.9,15.5-23.9M155.7,8.9c-7.5,0-15,10.9-17.5,25.6-2.6,15.6,1.5,30.1,9.3,32.3.7.2,1.4.3,2.1.3,7.4,0,15-10.7,17.5-25.6,2.7-16.2-1.8-30.8-9.9-32.5-.5-.1-1-.1-1.5-.1h0Z"/>
            <path class="cls-3" d="M154.6,19.8h0c.2,0,.5,0,.7,0,3.9.8,7,9.3,5.2,20.2-1.7,9.9-6.5,16-10.1,16s-.6,0-.9-.1c-4.8-1.3-6.5-11.6-5.1-20.1,1.7-9.9,6.5-16,10.1-16M154.6,17.8c-5.2,0-10.4,7.6-12.1,17.7-1.8,10.9,1.1,20.9,6.5,22.4.5.1.9.2,1.4.2,5.1,0,10.4-7.5,12.1-17.7,1.9-11.2-1.2-21.3-6.8-22.5-.4,0-.7-.1-1.1-.1h0Z"/>
            <path class="cls-3" d="M153.6,28.8c0,0,.1,0,.2,0,1.5.3,3.1,4.6,2.2,10.2-.9,5.3-3.4,8.2-4.7,8.2s-.2,0-.2,0c-1.5-.4-3.1-4.6-2.2-10.2.9-5.3,3.4-8.2,4.7-8.2M153.6,26.8c-2.9,0-5.8,4.2-6.7,9.8-1,6.1.6,11.7,3.6,12.4.2,0,.5,0,.7,0,2.9,0,5.8-4.1,6.7-9.8,1-6.2-.6-11.8-3.7-12.5-.2,0-.4,0-.6,0h0Z"/>
          </g>
          <path class="cls-4" d="M158,1.1c5.3.9,10.7,1.8,16,2.7,2.6,5.1,8.6,18.8,6.2,36.8-2.7,20.4-14.6,33-18.5,36.8-4.9-.8-9.8-1.6-14.7-2.5"/>
          <path class="cls-2" d="M176.9,119.6c-1.2,0-2.1-.8-2.2-.9-.6-.5-1-1.3-1.1-2.1-1.8-15.7-3.5-31.3-5.3-47,1.5-2,3.6-6.4,5-8.4.7,1.3.8,6,1.6,7.3l5.4,47.4c-.4,2.2-2,3.8-3.5,3.8h0Z"/>
          <path class="cls-2" d="M136.1,106.4c-.4,0-.9-.1-1.3-.3-1.7-.8-2.4-2.8-1.6-4.5l13.5-26.5c2,1,4,.4,6,1.4l-13.4,28c-.6,1.3-1.9,2-3.2,1.9h0Z"/>
          <path class="cls-2" d="M198.7,103.6c-.2,0-1.2,0-2.1-.8-.3-.2-.5-.5-.7-.8-7-11.3-13.6-22.5-20.6-33.9-.8-1.3-1.1-4.8-1.9-6.1,0,0,.5-1.1.5-1.1.4-1.1.9-2.3,1.5-3.1.7.5,1.4,1,2.1,1.6l24.2,39c.6,1.9.1,3.9-1.1,4.7-.8.5-1.8.5-1.9.5h0Z"/>
          <g>
            <line class="cls-2" x1="15.4" y1="75.6" x2="39" y2="112.1"/>
            <path class="cls-4" d="M17.8,69.3c-.8,2.1-1.6,4.2-2.3,6.4-2.3-.2-4.5-.3-6.8-.5"/>
            <path class="cls-4" d="M13.7,63c-.8,2.1-1.6,4.2-2.3,6.4-2.3-.2-4.5-.3-6.8-.5"/>
            <path class="cls-4" d="M15.7,66.1c-.8,2.1-1.6,4.2-2.3,6.4-2.3-.2-4.5-.3-6.8-.5"/>
          </g>
          <g>
            <line class="cls-2" x1="51.9" y1="71.7" x2="68.4" y2="111.9"/>
            <path class="cls-4" d="M55.3,65.9c-1.2,1.9-2.3,3.9-3.5,5.8-2.2-.6-4.4-1.1-6.6-1.7"/>
            <path class="cls-4" d="M52.5,59c-1.2,1.9-2.3,3.9-3.5,5.8-2.2-.6-4.4-1.1-6.6-1.7"/>
            <path class="cls-4" d="M53.9,62.4c-1.2,1.9-2.3,3.9-3.5,5.8-2.2-.6-4.4-1.1-6.6-1.7"/>
          </g>
          <g>
            <line class="cls-2" x1="16.3" y1="110.9" x2="51.9" y2="135.8"/>
            <path class="cls-4" d="M16.1,104.1c0,2.3.2,4.5.2,6.8-2.1.7-4.3,1.4-6.4,2.1"/>
            <path class="cls-4" d="M10,99.9c0,2.3.2,4.5.2,6.8-2.1.7-4.3,1.4-6.4,2.1"/>
            <path class="cls-4" d="M13,102c0,2.3.2,4.5.2,6.8-2.1.7-4.3,1.4-6.4,2.1"/>
          </g>
          <path class="cls-4" d="M56.6,135.5c-.9-.2-2.4-.4-4.1,0-1.9.4-2.5,1.2-4.1,1.4-.9,0-2.3,0-4.1-1.4"/>
          <path class="cls-4" d="M74.3,111.1c-1.1,1-2.1,1.3-2.7,1.4-1.8.2-2.8-1-5.4-1.4-1.2-.2-2.1,0-2.7,0"/>
          <path class="cls-4" d="M45.8,111.1c-.6-.1-1.6-.3-2.7,0-1.5.4-1.5,1.1-2.7,1.4-1.8.4-2.6-1-5.4-1.4-1.2-.2-2.1,0-2.7,0"/>
        </g>
      </g>
    </g>
  </g>
</svg>