<?xml version="1.0" encoding="UTF-8"?>
<svg id="Layer_2" xmlns="http://www.w3.org/2000/svg" viewBox="0 0 205.715 137.871">
  <defs>
    <style>
      .cls-1 {
        fill: #b4b4b4;
      }

      .cls-2 {
        fill: #fff;
      }

      .cls-3 {
        stroke-linecap: round;
      }

      .cls-3, .cls-4 {
        fill: none;
        stroke: #fff;
        stroke-miterlimit: 10;
        stroke-width: 2px;
      }
    </style>
  </defs>
  <g id="Layer_1-2" data-name="Layer_1">
    <path class="cls-1" d="M66.526,132.602c51.684-.927,77.526-1.391,91.114-9.399,36.443-21.476,59.787-74.786,41.967-100.347-13.667-19.604-48.735-18.848-61.43-18.575-21.427.462-37.062,7.187-54.826,14.828-5.126,2.205-24.969,10.977-47.777,28.678C12.344,65.817.231,75.218.003,90.234c-.259,17.112,15.092,29.929,17.103,31.561,12.757,10.357,27.563,11.199,49.421,10.806Z"/>
    <g>
      <g>
        <path class="cls-2" d="M156.811,0v2s0,0,0,0c.492,0,.986.047,1.47.138,4.336.824,8.098,5.418,10.321,12.605,2.404,7.772,2.806,17.564,1.133,27.571-2.98,17.823-12.149,31.784-20.874,31.784-.763,0-1.524-.112-2.263-.332-8.963-2.671-13.85-20.982-10.672-39.986,2.98-17.82,12.154-31.78,20.884-31.781V0M156.81,0c-9.772.002-19.665,14.363-22.857,33.451-3.393,20.292,1.908,39.203,12.074,42.232.938.279,1.883.415,2.834.415,9.649,0,19.593-13.998,22.846-33.454,3.574-21.372-2.409-40.449-13.053-42.471C158.04.057,157.426,0,156.81,0h0Z"/>
        <path class="cls-2" d="M155.67,10.907h0c.369,0,.74.037,1.102.11,3.125.633,5.853,4.05,7.484,9.377,1.796,5.866,2.091,13.249.83,20.788-2.503,14.966-9.844,23.909-15.495,23.909-.515,0-1.03-.072-1.529-.215-6.685-1.906-10.299-15.672-7.893-30.062,2.242-13.405,9.051-23.907,15.502-23.907M155.669,8.907c-7.46,0-15.028,10.95-17.474,25.577-2.61,15.61,1.501,30.088,9.317,32.316.688.196,1.382.291,2.078.291,7.388,0,14.986-10.737,17.468-25.579,2.716-16.241-1.794-30.816-9.889-32.455-.498-.101-.998-.15-1.499-.15h0Z"/>
        <path class="cls-2" d="M154.584,19.824h0c.228,0,.456.024.679.072,3.928.845,7.043,9.335,5.231,20.168-1.656,9.906-6.542,16.037-10.119,16.037-.286,0-.573-.038-.851-.114-4.75-1.293-6.48-11.645-5.062-20.127,1.656-9.905,6.544-16.036,10.122-16.036M154.583,17.824c-5.156,0-10.397,7.557-12.095,17.706-1.818,10.873,1.069,20.906,6.509,22.387.456.124.916.185,1.377.185,5.121,0,10.377-7.454,12.092-17.707,1.869-11.175-1.209-21.255-6.784-22.453-.365-.079-.732-.117-1.1-.117h0Z"/>
        <path class="cls-2" d="M153.55,28.751c.069,0,.135.008.203.023,1.499.341,3.143,4.578,2.205,10.186-.879,5.259-3.362,8.167-4.742,8.167-.079,0-.154-.01-.231-.03-1.517-.393-3.12-4.555-2.179-10.179.879-5.258,3.363-8.166,4.744-8.166M153.55,26.751c-2.862,0-5.769,4.178-6.715,9.836-1.018,6.086.606,11.656,3.649,12.445.243.063.488.094.734.094,2.851,0,5.763-4.147,6.714-9.837,1.033-6.18-.649-11.763-3.734-12.466-.215-.049-.431-.073-.648-.073h0Z"/>
      </g>
      <path class="cls-3" d="M158.013,1.14c5.347.894,10.694,1.788,16.04,2.682,2.552,5.073,8.627,18.833,6.218,36.766-2.736,20.367-14.65,32.974-18.513,36.752-4.901-.82-9.802-1.639-14.704-2.459"/>
      <path class="cls-4" d="M176.939,119.646c-1.154.008-2.083-.83-2.158-.899-.577-.533-.973-1.269-1.068-2.111-1.763-15.662-3.526-31.323-5.289-46.985,1.451-2.025,3.581-6.409,5.032-8.434.742,1.289.844,6.006,1.586,7.295l5.413,47.365c-.393,2.242-1.973,3.758-3.516,3.768Z"/>
      <path class="cls-4" d="M136.075,106.404c-.446-.019-.895-.126-1.322-.331-1.69-.809-2.404-2.835-1.595-4.524l13.496-26.455c2.04.976,3.969.447,6.008,1.423l-13.386,27.96c-.604,1.263-1.887,1.981-3.202,1.926Z"/>
      <path class="cls-4" d="M198.663,103.576c-.219-.009-1.199-.069-2.065-.81-.26-.222-.49-.488-.679-.794-7.026-11.343-13.613-22.513-20.639-33.856-.803-1.296-1.068-4.792-1.871-6.087.009-.018.522-1.083.529-1.102.444-1.137.889-2.273,1.506-3.131.688.525,1.376,1.05,2.064,1.575l24.177,39.03c.618,1.95.116,3.859-1.097,4.669-.809.54-1.814.51-1.924.506Z"/>
      <g>
        <line class="cls-4" x1="15.409" y1="75.646" x2="38.991" y2="112.102"/>
        <path class="cls-3" d="M17.755,69.281c-.782,2.122-1.564,4.244-2.346,6.365-2.256-.157-4.512-.313-6.768-.47"/>
        <path class="cls-3" d="M13.704,63.017c-.782,2.122-1.564,4.244-2.346,6.365-2.256-.157-4.512-.313-6.768-.47"/>
        <path class="cls-3" d="M15.729,66.149c-.782,2.122-1.564,4.244-2.346,6.365-2.256-.157-4.512-.313-6.768-.47"/>
      </g>
      <g>
        <line class="cls-4" x1="51.864" y1="71.713" x2="68.371" y2="111.87"/>
        <path class="cls-3" d="M55.336,65.884c-1.157,1.943-2.315,3.885-3.472,5.828-2.189-.567-4.378-1.134-6.567-1.701"/>
        <path class="cls-3" d="M52.5,58.985c-1.157,1.943-2.315,3.885-3.472,5.828-2.189-.567-4.378-1.134-6.567-1.701"/>
        <path class="cls-3" d="M53.918,62.435c-1.157,1.943-2.315,3.885-3.472,5.828-2.189-.567-4.378-1.134-6.567-1.701"/>
      </g>
      <g>
        <line class="cls-4" x1="16.326" y1="110.904" x2="51.922" y2="135.764"/>
        <path class="cls-3" d="M16.096,104.124c.077,2.26.153,4.52.23,6.78-2.148.706-4.296,1.413-6.445,2.119"/>
        <path class="cls-3" d="M9.98,99.853c.077,2.26.153,4.52.23,6.78-2.148.706-4.296,1.413-6.445,2.119"/>
        <path class="cls-3" d="M13.038,101.989c.077,2.26.153,4.52.23,6.78-2.148.706-4.296,1.413-6.445,2.119"/>
      </g>
      <path class="cls-3" d="M56.632,135.502c-.921-.199-2.39-.393-4.07,0-1.853.434-2.526,1.245-4.07,1.357-.902.065-2.283-.095-4.07-1.357"/>
      <path class="cls-3" d="M74.27,111.08c-1.108,1.011-2.069,1.284-2.714,1.357-1.833.208-2.835-.998-5.427-1.357-1.155-.16-2.118-.081-2.714,0"/>
      <path class="cls-3" d="M45.777,111.08c-.63-.142-1.611-.273-2.714,0-1.51.374-1.545,1.084-2.714,1.357-1.752.409-2.614-.968-5.427-1.357-1.155-.16-2.118-.081-2.714,0"/>
    </g>
  </g>
</svg>