<?xml version="1.0" encoding="UTF-8"?>
<svg id="Layer_2" xmlns="http://www.w3.org/2000/svg" viewBox="0 0 183.724 94.975">
  <defs>
    <style>
      .cls-1 {
        fill: #222935;
      }

      .cls-2 {
        fill: #c2371e;
        opacity: .43;
      }

      .cls-3 {
        stroke-dasharray: 2.994 1.996;
      }

      .cls-3, .cls-4, .cls-5 {
        fill: none;
        stroke: #000;
        stroke-miterlimit: 10;
        stroke-width: 2px;
      }

      .cls-4 {
        stroke-dasharray: 3.109 2.072;
      }
    </style>
  </defs>
  <g id="Layer_1-2" data-name="Layer_1">
    <path class="cls-2" d="M118.958,86.682c15.626-3.646,45.846-10.696,55.599-34.764,4.106-10.134,5.527-25.613-2.537-36.159-6.632-8.673-17.109-10.223-38.062-13.322-12.646-1.87-26.015-3.848-43.68-.628-9.511,1.733-26.101,6.036-43.227,17.756-8.511,5.824-41.628,28.486-37.548,46.63,4.993,22.202,64.2,31.044,109.456,20.486Z"/>
    <g>
      <path class="cls-1" d="M79.687,58.058h-26.199c-.603,0-1.092.489-1.092,1.092v8.552h-25.107c-.603,0-1.092.489-1.092,1.092v7.588H1.092c-.603,0-1.092.489-1.092,1.092v16.394c0,.603.489,1.092,1.092,1.092h78.595c.603,0,1.092-.489,1.092-1.092v-34.717c0-.603-.489-1.092-1.092-1.092ZM2.183,78.565h24.015v14.211H2.183v-14.211ZM28.382,77.473v-7.588h24.015v22.89h-24.015v-15.302ZM78.595,92.775h-24.015v-32.534h24.015v32.534Z"/>
      <path class="cls-1" d="M83.572,40.763c.404,0,.79-.077,1.147-.213v12.331c0,2.398,1.951,4.348,4.348,4.348,1.297,0,2.459-.574,3.257-1.477.797.903,1.96,1.477,3.256,1.477h.206c2.398,0,4.348-1.951,4.348-4.348v-12.34c.365.141.759.222,1.172.222,1.802,0,3.268-1.466,3.268-3.268v-14.52c0-4.756-3.869-8.625-8.625-8.625h-7.045c-4.756,0-8.625,3.869-8.625,8.625v14.52c0,1.802,1.466,3.268,3.293,3.268ZM82.463,22.975c0-3.552,2.89-6.442,6.442-6.442h7.045c3.552,0,6.442,2.89,6.442,6.442v14.52c0,.598-.487,1.085-1.085,1.085-.594,0-1.08-.483-1.085-1.077l-.087-11.992c-.004-.6-.492-1.084-1.092-1.084h-.008c-.603.004-1.088.497-1.084,1.1l.068,9.308c-.041.115-.068.237-.068.367v17.68c0,1.194-.971,2.165-2.165,2.165h-.206c-1.194,0-2.165-.971-2.165-2.165v-17.68c0-.603-.489-1.092-1.092-1.092s-1.092.489-1.092,1.092v17.68c0,1.194-.971,2.165-2.165,2.165s-2.165-.971-2.165-2.165v-17.68c0-.108-.02-.21-.049-.308l.049-9.855c.003-.603-.483-1.094-1.086-1.097-.593,0-1.094.483-1.097,1.086l-.063,12.472c-.003.595-.489,1.079-1.109,1.079-.598,0-1.085-.487-1.085-1.085v-14.52Z"/>
      <path class="cls-1" d="M92.324,12.534c3.456,0,6.267-2.811,6.267-6.267s-2.811-6.267-6.267-6.267-6.267,2.811-6.267,6.267,2.811,6.267,6.267,6.267ZM92.324,2.184c2.252,0,4.083,1.832,4.083,4.084s-1.832,4.083-4.083,4.083-4.084-1.832-4.084-4.083,1.832-4.084,4.084-4.084Z"/>
      <g>
        <polyline class="cls-5" points="105.576 92.475 105.576 93.975 107.076 93.975"/>
        <line class="cls-4" x1="109.149" y1="93.975" x2="128.837" y2="93.975"/>
        <polyline class="cls-5" points="129.873 93.975 131.373 93.975 131.373 92.475"/>
        <line class="cls-3" x1="131.373" y1="90.479" x2="131.373" y2="61.538"/>
        <polyline class="cls-5" points="131.373 60.54 131.373 59.04 129.873 59.04"/>
        <line class="cls-4" x1="127.801" y1="59.04" x2="108.112" y2="59.04"/>
        <polyline class="cls-5" points="107.076 59.04 105.576 59.04 105.576 60.54"/>
        <line class="cls-3" x1="105.576" y1="62.536" x2="105.576" y2="91.477"/>
      </g>
      <rect class="cls-5" x="79.779" y="59.04" width="25.797" height="34.935"/>
      <g>
        <polyline class="cls-5" points="131.373 92.475 131.373 93.975 132.873 93.975"/>
        <line class="cls-4" x1="134.946" y1="93.975" x2="154.634" y2="93.975"/>
        <polyline class="cls-5" points="155.671 93.975 157.171 93.975 157.171 92.475"/>
        <line class="cls-3" x1="157.171" y1="90.479" x2="157.171" y2="61.538"/>
        <polyline class="cls-5" points="157.171 60.54 157.171 59.04 155.671 59.04"/>
        <line class="cls-4" x1="153.598" y1="59.04" x2="133.91" y2="59.04"/>
        <polyline class="cls-5" points="132.873 59.04 131.373 59.04 131.373 60.54"/>
        <line class="cls-3" x1="131.373" y1="62.536" x2="131.373" y2="91.477"/>
      </g>
      <g>
        <polyline class="cls-5" points="156.927 92.475 156.927 93.975 158.427 93.975"/>
        <line class="cls-4" x1="160.499" y1="93.975" x2="180.188" y2="93.975"/>
        <polyline class="cls-5" points="181.224 93.975 182.724 93.975 182.724 92.475"/>
        <line class="cls-3" x1="182.724" y1="90.479" x2="182.724" y2="61.538"/>
        <polyline class="cls-5" points="182.724 60.54 182.724 59.04 181.224 59.04"/>
        <line class="cls-4" x1="179.152" y1="59.04" x2="159.463" y2="59.04"/>
        <polyline class="cls-5" points="158.427 59.04 156.927 59.04 156.927 60.54"/>
        <line class="cls-3" x1="156.927" y1="62.536" x2="156.927" y2="91.477"/>
      </g>
    </g>
  </g>
</svg>