<?xml version="1.0" encoding="UTF-8"?>
<svg id="Layer_2" xmlns="http://www.w3.org/2000/svg" viewBox="0 0 220.872 97.334">
  <defs>
    <style>
      .cls-1, .cls-2, .cls-3 {
        stroke-linejoin: round;
      }

      .cls-1, .cls-2, .cls-3, .cls-4 {
        fill: none;
        stroke: #000;
      }

      .cls-1, .cls-2, .cls-4 {
        stroke-linecap: round;
      }

      .cls-1, .cls-3, .cls-4 {
        stroke-width: 3px;
      }

      .cls-2 {
        stroke-width: 2px;
      }

      .cls-4 {
        stroke-miterlimit: 10;
      }

      .cls-5 {
        fill: #2c699a;
        opacity: .55;
      }
    </style>
  </defs>
  <g id="Layer_1-2" data-name="Layer_1">
    <path class="cls-5" d="M139.687,92.628c27.481-2.772,46.046-7.44,59.034-22.591,1.34-1.563,17.999-21.499,12.182-39.316-7.013-21.479-41.879-25.142-70.215-28.118C107.23-.913,75.299-4.267,46.083,16.907,28.053,29.975,3.564,57.815,10.421,77.026c9.866,27.644,78.667,20.705,129.267,15.601Z"/>
    <g>
      <path class="cls-3" d="M164.4,54.02c-2.923-.2-4.783,1.934-4.981,2.17-7.001,11.83-14.003,23.659-21.004,35.489-.1.446-.151,1.051.167,1.546.469.732,1.285.794,1.368.799,16.089.095,32.177.19,48.266.284.095-.015.79-.136,1.173-.79.317-.542.206-1.082.177-1.203-7.078-12.129-14.155-24.259-21.233-36.388-.319-.343-1.702-1.755-3.933-1.907Z"/>
      <line class="cls-4" x1="211.665" y1="38.705" x2="1.5" y2="92.931"/>
      <polygon class="cls-1" points="59.453 71.924 5.527 85.838 5.635 42.258 37.281 34.093 59.453 71.924"/>
      <circle class="cls-1" cx="19.435" cy="29.359" r="7.181"/>
      <line class="cls-2" x1="205.803" y1="3.026" x2="205.803" y2="32.261"/>
      <path class="cls-2" d="M191.733,21.415c4.617,4.226,9.233,8.452,13.85,12.677l14.289-12.677"/>
    </g>
  </g>
</svg>