<?xml version="1.0" encoding="UTF-8"?>
<svg id="Layer_2" xmlns="http://www.w3.org/2000/svg" viewBox="0 0 175.04 200">
  <defs>
    <style>
      .cls-1 {
        fill: #33779e;
      }

      .cls-2 {
        fill: #d0ba8f;
      }

      .cls-3 {
        fill: #1b1f3b;
      }

      .cls-4 {
        fill: #fff;
      }

      .cls-5 {
        fill: #c2371e;
      }
    </style>
  </defs>
  <g id="Layer_1-2" data-name="Layer_1">
    <path d="M154.38,113.85l-1.81-1.05h0s-1.82,1.03-1.82,1.03"/>
    <g>
      <polygon class="cls-3" points="2.18 148.33 1.66 50.24 87.01 1.91 172.85 51.64 173.37 147.19 88.05 198.08 2.18 148.33"/>
      <path class="cls-3" d="M87,3.82c28.07,16.26,56.14,32.52,84.2,48.78.17,31.22.33,62.44.5,93.66-27.89,16.63-55.78,33.27-83.67,49.9L3.83,147.37c-.17-32.06-.34-64.11-.52-96.17C31.21,35.4,59.11,19.61,87,3.82"/>
      <polyline points="88.07 200 89.74 199 135.38 171.78 173.41 149.1 175.04 148.13 175.03 146.24 174.75 94.27 174.52 52.59 174.51 50.69 172.87 49.74 128.54 24.06 88.67 .95 87.03 0 87.03 0 87.02 0 85.37 .93 1.69 48.32 0 49.28 0 51.22 .53 147.39 .54 149.29 2.18 150.24 86.38 199.02 88.07 200"/>
      <path class="cls-3" d="M8.67,61.14c24.17,14,48.33,28,72.5,42-8.16-13.84-16.33-27.69-24.49-41.53l-48.01-.47h0Z"/>
      <g>
        <polygon class="cls-1" points="84.94 93.93 9.08 50.67 86.87 6.54 162.43 50.74 135.09 93.93 84.94 93.93"/>
        <path d="M86.85,8.45c24.42,14.28,48.84,28.57,73.26,42.85l-25.94,40.97c-16.27,0-32.53,0-48.8,0L12.43,50.68c24.81-14.07,49.62-28.15,74.42-42.22M86.88,4.63l-1.66.94L10.8,47.8l-5.06,2.87,5.06,2.88,72.95,41.59.76.43h51.5l.97-1.54,25.94-40.97,1.83-2.9-2.96-1.73L88.52,5.59l-1.65-.96h0Z"/>
      </g>
      <g>
        <polygon class="cls-2" points="6.86 145.9 6.98 59.44 57.63 59.96 82.83 102.69 82.7 189.84 6.86 145.9"/>
        <path d="M8.64,61.11c16.02.17,32.03.33,48.05.5,8.16,13.84,16.33,27.69,24.49,41.53l-.13,83.83L8.51,144.94l.13-83.83M5.33,57.77v3.34s-.13,83.83-.13,83.83v1.91l1.65.96,72.53,42.02,4.96,2.87v-5.74s.14-83.83.14-83.83v-.91l-.46-.78-3.24-5.49-21.26-36.04-.95-1.61-1.87-.02-15.67-.16-32.37-.33-3.34-.03h0Z"/>
      </g>
      <g>
        <polygon class="cls-5" points="69.09 144.69 93.49 100.83 105.42 93.96 135.07 93.91 152.16 67.07 169.03 57.36 168.9 145.01 93.97 188.12 69.09 144.69"/>
        <path d="M167.37,60.23c-.04,27.94-.08,55.89-.13,83.83l-72.66,41.81c-7.87-13.73-15.73-27.46-23.59-41.18l23.72-42.65,11.15-6.42c10.04-.02,20.08-.03,30.11-.05,5.79-9.09,11.57-18.18,17.36-27.26,4.68-2.69,9.36-5.38,14.03-8.07M170.7,54.49l-4.97,2.86-7.65,4.4-6.38,3.67-.71.4-.44.69-5.79,9.09-10.6,16.65-13.24.02-15.05.02h-.88l-.77.44-11.15,6.42-.79.46-.45.8-11.86,21.32-11.86,21.32-.91,1.63.93,1.62,9.62,16.79,13.98,24.4,1.65,2.88,2.87-1.66,72.66-41.81,1.66-.95v-1.91l.07-41.92.06-41.92v-5.74h0,0Z"/>
      </g>
      <g>
        <path class="cls-3" d="M79.33,33.62c-.05.73.52,1.55,1.52,2.2l.22.14c.82.53,1.36,1.19,1.49,1.81l1.9,8.97-14.59-1.78c-1.26-1.21-2.92-2.29-4.84-3.13-5.98-2.62-12.85-2.29-15.33.75l11.74,1.38,4.58,4.01-3.06,3.12-11.74-1.38c.61.59,1.33,1.16,2.17,1.7.8.52,1.69.99,2.62,1.4,5.99,2.63,12.87,2.3,15.37-.73l14.58,1.66.69,3.23-3.12.63c-1.23.25-1.88.97-1.69,1.87l2.4,11.28c.28,1.31,2.24,2.58,4.38,2.83l8.7,1.02c2.14.25,3.65-.61,3.37-1.92l-2.4-11.28c-.19-.9-1.2-1.82-2.59-2.38l-3.56-1.42-.69-3.26,14.44,1.64c.66.66,1.44,1.28,2.32,1.85,5.13,3.32,12.49,4.2,16.45,1.95,3.96-2.25,3.01-6.76-2.12-10.08-.89-.57-1.87-1.09-2.91-1.53-6.05-2.55-12.85-2.11-15.19.99l-14.47-1.76-1.91-8.99c-.14-.63.15-1.19.78-1.55l.17-.1c.77-.44,1.01-1.16.65-1.95l-4.3-9.16-5.48-.65-.52,8.6h0ZM89.85,59.47c1.07.13,2.05.76,2.19,1.42l2.15,10.09c.14.66-.62,1.09-1.69.96-1.07-.13-2.05-.76-2.2-1.42l-2.15-10.09h0c-.14-.66.62-1.09,1.69-.96h0ZM111.05,49.63l1.34-.67,2.06.5,1.95-.03,1.7,1.02,2.04.62.88,1.27,1.58,1.1-.17,1.18.7,1.28-1.18.77-.37,1.13-1.87.16-1.34.67-2.06-.5-1.95.03-1.7-1.02-2.04-.62-.88-1.27-1.58-1.1.17-1.18-.7-1.28,1.18-.77.37-1.13,1.87-.16Z"/>
        <g>
          <path class="cls-3" d="M127.37,156.95c-4.67,1.95-9.28,2.64-13.97,2.57-1.96-.03-2.24-.61-2.01-3.52.5-6.37,3.25-10.82,7.05-14.34,1.03-.95,1.95-1.28,3.04-.99,3.53.93,6.98-.26,10.25-3.2.87-.78,1.59-.87,2.41-.63,2.71.79,4.98,2.39,6.09,6.1.41,1.36.53,2.99.72,4.52.14,1.09-.26,1.8-.98,2.38-4.02,3.23-8.23,5.88-12.62,7.12Z"/>
          <path class="cls-3" d="M117.93,128.39c-.19-6.65,3.4-12.7,8.03-13.74,4.43-.99,8.03,3.19,8.2,9.37.17,6.3-3.12,12.45-7.52,13.83-4.71,1.47-8.74-3.07-8.71-9.46Z"/>
          <path class="cls-3" d="M147.44,112.79c.2,8.14-5.47,14.94-10.57,12.35-.78-.4-1.22-1.07-1.3-2.38-.18-2.79-.88-5.2-2.24-7.03-.66-.89-.78-1.88-.48-3.24,1.07-4.89,4.11-8.79,7.18-9.18,3.44-.44,6.23,2.31,7.17,7.05.15.77.16,1.62.24,2.43Z"/>
          <path class="cls-3" d="M143.9,142.97c-1.64.59-1.63.58-2.29-1.37-1.24-3.65-3.38-5.69-6.12-6.68-.31-.11-.62-.19-.93-.29-1.05-.34-1.11-.68-.53-2.23.36-.95.7-1.93.97-2.93.27-.98.66-1.47,1.32-1.3,3.34.87,6.47-.39,9.45-3.32.22-.22.56-.33.8-.26,2.6.75,5,1.95,6.22,5.62.5,1.5.7,3.29.97,4.99.13.86-.14,1.62-.75,2.1-2.93,2.35-5.99,4.36-9.1,5.65Z"/>
        </g>
        <g>
          <path class="cls-3" d="M47.23,108.86c-.03.48-.05.96-.1,1.42-.08.69.12,1.3.61,1.89.45.55.89,1.11,1.32,1.69.51.69,1.01.89,1.54.75.44-.12.87-.25,1.33-.32.61-.09.97.13,1.41.95.47.89.9,1.8,1.31,2.71.31.69.29,1.25-.08,1.63-.36.37-.69.78-1.06,1.13-.38.37-.44.92-.25,1.65.19.73.39,1.46.57,2.19.18.7.51,1.19,1.04,1.49.54.31,1.07.64,1.6.99.6.39.88.83.94,1.63.07.98.09,1.94.08,2.88,0,.65-.36.85-.83.81-.54-.05-1.09-.11-1.64-.18-.48-.07-.79.14-.91.71-.14.63-.29,1.25-.45,1.86-.15.57-.04,1.13.34,1.75.39.63.76,1.27,1.13,1.91.44.77.5,1.28.18,1.83-.35.59-.73,1.14-1.13,1.64-.36.45-.72.41-1.29-.09-.53-.45-1.05-.93-1.56-1.43-.44-.43-.81-.52-1.18-.31-.5.29-.99.58-1.49.86-.33.19-.43.56-.37,1.1.09.76.2,1.53.26,2.28.08.93-.07,1.19-.73,1.28-.54.07-1.08.11-1.64.12-.78.01-1.14-.31-1.6-1.39-.28-.66-.56-1.32-.83-1.98-.23-.58-.56-.91-1.01-1.07-.59-.21-1.18-.42-1.78-.66-.51-.21-.86-.07-1.08.38-.25.52-.49,1.07-.76,1.57-.35.64-.63.69-1.35.2-.63-.43-1.25-.9-1.86-1.41-.7-.58-.88-1.05-.85-1.96.03-.7.05-1.4.07-2.1.02-.48-.13-.92-.46-1.33-.58-.72-1.15-1.49-1.77-2.14-.26-.27-.67-.43-.95-.42-.56.02-1.08.2-1.62.31-.68.13-1.03-.08-1.54-1.01-.45-.82-.89-1.66-1.29-2.51-.38-.81-.36-1.26.03-1.71.34-.4.69-.78,1.06-1.14.4-.39.45-.98.21-1.75-.19-.64-.39-1.28-.55-1.92-.21-.83-.58-1.41-1.23-1.76-.54-.29-1.08-.63-1.61-.99-.67-.45-.96-.92-1.04-1.78-.09-.91-.12-1.82-.13-2.71,0-.75.27-1.04.88-.99.52.04,1.05.12,1.58.2.58.09.96-.11,1.08-.83.1-.62.25-1.2.41-1.77.19-.66.03-1.3-.44-2.01-.39-.6-.77-1.23-1.13-1.85-.51-.88-.59-1.41-.24-2.03.34-.6.72-1.16,1.12-1.68.41-.53.75-.49,1.42.11.56.5,1.11,1.03,1.66,1.56.45.43.86.57,1.25.35.51-.3,1.03-.59,1.54-.88.37-.21.44-.67.36-1.26-.1-.75-.21-1.5-.29-2.25-.1-.98.05-1.32.72-1.4.65-.07,1.32-.1,2-.04.67.06.99.41,1.37,1.32.29.71.57,1.42.85,2.13.28.7.65,1.18,1.21,1.37.56.19,1.12.43,1.68.68.57.25.97.11,1.21-.44.22-.52.45-1.03.71-1.51.36-.68.64-.75,1.36-.24.59.42,1.18.88,1.75,1.38.84.73.94,1.07.92,2.59ZM33.72,120.98c.1,5.2,3.45,10.63,7.55,12.3,4.02,1.64,7.25-1.15,7.2-6.23-.05-5.11-3.35-10.65-7.39-12.35-4.2-1.77-7.46,1.02-7.36,6.28Z"/>
          <path class="cls-3" d="M54.54,102.51c-.07-.55-.1-.88-.15-1.22-.08-.58-.22-1.18-.26-1.76-.09-1.19.44-1.88,1.25-1.73.87.16,1.65,1.07,1.92,2.3.17.78.27,1.57.4,2.35.29,1.72.58,3.44.86,5.15.22,1.37-.21,2.18-1.17,2.15-1.86-.05-3.72-.13-5.6-.23-.99-.05-1.88-.99-2.17-2.23-.3-1.29.19-2.23,1.18-2.23.58,0,1.17.04,1.75.06,0-.07.01-.14.02-.21-.19-.24-.37-.5-.56-.73-4.09-4.82-8.53-8-13.28-9.54-4.59-1.49-8.77-1.28-12.25,1.03-6.99,4.64-9.4,13.25-7.24,25.5.25,1.41.71,2.84,1.04,4.26.12.5.23,1.05.2,1.49-.05.86-.61,1.24-1.29,1.05-.79-.22-1.41-.86-1.74-1.95-.36-1.16-.68-2.32-.96-3.49-1.26-5.33-1.63-10.4-1.02-15.12.82-6.31,3.07-11.18,6.84-14.38,5.21-4.42,11.61-4.86,19.03-1.44,4.45,2.05,8.57,5.47,12.37,9.98.22.26.45.52.82.95Z"/>
          <path class="cls-3" d="M27.97,145.22c.14,1.04.25,1.85.37,2.66.14.95-.08,1.59-.69,1.86-.93.41-2.2-.73-2.5-2.28-.28-1.45-.49-2.9-.73-4.35-.16-.99-.31-1.98-.47-2.98-.22-1.41.18-2.19,1.21-2.12,1.82.12,3.64.28,5.46.49.91.1,1.74,1.09,1.97,2.24.22,1.12-.24,2-1.09,2.01-.52,0-1.05-.06-1.74-.1.3.39.46.62.63.81,8.1,8.83,18.03,11.68,24.85,7.19,4.3-2.83,6.79-7.68,7.53-14.45.44-4.1.05-8.49-1.11-13.1-.06-.25-.13-.51-.17-.76-.21-1.18.17-1.97.95-2,.71-.03,1.55.74,1.84,1.86.38,1.44.72,2.9.95,4.33,1.78,10.97.1,19.45-5.12,25.18-4.93,5.42-11.44,6.39-19.27,3.21-4.27-1.73-8.29-4.77-12.09-8.89-.2-.22-.41-.42-.78-.79Z"/>
        </g>
      </g>
      <g>
        <path class="cls-4" d="M79.33,33.62c-.05.73.52,1.55,1.52,2.2l.22.14c.82.53,1.36,1.19,1.49,1.81l1.9,8.97-14.59-1.78c-1.26-1.21-2.92-2.29-4.84-3.13-5.98-2.62-12.85-2.29-15.33.75l11.74,1.38,4.58,4.01-3.06,3.12-11.74-1.38c.61.59,1.33,1.16,2.17,1.7.8.52,1.69.99,2.62,1.4,5.99,2.63,12.87,2.3,15.37-.73l14.58,1.66.69,3.23-3.12.63c-1.23.25-1.88.97-1.69,1.87l2.4,11.28c.28,1.31,2.24,2.58,4.38,2.83l8.7,1.02c2.14.25,3.65-.61,3.37-1.92l-2.4-11.28c-.19-.9-1.2-1.82-2.59-2.38l-3.56-1.42-.69-3.26,14.44,1.64c.66.66,1.44,1.28,2.32,1.85,5.13,3.32,12.49,4.2,16.45,1.95,3.96-2.25,3.01-6.76-2.12-10.08-.89-.57-1.87-1.09-2.91-1.53-6.05-2.55-12.85-2.11-15.19.99l-14.47-1.76-1.91-8.99c-.14-.63.15-1.19.78-1.55l.17-.1c.77-.44,1.01-1.16.65-1.95l-4.3-9.16-5.48-.65-.52,8.6h0ZM89.85,59.47c1.07.13,2.05.76,2.19,1.42l2.15,10.09c.14.66-.62,1.09-1.69.96-1.07-.13-2.05-.76-2.2-1.42l-2.15-10.09h0c-.14-.66.62-1.09,1.69-.96h0ZM111.05,49.63l1.34-.67,2.06.5,1.95-.03,1.7,1.02,2.04.62.88,1.27,1.58,1.1-.17,1.18.7,1.28-1.18.77-.37,1.13-1.87.16-1.34.67-2.06-.5-1.95.03-1.7-1.02-2.04-.62-.88-1.27-1.58-1.1.17-1.18-.7-1.28,1.18-.77.37-1.13,1.87-.16Z"/>
        <g>
          <path class="cls-4" d="M127.37,156.95c-4.67,1.95-9.28,2.64-13.97,2.57-1.96-.03-2.24-.61-2.01-3.52.5-6.37,3.25-10.82,7.05-14.34,1.03-.95,1.95-1.28,3.04-.99,3.53.93,6.98-.26,10.25-3.2.87-.78,1.59-.87,2.41-.63,2.71.79,4.98,2.39,6.09,6.1.41,1.36.53,2.99.72,4.52.14,1.09-.26,1.8-.98,2.38-4.02,3.23-8.23,5.88-12.62,7.12Z"/>
          <path class="cls-4" d="M117.93,128.39c-.19-6.65,3.4-12.7,8.03-13.74,4.43-.99,8.03,3.19,8.2,9.37.17,6.3-3.12,12.45-7.52,13.83-4.71,1.47-8.74-3.07-8.71-9.46Z"/>
          <path class="cls-4" d="M147.44,112.79c.2,8.14-5.47,14.94-10.57,12.35-.78-.4-1.22-1.07-1.3-2.38-.18-2.79-.88-5.2-2.24-7.03-.66-.89-.78-1.88-.48-3.24,1.07-4.89,4.11-8.79,7.18-9.18,3.44-.44,6.23,2.31,7.17,7.05.15.77.16,1.62.24,2.43Z"/>
          <path class="cls-4" d="M143.9,142.97c-1.64.59-1.63.58-2.29-1.37-1.24-3.65-3.38-5.69-6.12-6.68-.31-.11-.62-.19-.93-.29-1.05-.34-1.11-.68-.53-2.23.36-.95.7-1.93.97-2.93.27-.98.66-1.47,1.32-1.3,3.34.87,6.47-.39,9.45-3.32.22-.22.56-.33.8-.26,2.6.75,5,1.95,6.22,5.62.5,1.5.7,3.29.97,4.99.13.86-.14,1.62-.75,2.1-2.93,2.35-5.99,4.36-9.1,5.65Z"/>
        </g>
        <g>
          <path class="cls-4" d="M47.23,108.86c-.03.48-.05.96-.1,1.42-.08.69.12,1.3.61,1.89.45.55.89,1.11,1.32,1.69.51.69,1.01.89,1.54.75.44-.12.87-.25,1.33-.32.61-.09.97.13,1.41.95.47.89.9,1.8,1.31,2.71.31.69.29,1.25-.08,1.63-.36.37-.69.78-1.06,1.13-.38.37-.44.92-.25,1.65.19.73.39,1.46.57,2.19.18.7.51,1.19,1.04,1.49.54.31,1.07.64,1.6.99.6.39.88.83.94,1.63.07.98.09,1.94.08,2.88,0,.65-.36.85-.83.81-.54-.05-1.09-.11-1.64-.18-.48-.07-.79.14-.91.71-.14.63-.29,1.25-.45,1.86-.15.57-.04,1.13.34,1.75.39.63.76,1.27,1.13,1.91.44.77.5,1.28.18,1.83-.35.59-.73,1.14-1.13,1.64-.36.45-.72.41-1.29-.09-.53-.45-1.05-.93-1.56-1.43-.44-.43-.81-.52-1.18-.31-.5.29-.99.58-1.49.86-.33.19-.43.56-.37,1.1.09.76.2,1.53.26,2.28.08.93-.07,1.19-.73,1.28-.54.07-1.08.11-1.64.12-.78.01-1.14-.31-1.6-1.39-.28-.66-.56-1.32-.83-1.98-.23-.58-.56-.91-1.01-1.07-.59-.21-1.18-.42-1.78-.66-.51-.21-.86-.07-1.08.38-.25.52-.49,1.07-.76,1.57-.35.64-.63.69-1.35.2-.63-.43-1.25-.9-1.86-1.41-.7-.58-.88-1.05-.85-1.96.03-.7.05-1.4.07-2.1.02-.48-.13-.92-.46-1.33-.58-.72-1.15-1.49-1.77-2.14-.26-.27-.67-.43-.95-.42-.56.02-1.08.2-1.62.31-.68.13-1.03-.08-1.54-1.01-.45-.82-.89-1.66-1.29-2.51-.38-.81-.36-1.26.03-1.71.34-.4.69-.78,1.06-1.14.4-.39.45-.98.21-1.75-.19-.64-.39-1.28-.55-1.92-.21-.83-.58-1.41-1.23-1.76-.54-.29-1.08-.63-1.61-.99-.67-.45-.96-.92-1.04-1.78-.09-.91-.12-1.82-.13-2.71,0-.75.27-1.04.88-.99.52.04,1.05.12,1.58.2.58.09.96-.11,1.08-.83.1-.62.25-1.2.41-1.77.19-.66.03-1.3-.44-2.01-.39-.6-.77-1.23-1.13-1.85-.51-.88-.59-1.41-.24-2.03.34-.6.72-1.16,1.12-1.68.41-.53.75-.49,1.42.11.56.5,1.11,1.03,1.66,1.56.45.43.86.57,1.25.35.51-.3,1.03-.59,1.54-.88.37-.21.44-.67.36-1.26-.1-.75-.21-1.5-.29-2.25-.1-.98.05-1.32.72-1.4.65-.07,1.32-.1,2-.04.67.06.99.41,1.37,1.32.29.71.57,1.42.85,2.13.28.7.65,1.18,1.21,1.37.56.19,1.12.43,1.68.68.57.25.97.11,1.21-.44.22-.52.45-1.03.71-1.51.36-.68.64-.75,1.36-.24.59.42,1.18.88,1.75,1.38.84.73.94,1.07.92,2.59ZM33.72,120.98c.1,5.2,3.45,10.63,7.55,12.3,4.02,1.64,7.25-1.15,7.2-6.23-.05-5.11-3.35-10.65-7.39-12.35-4.2-1.77-7.46,1.02-7.36,6.28Z"/>
          <path class="cls-4" d="M54.54,102.51c-.07-.55-.1-.88-.15-1.22-.08-.58-.22-1.18-.26-1.76-.09-1.19.44-1.88,1.25-1.73.87.16,1.65,1.07,1.92,2.3.17.78.27,1.57.4,2.35.29,1.72.58,3.44.86,5.15.22,1.37-.21,2.18-1.17,2.15-1.86-.05-3.72-.13-5.6-.23-.99-.05-1.88-.99-2.17-2.23-.3-1.29.19-2.23,1.18-2.23.58,0,1.17.04,1.75.06,0-.07.01-.14.02-.21-.19-.24-.37-.5-.56-.73-4.09-4.82-8.53-8-13.28-9.54-4.59-1.49-8.77-1.28-12.25,1.03-6.99,4.64-9.4,13.25-7.24,25.5.25,1.41.71,2.84,1.04,4.26.12.5.23,1.05.2,1.49-.05.86-.61,1.24-1.29,1.05-.79-.22-1.41-.86-1.74-1.95-.36-1.16-.68-2.32-.96-3.49-1.26-5.33-1.63-10.4-1.02-15.12.82-6.31,3.07-11.18,6.84-14.38,5.21-4.42,11.61-4.86,19.03-1.44,4.45,2.05,8.57,5.47,12.37,9.98.22.26.45.52.82.95Z"/>
          <path class="cls-4" d="M27.97,145.22c.14,1.04.25,1.85.37,2.66.14.95-.08,1.59-.69,1.86-.93.41-2.2-.73-2.5-2.28-.28-1.45-.49-2.9-.73-4.35-.16-.99-.31-1.98-.47-2.98-.22-1.41.18-2.19,1.21-2.12,1.82.12,3.64.28,5.46.49.91.1,1.74,1.09,1.97,2.24.22,1.12-.24,2-1.09,2.01-.52,0-1.05-.06-1.74-.1.3.39.46.62.63.81,8.1,8.83,18.03,11.68,24.85,7.19,4.3-2.83,6.79-7.68,7.53-14.45.44-4.1.05-8.49-1.11-13.1-.06-.25-.13-.51-.17-.76-.21-1.18.17-1.97.95-2,.71-.03,1.55.74,1.84,1.86.38,1.44.72,2.9.95,4.33,1.78,10.97.1,19.45-5.12,25.18-4.93,5.42-11.44,6.39-19.27,3.21-4.27-1.73-8.29-4.77-12.09-8.89-.2-.22-.41-.42-.78-.79Z"/>
        </g>
      </g>
    </g>
  </g>
</svg>