<?xml version="1.0" encoding="UTF-8"?>
<svg id="Layer_2" xmlns="http://www.w3.org/2000/svg" viewBox="0 0 571.27 200">
  <defs>
    <style>
      .cls-1 {
        fill: #f9b214;
      }

      .cls-2 {
        fill: #2c699a;
      }

      .cls-3 {
        fill: #1b1f3b;
      }

      .cls-4 {
        fill: #fff;
      }

      .cls-5 {
        fill: #c2371e;
      }
    </style>
  </defs>
  <g id="Layer_1-2" data-name="Layer_1">
    <g>
      <g>
        <polygon class="cls-3" points="398.42 148.33 397.89 50.24 483.25 1.91 569.09 51.64 569.61 147.19 484.28 198.08 398.42 148.33"/>
        <path class="cls-3" d="M483.24,3.82c28.07,16.26,56.14,32.52,84.2,48.78.17,31.22.33,62.44.5,93.66-27.89,16.63-55.78,33.27-83.67,49.9l-84.2-48.78c-.17-32.06-.34-64.11-.52-96.17,27.89-15.8,55.79-31.59,83.69-47.39"/>
        <polyline points="484.3 200 485.98 199 531.61 171.78 569.65 149.1 571.27 148.13 571.26 146.24 570.99 94.27 570.76 52.59 570.75 50.69 569.11 49.74 524.78 24.06 484.91 .95 483.26 0 483.26 0 483.26 0 481.61 .93 397.93 48.32 396.24 49.28 396.25 51.22 396.76 147.39 396.77 149.29 398.42 150.24 482.62 199.02 484.3 200"/>
        <path class="cls-3" d="M404.91,61.14c24.17,14,48.33,28,72.5,42-8.16-13.84-16.33-27.69-24.49-41.53l-48.01-.47h0Z"/>
        <g>
          <polygon class="cls-2" points="481.18 93.93 405.32 50.67 483.11 6.54 558.67 50.74 531.33 93.93 481.18 93.93"/>
          <path d="M483.09,8.45c24.42,14.28,48.84,28.57,73.26,42.85l-25.94,40.97c-16.27,0-32.53,0-48.8,0l-72.95-41.59c24.81-14.07,49.62-28.15,74.42-42.22M483.12,4.63l-1.66.94-74.42,42.22-5.06,2.87,5.06,2.88,72.95,41.59.76.43h51.5l.97-1.54,25.94-40.97,1.83-2.9-2.96-1.73L484.76,5.59l-1.65-.96h0Z"/>
        </g>
        <g>
          <polygon class="cls-1" points="403.09 145.9 403.22 59.44 453.87 59.96 479.07 102.69 478.94 189.84 403.09 145.9"/>
          <path d="M404.87,61.11c16.02.17,32.03.33,48.05.5,8.16,13.84,16.33,27.69,24.49,41.53l-.13,83.83-72.53-42.02.13-83.83M401.57,57.77v3.34s-.13,83.83-.13,83.83v1.91l1.65.96,72.53,42.02,4.96,2.87v-5.74s.14-83.83.14-83.83v-.91l-.46-.78-3.24-5.49-21.26-36.04-.95-1.61-1.87-.02-15.67-.16-32.37-.33-3.34-.03h0Z"/>
        </g>
        <g>
          <polygon class="cls-5" points="465.33 144.69 489.73 100.83 501.66 93.96 531.31 93.91 548.4 67.07 565.27 57.36 565.14 145.01 490.21 188.12 465.33 144.69"/>
          <path d="M563.61,60.23c-.04,27.94-.08,55.89-.13,83.83l-72.66,41.81c-7.87-13.73-15.73-27.46-23.59-41.18l23.72-42.65,11.15-6.42c10.04-.02,20.08-.03,30.11-.05,5.79-9.09,11.57-18.18,17.36-27.26,4.68-2.69,9.36-5.38,14.03-8.07M566.93,54.49l-4.97,2.86-7.65,4.4-6.38,3.67-.71.4-.44.69-5.79,9.09-10.6,16.65-13.24.02-15.05.02h-.88l-.77.44-11.15,6.42-.79.46-.45.8-11.86,21.32-11.86,21.32-.91,1.63.93,1.62,9.62,16.79,13.98,24.4,1.65,2.88,2.87-1.66,72.66-41.81,1.66-.95v-1.91l.07-41.92.06-41.92v-5.74h0,0Z"/>
        </g>
        <g>
          <path class="cls-3" d="M475.56,33.62c-.05.73.52,1.55,1.52,2.2l.22.14c.82.53,1.36,1.19,1.49,1.81l1.9,8.97-14.59-1.78c-1.26-1.21-2.92-2.29-4.84-3.13-5.98-2.62-12.85-2.29-15.33.75l11.74,1.38,4.58,4.01-3.06,3.12-11.74-1.38c.61.59,1.33,1.16,2.17,1.7.8.52,1.69.99,2.62,1.4,5.99,2.63,12.87,2.3,15.37-.73l14.58,1.66.69,3.23-3.12.63c-1.23.25-1.88.97-1.69,1.87l2.4,11.28c.28,1.31,2.24,2.58,4.38,2.83l8.7,1.02c2.14.25,3.65-.61,3.37-1.92l-2.4-11.28c-.19-.9-1.2-1.82-2.59-2.38l-3.56-1.42-.69-3.26,14.44,1.64c.66.66,1.44,1.28,2.32,1.85,5.13,3.32,12.49,4.2,16.45,1.95,3.96-2.25,3.01-6.76-2.12-10.08-.89-.57-1.87-1.09-2.91-1.53-6.05-2.55-12.85-2.11-15.19.99l-14.47-1.76-1.91-8.99c-.14-.63.15-1.19.78-1.55l.17-.1c.77-.44,1.01-1.16.65-1.95l-4.3-9.16-5.48-.65-.52,8.6h0ZM486.09,59.47c1.07.13,2.05.76,2.19,1.42l2.15,10.09c.14.66-.62,1.09-1.69.96-1.07-.13-2.05-.76-2.2-1.42l-2.15-10.09h0c-.14-.66.62-1.09,1.69-.96h0ZM507.28,49.63l1.34-.67,2.06.5,1.95-.03,1.7,1.02,2.04.62.88,1.27,1.58,1.1-.17,1.18.7,1.28-1.18.77-.37,1.13-1.87.16-1.34.67-2.06-.5-1.95.03-1.7-1.02-2.04-.62-.88-1.27-1.58-1.1.17-1.18-.7-1.28,1.18-.77.37-1.13,1.87-.16Z"/>
          <g>
            <path class="cls-3" d="M523.61,156.95c-4.67,1.95-9.28,2.64-13.97,2.57-1.96-.03-2.24-.61-2.01-3.52.5-6.37,3.25-10.82,7.05-14.34,1.03-.95,1.95-1.28,3.04-.99,3.53.93,6.98-.26,10.25-3.2.87-.78,1.59-.87,2.41-.63,2.71.79,4.98,2.39,6.09,6.1.41,1.36.53,2.99.72,4.52.14,1.09-.26,1.8-.98,2.38-4.02,3.23-8.23,5.88-12.62,7.12Z"/>
            <path class="cls-3" d="M514.17,128.39c-.19-6.65,3.4-12.7,8.03-13.74,4.43-.99,8.03,3.19,8.2,9.37.17,6.3-3.12,12.45-7.52,13.83-4.71,1.47-8.74-3.07-8.71-9.46Z"/>
            <path class="cls-3" d="M543.68,112.79c.2,8.14-5.47,14.94-10.57,12.35-.78-.4-1.22-1.07-1.3-2.38-.18-2.79-.88-5.2-2.24-7.03-.66-.89-.78-1.88-.48-3.24,1.07-4.89,4.11-8.79,7.18-9.18,3.44-.44,6.23,2.31,7.17,7.05.15.77.16,1.62.24,2.43Z"/>
            <path class="cls-3" d="M540.13,142.97c-1.64.59-1.63.58-2.29-1.37-1.24-3.65-3.38-5.69-6.12-6.68-.31-.11-.62-.19-.93-.29-1.05-.34-1.11-.68-.53-2.23.36-.95.7-1.93.97-2.93.27-.98.66-1.47,1.32-1.3,3.34.87,6.47-.39,9.45-3.32.22-.22.56-.33.8-.26,2.6.75,5,1.95,6.22,5.62.5,1.5.7,3.29.97,4.99.13.86-.14,1.62-.75,2.1-2.93,2.35-5.99,4.36-9.1,5.65Z"/>
          </g>
          <g>
            <path class="cls-3" d="M443.47,108.86c-.03.48-.05.96-.1,1.42-.08.69.12,1.3.61,1.89.45.55.89,1.11,1.32,1.69.51.69,1.01.89,1.54.75.44-.12.87-.25,1.33-.32.61-.09.97.13,1.41.95.47.89.9,1.8,1.31,2.71.31.69.29,1.25-.08,1.63-.36.37-.69.78-1.06,1.13-.38.37-.44.92-.25,1.65.19.73.39,1.46.57,2.19.18.7.51,1.19,1.04,1.49.54.31,1.07.64,1.6.99.6.39.88.83.94,1.63.07.98.09,1.94.08,2.88,0,.65-.36.85-.83.81-.54-.05-1.09-.11-1.64-.18-.48-.07-.79.14-.91.71-.14.63-.29,1.25-.45,1.86-.15.57-.04,1.13.34,1.75.39.63.76,1.27,1.13,1.91.44.77.5,1.28.18,1.83-.35.59-.73,1.14-1.13,1.64-.36.45-.72.41-1.29-.09-.53-.45-1.05-.93-1.56-1.43-.44-.43-.81-.52-1.18-.31-.5.29-.99.58-1.49.86-.33.19-.43.56-.37,1.1.09.76.2,1.53.26,2.28.08.93-.07,1.19-.73,1.28-.54.07-1.08.11-1.64.12-.78.01-1.14-.31-1.6-1.39-.28-.66-.56-1.32-.83-1.98-.23-.58-.56-.91-1.01-1.07-.59-.21-1.18-.42-1.78-.66-.51-.21-.86-.07-1.08.38-.25.52-.49,1.07-.76,1.57-.35.64-.63.69-1.35.2-.63-.43-1.25-.9-1.86-1.41-.7-.58-.88-1.05-.85-1.96.03-.7.05-1.4.07-2.1.02-.48-.13-.92-.46-1.33-.58-.72-1.15-1.49-1.77-2.14-.26-.27-.67-.43-.95-.42-.56.02-1.08.2-1.62.31-.68.13-1.03-.08-1.54-1.01-.45-.82-.89-1.66-1.29-2.51-.38-.81-.36-1.26.03-1.71.34-.4.69-.78,1.06-1.14.4-.39.45-.98.21-1.75-.19-.64-.39-1.28-.55-1.92-.21-.83-.58-1.41-1.23-1.76-.54-.29-1.08-.63-1.61-.99-.67-.45-.96-.92-1.04-1.78-.09-.91-.12-1.82-.13-2.71,0-.75.27-1.04.88-.99.52.04,1.05.12,1.58.2.58.09.96-.11,1.08-.83.1-.62.25-1.2.41-1.77.19-.66.03-1.3-.44-2.01-.39-.6-.77-1.23-1.13-1.85-.51-.88-.59-1.41-.24-2.03.34-.6.72-1.16,1.12-1.68.41-.53.75-.49,1.42.11.56.5,1.11,1.03,1.66,1.56.45.43.86.57,1.25.35.51-.3,1.03-.59,1.54-.88.37-.21.44-.67.36-1.26-.1-.75-.21-1.5-.29-2.25-.1-.98.05-1.32.72-1.4.65-.07,1.32-.1,2-.04.67.06.99.41,1.37,1.32.29.71.57,1.42.85,2.13.28.7.65,1.18,1.21,1.37.56.19,1.12.43,1.68.68.57.25.97.11,1.21-.44.22-.52.45-1.03.71-1.51.36-.68.64-.75,1.36-.24.59.42,1.18.88,1.75,1.38.84.73.94,1.07.92,2.59ZM429.95,120.98c.1,5.2,3.45,10.63,7.55,12.3,4.02,1.64,7.25-1.15,7.2-6.23-.05-5.11-3.35-10.65-7.39-12.35-4.2-1.77-7.46,1.02-7.36,6.28Z"/>
            <path class="cls-3" d="M450.78,102.51c-.07-.55-.1-.88-.15-1.22-.08-.58-.22-1.18-.26-1.76-.09-1.19.44-1.88,1.25-1.73.87.16,1.65,1.07,1.92,2.3.17.78.27,1.57.4,2.35.29,1.72.58,3.44.86,5.15.22,1.37-.21,2.18-1.17,2.15-1.86-.05-3.72-.13-5.6-.23-.99-.05-1.88-.99-2.17-2.23-.3-1.29.19-2.23,1.18-2.23.58,0,1.17.04,1.75.06,0-.07.01-.14.02-.21-.19-.24-.37-.5-.56-.73-4.09-4.82-8.53-8-13.28-9.54-4.59-1.49-8.77-1.28-12.25,1.03-6.99,4.64-9.4,13.25-7.24,25.5.25,1.41.71,2.84,1.04,4.26.12.5.23,1.05.2,1.49-.05.86-.61,1.24-1.29,1.05-.79-.22-1.41-.86-1.74-1.95-.36-1.16-.68-2.32-.96-3.49-1.26-5.33-1.63-10.4-1.02-15.12.82-6.31,3.07-11.18,6.84-14.38,5.21-4.42,11.61-4.86,19.03-1.44,4.45,2.05,8.57,5.47,12.37,9.98.22.26.45.52.82.95Z"/>
            <path class="cls-3" d="M424.21,145.22c.14,1.04.25,1.85.37,2.66.14.95-.08,1.59-.69,1.86-.93.41-2.2-.73-2.5-2.28-.28-1.45-.49-2.9-.73-4.35-.16-.99-.31-1.98-.47-2.98-.22-1.41.18-2.19,1.21-2.12,1.82.12,3.64.28,5.46.49.91.1,1.74,1.09,1.97,2.24.22,1.12-.24,2-1.09,2.01-.52,0-1.05-.06-1.74-.1.3.39.46.62.63.81,8.1,8.83,18.03,11.68,24.85,7.19,4.3-2.83,6.79-7.68,7.53-14.45.44-4.1.05-8.49-1.11-13.1-.06-.25-.13-.51-.17-.76-.21-1.18.17-1.97.95-2,.71-.03,1.55.74,1.84,1.86.38,1.44.72,2.9.95,4.33,1.78,10.97.1,19.45-5.12,25.18-4.93,5.42-11.44,6.39-19.27,3.21-4.27-1.73-8.29-4.77-12.09-8.89-.2-.22-.41-.42-.78-.79Z"/>
          </g>
        </g>
        <g>
          <path class="cls-4" d="M475.56,33.62c-.05.73.52,1.55,1.52,2.2l.22.14c.82.53,1.36,1.19,1.49,1.81l1.9,8.97-14.59-1.78c-1.26-1.21-2.92-2.29-4.84-3.13-5.98-2.62-12.85-2.29-15.33.75l11.74,1.38,4.58,4.01-3.06,3.12-11.74-1.38c.61.59,1.33,1.16,2.17,1.7.8.52,1.69.99,2.62,1.4,5.99,2.63,12.87,2.3,15.37-.73l14.58,1.66.69,3.23-3.12.63c-1.23.25-1.88.97-1.69,1.87l2.4,11.28c.28,1.31,2.24,2.58,4.38,2.83l8.7,1.02c2.14.25,3.65-.61,3.37-1.92l-2.4-11.28c-.19-.9-1.2-1.82-2.59-2.38l-3.56-1.42-.69-3.26,14.44,1.64c.66.66,1.44,1.28,2.32,1.85,5.13,3.32,12.49,4.2,16.45,1.95,3.96-2.25,3.01-6.76-2.12-10.08-.89-.57-1.87-1.09-2.91-1.53-6.05-2.55-12.85-2.11-15.19.99l-14.47-1.76-1.91-8.99c-.14-.63.15-1.19.78-1.55l.17-.1c.77-.44,1.01-1.16.65-1.95l-4.3-9.16-5.48-.65-.52,8.6h0ZM486.09,59.47c1.07.13,2.05.76,2.19,1.42l2.15,10.09c.14.66-.62,1.09-1.69.96-1.07-.13-2.05-.76-2.2-1.42l-2.15-10.09h0c-.14-.66.62-1.09,1.69-.96h0ZM507.28,49.63l1.34-.67,2.06.5,1.95-.03,1.7,1.02,2.04.62.88,1.27,1.58,1.1-.17,1.18.7,1.28-1.18.77-.37,1.13-1.87.16-1.34.67-2.06-.5-1.95.03-1.7-1.02-2.04-.62-.88-1.27-1.58-1.1.17-1.18-.7-1.28,1.18-.77.37-1.13,1.87-.16Z"/>
          <g>
            <path class="cls-4" d="M523.61,156.95c-4.67,1.95-9.28,2.64-13.97,2.57-1.96-.03-2.24-.61-2.01-3.52.5-6.37,3.25-10.82,7.05-14.34,1.03-.95,1.95-1.28,3.04-.99,3.53.93,6.98-.26,10.25-3.2.87-.78,1.59-.87,2.41-.63,2.71.79,4.98,2.39,6.09,6.1.41,1.36.53,2.99.72,4.52.14,1.09-.26,1.8-.98,2.38-4.02,3.23-8.23,5.88-12.62,7.12Z"/>
            <path class="cls-4" d="M514.17,128.39c-.19-6.65,3.4-12.7,8.03-13.74,4.43-.99,8.03,3.19,8.2,9.37.17,6.3-3.12,12.45-7.52,13.83-4.71,1.47-8.74-3.07-8.71-9.46Z"/>
            <path class="cls-4" d="M543.68,112.79c.2,8.14-5.47,14.94-10.57,12.35-.78-.4-1.22-1.07-1.3-2.38-.18-2.79-.88-5.2-2.24-7.03-.66-.89-.78-1.88-.48-3.24,1.07-4.89,4.11-8.79,7.18-9.18,3.44-.44,6.23,2.31,7.17,7.05.15.77.16,1.62.24,2.43Z"/>
            <path class="cls-4" d="M540.13,142.97c-1.64.59-1.63.58-2.29-1.37-1.24-3.65-3.38-5.69-6.12-6.68-.31-.11-.62-.19-.93-.29-1.05-.34-1.11-.68-.53-2.23.36-.95.7-1.93.97-2.93.27-.98.66-1.47,1.32-1.3,3.34.87,6.47-.39,9.45-3.32.22-.22.56-.33.8-.26,2.6.75,5,1.95,6.22,5.62.5,1.5.7,3.29.97,4.99.13.86-.14,1.62-.75,2.1-2.93,2.35-5.99,4.36-9.1,5.65Z"/>
          </g>
          <g>
            <path class="cls-4" d="M443.47,108.86c-.03.48-.05.96-.1,1.42-.08.69.12,1.3.61,1.89.45.55.89,1.11,1.32,1.69.51.69,1.01.89,1.54.75.44-.12.87-.25,1.33-.32.61-.09.97.13,1.41.95.47.89.9,1.8,1.31,2.71.31.69.29,1.25-.08,1.63-.36.37-.69.78-1.06,1.13-.38.37-.44.92-.25,1.65.19.73.39,1.46.57,2.19.18.7.51,1.19,1.04,1.49.54.31,1.07.64,1.6.99.6.39.88.83.94,1.63.07.98.09,1.94.08,2.88,0,.65-.36.85-.83.81-.54-.05-1.09-.11-1.64-.18-.48-.07-.79.14-.91.71-.14.63-.29,1.25-.45,1.86-.15.57-.04,1.13.34,1.75.39.63.76,1.27,1.13,1.91.44.77.5,1.28.18,1.83-.35.59-.73,1.14-1.13,1.64-.36.45-.72.41-1.29-.09-.53-.45-1.05-.93-1.56-1.43-.44-.43-.81-.52-1.18-.31-.5.29-.99.58-1.49.86-.33.19-.43.56-.37,1.1.09.76.2,1.53.26,2.28.08.93-.07,1.19-.73,1.28-.54.07-1.08.11-1.64.12-.78.01-1.14-.31-1.6-1.39-.28-.66-.56-1.32-.83-1.98-.23-.58-.56-.91-1.01-1.07-.59-.21-1.18-.42-1.78-.66-.51-.21-.86-.07-1.08.38-.25.52-.49,1.07-.76,1.57-.35.64-.63.69-1.35.2-.63-.43-1.25-.9-1.86-1.41-.7-.58-.88-1.05-.85-1.96.03-.7.05-1.4.07-2.1.02-.48-.13-.92-.46-1.33-.58-.72-1.15-1.49-1.77-2.14-.26-.27-.67-.43-.95-.42-.56.02-1.08.2-1.62.31-.68.13-1.03-.08-1.54-1.01-.45-.82-.89-1.66-1.29-2.51-.38-.81-.36-1.26.03-1.71.34-.4.69-.78,1.06-1.14.4-.39.45-.98.21-1.75-.19-.64-.39-1.28-.55-1.92-.21-.83-.58-1.41-1.23-1.76-.54-.29-1.08-.63-1.61-.99-.67-.45-.96-.92-1.04-1.78-.09-.91-.12-1.82-.13-2.71,0-.75.27-1.04.88-.99.52.04,1.05.12,1.58.2.58.09.96-.11,1.08-.83.1-.62.25-1.2.41-1.77.19-.66.03-1.3-.44-2.01-.39-.6-.77-1.23-1.13-1.85-.51-.88-.59-1.41-.24-2.03.34-.6.72-1.16,1.12-1.68.41-.53.75-.49,1.42.11.56.5,1.11,1.03,1.66,1.56.45.43.86.57,1.25.35.51-.3,1.03-.59,1.54-.88.37-.21.44-.67.36-1.26-.1-.75-.21-1.5-.29-2.25-.1-.98.05-1.32.72-1.4.65-.07,1.32-.1,2-.04.67.06.99.41,1.37,1.32.29.71.57,1.42.85,2.13.28.7.65,1.18,1.21,1.37.56.19,1.12.43,1.68.68.57.25.97.11,1.21-.44.22-.52.45-1.03.71-1.51.36-.68.64-.75,1.36-.24.59.42,1.18.88,1.75,1.38.84.73.94,1.07.92,2.59ZM429.95,120.98c.1,5.2,3.45,10.63,7.55,12.3,4.02,1.64,7.25-1.15,7.2-6.23-.05-5.11-3.35-10.65-7.39-12.35-4.2-1.77-7.46,1.02-7.36,6.28Z"/>
            <path class="cls-4" d="M450.78,102.51c-.07-.55-.1-.88-.15-1.22-.08-.58-.22-1.18-.26-1.76-.09-1.19.44-1.88,1.25-1.73.87.16,1.65,1.07,1.92,2.3.17.78.27,1.57.4,2.35.29,1.72.58,3.44.86,5.15.22,1.37-.21,2.18-1.17,2.15-1.86-.05-3.72-.13-5.6-.23-.99-.05-1.88-.99-2.17-2.23-.3-1.29.19-2.23,1.18-2.23.58,0,1.17.04,1.75.06,0-.07.01-.14.02-.21-.19-.24-.37-.5-.56-.73-4.09-4.82-8.53-8-13.28-9.54-4.59-1.49-8.77-1.28-12.25,1.03-6.99,4.64-9.4,13.25-7.24,25.5.25,1.41.71,2.84,1.04,4.26.12.5.23,1.05.2,1.49-.05.86-.61,1.24-1.29,1.05-.79-.22-1.41-.86-1.74-1.95-.36-1.16-.68-2.32-.96-3.49-1.26-5.33-1.63-10.4-1.02-15.12.82-6.31,3.07-11.18,6.84-14.38,5.21-4.42,11.61-4.86,19.03-1.44,4.45,2.05,8.57,5.47,12.37,9.98.22.26.45.52.82.95Z"/>
            <path class="cls-4" d="M424.21,145.22c.14,1.04.25,1.85.37,2.66.14.95-.08,1.59-.69,1.86-.93.41-2.2-.73-2.5-2.28-.28-1.45-.49-2.9-.73-4.35-.16-.99-.31-1.98-.47-2.98-.22-1.41.18-2.19,1.21-2.12,1.82.12,3.64.28,5.46.49.91.1,1.74,1.09,1.97,2.24.22,1.12-.24,2-1.09,2.01-.52,0-1.05-.06-1.74-.1.3.39.46.62.63.81,8.1,8.83,18.03,11.68,24.85,7.19,4.3-2.83,6.79-7.68,7.53-14.45.44-4.1.05-8.49-1.11-13.1-.06-.25-.13-.51-.17-.76-.21-1.18.17-1.97.95-2,.71-.03,1.55.74,1.84,1.86.38,1.44.72,2.9.95,4.33,1.78,10.97.1,19.45-5.12,25.18-4.93,5.42-11.44,6.39-19.27,3.21-4.27-1.73-8.29-4.77-12.09-8.89-.2-.22-.41-.42-.78-.79Z"/>
          </g>
        </g>
      </g>
      <path d="M189.95,148.91v-38.82h-13.83v-9.36h38.54v9.36h-13.9v38.82h-10.81ZM218.88,149.74c-1.97,0-3.81-.39-5.51-1.17-1.7-.83-3.07-2-4.13-3.51-1.01-1.56-1.51-3.44-1.51-5.64,0-2.52.66-4.57,2-6.13,1.33-1.61,3.1-2.78,5.3-3.51,2.25-.73,4.7-1.1,7.36-1.1h7.71c0-1.19-.21-2.25-.62-3.17-.41-.92-1.03-1.63-1.86-2.13-.83-.55-1.86-.83-3.1-.83s-2.46.28-3.51.83c-1.06.55-1.72,1.49-2,2.82h-10.26c.18-2.52,1.03-4.68,2.55-6.47,1.51-1.84,3.44-3.26,5.78-4.27,2.39-1.01,4.93-1.51,7.64-1.51,3.17,0,5.94.6,8.33,1.79,2.43,1.15,4.31,2.82,5.64,5.02,1.33,2.16,2,4.77,2,7.85v8.74c0,1.01.14,1.79.41,2.34.32.55,1.12.83,2.41.83v8.4c-2.2,0-4.04-.14-5.51-.41-1.47-.28-2.71-.78-3.72-1.51-1.01-.78-1.93-1.9-2.75-3.37-1.51,2.02-3.3,3.56-5.37,4.61-2.06,1.01-4.5,1.51-7.3,1.51ZM222.59,141.62c1.33,0,2.55-.28,3.65-.83,1.15-.6,2.06-1.42,2.75-2.48.69-1.06,1.03-2.25,1.03-3.58v-.41h-6.54c-.92,0-1.77.14-2.55.41-.78.23-1.4.62-1.86,1.17-.46.5-.69,1.22-.69,2.13,0,1.33.44,2.27,1.31,2.82.87.5,1.83.76,2.89.76ZM262.44,149.74c-3.44,0-6.47-.73-9.09-2.2s-4.68-3.53-6.19-6.19c-1.47-2.71-2.2-5.87-2.2-9.5s.71-6.56,2.13-9.22c1.42-2.71,3.44-4.82,6.06-6.33,2.62-1.56,5.71-2.34,9.29-2.34,4.04,0,7.57,1.06,10.6,3.17,3.03,2.06,5.07,5.37,6.13,9.91h-11.36c-.46-1.33-1.17-2.32-2.13-2.96-.92-.69-2.06-1.03-3.44-1.03-1.51,0-2.75.41-3.72,1.24-.92.83-1.61,1.9-2.06,3.23-.41,1.33-.62,2.78-.62,4.34s.21,2.96.62,4.34c.46,1.33,1.15,2.41,2.06,3.23.96.83,2.2,1.24,3.72,1.24,1.38,0,2.52-.34,3.44-1.03.96-.69,1.68-1.67,2.13-2.96h11.36c-.64,2.8-1.74,5.16-3.3,7.09-1.56,1.93-3.49,3.42-5.78,4.47-2.25,1.01-4.79,1.51-7.64,1.51ZM295.85,148.91c-4.04,0-7.09-.99-9.15-2.96-2.02-1.97-3.03-5-3.03-9.09v-13.35h-3.58v-8.74h3.58v-8.47h10.6v8.47h6.95v8.74h-6.95v13.49c0,1.15.23,1.93.69,2.34.51.37,1.33.55,2.48.55h3.79v9.02h-5.37ZM310.11,111.75c-1.79,0-3.33-.64-4.61-1.93-1.28-1.29-1.93-2.82-1.93-4.61s.64-3.33,1.93-4.61c1.29-1.29,2.82-1.93,4.61-1.93,1.88,0,3.44.64,4.68,1.93,1.24,1.29,1.86,2.82,1.86,4.61s-.62,3.33-1.86,4.61c-1.24,1.29-2.8,1.93-4.68,1.93ZM304.81,148.91v-34.14h10.6v34.14h-10.6ZM336.18,149.74c-3.44,0-6.47-.73-9.09-2.2-2.62-1.47-4.68-3.53-6.19-6.19-1.47-2.71-2.2-5.87-2.2-9.5s.71-6.56,2.13-9.22c1.42-2.71,3.44-4.82,6.06-6.33,2.62-1.56,5.71-2.34,9.29-2.34,4.04,0,7.57,1.06,10.6,3.17,3.03,2.06,5.07,5.37,6.13,9.91h-11.36c-.46-1.33-1.17-2.32-2.13-2.96-.92-.69-2.06-1.03-3.44-1.03-1.51,0-2.75.41-3.72,1.24-.92.83-1.61,1.9-2.06,3.23-.41,1.33-.62,2.78-.62,4.34s.21,2.96.62,4.34c.46,1.33,1.15,2.41,2.06,3.23.96.83,2.2,1.24,3.72,1.24,1.38,0,2.52-.34,3.44-1.03.96-.69,1.68-1.67,2.13-2.96h11.36c-.64,2.8-1.74,5.16-3.3,7.09-1.56,1.93-3.49,3.42-5.78,4.47-2.25,1.01-4.79,1.51-7.64,1.51ZM371.23,149.74c-2.48,0-4.93-.44-7.36-1.31-2.39-.92-4.38-2.25-5.99-3.99-1.61-1.79-2.5-3.99-2.68-6.61h10.53c.18,1.29.78,2.29,1.79,3.03,1.06.69,2.25,1.03,3.58,1.03,1.1,0,2.06-.21,2.89-.62.87-.46,1.31-1.19,1.31-2.2,0-.83-.39-1.47-1.17-1.93-.78-.5-1.7-.89-2.75-1.17-1.01-.28-1.9-.5-2.68-.69-2.16-.55-4.18-1.17-6.06-1.86-1.88-.69-3.42-1.7-4.61-3.03-1.15-1.33-1.72-3.21-1.72-5.64s.64-4.31,1.93-5.92c1.28-1.61,3.01-2.82,5.16-3.65,2.16-.83,4.52-1.24,7.09-1.24,4.04,0,7.36,1.01,9.98,3.03,2.66,1.97,4.22,4.91,4.68,8.81h-9.84c-.23-1.38-.8-2.36-1.72-2.96-.92-.64-2.06-.96-3.44-.96-1.01,0-1.9.21-2.68.62-.78.37-1.17,1.06-1.17,2.06,0,.83.37,1.49,1.1,2,.78.46,1.67.8,2.68,1.03,1.01.23,1.93.46,2.75.69,2.2.55,4.22,1.19,6.06,1.93,1.88.73,3.42,1.79,4.61,3.17,1.19,1.33,1.81,3.26,1.86,5.78,0,2.25-.67,4.18-2,5.78-1.29,1.56-3.01,2.75-5.16,3.58-2.11.83-4.43,1.24-6.95,1.24Z"/>
      <path d="M0,91.94V30.27h24.49c4.23,0,8.05.76,11.45,2.29,3.41,1.53,6.08,3.73,8.02,6.61,2,2.88,3,6.31,3,10.31s-.97,7.37-2.91,10.31c-1.88,2.88-4.52,5.11-7.93,6.7-3.35,1.59-7.22,2.38-11.63,2.38h-10.57v23.08H0ZM13.92,56.96h10.22c3.29,0,5.55-.73,6.78-2.2,1.29-1.53,1.94-3.29,1.94-5.29,0-1.88-.65-3.55-1.94-5.02-1.23-1.53-3.49-2.29-6.78-2.29h-10.22v14.8ZM49.69,91.94v-43.7h13.57v6.78c1.53-2.23,3.47-4.08,5.81-5.55,2.35-1.53,5.05-2.29,8.11-2.29v14.36h-3.79c-3.41,0-5.96.76-7.66,2.29-1.64,1.53-2.47,4.05-2.47,7.58v20.53h-13.57ZM92.25,93c-2.53,0-4.88-.5-7.05-1.5-2.17-1.06-3.93-2.55-5.29-4.49-1.29-2-1.94-4.4-1.94-7.22,0-3.23.85-5.84,2.55-7.84,1.7-2.06,3.96-3.55,6.78-4.49,2.88-.94,6.02-1.41,9.43-1.41h9.87c0-1.53-.26-2.88-.79-4.05-.53-1.17-1.32-2.09-2.38-2.73-1.06-.7-2.38-1.06-3.96-1.06s-3.14.35-4.49,1.06-2.2,1.91-2.55,3.61h-13.13c.23-3.23,1.32-5.99,3.26-8.28,1.94-2.35,4.4-4.17,7.4-5.46,3.05-1.29,6.31-1.94,9.78-1.94,4.05,0,7.61.76,10.66,2.29,3.11,1.47,5.52,3.61,7.22,6.43,1.7,2.76,2.55,6.11,2.55,10.04v11.19c0,1.29.18,2.29.53,3,.41.7,1.44,1.06,3.08,1.06v10.75c-2.82,0-5.17-.18-7.05-.53-1.88-.35-3.47-1-4.76-1.94-1.29-1-2.47-2.44-3.52-4.32-1.94,2.58-4.23,4.55-6.87,5.9-2.64,1.29-5.76,1.94-9.34,1.94ZM97,82.6c1.7,0,3.26-.35,4.67-1.06,1.47-.76,2.64-1.82,3.52-3.17.88-1.35,1.32-2.88,1.32-4.58v-.53h-8.37c-1.17,0-2.26.18-3.26.53-1,.29-1.79.79-2.38,1.5-.59.65-.88,1.56-.88,2.73,0,1.7.56,2.91,1.67,3.61,1.12.65,2.35.97,3.7.97ZM146.42,112.38c-3.99,0-7.58-.44-10.75-1.32-3.17-.88-5.7-2.32-7.58-4.32-1.82-1.94-2.73-4.49-2.73-7.66,0-2.06.44-3.85,1.32-5.37.88-1.47,2.23-2.76,4.05-3.88-1.53-.88-2.67-2-3.44-3.35-.76-1.35-1.15-2.91-1.15-4.67,0-3.88,1.76-6.81,5.29-8.81-1.29-1.35-2.26-2.85-2.91-4.49-.65-1.7-.97-3.52-.97-5.46,0-3.23.76-6.02,2.29-8.37,1.59-2.41,3.76-4.26,6.52-5.55,2.76-1.29,5.9-1.94,9.43-1.94,2.64,0,5.02.35,7.14,1.06h15.68v9.07h-5.55c.29.82.53,1.73.7,2.73.23.94.35,1.94.35,3,0,3.17-.82,5.96-2.47,8.37-1.59,2.35-3.76,4.2-6.52,5.55-2.76,1.29-5.87,1.94-9.34,1.94-1.29,0-2.53-.09-3.7-.26-1.12-.23-2.2-.56-3.26-.97-1,.47-1.5,1.23-1.5,2.29,0,1.88,1.53,2.82,4.58,2.82h8.99c3.52,0,6.58.5,9.16,1.5,2.58,1,4.58,2.53,5.99,4.58,1.41,2.06,2.11,4.73,2.11,8.02,0,3.52-1.03,6.43-3.08,8.72-2,2.29-4.67,3.99-8.02,5.11-3.29,1.12-6.84,1.67-10.66,1.67ZM146.78,102.42c2.41,0,4.49-.38,6.26-1.15,1.76-.76,2.64-1.97,2.64-3.61,0-3-2.06-4.49-6.17-4.49h-5.46c-2,0-3.52.35-4.58,1.06-1.06.76-1.59,1.91-1.59,3.44,0,1.17.41,2.11,1.23,2.82.82.7,1.91,1.2,3.26,1.5s2.82.44,4.4.44ZM145.81,69.03c1.94,0,3.52-.56,4.76-1.67,1.23-1.12,1.85-2.55,1.85-4.32s-.62-3.11-1.85-4.23c-1.23-1.17-2.82-1.76-4.76-1.76s-3.58.59-4.76,1.76c-1.17,1.12-1.76,2.53-1.76,4.23s.59,3.2,1.76,4.32,2.76,1.67,4.76,1.67ZM172.03,91.94v-43.7h13.57v4.93c1.53-1.94,3.35-3.41,5.46-4.4,2.17-1.06,4.52-1.59,7.05-1.59,2.76,0,5.49.68,8.19,2.03s4.85,3.44,6.43,6.26c1.41-2.23,3.35-4.17,5.81-5.81,2.47-1.64,5.34-2.47,8.63-2.47,3.52,0,6.61.7,9.25,2.11,2.64,1.41,4.67,3.52,6.08,6.34,1.47,2.76,2.2,6.2,2.2,10.31v25.99h-13.48v-24.23c0-2.76-.68-4.9-2.03-6.43-1.35-1.59-3.35-2.38-5.99-2.38s-4.73.79-6.08,2.38c-1.29,1.59-1.94,3.73-1.94,6.43v24.23h-13.57v-24.23c0-2.64-.68-4.76-2.03-6.34-1.29-1.64-3.29-2.47-5.99-2.47s-4.64.79-5.99,2.38c-1.35,1.53-2.03,3.67-2.03,6.43v24.23h-13.57ZM262.59,93c-2.53,0-4.88-.5-7.05-1.5-2.17-1.06-3.93-2.55-5.29-4.49-1.29-2-1.94-4.4-1.94-7.22,0-3.23.85-5.84,2.55-7.84,1.7-2.06,3.96-3.55,6.78-4.49,2.88-.94,6.02-1.41,9.43-1.41h9.87c0-1.53-.26-2.88-.79-4.05-.53-1.17-1.32-2.09-2.38-2.73-1.06-.7-2.38-1.06-3.96-1.06s-3.14.35-4.49,1.06c-1.35.7-2.2,1.91-2.55,3.61h-13.13c.23-3.23,1.32-5.99,3.26-8.28,1.94-2.35,4.4-4.17,7.4-5.46,3.05-1.29,6.31-1.94,9.78-1.94,4.05,0,7.61.76,10.66,2.29,3.11,1.47,5.52,3.61,7.22,6.43,1.7,2.76,2.55,6.11,2.55,10.04v11.19c0,1.29.18,2.29.53,3,.41.7,1.44,1.06,3.08,1.06v10.75c-2.82,0-5.17-.18-7.05-.53-1.88-.35-3.47-1-4.76-1.94-1.29-1-2.47-2.44-3.52-4.32-1.94,2.58-4.23,4.55-6.87,5.9-2.64,1.29-5.76,1.94-9.34,1.94ZM267.35,82.6c1.7,0,3.26-.35,4.67-1.06,1.47-.76,2.64-1.82,3.52-3.17.88-1.35,1.32-2.88,1.32-4.58v-.53h-8.37c-1.17,0-2.26.18-3.26.53-1,.29-1.79.79-2.38,1.5-.59.65-.88,1.56-.88,2.73,0,1.7.56,2.91,1.67,3.61,1.12.65,2.35.97,3.7.97ZM313.11,91.94c-5.17,0-9.07-1.26-11.72-3.79-2.58-2.53-3.88-6.4-3.88-11.63v-17.09h-4.58v-11.19h4.58v-10.84h13.57v10.84h8.9v11.19h-8.9v17.27c0,1.47.29,2.47.88,3,.65.47,1.7.7,3.17.7h4.85v11.54h-6.87ZM331.36,44.37c-2.29,0-4.26-.82-5.9-2.47-1.64-1.64-2.47-3.61-2.47-5.9s.82-4.26,2.47-5.9c1.64-1.64,3.61-2.47,5.9-2.47,2.41,0,4.41.82,5.99,2.47,1.59,1.64,2.38,3.61,2.38,5.9s-.79,4.26-2.38,5.9c-1.59,1.64-3.58,2.47-5.99,2.47ZM324.58,91.94v-43.7h13.57v43.7h-13.57ZM364.73,93c-4.41,0-8.28-.94-11.63-2.82-3.35-1.88-5.99-4.52-7.93-7.93-1.88-3.47-2.82-7.52-2.82-12.16s.91-8.4,2.73-11.81c1.82-3.47,4.41-6.17,7.75-8.11,3.35-2,7.31-3,11.89-3,5.17,0,9.69,1.35,13.57,4.05,3.88,2.64,6.49,6.87,7.84,12.69h-14.54c-.59-1.7-1.5-2.97-2.73-3.79-1.17-.88-2.64-1.32-4.4-1.32-1.94,0-3.52.53-4.76,1.59-1.17,1.06-2.06,2.44-2.64,4.14-.53,1.7-.79,3.55-.79,5.55s.26,3.79.79,5.55c.59,1.7,1.47,3.08,2.64,4.14,1.23,1.06,2.82,1.59,4.76,1.59,1.76,0,3.23-.44,4.4-1.32,1.23-.88,2.14-2.14,2.73-3.79h14.54c-.82,3.58-2.23,6.61-4.23,9.07s-4.46,4.38-7.4,5.73c-2.88,1.29-6.14,1.94-9.78,1.94Z"/>
    </g>
  </g>
</svg>