<?xml version="1.0" encoding="UTF-8"?>
<svg id="Layer_2" xmlns="http://www.w3.org/2000/svg" viewBox="0 0 250 223.57">
  <defs>
    <style>
      .cls-1 {
        fill: #f9b214;
      }

      .cls-2 {
        fill: #2c699a;
      }

      .cls-3 {
        fill: #1b1f3b;
      }

      .cls-4 {
        fill: #fff;
      }

      .cls-5 {
        fill: #c2371e;
      }
    </style>
  </defs>
  <g id="Layer_1-2" data-name="Layer_1">
    <g>
      <g>
        <polygon class="cls-3" points="63.7 106.56 63.32 36.09 124.64 1.37 186.3 37.1 186.67 105.74 125.38 142.3 63.7 106.56"/>
        <path class="cls-3" d="M124.63,2.74c20.16,11.68,40.33,23.36,60.49,35.05.12,22.43.24,44.85.36,67.28-20.04,11.95-40.07,23.9-60.11,35.85l-60.49-35.05c-.12-23.03-.25-46.06-.37-69.09,20.04-11.35,40.08-22.69,60.12-34.04"/>
        <polyline points="125.39 143.68 126.6 142.96 159.38 123.41 186.7 107.11 187.87 106.42 187.87 105.06 187.67 67.72 187.5 37.78 187.5 36.41 186.32 35.73 154.47 17.28 125.83 .69 124.65 0 124.65 0 124.64 0 123.46 .67 63.34 34.71 62.13 35.4 62.13 36.8 62.51 105.88 62.51 107.25 63.69 107.93 124.18 142.98 125.39 143.68"/>
        <path class="cls-3" d="M68.36,43.92c17.36,10.06,34.72,20.12,52.08,30.18-5.86-9.94-11.73-19.89-17.6-29.83l-34.49-.34h0Z"/>
        <g>
          <polygon class="cls-2" points="123.15 67.48 68.65 36.4 124.53 4.7 178.82 36.45 159.17 67.48 123.15 67.48"/>
          <path d="M124.52,6.07c17.54,10.26,35.09,20.52,52.63,30.78l-18.64,29.43c-11.69,0-23.37,0-35.06,0l-52.4-29.88c17.82-10.11,35.64-20.22,53.46-30.33M124.54,3.33l-1.19.68-53.46,30.33-3.64,2.07,3.63,2.07,52.4,29.88.55.31h36.99l.7-1.11,18.64-29.43,1.32-2.08-2.13-1.24L125.72,4.02l-1.18-.69h0Z"/>
        </g>
        <g>
          <polygon class="cls-1" points="67.05 104.81 67.15 42.7 103.53 43.08 121.63 73.77 121.54 136.38 67.05 104.81"/>
          <path d="M68.33,43.9c11.51.12,23.01.24,34.52.36,5.86,9.94,11.73,19.89,17.6,29.83l-.09,60.22-52.11-30.19.09-60.22M65.96,41.5v2.4s-.1,60.22-.1,60.22v1.37l1.19.69,52.11,30.19,3.57,2.07v-4.12s.1-60.22.1-60.22v-.65l-.33-.56-2.32-3.94-15.27-25.89-.68-1.16h-1.34s-11.26-.13-11.26-.13l-23.26-.24-2.4-.02h0Z"/>
        </g>
        <g>
          <polygon class="cls-5" points="111.76 103.94 129.29 72.43 137.86 67.5 159.16 67.46 171.44 48.18 183.56 41.21 183.46 104.18 129.64 135.15 111.76 103.94"/>
          <path d="M182.37,43.27c-.03,20.07-.06,40.15-.09,60.22l-52.2,30.03c-5.65-9.86-11.3-19.72-16.95-29.59l17.04-30.64,8.01-4.61c7.21-.01,14.42-.02,21.63-.04,4.16-6.53,8.31-13.06,12.47-19.59,3.36-1.93,6.72-3.87,10.08-5.8M184.75,39.15l-3.57,2.06-5.5,3.16-4.58,2.64-.51.29-.31.49-4.16,6.53-7.62,11.96-9.51.02-10.82.02h-.63l-.55.32-8.01,4.61-.57.33-.32.58-8.52,15.32-8.52,15.32-.65,1.17.67,1.17,6.91,12.06,10.04,17.53,1.18,2.07,2.07-1.19,52.2-30.03,1.19-.69v-1.37l.05-30.11.05-30.11v-4.12h0,0Z"/>
        </g>
        <g>
          <path class="cls-3" d="M119.12,24.16c-.03.53.38,1.12,1.09,1.58l.16.1c.59.38.98.85,1.07,1.3l1.37,6.44-10.48-1.28c-.9-.87-2.1-1.65-3.48-2.25-4.3-1.88-9.23-1.64-11.01.54l8.43.99,3.29,2.88-2.2,2.24-8.43-.99c.44.42.96.83,1.56,1.22.58.37,1.21.71,1.88,1.01,4.3,1.89,9.24,1.65,11.04-.53l10.47,1.19.49,2.32-2.24.45c-.88.18-1.35.7-1.21,1.35l1.72,8.11c.2.94,1.61,1.85,3.15,2.03l6.25.74c1.54.18,2.62-.44,2.42-1.38l-1.72-8.11c-.14-.65-.86-1.31-1.86-1.71l-2.56-1.02-.5-2.34,10.37,1.18c.47.47,1.03.92,1.67,1.33,3.69,2.39,8.98,3.01,11.82,1.4,2.84-1.61,2.16-4.86-1.52-7.24-.64-.41-1.34-.78-2.09-1.1-4.34-1.83-9.23-1.51-10.91.71l-10.39-1.27-1.37-6.46c-.1-.45.1-.85.56-1.11l.12-.07c.55-.31.73-.84.46-1.4l-3.09-6.58-3.94-.46-.38,6.18h0ZM126.68,42.72c.77.09,1.47.55,1.57,1.02l1.54,7.25c.1.47-.44.78-1.21.69-.77-.09-1.47-.55-1.58-1.02l-1.54-7.25h0c-.1-.47.44-.78,1.21-.69h0ZM141.9,35.65l.96-.48,1.48.36,1.4-.02,1.22.74,1.46.44.64.91,1.13.79-.12.85.5.92-.85.55-.27.81-1.35.11-.96.48-1.48-.36-1.4.02-1.22-.74-1.46-.44-.64-.91-1.13-.79.12-.85-.5-.92.85-.55.27-.81,1.35-.11Z"/>
          <g>
            <path class="cls-3" d="M153.63,112.75c-3.36,1.4-6.67,1.9-10.03,1.85-1.41-.02-1.61-.44-1.44-2.53.36-4.57,2.34-7.77,5.07-10.31.74-.68,1.4-.92,2.19-.71,2.54.67,5.02-.18,7.36-2.3.62-.56,1.14-.62,1.73-.45,1.95.57,3.58,1.72,4.38,4.38.29.98.38,2.15.52,3.25.1.78-.18,1.29-.7,1.71-2.89,2.32-5.91,4.22-9.07,5.11Z"/>
            <path class="cls-3" d="M146.85,92.23c-.13-4.78,2.44-9.12,5.77-9.87,3.18-.71,5.77,2.29,5.89,6.73.12,4.52-2.24,8.94-5.4,9.93-3.38,1.06-6.28-2.21-6.26-6.79Z"/>
            <path class="cls-3" d="M168.05,81.03c.14,5.84-3.93,10.73-7.59,8.87-.56-.28-.87-.77-.93-1.71-.13-2-.63-3.73-1.61-5.05-.47-.64-.56-1.35-.34-2.33.77-3.51,2.95-6.31,5.16-6.6,2.47-.32,4.48,1.66,5.15,5.07.11.55.12,1.16.17,1.75Z"/>
            <path class="cls-3" d="M165.5,102.71c-1.18.43-1.17.42-1.65-.98-.89-2.62-2.43-4.09-4.4-4.8-.22-.08-.45-.14-.67-.21-.76-.24-.8-.49-.38-1.6.26-.68.5-1.39.69-2.1.19-.7.47-1.06.95-.93,2.4.63,4.65-.28,6.79-2.38.16-.16.4-.24.58-.19,1.87.54,3.59,1.4,4.47,4.04.36,1.08.5,2.37.69,3.59.1.62-.1,1.16-.54,1.51-2.11,1.68-4.3,3.13-6.54,4.06Z"/>
          </g>
          <g>
            <path class="cls-3" d="M96.06,78.2c-.02.34-.03.69-.07,1.02-.06.5.09.93.44,1.36.32.39.64.8.95,1.21.37.49.73.64,1.11.54.31-.09.63-.18.95-.23.44-.07.7.1,1.01.68.34.64.65,1.29.94,1.95.22.49.2.9-.06,1.17-.26.27-.5.56-.76.81-.27.27-.32.66-.18,1.19.14.52.28,1.05.41,1.57.13.51.37.85.75,1.07.39.22.77.46,1.15.71.43.28.63.6.68,1.17.05.7.06,1.39.06,2.07,0,.46-.26.61-.6.58-.39-.04-.78-.08-1.18-.13-.35-.05-.57.1-.65.51-.1.45-.21.9-.33,1.34-.11.41-.03.81.25,1.25.28.45.55.91.81,1.37.31.55.36.92.13,1.31-.25.42-.52.82-.81,1.18-.26.33-.52.3-.93-.06-.38-.33-.75-.67-1.12-1.03-.31-.31-.58-.38-.85-.22-.36.21-.71.41-1.07.62-.24.13-.31.41-.26.79.07.55.14,1.1.19,1.64.06.67-.05.86-.52.92-.39.05-.78.08-1.18.09-.56,0-.82-.22-1.15-1-.2-.47-.4-.95-.59-1.42-.17-.41-.4-.65-.72-.77-.42-.15-.85-.3-1.28-.48-.37-.15-.62-.05-.78.27-.18.38-.35.77-.55,1.13-.25.46-.45.5-.97.14-.45-.31-.9-.65-1.34-1.01-.5-.42-.63-.76-.61-1.41.02-.5.03-1,.05-1.51.01-.34-.09-.66-.33-.96-.42-.52-.82-1.07-1.27-1.54-.18-.2-.48-.31-.68-.3-.4.02-.77.15-1.16.22-.49.1-.74-.06-1.11-.73-.32-.59-.64-1.19-.93-1.8-.27-.58-.26-.9.02-1.23.24-.29.5-.56.76-.82.29-.28.32-.7.15-1.26-.14-.46-.28-.92-.39-1.38-.15-.59-.41-1.01-.88-1.26-.39-.21-.77-.46-1.15-.71-.48-.33-.69-.66-.74-1.28-.06-.66-.09-1.31-.09-1.95,0-.54.19-.75.63-.71.37.03.75.09,1.13.15.42.06.69-.08.78-.6.07-.44.18-.86.29-1.27.13-.47.02-.93-.31-1.44-.28-.43-.55-.88-.81-1.33-.37-.63-.42-1.01-.17-1.45.24-.43.52-.83.8-1.21.29-.38.54-.35,1.02.08.4.36.8.74,1.19,1.12.33.31.62.41.9.25.37-.22.74-.42,1.11-.63.26-.15.31-.48.26-.91-.07-.54-.15-1.08-.21-1.61-.08-.71.03-.95.51-1,.47-.05.95-.07,1.44-.03.48.04.71.3.98.95.21.51.41,1.02.61,1.53.2.51.47.85.87.98.4.14.8.31,1.21.49.41.18.69.08.87-.32.16-.37.33-.74.51-1.09.26-.49.46-.54.98-.18.43.3.85.63,1.26.99.6.53.68.77.66,1.86ZM86.35,86.91c.07,3.73,2.48,7.64,5.42,8.84,2.89,1.18,5.21-.83,5.17-4.48-.04-3.67-2.41-7.65-5.31-8.87-3.02-1.27-5.36.73-5.29,4.51Z"/>
            <path class="cls-3" d="M101.31,73.64c-.05-.39-.07-.63-.11-.88-.06-.42-.16-.85-.19-1.26-.06-.85.31-1.35.9-1.24.63.12,1.19.77,1.38,1.65.12.56.2,1.12.29,1.69.21,1.24.42,2.47.62,3.7.16.99-.15,1.56-.84,1.54-1.33-.04-2.67-.09-4.02-.16-.71-.04-1.35-.71-1.56-1.6-.22-.93.13-1.6.85-1.6.42,0,.84.03,1.26.04v-.15c-.12-.17-.25-.36-.39-.52-2.94-3.46-6.13-5.75-9.54-6.86-3.3-1.07-6.3-.92-8.8.74-5.02,3.34-6.76,9.52-5.2,18.32.18,1.01.51,2.04.74,3.06.08.36.17.75.15,1.07-.04.61-.43.89-.92.76-.57-.16-1.01-.62-1.25-1.4-.26-.83-.49-1.67-.69-2.51-.91-3.83-1.17-7.47-.73-10.86.59-4.53,2.2-8.03,4.91-10.33,3.74-3.18,8.34-3.49,13.67-1.04,3.2,1.47,6.16,3.93,8.88,7.17.16.19.32.37.59.68Z"/>
            <path class="cls-3" d="M82.22,104.32c.1.74.18,1.33.26,1.91.1.68-.06,1.14-.5,1.33-.67.29-1.58-.53-1.8-1.64-.2-1.04-.35-2.08-.52-3.13-.12-.71-.23-1.43-.34-2.14-.16-1.01.13-1.57.87-1.52,1.3.09,2.61.2,3.92.35.66.07,1.25.78,1.41,1.61.16.81-.17,1.44-.78,1.44-.37,0-.75-.04-1.25-.07.22.28.33.44.45.58,5.82,6.34,12.95,8.39,17.85,5.16,3.09-2.03,4.88-5.51,5.41-10.38.32-2.95.04-6.1-.8-9.41-.05-.18-.09-.36-.12-.54-.15-.85.12-1.41.68-1.44.51-.02,1.11.53,1.32,1.34.27,1.04.52,2.08.68,3.11,1.28,7.88.07,13.97-3.68,18.09-3.54,3.89-8.22,4.59-13.84,2.3-3.06-1.24-5.96-3.42-8.69-6.39-.14-.16-.3-.3-.56-.57Z"/>
          </g>
        </g>
        <g>
          <path class="cls-4" d="M119.12,24.16c-.03.53.38,1.12,1.09,1.58l.16.1c.59.38.98.85,1.07,1.3l1.37,6.44-10.48-1.28c-.9-.87-2.1-1.65-3.48-2.25-4.3-1.88-9.23-1.64-11.01.54l8.43.99,3.29,2.88-2.2,2.24-8.43-.99c.44.42.96.83,1.56,1.22.58.37,1.21.71,1.88,1.01,4.3,1.89,9.24,1.65,11.04-.53l10.47,1.19.49,2.32-2.24.45c-.88.18-1.35.7-1.21,1.35l1.72,8.11c.2.94,1.61,1.85,3.15,2.03l6.25.74c1.54.18,2.62-.44,2.42-1.38l-1.72-8.11c-.14-.65-.86-1.31-1.86-1.71l-2.56-1.02-.5-2.34,10.37,1.18c.47.47,1.03.92,1.67,1.33,3.69,2.39,8.98,3.01,11.82,1.4,2.84-1.61,2.16-4.86-1.52-7.24-.64-.41-1.34-.78-2.09-1.1-4.34-1.83-9.23-1.51-10.91.71l-10.39-1.27-1.37-6.46c-.1-.45.1-.85.56-1.11l.12-.07c.55-.31.73-.84.46-1.4l-3.09-6.58-3.94-.46-.38,6.18h0ZM126.68,42.72c.77.09,1.47.55,1.57,1.02l1.54,7.25c.1.47-.44.78-1.21.69-.77-.09-1.47-.55-1.58-1.02l-1.54-7.25h0c-.1-.47.44-.78,1.21-.69h0ZM141.9,35.65l.96-.48,1.48.36,1.4-.02,1.22.74,1.46.44.64.91,1.13.79-.12.85.5.92-.85.55-.27.81-1.35.11-.96.48-1.48-.36-1.4.02-1.22-.74-1.46-.44-.64-.91-1.13-.79.12-.85-.5-.92.85-.55.27-.81,1.35-.11Z"/>
          <g>
            <path class="cls-4" d="M153.63,112.75c-3.36,1.4-6.67,1.9-10.03,1.85-1.41-.02-1.61-.44-1.44-2.53.36-4.57,2.34-7.77,5.07-10.31.74-.68,1.4-.92,2.19-.71,2.54.67,5.02-.18,7.36-2.3.62-.56,1.14-.62,1.73-.45,1.95.57,3.58,1.72,4.38,4.38.29.98.38,2.15.52,3.25.1.78-.18,1.29-.7,1.71-2.89,2.32-5.91,4.22-9.07,5.11Z"/>
            <path class="cls-4" d="M146.85,92.23c-.13-4.78,2.44-9.12,5.77-9.87,3.18-.71,5.77,2.29,5.89,6.73.12,4.52-2.24,8.94-5.4,9.93-3.38,1.06-6.28-2.21-6.26-6.79Z"/>
            <path class="cls-4" d="M168.05,81.03c.14,5.84-3.93,10.73-7.59,8.87-.56-.28-.87-.77-.93-1.71-.13-2-.63-3.73-1.61-5.05-.47-.64-.56-1.35-.34-2.33.77-3.51,2.95-6.31,5.16-6.6,2.47-.32,4.48,1.66,5.15,5.07.11.55.12,1.16.17,1.75Z"/>
            <path class="cls-4" d="M165.5,102.71c-1.18.43-1.17.42-1.65-.98-.89-2.62-2.43-4.09-4.4-4.8-.22-.08-.45-.14-.67-.21-.76-.24-.8-.49-.38-1.6.26-.68.5-1.39.69-2.1.19-.7.47-1.06.95-.93,2.4.63,4.65-.28,6.79-2.38.16-.16.4-.24.58-.19,1.87.54,3.59,1.4,4.47,4.04.36,1.08.5,2.37.69,3.59.1.62-.1,1.16-.54,1.51-2.11,1.68-4.3,3.13-6.54,4.06Z"/>
          </g>
          <g>
            <path class="cls-4" d="M96.06,78.2c-.02.34-.03.69-.07,1.02-.06.5.09.93.44,1.36.32.39.64.8.95,1.21.37.49.73.64,1.11.54.31-.09.63-.18.95-.23.44-.07.7.1,1.01.68.34.64.65,1.29.94,1.95.22.49.2.9-.06,1.17-.26.27-.5.56-.76.81-.27.27-.32.66-.18,1.19.14.52.28,1.05.41,1.57.13.51.37.85.75,1.07.39.22.77.46,1.15.71.43.28.63.6.68,1.17.05.7.06,1.39.06,2.07,0,.46-.26.61-.6.58-.39-.04-.78-.08-1.18-.13-.35-.05-.57.1-.65.51-.1.45-.21.9-.33,1.34-.11.41-.03.81.25,1.25.28.45.55.91.81,1.37.31.55.36.92.13,1.31-.25.42-.52.82-.81,1.18-.26.33-.52.3-.93-.06-.38-.33-.75-.67-1.12-1.03-.31-.31-.58-.38-.85-.22-.36.21-.71.41-1.07.62-.24.13-.31.41-.26.79.07.55.14,1.1.19,1.64.06.67-.05.86-.52.92-.39.05-.78.08-1.18.09-.56,0-.82-.22-1.15-1-.2-.47-.4-.95-.59-1.42-.17-.41-.4-.65-.72-.77-.42-.15-.85-.3-1.28-.48-.37-.15-.62-.05-.78.27-.18.38-.35.77-.55,1.13-.25.46-.45.5-.97.14-.45-.31-.9-.65-1.34-1.01-.5-.42-.63-.76-.61-1.41.02-.5.03-1,.05-1.51.01-.34-.09-.66-.33-.96-.42-.52-.82-1.07-1.27-1.54-.18-.2-.48-.31-.68-.3-.4.02-.77.15-1.16.22-.49.1-.74-.06-1.11-.73-.32-.59-.64-1.19-.93-1.8-.27-.58-.26-.9.02-1.23.24-.29.5-.56.76-.82.29-.28.32-.7.15-1.26-.14-.46-.28-.92-.39-1.38-.15-.59-.41-1.01-.88-1.26-.39-.21-.77-.46-1.15-.71-.48-.33-.69-.66-.74-1.28-.06-.66-.09-1.31-.09-1.95,0-.54.19-.75.63-.71.37.03.75.09,1.13.15.42.06.69-.08.78-.6.07-.44.18-.86.29-1.27.13-.47.02-.93-.31-1.44-.28-.43-.55-.88-.81-1.33-.37-.63-.42-1.01-.17-1.45.24-.43.52-.83.8-1.21.29-.38.54-.35,1.02.08.4.36.8.74,1.19,1.12.33.31.62.41.9.25.37-.22.74-.42,1.11-.63.26-.15.31-.48.26-.91-.07-.54-.15-1.08-.21-1.61-.08-.71.03-.95.51-1,.47-.05.95-.07,1.44-.03.48.04.71.3.98.95.21.51.41,1.02.61,1.53.2.51.47.85.87.98.4.14.8.31,1.21.49.41.18.69.08.87-.32.16-.37.33-.74.51-1.09.26-.49.46-.54.98-.18.43.3.85.63,1.26.99.6.53.68.77.66,1.86ZM86.35,86.91c.07,3.73,2.48,7.64,5.42,8.84,2.89,1.18,5.21-.83,5.17-4.48-.04-3.67-2.41-7.65-5.31-8.87-3.02-1.27-5.36.73-5.29,4.51Z"/>
            <path class="cls-4" d="M101.31,73.64c-.05-.39-.07-.63-.11-.88-.06-.42-.16-.85-.19-1.26-.06-.85.31-1.35.9-1.24.63.12,1.19.77,1.38,1.65.12.56.2,1.12.29,1.69.21,1.24.42,2.47.62,3.7.16.99-.15,1.56-.84,1.54-1.33-.04-2.67-.09-4.02-.16-.71-.04-1.35-.71-1.56-1.6-.22-.93.13-1.6.85-1.6.42,0,.84.03,1.26.04v-.15c-.12-.17-.25-.36-.39-.52-2.94-3.46-6.13-5.75-9.54-6.86-3.3-1.07-6.3-.92-8.8.74-5.02,3.34-6.76,9.52-5.2,18.32.18,1.01.51,2.04.74,3.06.08.36.17.75.15,1.07-.04.61-.43.89-.92.76-.57-.16-1.01-.62-1.25-1.4-.26-.83-.49-1.67-.69-2.51-.91-3.83-1.17-7.47-.73-10.86.59-4.53,2.2-8.03,4.91-10.33,3.74-3.18,8.34-3.49,13.67-1.04,3.2,1.47,6.16,3.93,8.88,7.17.16.19.32.37.59.68Z"/>
            <path class="cls-4" d="M82.22,104.32c.1.74.18,1.33.26,1.91.1.68-.06,1.14-.5,1.33-.67.29-1.58-.53-1.8-1.64-.2-1.04-.35-2.08-.52-3.13-.12-.71-.23-1.43-.34-2.14-.16-1.01.13-1.57.87-1.52,1.3.09,2.61.2,3.92.35.66.07,1.25.78,1.41,1.61.16.81-.17,1.44-.78,1.44-.37,0-.75-.04-1.25-.07.22.28.33.44.45.58,5.82,6.34,12.95,8.39,17.85,5.16,3.09-2.03,4.88-5.51,5.41-10.38.32-2.95.04-6.1-.8-9.41-.05-.18-.09-.36-.12-.54-.15-.85.12-1.41.68-1.44.51-.02,1.11.53,1.32,1.34.27,1.04.52,2.08.68,3.11,1.28,7.88.07,13.97-3.68,18.09-3.54,3.89-8.22,4.59-13.84,2.3-3.06-1.24-5.96-3.42-8.69-6.39-.14-.16-.3-.3-.56-.57Z"/>
          </g>
        </g>
      </g>
      <path d="M49.75,222.88v-32.18h-11.47v-7.76h31.95v7.76h-11.53v32.18h-8.96ZM73.72,223.57c-1.64,0-3.16-.32-4.56-.97-1.41-.68-2.55-1.65-3.42-2.91-.84-1.29-1.26-2.85-1.26-4.68,0-2.09.55-3.78,1.65-5.08,1.1-1.33,2.57-2.3,4.39-2.91,1.86-.61,3.9-.91,6.11-.91h6.39c0-.99-.17-1.86-.51-2.62-.34-.76-.86-1.35-1.54-1.77-.68-.46-1.54-.68-2.57-.68s-2.04.23-2.91.68c-.88.46-1.43,1.24-1.65,2.34h-8.5c.15-2.09.86-3.88,2.11-5.36,1.26-1.52,2.85-2.7,4.79-3.54,1.98-.84,4.09-1.26,6.33-1.26,2.62,0,4.93.49,6.9,1.48,2.02.95,3.58,2.34,4.68,4.17,1.1,1.79,1.65,3.96,1.65,6.5v7.25c0,.84.11,1.48.34,1.94.27.46.93.68,2,.68v6.96c-1.83,0-3.35-.11-4.56-.34-1.22-.23-2.24-.65-3.08-1.26-.84-.65-1.6-1.58-2.28-2.8-1.26,1.67-2.74,2.95-4.45,3.82-1.71.84-3.73,1.26-6.05,1.26ZM76.8,216.83c1.1,0,2.11-.23,3.02-.68.95-.49,1.71-1.18,2.28-2.05.57-.87.86-1.86.86-2.97v-.34h-5.42c-.76,0-1.46.11-2.11.34-.65.19-1.16.51-1.54.97-.38.42-.57,1.01-.57,1.77,0,1.1.36,1.88,1.08,2.34.72.42,1.52.63,2.4.63ZM109.84,223.57c-2.85,0-5.36-.61-7.53-1.83-2.17-1.22-3.88-2.93-5.14-5.14-1.22-2.24-1.83-4.87-1.83-7.87s.59-5.44,1.77-7.65c1.18-2.24,2.85-3.99,5.02-5.25,2.17-1.29,4.74-1.94,7.7-1.94,3.35,0,6.28.87,8.79,2.62,2.51,1.71,4.2,4.45,5.08,8.22h-9.41c-.38-1.1-.97-1.92-1.77-2.45-.76-.57-1.71-.86-2.85-.86-1.26,0-2.28.34-3.08,1.03-.76.68-1.33,1.58-1.71,2.68-.34,1.1-.51,2.3-.51,3.59s.17,2.45.51,3.59c.38,1.1.95,2,1.71,2.68.8.68,1.83,1.03,3.08,1.03,1.14,0,2.09-.29,2.85-.86.8-.57,1.39-1.39,1.77-2.45h9.41c-.53,2.32-1.45,4.28-2.74,5.88-1.29,1.6-2.89,2.83-4.79,3.71-1.86.84-3.97,1.26-6.33,1.26ZM137.54,222.88c-3.35,0-5.88-.82-7.59-2.45-1.67-1.64-2.51-4.15-2.51-7.53v-11.07h-2.97v-7.25h2.97v-7.02h8.79v7.02h5.76v7.25h-5.76v11.18c0,.95.19,1.6.57,1.94.42.3,1.1.46,2.05.46h3.14v7.47h-4.45ZM149.35,192.07c-1.48,0-2.76-.53-3.82-1.6-1.06-1.07-1.6-2.34-1.6-3.82s.53-2.76,1.6-3.82c1.07-1.07,2.34-1.6,3.82-1.6,1.56,0,2.85.53,3.88,1.6,1.03,1.07,1.54,2.34,1.54,3.82s-.51,2.76-1.54,3.82c-1.03,1.07-2.32,1.6-3.88,1.6ZM144.96,222.88v-28.3h8.79v28.3h-8.79ZM170.97,223.57c-2.85,0-5.36-.61-7.53-1.83-2.17-1.22-3.88-2.93-5.14-5.14-1.22-2.24-1.83-4.87-1.83-7.87s.59-5.44,1.77-7.65c1.18-2.24,2.85-3.99,5.02-5.25,2.17-1.29,4.74-1.94,7.7-1.94,3.35,0,6.28.87,8.79,2.62,2.51,1.71,4.2,4.45,5.08,8.22h-9.41c-.38-1.1-.97-1.92-1.77-2.45-.76-.57-1.71-.86-2.85-.86-1.26,0-2.28.34-3.08,1.03-.76.68-1.33,1.58-1.71,2.68-.34,1.1-.51,2.3-.51,3.59s.17,2.45.51,3.59c.38,1.1.95,2,1.71,2.68.8.68,1.83,1.03,3.08,1.03,1.14,0,2.09-.29,2.85-.86.8-.57,1.39-1.39,1.77-2.45h9.41c-.53,2.32-1.45,4.28-2.74,5.88-1.29,1.6-2.89,2.83-4.79,3.71-1.86.84-3.97,1.26-6.33,1.26ZM200.03,223.57c-2.05,0-4.09-.36-6.11-1.08-1.98-.76-3.63-1.86-4.96-3.31-1.33-1.48-2.07-3.31-2.23-5.48h8.73c.15,1.07.65,1.9,1.48,2.51.87.57,1.86.86,2.97.86.91,0,1.71-.17,2.4-.51.72-.38,1.08-.99,1.08-1.83,0-.68-.32-1.22-.97-1.6-.65-.42-1.41-.74-2.28-.97-.84-.23-1.58-.42-2.23-.57-1.79-.46-3.46-.97-5.02-1.54-1.56-.57-2.83-1.41-3.82-2.51-.95-1.1-1.43-2.66-1.43-4.68s.53-3.58,1.6-4.91c1.06-1.33,2.49-2.34,4.28-3.02,1.79-.68,3.75-1.03,5.88-1.03,3.35,0,6.11.84,8.27,2.51,2.21,1.64,3.5,4.07,3.88,7.3h-8.16c-.19-1.14-.67-1.96-1.43-2.45-.76-.53-1.71-.8-2.85-.8-.84,0-1.58.17-2.23.51-.65.3-.97.87-.97,1.71,0,.68.3,1.24.91,1.65.65.38,1.39.67,2.23.86.84.19,1.6.38,2.28.57,1.83.46,3.5.99,5.02,1.6,1.56.61,2.83,1.48,3.82,2.62.99,1.1,1.5,2.7,1.54,4.79,0,1.86-.55,3.46-1.65,4.79-1.07,1.29-2.49,2.28-4.28,2.97-1.75.68-3.67,1.03-5.76,1.03Z"/>
      <path d="M0,178.68v-39.93h15.86c2.74,0,5.21.49,7.42,1.48,2.21.99,3.94,2.41,5.19,4.28,1.29,1.86,1.94,4.09,1.94,6.67s-.63,4.77-1.88,6.67c-1.22,1.86-2.93,3.31-5.13,4.33-2.17,1.03-4.68,1.54-7.53,1.54h-6.84v14.94H0ZM9.01,156.04h6.62c2.13,0,3.59-.48,4.39-1.43.84-.99,1.25-2.13,1.25-3.42,0-1.22-.42-2.3-1.25-3.25-.8-.99-2.26-1.48-4.39-1.48h-6.62v9.58ZM32.17,178.68v-28.29h8.78v4.39c.99-1.44,2.24-2.64,3.76-3.59,1.52-.99,3.27-1.48,5.25-1.48v9.3h-2.45c-2.21,0-3.86.49-4.96,1.48-1.06.99-1.6,2.62-1.6,4.91v13.29h-8.78ZM59.72,179.37c-1.63,0-3.16-.32-4.56-.97-1.41-.68-2.55-1.65-3.42-2.91-.84-1.29-1.25-2.85-1.25-4.68,0-2.09.55-3.78,1.65-5.08,1.1-1.33,2.57-2.3,4.39-2.91,1.86-.61,3.9-.91,6.1-.91h6.39c0-.99-.17-1.86-.51-2.62-.34-.76-.86-1.35-1.54-1.77-.68-.46-1.54-.68-2.57-.68s-2.03.23-2.91.68-1.43,1.24-1.65,2.34h-8.5c.15-2.09.86-3.88,2.11-5.36,1.25-1.52,2.85-2.7,4.79-3.54,1.98-.84,4.09-1.25,6.33-1.25,2.62,0,4.92.49,6.9,1.48,2.02.95,3.57,2.34,4.68,4.16,1.1,1.79,1.65,3.95,1.65,6.5v7.24c0,.84.11,1.48.34,1.94.27.46.93.68,2,.68v6.96c-1.83,0-3.35-.11-4.56-.34-1.22-.23-2.24-.65-3.08-1.25-.84-.65-1.6-1.58-2.28-2.79-1.25,1.67-2.74,2.95-4.45,3.82-1.71.84-3.73,1.25-6.05,1.25ZM62.8,172.64c1.1,0,2.11-.23,3.02-.68.95-.49,1.71-1.18,2.28-2.05.57-.87.86-1.86.86-2.97v-.34h-5.42c-.76,0-1.46.11-2.11.34-.65.19-1.16.51-1.54.97-.38.42-.57,1.01-.57,1.77,0,1.1.36,1.88,1.08,2.34.72.42,1.52.63,2.4.63ZM94.8,191.92c-2.59,0-4.91-.29-6.96-.86-2.05-.57-3.69-1.5-4.91-2.79-1.18-1.25-1.77-2.91-1.77-4.96,0-1.33.29-2.49.86-3.48.57-.95,1.45-1.79,2.62-2.51-.99-.57-1.73-1.29-2.22-2.17-.49-.87-.74-1.88-.74-3.02,0-2.51,1.14-4.41,3.42-5.7-.84-.87-1.46-1.84-1.88-2.91-.42-1.1-.63-2.28-.63-3.54,0-2.09.49-3.9,1.48-5.42,1.03-1.56,2.43-2.76,4.22-3.59,1.79-.84,3.82-1.25,6.1-1.25,1.71,0,3.25.23,4.62.68h10.15v5.87h-3.59c.19.53.34,1.12.46,1.77.15.61.23,1.25.23,1.94,0,2.05-.53,3.86-1.6,5.42-1.03,1.52-2.43,2.72-4.22,3.59-1.79.84-3.8,1.25-6.05,1.25-.84,0-1.63-.06-2.4-.17-.72-.15-1.43-.36-2.11-.63-.65.3-.97.8-.97,1.48,0,1.22.99,1.83,2.97,1.83h5.82c2.28,0,4.26.32,5.93.97,1.67.65,2.97,1.63,3.88,2.97.91,1.33,1.37,3.06,1.37,5.19,0,2.28-.67,4.16-2,5.65-1.29,1.48-3.02,2.59-5.19,3.31-2.13.72-4.43,1.08-6.9,1.08ZM95.03,185.47c1.56,0,2.91-.25,4.05-.74,1.14-.49,1.71-1.27,1.71-2.34,0-1.94-1.33-2.91-3.99-2.91h-3.54c-1.29,0-2.28.23-2.97.68-.68.49-1.03,1.24-1.03,2.22,0,.76.27,1.37.8,1.83.53.46,1.24.78,2.11.97s1.83.29,2.85.29ZM94.4,163.85c1.25,0,2.28-.36,3.08-1.08.8-.72,1.2-1.65,1.2-2.79s-.4-2.02-1.2-2.74c-.8-.76-1.83-1.14-3.08-1.14s-2.32.38-3.08,1.14c-.76.72-1.14,1.64-1.14,2.74s.38,2.07,1.14,2.79,1.79,1.08,3.08,1.08ZM111.38,178.68v-28.29h8.78v3.19c.99-1.25,2.17-2.21,3.54-2.85,1.41-.68,2.93-1.03,4.56-1.03,1.79,0,3.56.44,5.3,1.31s3.14,2.22,4.16,4.05c.91-1.44,2.17-2.7,3.76-3.76,1.6-1.06,3.46-1.6,5.59-1.6,2.28,0,4.28.46,5.99,1.37,1.71.91,3.02,2.28,3.94,4.11.95,1.79,1.43,4.01,1.43,6.67v16.83h-8.73v-15.69c0-1.79-.44-3.18-1.31-4.16-.87-1.03-2.17-1.54-3.88-1.54s-3.06.51-3.94,1.54c-.84,1.03-1.25,2.41-1.25,4.16v15.69h-8.78v-15.69c0-1.71-.44-3.08-1.31-4.11-.84-1.06-2.13-1.6-3.88-1.6s-3,.51-3.88,1.54c-.87.99-1.31,2.38-1.31,4.16v15.69h-8.78ZM170.01,179.37c-1.63,0-3.16-.32-4.56-.97-1.41-.68-2.55-1.65-3.42-2.91-.84-1.29-1.25-2.85-1.25-4.68,0-2.09.55-3.78,1.65-5.08,1.1-1.33,2.57-2.3,4.39-2.91,1.86-.61,3.9-.91,6.1-.91h6.39c0-.99-.17-1.86-.51-2.62-.34-.76-.86-1.35-1.54-1.77-.68-.46-1.54-.68-2.57-.68s-2.03.23-2.91.68c-.87.46-1.43,1.24-1.65,2.34h-8.5c.15-2.09.86-3.88,2.11-5.36,1.25-1.52,2.85-2.7,4.79-3.54,1.98-.84,4.09-1.25,6.33-1.25,2.62,0,4.92.49,6.9,1.48,2.02.95,3.57,2.34,4.68,4.16,1.1,1.79,1.65,3.95,1.65,6.5v7.24c0,.84.11,1.48.34,1.94.27.46.93.68,2,.68v6.96c-1.83,0-3.35-.11-4.56-.34-1.22-.23-2.24-.65-3.08-1.25-.84-.65-1.6-1.58-2.28-2.79-1.25,1.67-2.74,2.95-4.45,3.82-1.71.84-3.73,1.25-6.05,1.25ZM173.09,172.64c1.1,0,2.11-.23,3.02-.68.95-.49,1.71-1.18,2.28-2.05.57-.87.86-1.86.86-2.97v-.34h-5.42c-.76,0-1.46.11-2.11.34-.65.19-1.16.51-1.54.97-.38.42-.57,1.01-.57,1.77,0,1.1.36,1.88,1.08,2.34.72.42,1.52.63,2.4.63ZM202.72,178.68c-3.35,0-5.87-.82-7.59-2.45-1.67-1.63-2.51-4.14-2.51-7.53v-11.07h-2.97v-7.24h2.97v-7.02h8.78v7.02h5.76v7.24h-5.76v11.18c0,.95.19,1.6.57,1.94.42.3,1.1.46,2.05.46h3.14v7.47h-4.45ZM214.54,147.88c-1.48,0-2.76-.53-3.82-1.6-1.06-1.06-1.6-2.34-1.6-3.82s.53-2.76,1.6-3.82c1.06-1.06,2.34-1.6,3.82-1.6,1.56,0,2.85.53,3.88,1.6,1.03,1.06,1.54,2.34,1.54,3.82s-.51,2.76-1.54,3.82c-1.03,1.06-2.32,1.6-3.88,1.6ZM210.14,178.68v-28.29h8.78v28.29h-8.78ZM236.14,179.37c-2.85,0-5.36-.61-7.53-1.83-2.17-1.22-3.88-2.93-5.13-5.13-1.22-2.24-1.83-4.87-1.83-7.87s.59-5.44,1.77-7.64c1.18-2.24,2.85-3.99,5.02-5.25,2.17-1.29,4.73-1.94,7.7-1.94,3.35,0,6.27.87,8.78,2.62,2.51,1.71,4.2,4.45,5.08,8.21h-9.41c-.38-1.1-.97-1.92-1.77-2.45-.76-.57-1.71-.86-2.85-.86-1.25,0-2.28.34-3.08,1.03-.76.68-1.33,1.58-1.71,2.68-.34,1.1-.51,2.3-.51,3.59s.17,2.45.51,3.59c.38,1.1.95,2,1.71,2.68.8.68,1.83,1.03,3.08,1.03,1.14,0,2.09-.29,2.85-.86.8-.57,1.39-1.39,1.77-2.45h9.41c-.53,2.32-1.45,4.28-2.74,5.87s-2.89,2.83-4.79,3.71c-1.86.84-3.97,1.25-6.33,1.25Z"/>
    </g>
  </g>
</svg>