<?xml version="1.0" encoding="UTF-8"?>
<svg id="Layer_2" xmlns="http://www.w3.org/2000/svg" viewBox="0 0 569.447 192.34">
  <defs>
    <style>
      .cls-1 {
        fill: #f9b214;
      }

      .cls-2 {
        fill: #2c699a;
      }

      .cls-3 {
        stroke: #000;
        stroke-miterlimit: 10;
        stroke-width: 3px;
      }

      .cls-3, .cls-4 {
        fill: #fff;
      }

      .cls-5 {
        fill: #1b1f3b;
      }

      .cls-6 {
        fill: #c2371e;
      }
    </style>
  </defs>
  <g id="Layer_1-2" data-name="Layer_1">
    <g>
      <g>
        <path d="M484.741,0c28.066,16.26,56.136,32.524,84.202,48.784.169,31.219.334,62.438.503,93.657-27.891,16.634-55.781,33.265-83.672,49.9l-84.202-48.784c-.172-32.057-.344-64.113-.517-96.17,27.894-15.797,55.791-31.59,83.685-47.386"/>
        <g>
          <polygon class="cls-2" points="482.678 90.113 406.822 46.86 484.606 2.729 560.171 46.929 532.826 90.116 482.678 90.113"/>
          <path d="M484.592,4.64c24.42,14.283,48.84,28.57,73.263,42.853l-25.94,40.968c-16.267,0-32.534,0-48.8-.003l-72.946-41.594c24.808-14.074,49.615-28.149,74.423-42.223M484.619.818l-1.659.941-74.423,42.223-5.064,2.875,5.057,2.884,72.946,41.594.762.434h51.496l.974-1.54,25.94-40.968,1.835-2.898-2.961-1.732L486.258,1.778l-1.646-.964h0l.007.003Z"/>
        </g>
        <g>
          <polygon class="cls-1" points="404.593 142.083 404.722 55.626 455.37 56.149 480.569 98.872 480.436 186.025 404.593 142.083"/>
          <path d="M406.375,57.298c16.015.166,32.03.331,48.045.497,8.163,13.843,16.326,27.685,24.493,41.528l-.126,83.831-72.535-42.025.126-83.831M403.07,53.953l-.007,3.341-.126,83.831v1.911l1.653.957,72.535,42.025,4.964,2.875.01-5.736.126-83.831v-.907l-.46-.782-3.235-5.487-21.257-36.044-.95-1.609-1.868-.02-15.671-.162-32.375-.334-3.341-.033h0l.003.007Z"/>
        </g>
        <g>
          <polygon class="cls-6" points="466.829 140.874 491.226 97.011 503.161 90.143 532.807 90.093 549.901 63.252 566.771 53.546 566.638 141.198 491.712 184.309 466.829 140.874"/>
          <path d="M565.112,56.411c-.043,27.944-.083,55.887-.126,83.831l-72.661,41.806c-7.865-13.727-15.73-27.457-23.592-41.184l23.718-42.647,11.154-6.418c10.038-.017,20.075-.033,30.113-.05,5.789-9.087,11.574-18.178,17.363-27.265,4.676-2.692,9.355-5.381,14.031-8.074M568.433,50.678l-4.971,2.861-7.65,4.401-6.382,3.673-.705.404-.437.686-5.789,9.087-10.601,16.648-13.243.023-15.055.023h-.881l-.765.44-11.154,6.418-.795.457-.447.801-11.859,21.324-11.859,21.324-.907,1.633.931,1.623,9.617,16.79,13.975,24.397,1.649,2.878,2.875-1.656,72.661-41.806,1.656-.954v-1.911l.066-41.915.063-41.915.01-5.736h0l-.003.003Z"/>
        </g>
        <g>
          <path class="cls-5" d="M477.065,29.809c-.046.732.523,1.553,1.523,2.199l.219.142c.821.53,1.358,1.186,1.494,1.815l1.901,8.968-14.594-1.778c-1.255-1.212-2.924-2.292-4.838-3.13-5.984-2.623-12.846-2.285-15.326.748l11.74,1.381,4.577,4.014-3.063,3.116-11.736-1.381c.606.586,1.331,1.156,2.166,1.696.805.52,1.689.99,2.623,1.401,5.991,2.633,12.869,2.302,15.366-.732l14.581,1.656.685,3.229-3.123.629c-1.229.248-1.881.974-1.689,1.874l2.398,11.283c.278,1.311,2.242,2.58,4.381,2.831l8.696,1.023c2.139.252,3.649-.609,3.371-1.921l-2.398-11.283c-.192-.901-1.195-1.821-2.593-2.378l-3.56-1.417-.692-3.255,14.439,1.639c.656.659,1.437,1.282,2.321,1.855,5.13,3.322,12.495,4.196,16.452,1.951,3.957-2.245,3.007-6.762-2.123-10.084-.888-.573-1.868-1.086-2.911-1.527-6.047-2.55-12.846-2.106-15.191.993l-14.465-1.762-1.911-8.994c-.136-.633.146-1.189.782-1.55l.166-.096c.772-.437,1.013-1.162.646-1.947l-4.302-9.163-5.484-.646-.523,8.597-.003.003ZM487.589,55.65c1.07.126,2.05.762,2.189,1.417l2.146,10.087c.139.656-.616,1.09-1.689.96-1.073-.126-2.053-.762-2.196-1.417l-2.146-10.087h0c-.139-.656.619-1.086,1.689-.96h.007ZM508.784,45.814l1.341-.666,2.063.5,1.951-.03,1.702,1.023,2.037.616.884,1.272,1.576,1.096-.172,1.179.695,1.282-1.179.772-.374,1.126-1.874.156-1.341.666-2.063-.5-1.951.03-1.702-1.023-2.037-.616-.884-1.272-1.576-1.096.172-1.179-.695-1.282,1.179-.772.374-1.126,1.874-.156Z"/>
          <g>
            <path class="cls-5" d="M525.109,153.135c-4.674,1.954-9.279,2.641-13.966,2.573-1.965-.028-2.24-.611-2.011-3.525.501-6.368,3.252-10.822,7.053-14.345,1.027-.952,1.951-1.282,3.042-.994,3.534.934,6.985-.255,10.251-3.204.866-.782,1.587-.867,2.413-.626,2.711.788,4.977,2.391,6.094,6.101.409,1.359.526,2.988.725,4.519.142,1.092-.255,1.8-.981,2.383-4.019,3.23-8.229,5.877-12.62,7.118Z"/>
            <path class="cls-5" d="M515.666,124.571c-.186-6.65,3.399-12.699,8.032-13.738,4.433-.994,8.035,3.187,8.201,9.368.17,6.299-3.116,12.45-7.52,13.825-4.708,1.47-8.742-3.074-8.713-9.456Z"/>
            <path class="cls-5" d="M545.182,108.978c.197,8.135-5.474,14.938-10.567,12.351-.779-.396-1.215-1.067-1.298-2.378-.175-2.787-.879-5.197-2.24-7.032-.658-.887-.777-1.883-.479-3.244,1.071-4.892,4.112-8.787,7.178-9.183,3.44-.445,6.23,2.313,7.168,7.055.152.767.162,1.62.237,2.432Z"/>
            <path class="cls-5" d="M541.635,139.151c-1.639.593-1.628.582-2.292-1.369-1.244-3.652-3.378-5.693-6.121-6.677-.307-.11-.622-.192-.932-.292-1.051-.338-1.114-.679-.525-2.23.362-.953.696-1.932.967-2.926.267-.978.66-1.47,1.316-1.299,3.34.871,6.472-.392,9.446-3.319.224-.22.564-.33.801-.261,2.597.752,4.999,1.949,6.216,5.624.496,1.498.703,3.293.967,4.993.133.858-.143,1.621-.745,2.102-2.933,2.345-5.987,4.358-9.098,5.654Z"/>
          </g>
          <g>
            <path class="cls-5" d="M444.971,105.045c-.032.476-.046.962-.101,1.423-.082.689.121,1.297.608,1.889.45.548.892,1.111,1.321,1.688.51.687,1.014.893,1.544.747.437-.121.875-.245,1.329-.315.607-.094.974.134,1.407.951.469.885.899,1.799,1.31,2.715.308.687.285,1.253-.078,1.63-.357.371-.693.776-1.058,1.134-.376.369-.441.924-.252,1.654.188.73.385,1.458.567,2.186.176.705.512,1.189,1.038,1.49.537.307,1.071.641,1.601.988.601.393.881.83.941,1.627.072.976.09,1.939.078,2.882-.008.645-.361.851-.834.805-.543-.052-1.088-.106-1.636-.181-.482-.066-.787.144-.909.713-.136.633-.291,1.252-.453,1.865-.151.57-.042,1.133.341,1.747.391.626.764,1.268,1.129,1.913.437.771.504,1.277.18,1.826-.346.586-.726,1.137-1.134,1.644-.365.454-.717.412-1.294-.088-.526-.455-1.048-.93-1.557-1.434-.435-.431-.813-.523-1.178-.31-.495.289-.992.576-1.491.859-.33.187-.433.564-.366,1.098.094.761.199,1.525.262,2.277.079.934-.071,1.193-.728,1.277-.537.069-1.083.111-1.637.121-.78.014-1.137-.309-1.596-1.39-.28-.658-.558-1.317-.825-1.981-.232-.576-.563-.911-1.009-1.066-.591-.206-1.184-.42-1.777-.663-.509-.208-.859-.075-1.081.382-.255.524-.49,1.07-.763,1.574-.347.642-.629.692-1.347.197-.628-.433-1.252-.905-1.863-1.411-.7-.579-.883-1.052-.847-1.961.028-.696.045-1.398.073-2.096.019-.478-.126-.924-.455-1.332-.582-.723-1.147-1.487-1.768-2.143-.257-.272-.669-.431-.949-.42-.561.022-1.079.203-1.618.308-.681.133-1.029-.079-1.54-1.011-.451-.822-.89-1.658-1.292-2.51-.382-.811-.361-1.256.026-1.713.339-.401.694-.782,1.062-1.142.399-.391.447-.977.215-1.753-.191-.64-.388-1.282-.547-1.924-.206-.827-.575-1.409-1.228-1.76-.538-.289-1.075-.635-1.607-.995-.67-.454-.956-.916-1.037-1.783-.085-.915-.123-1.82-.131-2.709-.007-.752.271-1.04.884-.995.52.039,1.05.121,1.578.204.579.09.963-.109,1.079-.834.099-.617.247-1.202.41-1.773.186-.655.031-1.296-.436-2.006-.394-.6-.766-1.226-1.132-1.854-.513-.879-.59-1.406-.238-2.025.34-.598.717-1.159,1.119-1.681.408-.531.749-.489,1.418.111.561.502,1.112,1.033,1.663,1.56.453.433.865.571,1.246.348.512-.3,1.028-.591,1.544-.884.368-.209.435-.672.355-1.264-.101-.749-.215-1.501-.294-2.246-.105-.983.046-1.321.715-1.395.65-.072,1.318-.101,1.999-.042.667.058.987.411,1.365,1.324.293.707.573,1.418.854,2.127.278.703.651,1.177,1.212,1.366.558.188,1.12.43,1.679.677.575.254.966.108,1.206-.444.224-.516.453-1.029.706-1.514.357-.684.645-.75,1.358-.245.592.419,1.18.88,1.751,1.379.842.735.945,1.072.916,2.586ZM431.453,117.16c.103,5.198,3.452,10.628,7.546,12.3,4.019,1.641,7.25-1.155,7.198-6.23-.052-5.11-3.349-10.653-7.386-12.352-4.202-1.768-7.463,1.016-7.359,6.282Z"/>
            <path class="cls-5" d="M452.278,98.695c-.067-.547-.101-.882-.15-1.22-.084-.585-.216-1.184-.259-1.756-.089-1.186.437-1.878,1.248-1.728.871.161,1.65,1.069,1.915,2.296.17.785.272,1.566.403,2.347.288,1.721.583,3.439.857,5.149.22,1.373-.207,2.177-1.168,2.148-1.857-.054-3.723-.131-5.597-.228-.986-.051-1.876-.99-2.168-2.231-.303-1.289.187-2.232,1.183-2.231.579,0,1.167.04,1.751.061.007-.07.014-.14.02-.21-.187-.243-.368-.497-.563-.727-4.09-4.819-8.533-8.005-13.276-9.545-4.593-1.492-8.769-1.283-12.249,1.029-6.992,4.645-9.403,13.252-7.235,25.495.249,1.407.706,2.842,1.037,4.258.118.503.232,1.045.204,1.492-.054.855-.605,1.239-1.286,1.052-.791-.217-1.408-.865-1.743-1.951-.357-1.157-.681-2.325-.956-3.488-1.262-5.327-1.63-10.395-1.017-15.12.819-6.305,3.066-11.177,6.835-14.378,5.209-4.424,11.614-4.859,19.029-1.442,4.448,2.05,8.571,5.465,12.366,9.981.221.263.447.517.819.947Z"/>
            <path class="cls-5" d="M425.707,141.404c.143,1.036.25,1.848.368,2.661.138.952-.082,1.593-.69,1.858-.933.407-2.203-.734-2.5-2.281-.28-1.453-.491-2.901-.727-4.355-.161-.992-.315-1.984-.469-2.978-.218-1.406.18-2.186,1.208-2.118,1.816.119,3.638.284,5.464.488.915.102,1.74,1.091,1.967,2.236.223,1.125-.24,2.005-1.092,2.008-.515.002-1.048-.06-1.743-.104.304.392.455.619.628.808,8.102,8.829,18.032,11.675,24.851,7.189,4.295-2.826,6.792-7.675,7.526-14.446.444-4.101.052-8.491-1.107-13.102-.063-.252-.128-.506-.172-.757-.209-1.182.166-1.967.949-2,.714-.03,1.547.737,1.843,1.861.381,1.443.722,2.901.953,4.332,1.775,10.97.104,19.446-5.118,25.181-4.933,5.417-11.438,6.385-19.265,3.206-4.265-1.732-8.289-4.766-12.09-8.895-.2-.218-.411-.417-.783-.791Z"/>
          </g>
        </g>
        <g>
          <path class="cls-4" d="M477.065,29.809c-.046.732.523,1.553,1.523,2.199l.219.142c.821.53,1.358,1.186,1.494,1.815l1.901,8.968-14.594-1.778c-1.255-1.212-2.924-2.292-4.838-3.13-5.984-2.623-12.846-2.285-15.326.748l11.74,1.381,4.577,4.014-3.063,3.116-11.736-1.381c.606.586,1.331,1.156,2.166,1.696.805.52,1.689.99,2.623,1.401,5.991,2.633,12.869,2.302,15.366-.732l14.581,1.656.685,3.229-3.123.629c-1.229.248-1.881.974-1.689,1.874l2.398,11.283c.278,1.311,2.242,2.58,4.381,2.831l8.696,1.023c2.139.252,3.649-.609,3.371-1.921l-2.398-11.283c-.192-.901-1.195-1.821-2.593-2.378l-3.56-1.417-.692-3.255,14.439,1.639c.656.659,1.437,1.282,2.321,1.855,5.13,3.322,12.495,4.196,16.452,1.951,3.957-2.245,3.007-6.762-2.123-10.084-.888-.573-1.868-1.086-2.911-1.527-6.047-2.55-12.846-2.106-15.191.993l-14.465-1.762-1.911-8.994c-.136-.633.146-1.189.782-1.55l.166-.096c.772-.437,1.013-1.162.646-1.947l-4.302-9.163-5.484-.646-.523,8.597-.003.003ZM487.589,55.65c1.07.126,2.05.762,2.189,1.417l2.146,10.087c.139.656-.616,1.09-1.689.96-1.073-.126-2.053-.762-2.196-1.417l-2.146-10.087h0c-.139-.656.619-1.086,1.689-.96h.007ZM508.784,45.814l1.341-.666,2.063.5,1.951-.03,1.702,1.023,2.037.616.884,1.272,1.576,1.096-.172,1.179.695,1.282-1.179.772-.374,1.126-1.874.156-1.341.666-2.063-.5-1.951.03-1.702-1.023-2.037-.616-.884-1.272-1.576-1.096.172-1.179-.695-1.282,1.179-.772.374-1.126,1.874-.156Z"/>
          <g>
            <path class="cls-4" d="M525.109,153.135c-4.674,1.954-9.279,2.641-13.966,2.573-1.965-.028-2.24-.611-2.011-3.525.501-6.368,3.252-10.822,7.053-14.345,1.027-.952,1.951-1.282,3.042-.994,3.534.934,6.985-.255,10.251-3.204.866-.782,1.587-.867,2.413-.626,2.711.788,4.977,2.391,6.094,6.101.409,1.359.526,2.988.725,4.519.142,1.092-.255,1.8-.981,2.383-4.019,3.23-8.229,5.877-12.62,7.118Z"/>
            <path class="cls-4" d="M515.666,124.571c-.186-6.65,3.399-12.699,8.032-13.738,4.433-.994,8.035,3.187,8.201,9.368.17,6.299-3.116,12.45-7.52,13.825-4.708,1.47-8.742-3.074-8.713-9.456Z"/>
            <path class="cls-4" d="M545.182,108.978c.197,8.135-5.474,14.938-10.567,12.351-.779-.396-1.215-1.067-1.298-2.378-.175-2.787-.879-5.197-2.24-7.032-.658-.887-.777-1.883-.479-3.244,1.071-4.892,4.112-8.787,7.178-9.183,3.44-.445,6.23,2.313,7.168,7.055.152.767.162,1.62.237,2.432Z"/>
            <path class="cls-4" d="M541.635,139.151c-1.639.593-1.628.582-2.292-1.369-1.244-3.652-3.378-5.693-6.121-6.677-.307-.11-.622-.192-.932-.292-1.051-.338-1.114-.679-.525-2.23.362-.953.696-1.932.967-2.926.267-.978.66-1.47,1.316-1.299,3.34.871,6.472-.392,9.446-3.319.224-.22.564-.33.801-.261,2.597.752,4.999,1.949,6.216,5.624.496,1.498.703,3.293.967,4.993.133.858-.143,1.621-.745,2.102-2.933,2.345-5.987,4.358-9.098,5.654Z"/>
          </g>
          <g>
            <path class="cls-4" d="M444.971,105.045c-.032.476-.046.962-.101,1.423-.082.689.121,1.297.608,1.889.45.548.892,1.111,1.321,1.688.51.687,1.014.893,1.544.747.437-.121.875-.245,1.329-.315.607-.094.974.134,1.407.951.469.885.899,1.799,1.31,2.715.308.687.285,1.253-.078,1.63-.357.371-.693.776-1.058,1.134-.376.369-.441.924-.252,1.654.188.73.385,1.458.567,2.186.176.705.512,1.189,1.038,1.49.537.307,1.071.641,1.601.988.601.393.881.83.941,1.627.072.976.09,1.939.078,2.882-.008.645-.361.851-.834.805-.543-.052-1.088-.106-1.636-.181-.482-.066-.787.144-.909.713-.136.633-.291,1.252-.453,1.865-.151.57-.042,1.133.341,1.747.391.626.764,1.268,1.129,1.913.437.771.504,1.277.18,1.826-.346.586-.726,1.137-1.134,1.644-.365.454-.717.412-1.294-.088-.526-.455-1.048-.93-1.557-1.434-.435-.431-.813-.523-1.178-.31-.495.289-.992.576-1.491.859-.33.187-.433.564-.366,1.098.094.761.199,1.525.262,2.277.079.934-.071,1.193-.728,1.277-.537.069-1.083.111-1.637.121-.78.014-1.137-.309-1.596-1.39-.28-.658-.558-1.317-.825-1.981-.232-.576-.563-.911-1.009-1.066-.591-.206-1.184-.42-1.777-.663-.509-.208-.859-.075-1.081.382-.255.524-.49,1.07-.763,1.574-.347.642-.629.692-1.347.197-.628-.433-1.252-.905-1.863-1.411-.7-.579-.883-1.052-.847-1.961.028-.696.045-1.398.073-2.096.019-.478-.126-.924-.455-1.332-.582-.723-1.147-1.487-1.768-2.143-.257-.272-.669-.431-.949-.42-.561.022-1.079.203-1.618.308-.681.133-1.029-.079-1.54-1.011-.451-.822-.89-1.658-1.292-2.51-.382-.811-.361-1.256.026-1.713.339-.401.694-.782,1.062-1.142.399-.391.447-.977.215-1.753-.191-.64-.388-1.282-.547-1.924-.206-.827-.575-1.409-1.228-1.76-.538-.289-1.075-.635-1.607-.995-.67-.454-.956-.916-1.037-1.783-.085-.915-.123-1.82-.131-2.709-.007-.752.271-1.04.884-.995.52.039,1.05.121,1.578.204.579.09.963-.109,1.079-.834.099-.617.247-1.202.41-1.773.186-.655.031-1.296-.436-2.006-.394-.6-.766-1.226-1.132-1.854-.513-.879-.59-1.406-.238-2.025.34-.598.717-1.159,1.119-1.681.408-.531.749-.489,1.418.111.561.502,1.112,1.033,1.663,1.56.453.433.865.571,1.246.348.512-.3,1.028-.591,1.544-.884.368-.209.435-.672.355-1.264-.101-.749-.215-1.501-.294-2.246-.105-.983.046-1.321.715-1.395.65-.072,1.318-.101,1.999-.042.667.058.987.411,1.365,1.324.293.707.573,1.418.854,2.127.278.703.651,1.177,1.212,1.366.558.188,1.12.43,1.679.677.575.254.966.108,1.206-.444.224-.516.453-1.029.706-1.514.357-.684.645-.75,1.358-.245.592.419,1.18.88,1.751,1.379.842.735.945,1.072.916,2.586ZM431.453,117.16c.103,5.198,3.452,10.628,7.546,12.3,4.019,1.641,7.25-1.155,7.198-6.23-.052-5.11-3.349-10.653-7.386-12.352-4.202-1.768-7.463,1.016-7.359,6.282Z"/>
            <path class="cls-4" d="M452.278,98.695c-.067-.547-.101-.882-.15-1.22-.084-.585-.216-1.184-.259-1.756-.089-1.186.437-1.878,1.248-1.728.871.161,1.65,1.069,1.915,2.296.17.785.272,1.566.403,2.347.288,1.721.583,3.439.857,5.149.22,1.373-.207,2.177-1.168,2.148-1.857-.054-3.723-.131-5.597-.228-.986-.051-1.876-.99-2.168-2.231-.303-1.289.187-2.232,1.183-2.231.579,0,1.167.04,1.751.061.007-.07.014-.14.02-.21-.187-.243-.368-.497-.563-.727-4.09-4.819-8.533-8.005-13.276-9.545-4.593-1.492-8.769-1.283-12.249,1.029-6.992,4.645-9.403,13.252-7.235,25.495.249,1.407.706,2.842,1.037,4.258.118.503.232,1.045.204,1.492-.054.855-.605,1.239-1.286,1.052-.791-.217-1.408-.865-1.743-1.951-.357-1.157-.681-2.325-.956-3.488-1.262-5.327-1.63-10.395-1.017-15.12.819-6.305,3.066-11.177,6.835-14.378,5.209-4.424,11.614-4.859,19.029-1.442,4.448,2.05,8.571,5.465,12.366,9.981.221.263.447.517.819.947Z"/>
            <path class="cls-4" d="M425.707,141.404c.143,1.036.25,1.848.368,2.661.138.952-.082,1.593-.69,1.858-.933.407-2.203-.734-2.5-2.281-.28-1.453-.491-2.901-.727-4.355-.161-.992-.315-1.984-.469-2.978-.218-1.406.18-2.186,1.208-2.118,1.816.119,3.638.284,5.464.488.915.102,1.74,1.091,1.967,2.236.223,1.125-.24,2.005-1.092,2.008-.515.002-1.048-.06-1.743-.104.304.392.455.619.628.808,8.102,8.829,18.032,11.675,24.851,7.189,4.295-2.826,6.792-7.675,7.526-14.446.444-4.101.052-8.491-1.107-13.102-.063-.252-.128-.506-.172-.757-.209-1.182.166-1.967.949-2,.714-.03,1.547.737,1.843,1.861.381,1.443.722,2.901.953,4.332,1.775,10.97.104,19.446-5.118,25.181-4.933,5.417-11.438,6.385-19.265,3.206-4.265-1.732-8.289-4.766-12.09-8.895-.2-.218-.411-.417-.783-.791Z"/>
          </g>
        </g>
      </g>
      <path class="cls-3" d="M191.454,145.098v-38.819h-13.834v-9.361h38.544v9.361h-13.903v38.819h-10.806ZM220.375,145.924c-1.973,0-3.809-.39-5.506-1.17-1.698-.826-3.075-1.996-4.13-3.51-1.01-1.56-1.514-3.441-1.514-5.644,0-2.524.665-4.565,1.996-6.126,1.33-1.606,3.097-2.776,5.3-3.51,2.248-.734,4.703-1.101,7.365-1.101h7.709c0-1.193-.206-2.249-.619-3.166-.413-.917-1.032-1.629-1.858-2.134-.826-.551-1.858-.826-3.097-.826-1.285,0-2.455.275-3.51.826-1.056.551-1.721,1.492-1.996,2.822h-10.255c.183-2.524,1.032-4.68,2.547-6.47,1.514-1.836,3.441-3.258,5.782-4.267,2.386-1.01,4.932-1.514,7.64-1.514,3.166,0,5.942.597,8.328,1.79,2.432,1.147,4.313,2.822,5.644,5.024,1.33,2.156,1.996,4.772,1.996,7.846v8.741c0,1.01.138,1.79.413,2.34.321.551,1.124.826,2.409.826v8.397c-2.203,0-4.038-.138-5.506-.413-1.469-.275-2.708-.78-3.717-1.514-1.01-.78-1.927-1.904-2.753-3.373-1.514,2.019-3.304,3.556-5.369,4.611-2.065,1.01-4.497,1.514-7.296,1.514ZM224.092,137.802c1.33,0,2.547-.275,3.648-.826,1.147-.597,2.065-1.423,2.753-2.478.688-1.055,1.032-2.249,1.032-3.579v-.413h-6.539c-.918,0-1.767.138-2.547.413-.781.229-1.4.619-1.858,1.17-.459.504-.688,1.216-.688,2.134,0,1.33.436,2.271,1.308,2.822.871.505,1.835.757,2.891.757ZM263.941,145.924c-3.441,0-6.47-.734-9.085-2.202s-4.68-3.533-6.195-6.195c-1.468-2.707-2.203-5.873-2.203-9.498,0-3.488.712-6.561,2.134-9.223,1.423-2.707,3.441-4.818,6.057-6.332,2.615-1.56,5.713-2.34,9.292-2.34,4.038,0,7.571,1.055,10.599,3.166,3.028,2.065,5.071,5.369,6.126,9.911h-11.357c-.458-1.33-1.17-2.317-2.134-2.96-.917-.688-2.065-1.032-3.441-1.032-1.514,0-2.753.413-3.717,1.239-.917.826-1.606,1.904-2.065,3.235-.413,1.33-.619,2.776-.619,4.336,0,1.514.206,2.96.619,4.336.459,1.33,1.147,2.409,2.065,3.235.964.826,2.203,1.239,3.717,1.239,1.377,0,2.524-.344,3.441-1.032.964-.688,1.675-1.675,2.134-2.96h11.357c-.642,2.799-1.743,5.162-3.304,7.089-1.56,1.927-3.487,3.419-5.782,4.474-2.248,1.01-4.795,1.514-7.64,1.514ZM297.349,145.098c-4.037,0-7.089-.986-9.154-2.96-2.019-1.973-3.028-5.002-3.028-9.085v-13.353h-3.579v-8.741h3.579v-8.466h10.599v8.466h6.952v8.741h-6.952v13.49c0,1.147.23,1.927.688,2.34.505.367,1.331.551,2.478.551h3.786v9.016h-5.369ZM311.607,107.931c-1.79,0-3.326-.642-4.611-1.927-1.284-1.285-1.927-2.822-1.927-4.611s.643-3.326,1.927-4.611c1.285-1.285,2.822-1.927,4.611-1.927,1.882,0,3.441.642,4.68,1.927,1.239,1.285,1.858,2.822,1.858,4.611s-.619,3.326-1.858,4.611c-1.239,1.285-2.799,1.927-4.68,1.927ZM306.307,145.098v-34.139h10.599v34.139h-10.599ZM337.675,145.924c-3.441,0-6.47-.734-9.085-2.202-2.615-1.468-4.68-3.533-6.195-6.195-1.468-2.707-2.202-5.873-2.202-9.498,0-3.488.712-6.561,2.134-9.223,1.423-2.707,3.441-4.818,6.057-6.332,2.615-1.56,5.713-2.34,9.292-2.34,4.038,0,7.571,1.055,10.599,3.166,3.028,2.065,5.071,5.369,6.126,9.911h-11.357c-.458-1.33-1.17-2.317-2.134-2.96-.917-.688-2.065-1.032-3.441-1.032-1.514,0-2.753.413-3.717,1.239-.917.826-1.606,1.904-2.065,3.235-.413,1.33-.619,2.776-.619,4.336,0,1.514.206,2.96.619,4.336.459,1.33,1.147,2.409,2.065,3.235.964.826,2.203,1.239,3.717,1.239,1.377,0,2.524-.344,3.441-1.032.964-.688,1.675-1.675,2.134-2.96h11.357c-.642,2.799-1.743,5.162-3.304,7.089-1.56,1.927-3.487,3.419-5.782,4.474-2.248,1.01-4.795,1.514-7.64,1.514ZM372.728,145.924c-2.478,0-4.933-.436-7.365-1.308-2.386-.917-4.382-2.249-5.988-3.992-1.606-1.79-2.501-3.992-2.684-6.607h10.531c.183,1.285.78,2.294,1.79,3.028,1.055.688,2.248,1.032,3.579,1.032,1.101,0,2.065-.206,2.891-.619.871-.459,1.308-1.193,1.308-2.202,0-.826-.39-1.468-1.17-1.927-.78-.504-1.698-.895-2.753-1.17-1.01-.275-1.904-.505-2.684-.688-2.157-.551-4.176-1.17-6.057-1.858-1.882-.688-3.419-1.698-4.611-3.028-1.147-1.33-1.721-3.212-1.721-5.644,0-2.34.642-4.313,1.927-5.919,1.284-1.606,3.005-2.822,5.162-3.648,2.156-.826,4.519-1.239,7.089-1.239,4.037,0,7.365,1.01,9.98,3.028,2.661,1.973,4.221,4.909,4.68,8.81h-9.842c-.23-1.377-.803-2.363-1.721-2.96-.918-.642-2.065-.964-3.441-.964-1.01,0-1.904.206-2.684.619-.78.367-1.17,1.055-1.17,2.065,0,.826.367,1.491,1.101,1.996.78.459,1.675.803,2.684,1.032,1.009.229,1.927.459,2.753.688,2.203.551,4.221,1.193,6.057,1.927,1.881.734,3.418,1.79,4.611,3.166,1.193,1.33,1.812,3.258,1.858,5.782,0,2.249-.666,4.176-1.996,5.782-1.285,1.56-3.006,2.753-5.162,3.579-2.111.826-4.428,1.239-6.952,1.239Z"/>
      <path class="cls-3" d="M1.5,88.124V26.454h24.492c4.229,0,8.046.764,11.453,2.291,3.406,1.527,6.079,3.73,8.017,6.607,1.997,2.878,2.995,6.314,2.995,10.308,0,3.935-.969,7.371-2.907,10.308-1.879,2.878-4.522,5.11-7.929,6.696-3.348,1.586-7.224,2.379-11.629,2.379h-10.572v23.082H1.5ZM15.42,53.148h10.22c3.289,0,5.55-.734,6.784-2.202,1.292-1.527,1.938-3.289,1.938-5.286,0-1.879-.646-3.553-1.938-5.022-1.233-1.527-3.495-2.291-6.784-2.291h-10.22v14.801ZM51.191,88.124v-43.697h13.567v6.784c1.527-2.232,3.465-4.082,5.815-5.55,2.349-1.527,5.051-2.291,8.105-2.291v14.36h-3.788c-3.406,0-5.961.764-7.665,2.291-1.645,1.527-2.467,4.053-2.467,7.577v20.527h-13.567ZM93.746,89.181c-2.525,0-4.875-.499-7.048-1.498-2.173-1.057-3.935-2.555-5.286-4.493-1.292-1.997-1.938-4.405-1.938-7.224,0-3.23.851-5.844,2.555-7.841,1.703-2.056,3.964-3.553,6.784-4.493,2.878-.94,6.02-1.41,9.427-1.41h9.867c0-1.527-.264-2.878-.793-4.053-.529-1.175-1.321-2.085-2.379-2.731-1.057-.705-2.379-1.057-3.964-1.057-1.644,0-3.142.352-4.493,1.057s-2.202,1.909-2.555,3.612h-13.127c.235-3.23,1.321-5.991,3.26-8.281,1.938-2.349,4.405-4.17,7.4-5.462,3.054-1.292,6.314-1.938,9.779-1.938,4.053,0,7.606.764,10.66,2.291,3.113,1.468,5.521,3.612,7.224,6.431,1.703,2.76,2.555,6.108,2.555,10.043v11.189c0,1.292.176,2.291.529,2.995.411.705,1.439,1.057,3.083,1.057v10.748c-2.819,0-5.168-.176-7.048-.529-1.88-.352-3.465-.999-4.757-1.938-1.292-.999-2.467-2.437-3.524-4.317-1.938,2.584-4.229,4.552-6.872,5.903-2.643,1.292-5.756,1.938-9.339,1.938ZM98.503,78.785c1.703,0,3.26-.352,4.669-1.057,1.468-.763,2.643-1.821,3.524-3.172.881-1.351,1.321-2.878,1.321-4.581v-.529h-8.369c-1.175,0-2.261.176-3.26.529-.999.294-1.792.793-2.379,1.498-.587.646-.881,1.556-.881,2.731,0,1.703.558,2.907,1.674,3.612,1.116.646,2.349.969,3.7.969ZM147.924,108.563c-3.994,0-7.577-.44-10.748-1.321-3.172-.881-5.697-2.32-7.577-4.317-1.821-1.938-2.731-4.493-2.731-7.665,0-2.056.44-3.847,1.321-5.374.881-1.468,2.232-2.761,4.053-3.876-1.527-.881-2.673-1.997-3.436-3.348-.763-1.351-1.145-2.907-1.145-4.669,0-3.876,1.762-6.813,5.286-8.81-1.292-1.351-2.261-2.849-2.907-4.493-.646-1.703-.969-3.524-.969-5.462,0-3.23.763-6.02,2.291-8.369,1.586-2.408,3.759-4.258,6.519-5.55,2.761-1.292,5.903-1.938,9.427-1.938,2.643,0,5.022.352,7.136,1.057h15.682v9.074h-5.55c.294.822.529,1.733.705,2.731.235.94.352,1.938.352,2.995,0,3.172-.822,5.961-2.467,8.369-1.586,2.349-3.759,4.199-6.519,5.55-2.761,1.292-5.873,1.938-9.339,1.938-1.292,0-2.525-.088-3.7-.264-1.116-.235-2.202-.558-3.26-.969-.999.47-1.498,1.233-1.498,2.291,0,1.88,1.527,2.819,4.581,2.819h8.986c3.524,0,6.578.499,9.162,1.498,2.584.999,4.581,2.525,5.991,4.581,1.41,2.056,2.114,4.728,2.114,8.017,0,3.524-1.028,6.431-3.083,8.722-1.997,2.291-4.669,3.994-8.017,5.11-3.289,1.116-6.842,1.674-10.66,1.674ZM148.277,98.608c2.408,0,4.493-.382,6.255-1.145,1.762-.763,2.643-1.968,2.643-3.612,0-2.995-2.056-4.493-6.167-4.493h-5.462c-1.997,0-3.524.352-4.581,1.057-1.057.763-1.586,1.909-1.586,3.436,0,1.175.411,2.114,1.233,2.819.822.705,1.909,1.204,3.26,1.498s2.819.44,4.405.44ZM147.308,65.218c1.938,0,3.524-.558,4.757-1.674,1.233-1.116,1.85-2.555,1.85-4.317,0-1.703-.617-3.113-1.85-4.229-1.233-1.175-2.819-1.762-4.757-1.762-1.997,0-3.582.587-4.757,1.762-1.175,1.116-1.762,2.525-1.762,4.229,0,1.762.587,3.201,1.762,4.317s2.761,1.674,4.757,1.674ZM173.533,88.124v-43.697h13.567v4.934c1.527-1.938,3.348-3.407,5.462-4.405,2.173-1.057,4.523-1.586,7.048-1.586,2.761,0,5.492.675,8.193,2.026s4.845,3.436,6.431,6.255c1.41-2.232,3.348-4.17,5.815-5.815,2.467-1.645,5.344-2.467,8.634-2.467,3.524,0,6.607.705,9.25,2.114,2.643,1.41,4.669,3.524,6.079,6.343,1.468,2.76,2.203,6.196,2.203,10.308v25.989h-13.479v-24.227c0-2.76-.675-4.904-2.026-6.431-1.351-1.586-3.348-2.379-5.991-2.379-2.701,0-4.728.793-6.079,2.379-1.292,1.586-1.938,3.73-1.938,6.431v24.227h-13.567v-24.227c0-2.643-.675-4.757-2.026-6.343-1.292-1.645-3.289-2.467-5.991-2.467-2.643,0-4.64.793-5.991,2.379-1.351,1.527-2.026,3.671-2.026,6.431v24.227h-13.567ZM264.095,89.181c-2.525,0-4.875-.499-7.048-1.498-2.173-1.057-3.935-2.555-5.286-4.493-1.292-1.997-1.938-4.405-1.938-7.224,0-3.23.851-5.844,2.555-7.841,1.703-2.056,3.964-3.553,6.784-4.493,2.878-.94,6.02-1.41,9.427-1.41h9.867c0-1.527-.264-2.878-.793-4.053-.529-1.175-1.322-2.085-2.379-2.731-1.057-.705-2.379-1.057-3.964-1.057-1.644,0-3.142.352-4.493,1.057-1.351.705-2.202,1.909-2.555,3.612h-13.127c.235-3.23,1.322-5.991,3.26-8.281,1.938-2.349,4.405-4.17,7.4-5.462,3.054-1.292,6.314-1.938,9.779-1.938,4.053,0,7.606.764,10.66,2.291,3.113,1.468,5.521,3.612,7.224,6.431,1.703,2.76,2.555,6.108,2.555,10.043v11.189c0,1.292.176,2.291.529,2.995.411.705,1.439,1.057,3.083,1.057v10.748c-2.819,0-5.168-.176-7.048-.529-1.88-.352-3.465-.999-4.757-1.938-1.292-.999-2.467-2.437-3.524-4.317-1.938,2.584-4.229,4.552-6.872,5.903-2.643,1.292-5.756,1.938-9.339,1.938ZM268.852,78.785c1.703,0,3.26-.352,4.669-1.057,1.468-.763,2.643-1.821,3.524-3.172.881-1.351,1.322-2.878,1.322-4.581v-.529h-8.369c-1.175,0-2.261.176-3.26.529-.999.294-1.792.793-2.379,1.498-.587.646-.881,1.556-.881,2.731,0,1.703.558,2.907,1.674,3.612,1.116.646,2.349.969,3.7.969ZM314.615,88.124c-5.168,0-9.074-1.263-11.717-3.788-2.584-2.525-3.876-6.402-3.876-11.629v-17.091h-4.581v-11.189h4.581v-10.836h13.567v10.836h8.898v11.189h-8.898v17.268c0,1.468.294,2.467.881,2.995.646.47,1.703.705,3.172.705h4.845v11.541h-6.872ZM332.864,40.55c-2.291,0-4.258-.822-5.903-2.467-1.644-1.645-2.467-3.612-2.467-5.903s.822-4.258,2.467-5.903c1.644-1.645,3.612-2.467,5.903-2.467,2.408,0,4.405.822,5.991,2.467,1.586,1.645,2.379,3.612,2.379,5.903s-.793,4.258-2.379,5.903c-1.586,1.645-3.582,2.467-5.991,2.467ZM326.081,88.124v-43.697h13.567v43.697h-13.567ZM366.232,89.181c-4.405,0-8.281-.939-11.629-2.819-3.348-1.88-5.991-4.523-7.929-7.929-1.88-3.465-2.819-7.518-2.819-12.158,0-4.464.911-8.399,2.731-11.805,1.821-3.465,4.405-6.167,7.753-8.105,3.348-1.997,7.312-2.995,11.893-2.995,5.168,0,9.691,1.351,13.567,4.053,3.876,2.643,6.49,6.872,7.841,12.686h-14.536c-.587-1.703-1.498-2.966-2.731-3.788-1.175-.881-2.643-1.321-4.405-1.321-1.938,0-3.524.529-4.757,1.586-1.175,1.057-2.056,2.437-2.643,4.141-.529,1.703-.793,3.553-.793,5.55,0,1.938.264,3.788.793,5.55.587,1.703,1.468,3.083,2.643,4.141,1.233,1.057,2.819,1.586,4.757,1.586,1.762,0,3.23-.44,4.405-1.321,1.233-.881,2.144-2.144,2.731-3.788h14.536c-.822,3.582-2.232,6.607-4.229,9.074s-4.464,4.375-7.4,5.726c-2.878,1.292-6.137,1.938-9.779,1.938Z"/>
    </g>
  </g>
</svg>