<?xml version="1.0" encoding="UTF-8"?>
<svg id="Layer_2" xmlns="http://www.w3.org/2000/svg" viewBox="0 0 87.77 79.99">
  <defs>
    <style>
      .cls-1 {
        fill: #222935;
      }
    </style>
  </defs>
  <g id="Layer_2-2" data-name="Layer_2">
    <g>
      <path class="cls-1" d="M48.35,33.31c-1.39-.54-2.86-.82-4.36-.82-6.62,0-12.01,5.39-12.01,12.01,0,.6.49,1.09,1.09,1.09s1.09-.49,1.09-1.09c0-5.42,4.41-9.83,9.83-9.83,1.23,0,2.43.23,3.57.67.56.22,1.19-.06,1.41-.62.22-.56-.06-1.19-.62-1.41Z"/>
      <path class="cls-1" d="M33.07,48.32c-.6,0-1.09.49-1.09,1.09v6.6c0,.6.49,1.09,1.09,1.09s1.09-.49,1.09-1.09v-6.6c0-.6-.49-1.09-1.09-1.09Z"/>
      <path class="cls-1" d="M66.37,69.62h-4.9v-25.12c0-9.63-7.84-17.47-17.47-17.47s-17.47,7.84-17.47,17.47v25.12h-4.9c-3.05,0-5.54,2.48-5.54,5.54v3.74c0,.6.49,1.09,1.09,1.09h53.65c.6,0,1.09-.49,1.09-1.09v-3.74c0-3.05-2.48-5.54-5.54-5.54ZM28.7,44.5c0-8.43,6.86-15.29,15.29-15.29s15.29,6.86,15.29,15.29v25.12h-30.58v-25.12ZM69.72,77.81H18.26v-2.65c0-1.85,1.51-3.36,3.36-3.36h44.75c1.85,0,3.36,1.51,3.36,3.36v2.65Z"/>
      <path class="cls-1" d="M43.89,17.75c.6,0,1.09-.49,1.09-1.09V1.09c0-.6-.49-1.09-1.09-1.09s-1.09.49-1.09,1.09v15.56c0,.6.49,1.09,1.09,1.09Z"/>
      <path class="cls-1" d="M17.75,43.89c0-.6-.49-1.09-1.09-1.09H1.09c-.6,0-1.09.49-1.09,1.09s.49,1.09,1.09,1.09h15.56c.6,0,1.09-.49,1.09-1.09Z"/>
      <path class="cls-1" d="M86.68,42.8h-15.56c-.6,0-1.09.49-1.09,1.09s.49,1.09,1.09,1.09h15.56c.6,0,1.09-.49,1.09-1.09s-.49-1.09-1.09-1.09Z"/>
      <path class="cls-1" d="M29.33,20.85c.2.35.57.55.95.55.19,0,.37-.05.54-.15.52-.3.7-.97.4-1.49l-7.78-13.48c-.3-.52-.97-.7-1.49-.4-.52.3-.7.97-.4,1.49l7.78,13.48Z"/>
      <path class="cls-1" d="M67.47,31.36c.19,0,.37-.05.54-.15l13.48-7.78c.52-.3.7-.97.4-1.49-.3-.52-.97-.7-1.49-.4l-13.48,7.78c-.52.3-.7.97-.4,1.49.2.35.57.55.95.55Z"/>
      <path class="cls-1" d="M6.28,23.44l13.48,7.78c.17.1.36.15.54.15.38,0,.74-.2.95-.55.3-.52.12-1.19-.4-1.49l-13.48-7.78c-.52-.3-1.19-.12-1.49.4-.3.52-.12,1.19.4,1.49Z"/>
      <path class="cls-1" d="M56.96,21.25c.17.1.36.15.54.15.38,0,.74-.2.95-.55l7.78-13.48c.3-.52.12-1.19-.4-1.49-.52-.3-1.19-.12-1.49.4l-7.78,13.48c-.3.52-.12,1.19.4,1.49Z"/>
    </g>
  </g>
</svg>