<?xml version="1.0" encoding="UTF-8"?>
<svg id="Layer_2" xmlns="http://www.w3.org/2000/svg" viewBox="0 0 83.36 90.38">
  <defs>
    <style>
      .cls-1 {
        fill: #222935;
      }
    </style>
  </defs>
  <g id="Layer_2-2" data-name="Layer_2">
    <g>
      <path class="cls-1" d="M43.38,36c-5.07,0-9.19,4.12-9.19,9.19s4.12,9.19,9.19,9.19,9.19-4.12,9.19-9.19-4.12-9.19-9.19-9.19ZM43.38,52.19c-3.86,0-7-3.14-7-7s3.14-7,7-7,7,3.14,7,7-3.14,7-7,7Z"/>
      <path class="cls-1" d="M7.82,36.21c2.33,3.12,5.48,6.41,9.38,9.8,1.63,1.41,3.39,2.83,5.22,4.22.2.15.43.22.66.22.33,0,.66-.15.87-.43.36-.48.27-1.17-.21-1.53-1.8-1.36-3.52-2.75-5.11-4.13-3.67-3.19-6.74-6.38-8.95-9.31,1.15-1.06,1.87-2.57,1.87-4.25,0-3.19-2.59-5.78-5.78-5.78-.04,0-.08,0-.12,0,.09-.49.25-.95.48-1.35,2.3-3.99,11.78-3.8,24.16.48,4.08,1.41,8.32,3.2,12.6,5.33,2.42,1.2,4.87,2.51,7.29,3.91,2.38,1.37,4.74,2.84,7.03,4.36,2.47,1.65,4.85,3.36,7.06,5.08.2.16.44.23.67.23.32,0,.65-.14.86-.42.37-.48.29-1.16-.19-1.53-2.25-1.76-4.67-3.5-7.19-5.18-2.33-1.55-4.73-3.04-7.14-4.43-2.46-1.42-4.95-2.76-7.41-3.97-4.06-2.01-8.07-3.73-11.96-5.12,2.51-12.33,6.98-20.24,11.48-20.24,3.74,0,7.54,5.53,10.16,14.78.16.58.77.92,1.35.75.58-.16.92-.77.75-1.35C52.65,5.81,48.3,0,43.38,0c-5.71,0-10.74,8.09-13.56,21.71-13.21-4.37-22.73-4.05-25.58.89-.5.87-.78,1.86-.84,2.95-2.01.91-3.41,2.92-3.41,5.26,0,3.19,2.59,5.78,5.78,5.78.72,0,1.4-.14,2.04-.38ZM2.18,30.81c0-1.98,1.61-3.6,3.6-3.6s3.59,1.61,3.59,3.6-1.61,3.6-3.59,3.6-3.6-1.61-3.6-3.6Z"/>
      <path class="cls-1" d="M57.31,59.31c-.6-.07-1.14.35-1.22.95-.29,2.34-.64,4.62-1.06,6.78-.9,4.65-2.05,8.69-3.43,12.02-.61-.22-1.26-.34-1.95-.34-3.19,0-5.78,2.59-5.78,5.78,0,1.26.41,2.42,1.09,3.37-.53.22-1.07.33-1.6.33-4.61,0-9.18-8.31-11.66-21.16-.82-4.22-1.38-8.79-1.69-13.58-.17-2.69-.26-5.47-.26-8.27s.09-5.58.26-8.27c.16-2.49.39-4.95.69-7.32.08-.6-.35-1.14-.95-1.22-.6-.08-1.14.35-1.22.95-.31,2.41-.54,4.92-.7,7.46-.18,2.73-.27,5.56-.27,8.41s.09,5.68.27,8.41c.29,4.53.81,8.87,1.55,12.91-11.94,3.99-21.02,4.07-23.27.18-1.85-3.2.96-9.18,7.52-15.99.42-.43.41-1.13-.03-1.54-.43-.42-1.13-.41-1.54.03-7.49,7.77-10.28,14.38-7.84,18.59,1.52,2.63,4.93,3.95,9.77,3.95,4.26,0,9.63-1.02,15.8-3.06,2.82,13.62,7.85,21.7,13.56,21.7,1.13,0,2.24-.32,3.32-.94.87.52,1.88.83,2.97.83,3.19,0,5.78-2.59,5.78-5.78,0-1.71-.75-3.24-1.94-4.3,1.49-3.53,2.72-7.81,3.68-12.74.43-2.21.79-4.54,1.08-6.93.07-.6-.35-1.14-.95-1.22ZM49.66,88.09c-1.98,0-3.6-1.61-3.6-3.6s1.61-3.6,3.6-3.6,3.59,1.61,3.59,3.6-1.61,3.6-3.59,3.6Z"/>
      <path class="cls-1" d="M70.5,45.19c10.38-9.25,14.87-17.65,12.02-22.59-.31-.54-.7-1.02-1.17-1.46.05-.32.09-.65.09-.98,0-3.19-2.59-5.78-5.78-5.78-2.7,0-4.98,1.87-5.6,4.38-4.1.36-9.02,1.51-14.3,3.34-1.82.63-3.7,1.35-5.59,2.13-.56.23-.82.87-.59,1.43.17.42.58.67,1.01.67.14,0,.28-.03.42-.08,1.85-.76,3.69-1.46,5.47-2.08,4.98-1.73,9.61-2.82,13.47-3.2.4,2.8,2.8,4.97,5.71,4.97,1.99,0,3.74-1.01,4.78-2.54.07.09.13.19.19.29,2.3,3.99-2.6,12.1-12.49,20.68-3.24,2.81-6.92,5.59-10.92,8.25-2.29,1.52-4.65,2.99-7.03,4.36-2.42,1.4-4.87,2.71-7.29,3.91-1.69.84-3.41,1.64-5.09,2.38-.55.24-.8.89-.56,1.44.18.41.58.65,1,.65.15,0,.29-.03.44-.09,1.71-.75,3.46-1.56,5.18-2.42,2.46-1.22,4.95-2.56,7.41-3.97,2.42-1.39,4.82-2.88,7.15-4.43,3.79-2.52,7.28-5.15,10.41-7.8,9.42,8.34,14.04,16.17,11.79,20.06-2.01,3.48-9.67,3.8-20,.84-.58-.17-1.18.17-1.35.75-.17.58.17,1.18.75,1.35,4.91,1.41,9.21,2.11,12.73,2.11,4.86,0,8.25-1.33,9.76-3.95,2.85-4.94-1.63-13.34-12.02-22.6ZM75.65,23.75c-1.98,0-3.59-1.61-3.59-3.6s1.61-3.6,3.59-3.6,3.6,1.61,3.6,3.6-1.61,3.6-3.6,3.6Z"/>
    </g>
  </g>
</svg>