<?xml version="1.0" encoding="UTF-8"?>
<svg id="Layer_2" xmlns="http://www.w3.org/2000/svg" viewBox="0 0 86.16 70.3">
  <defs>
    <style>
      .cls-1 {
        fill: #222935;
      }
    </style>
  </defs>
  <g id="Layer_2-2" data-name="Layer_2">
    <path class="cls-1" d="M86.16,31.31c0-6.56-5.09-11.94-11.52-12.43-.89-6.04-6.13-10.64-12.33-10.64-.01,0-.03,0-.04,0-1.76-4.89-6.46-8.24-11.73-8.24-3.85,0-7.41,1.75-9.77,4.72-2.27-2.02-5.23-3.15-8.29-3.15-4.12,0-7.88,1.97-10.22,5.32-.76-.15-1.54-.22-2.34-.22-6.13,0-11.3,4.42-12.3,10.39-4.59,1.93-7.63,6.47-7.63,11.5,0,6.88,5.59,12.47,12.47,12.47.65,0,1.3-.06,1.94-.16,1.72,4.99,6.43,8.4,11.79,8.4,1.12,0,2.22-.15,3.28-.44,2.19,3.87,6.35,6.32,10.85,6.32.93,0,1.85-.1,2.75-.31l8.46,13.22c.91,1.43,2.43,2.23,4.04,2.23.49,0,1-.08,1.49-.23,2.14-.68,3.46-2.57,3.36-4.81l-.11-2.47c4.17-.79,7.67-3.68,9.25-7.63,6.78-.11,12.26-5.66,12.26-12.47,0-.61-.05-1.22-.13-1.83,2.84-2.38,4.45-5.82,4.45-9.55ZM69.37,52.98c-.16,0-.32,0-.48-.01-.02,0-.05,0-.07,0-.03,0-.07,0-.1,0-1.7-.15-3.34-.6-4.89-1.36-3.31-1.63-5.79-4.45-6.99-7.94-.05-.14-.12-.26-.21-.37.83-1.23,1.49-2.55,1.96-3.97.19-.57-.12-1.19-.7-1.38-.57-.19-1.19.12-1.38.7-.56,1.69-1.43,3.24-2.59,4.6-2.39,2.82-5.73,4.53-9.41,4.84-.6.05-1.05.58-1,1.18.05.57.52,1,1.09,1,.03,0,.06,0,.09,0,4.01-.33,7.67-2.11,10.4-5.04,1.48,3.65,4.21,6.59,7.77,8.34,1.41.69,2.88,1.17,4.4,1.42-1.53,3.19-4.61,5.41-8.18,5.78-.03,0-.05.01-.07.02-.04,0-.07.01-.11.02-.03,0-.07.02-.1.04-.03.01-.07.03-.1.04-.03.02-.06.04-.09.05-.03.02-.06.04-.09.06-.03.02-.05.05-.08.07-.03.02-.05.05-.07.07-.02.03-.04.05-.06.08-.02.03-.04.06-.06.09-.02.03-.03.06-.05.09-.01.03-.03.06-.04.1-.01.03-.02.07-.03.11,0,.03-.02.07-.02.1,0,.04,0,.08,0,.11,0,.02,0,.05,0,.07l.15,3.45c.07,1.49-.91,2.34-1.84,2.64-.94.3-2.22.16-3.03-1.1l-8.89-13.88s-.03-.03-.04-.05c-.02-.03-.05-.06-.07-.09-.02-.03-.05-.05-.07-.07-.03-.02-.05-.05-.08-.07-.03-.02-.06-.04-.09-.06-.03-.02-.06-.03-.09-.05-.03-.02-.06-.03-.1-.04-.03-.01-.07-.02-.1-.03-.03,0-.07-.02-.1-.02-.04,0-.07-.01-.11-.01-.04,0-.07,0-.11,0-.03,0-.07,0-.1,0-.04,0-.08.01-.12.02-.02,0-.04,0-.06.01-.95.28-1.94.43-2.93.43-3.97,0-7.63-2.32-9.31-5.92,0-.02-.02-.03-.03-.05-.02-.03-.04-.07-.06-.1-.02-.03-.04-.06-.06-.08-.02-.03-.05-.05-.07-.08s-.05-.05-.08-.07c-.03-.02-.05-.04-.08-.06-.03-.02-.06-.04-.09-.05-.03-.02-.06-.03-.09-.04-.03-.01-.07-.03-.1-.04-.03-.01-.07-.02-.1-.03-.03,0-.07-.01-.1-.02-.03,0-.07,0-.1,0-.04,0-.07,0-.11,0-.03,0-.07,0-.1.01-.04,0-.07.02-.11.03-.02,0-.04,0-.06.01-1.11.4-2.27.6-3.46.6-4.71,0-8.81-3.18-9.97-7.74,0-.03-.02-.06-.04-.1-.01-.03-.02-.07-.04-.1-.02-.03-.04-.06-.06-.09-.02-.03-.03-.06-.05-.09-.02-.03-.05-.06-.07-.08-.02-.02-.04-.05-.07-.07-.03-.03-.06-.05-.09-.07-.03-.02-.05-.04-.08-.06-.03-.02-.07-.03-.1-.05-.03-.01-.06-.03-.09-.04-.03-.01-.07-.02-.11-.03-.03,0-.07-.02-.1-.03-.04,0-.07,0-.11,0-.04,0-.07,0-.11,0-.04,0-.07,0-.11.01-.03,0-.07,0-.1.01-.81.19-1.63.29-2.45.29-5.67,0-10.29-4.62-10.29-10.29,0-4.33,2.74-8.22,6.81-9.69,1.11-.4,2.28-.6,3.48-.6,1.57,0,3.07.35,4.47,1.02-2.16,3.6-2.82,7.82-1.85,11.92.12.5.57.84,1.06.84.08,0,.17,0,.25-.03.59-.14.95-.73.81-1.31-.85-3.59-.25-7.3,1.69-10.44.94-1.53,2.15-2.83,3.58-3.88.49-.36.59-1.04.23-1.53-.36-.49-1.04-.59-1.53-.23-1.13.83-2.13,1.79-2.99,2.87-.06-.04-.11-.08-.18-.11-1.73-.86-3.59-1.3-5.54-1.3-.83,0-1.64.08-2.44.24,1.23-4.36,5.22-7.48,9.9-7.48.88,0,1.74.11,2.56.32,0,0,0,0,.02,0,.06.01.12.02.18.03.02,0,.03,0,.05,0,.01,0,.02,0,.04,0,.05,0,.1,0,.15-.01.01,0,.02,0,.03,0,.05,0,.11-.02.16-.04.01,0,.02,0,.03-.01.06-.02.12-.05.17-.08,0,0,.01,0,.02-.01.05-.03.09-.06.14-.1,0,0,.02-.01.02-.02.05-.04.09-.09.13-.14,0-.01.02-.02.02-.03.02-.02.03-.05.05-.07,1.89-3.09,5.18-4.94,8.79-4.94,2.69,0,5.28,1.06,7.2,2.94.05.12.12.23.22.33,2.61,2.61,4.05,6.08,4.05,9.77,0,1.72-.31,3.4-.93,4.99-2.96,2.32-4.97,5.53-5.76,9.18-3.22-2.39-7.17-3.48-11.18-3.05-.6.06-1.03.6-.97,1.2.06.6.6,1.04,1.2.97,3.67-.38,7.27.68,10.14,3.01,1.39,1.13,2.54,2.49,3.39,4.05.2.36.57.56.96.56.18,0,.36-.04.53-.14.53-.29.72-.96.43-1.48-.7-1.27-1.57-2.42-2.58-3.46.02-.05.03-.11.04-.16.51-3.66,2.42-6.89,5.36-9.12,1.43-1.08,3.03-1.86,4.74-2.32.58-.16.93-.75.77-1.34-.16-.58-.75-.93-1.34-.77-1.02.27-2,.65-2.94,1.11.22-1.05.33-2.13.33-3.22,0-3.87-1.37-7.53-3.87-10.43,1.94-2.63,4.98-4.17,8.27-4.17,4.59,0,8.66,3.08,9.9,7.48,0,0,0,0,0,0,0,.02.01.03.02.05.02.05.03.1.06.14,0,.02.02.04.03.05.02.04.05.08.08.12.01.02.03.03.04.05.03.04.06.07.1.1.01.01.03.03.04.04.04.03.08.06.13.09.01,0,.02.02.04.02.06.03.12.06.18.08.01,0,.02,0,.03,0,.05.02.1.03.16.03.02,0,.04,0,.06,0,.03,0,.05,0,.08,0,.02,0,.05,0,.07,0,0,0,.02,0,.03,0,.24-.02.48-.03.73-.03,5.14,0,9.47,3.82,10.18,8.83-1.86.22-3.66.76-5.36,1.62-3.74,1.89-6.53,5.1-7.89,9.06-1.97-.2-3.98-.03-5.94.52-.58.16-.92.77-.76,1.35.16.58.76.92,1.35.76,3.55-1,7.28-.55,10.5,1.26,1.56.88,2.92,2.03,4.03,3.42.22.27.53.41.85.41.24,0,.48-.08.68-.24.47-.38.55-1.06.17-1.53-1.29-1.61-2.85-2.94-4.66-3.96-1.29-.72-2.64-1.25-4.04-1.59,1.22-3.26,3.58-5.91,6.7-7.49,1.6-.81,3.31-1.3,5.08-1.45.28-.02.53-.15.7-.35,5.58.11,10.08,4.68,10.08,10.28,0,3.26-1.5,6.26-4.11,8.23-.02.01-.03.03-.05.05-.03.03-.06.05-.09.08-.02.03-.05.05-.07.08-.02.03-.04.05-.06.08-.02.03-.03.06-.05.1-.02.03-.03.06-.04.09-.01.03-.02.07-.03.1,0,.03-.02.07-.03.1,0,.03,0,.07-.01.1,0,.03,0,.07,0,.11,0,.04,0,.08.01.12,0,.02,0,.05,0,.07.14.68.21,1.37.21,2.06,0,5.67-4.62,10.29-10.29,10.29Z"/>
  </g>
</svg>