<?xml version="1.0" encoding="UTF-8"?>
<svg id="Layer_2" xmlns="http://www.w3.org/2000/svg" viewBox="0 0 130.07 136.91">
  <defs>
    <style>
      .cls-1 {
        fill: #4d4d4d;
      }
    </style>
  </defs>
  <g id="Layer_3">
    <path class="cls-1" d="M53.41,136.91C23.96,136.91,0,112.96,0,83.52S23.96,30.11,53.41,30.11c7.7,0,15.48,1.73,22.49,4.99l.8.37-1.3-8.06c-.1-.6.08-1.19.49-1.64l11.95-13.12.03-.04c.14-.25.34-.47.58-.64l.04-.03L98.77.64c.37-.41.9-.64,1.46-.64.2,0,.39.03.58.09.73.23,1.26.86,1.36,1.61l2.56,18.75.67-.69c.37-.39.89-.61,1.42-.61.46,0,.91.17,1.26.47.72.61.9,1.65.42,2.47l-.39.68,20.04.39c.76.01,1.45.47,1.76,1.17.31.69.18,1.51-.31,2.09l-10.04,11.54-.02.04c-.14.26-.33.48-.57.65l-.04.03-11.64,13.38c-.37.43-.91.67-1.48.67h-.09s-22.52-1-22.52-1l-28.28,33.06c-.37.44-.92.69-1.49.69-.47,0-.92-.17-1.28-.47-.4-.34-.64-.82-.68-1.34-.04-.52.12-1.03.47-1.43l9.29-10.86-.48-.28c-2.22-1.31-4.75-2-7.32-2-7.95,0-14.42,6.47-14.42,14.42s6.47,14.42,14.42,14.42,14.42-6.47,14.42-14.42c0-1.97-.39-3.87-1.15-5.66-.21-.48-.21-1.02-.02-1.5.2-.49.57-.87,1.05-1.08.24-.1.5-.16.77-.16.79,0,1.5.47,1.81,1.19.98,2.28,1.47,4.71,1.47,7.21,0,10.12-8.23,18.35-18.35,18.35s-18.35-8.23-18.35-18.35,8.23-18.35,18.35-18.35c3.55,0,7.01,1.04,10.02,3l.34.22,8.17-9.55-.41-.3c-5.31-3.85-11.58-5.89-18.12-5.89-17.02,0-30.87,13.85-30.87,30.87s13.85,30.86,30.87,30.86,30.86-13.85,30.86-30.86c0-6.18-1.82-12.15-5.27-17.26-.61-.9-.37-2.12.53-2.73.33-.22.71-.34,1.1-.34.66,0,1.26.32,1.63.87,3.89,5.76,5.94,12.48,5.94,19.46,0,19.19-15.61,34.8-34.8,34.8s-34.8-15.61-34.8-34.8,15.61-34.8,34.8-34.8c7.4,0,14.76,2.44,20.73,6.88l.35.26,4.63-5.41-1.63-10.12-.2-.11c-7.27-4.04-15.53-6.17-23.87-6.17-27.28,0-49.48,22.2-49.48,49.48s22.2,49.46,49.48,49.46,49.46-22.19,49.46-49.46c0-10.76-2.39-19.47-7.11-25.88-.31-.42-.44-.94-.36-1.46.08-.52.36-.98.78-1.29.34-.25.74-.38,1.16-.38.62,0,1.22.3,1.59.8,5.23,7.1,7.88,16.59,7.88,28.21,0,29.44-23.95,53.4-53.39,53.4ZM86.42,47.94l18.51.82,8.55-9.82-19.02-.38-8.03,9.39ZM79.42,27.72l3.04,18.81,8.29-9.69-2.57-18.74-8.76,9.62ZM104.56,26.76l-.06.06-6.74,7.88,19.08.39,7.03-8.07-19.14-.38-.13.1-.04.03ZM91.64,14.31l2.54,18.53,7.14-8.34-2.47-18.1-7.21,7.91Z"/>
  </g>
</svg>