<?xml version="1.0" encoding="UTF-8"?>
<svg id="Layer_2" xmlns="http://www.w3.org/2000/svg" viewBox="0 0 73.52 84.61">
  <defs>
    <style>
      .cls-1 {
        fill: #222935;
      }
    </style>
  </defs>
  <g id="Layer_2-2" data-name="Layer_2">
    <g>
      <path class="cls-1" d="M53.18,21.77c5.01,0,9.08-4.07,9.08-9.08s-4.07-9.08-9.08-9.08-9.08,4.07-9.08,9.08,4.07,9.08,9.08,9.08ZM53.18,5.8c3.8,0,6.9,3.09,6.9,6.9s-3.09,6.9-6.9,6.9-6.9-3.09-6.9-6.9,3.09-6.9,6.9-6.9Z"/>
      <path class="cls-1" d="M68.94,0c-2.52,0-4.57,2.05-4.57,4.58l.04,12.36c.01,3.83-3.09,6.96-6.92,6.97h-3.39s-7.48.01-7.48.01c-6.05,0-10.96,4.92-10.96,10.96v20.41c0,2.52,2.05,4.57,4.57,4.57.88,0,1.69-.25,2.39-.68v24.33c0,.6.49,1.09,1.09,1.09s1.09-.49,1.09-1.09v-48c0-.6-.49-1.09-1.09-1.09s-1.09.49-1.09,1.09v19.78c0,1.32-1.07,2.39-2.39,2.39s-2.39-1.07-2.39-2.39v-20.41c0-4.84,3.94-8.78,8.78-8.78h10.88c5.03-.03,9.11-4.14,9.1-9.18l-.04-12.36c0-1.32,1.07-2.39,2.39-2.39s2.39,1.07,2.39,2.39v15.23c0,4.84-2.73,9.42-7.14,11.97-1.59.92-2.57,2.65-2.57,4.52l-.06,47.23c0,.6.49,1.09,1.09,1.09h0c.6,0,1.09-.49,1.09-1.09l.06-47.23c0-1.1.57-2.1,1.48-2.63,5.07-2.93,8.23-8.24,8.23-13.86V4.57c0-2.52-2.05-4.57-4.57-4.57Z"/>
      <path class="cls-1" d="M53.28,56.62h0c-.6,0-1.09.49-1.09,1.09l-.03,25.8c0,.6.49,1.09,1.09,1.09h0c.6,0,1.09-.49,1.09-1.09l.03-25.8c0-.6-.49-1.09-1.09-1.09Z"/>
      <path class="cls-1" d="M23.07,59.95H1.09c-.6,0-1.09.49-1.09,1.09v21.98c0,.6.49,1.09,1.09,1.09h21.98c.6,0,1.09-.49,1.09-1.09v-21.98c0-.6-.49-1.09-1.09-1.09ZM21.98,81.93H2.18v-19.8h19.8v19.8Z"/>
      <path class="cls-1" d="M23.07,30.26H1.09c-.6,0-1.09.49-1.09,1.09v21.98c0,.6.49,1.09,1.09,1.09h21.98c.6,0,1.09-.49,1.09-1.09v-21.98c0-.6-.49-1.09-1.09-1.09ZM21.98,52.24H2.18v-19.8h19.8v19.8Z"/>
      <path class="cls-1" d="M23.07.57H1.09C.49.57,0,1.06,0,1.66v21.98c0,.6.49,1.09,1.09,1.09h21.98c.6,0,1.09-.49,1.09-1.09V1.66c0-.6-.49-1.09-1.09-1.09ZM21.98,22.55H2.18V2.75h19.8v19.8Z"/>
      <path class="cls-1" d="M8.49,18.49c.21.22.49.34.79.34,0,0,.02,0,.03,0,.31,0,.6-.15.8-.38l9.55-11.19c.39-.46.34-1.15-.12-1.54-.46-.39-1.15-.34-1.54.12l-8.76,10.27-4.08-4.3c-.41-.44-1.11-.46-1.54-.04-.44.41-.46,1.11-.04,1.54l4.91,5.19Z"/>
      <path class="cls-1" d="M9.03,48.79c.21.22.49.34.79.34,0,0,.02,0,.03,0,.31,0,.6-.15.8-.38l9.55-11.19c.39-.46.34-1.15-.12-1.54s-1.15-.34-1.54.12l-8.76,10.27-4.08-4.3c-.41-.44-1.11-.46-1.54-.04-.44.41-.46,1.11-.04,1.54l4.91,5.19Z"/>
      <path class="cls-1" d="M4.74,79.37c.21.22.5.32.78.32s.55-.1.77-.32l5.86-5.79,5.86,5.79c.21.21.49.32.77.32s.56-.11.78-.32c.42-.43.42-1.12,0-1.54l-5.85-5.77,5.85-5.77c.43-.42.43-1.11,0-1.54-.42-.43-1.11-.43-1.54,0l-5.86,5.79-5.86-5.79c-.43-.42-1.12-.42-1.54,0-.42.43-.42,1.12,0,1.54l5.85,5.77-5.85,5.77c-.43.42-.43,1.11,0,1.54Z"/>
    </g>
  </g>
</svg>