<?xml version="1.0" encoding="UTF-8"?>
<svg id="Layer_2" xmlns="http://www.w3.org/2000/svg" viewBox="0 0 69.52 81.33">
  <defs>
    <style>
      .cls-1 {
        fill: #222935;
      }
    </style>
  </defs>
  <g id="Layer_2-2" data-name="Layer_2">
    <g>
      <path class="cls-1" d="M18.14,20.75c4.84,0,8.77-3.94,8.77-8.77v-3.2c0-4.84-3.94-8.77-8.77-8.77s-8.77,3.94-8.77,8.77v3.2c0,4.84,3.94,8.77,8.77,8.77ZM11.55,8.77c0-3.63,2.96-6.59,6.59-6.59s6.59,2.96,6.59,6.59v3.2c0,3.63-2.96,6.59-6.59,6.59s-6.59-2.96-6.59-6.59v-3.2Z"/>
      <path class="cls-1" d="M23.91,22.09h-11.55c-6.82,0-12.36,5.55-12.36,12.36v16.49c0,2.46,2,4.47,4.47,4.47.83,0,1.61-.23,2.28-.63v25.47c0,.6.49,1.09,1.09,1.09h20.6c.6,0,1.09-.49,1.09-1.09v-25.47c.67.4,1.45.63,2.28.63,2.46,0,4.47-2,4.47-4.47v-16.49c0-6.82-5.55-12.36-12.36-12.36ZM34.09,36.21v14.74c0,1.26-1.02,2.28-2.28,2.28s-2.28-1.02-2.28-2.28v-14.74c0-.6-.49-1.09-1.09-1.09s-1.09.49-1.09,1.09v42.94h-8.11v-24.83c0-.6-.49-1.09-1.09-1.09s-1.09.49-1.09,1.09v24.83h-8.11v-42.94c0-.6-.49-1.09-1.09-1.09s-1.09.49-1.09,1.09v14.74c0,1.26-1.02,2.28-2.28,2.28s-2.28-1.02-2.28-2.28v-16.49c0-5.61,4.57-10.18,10.18-10.18h11.55c5.61,0,10.18,4.57,10.18,10.18v1.76Z"/>
      <path class="cls-1" d="M68.43,0h-22.7c-.6,0-1.09.49-1.09,1.09v22.7c0,.6.49,1.09,1.09,1.09h22.7c.6,0,1.09-.49,1.09-1.09V1.09c0-.6-.49-1.09-1.09-1.09ZM67.34,22.7h-20.52V2.18h20.52v20.52Z"/>
      <path class="cls-1" d="M68.43,56.37h-22.7c-.6,0-1.09.49-1.09,1.09v22.7c0,.6.49,1.09,1.09,1.09h22.7c.6,0,1.09-.49,1.09-1.09v-22.7c0-.6-.49-1.09-1.09-1.09ZM67.34,79.08h-20.52v-20.52h20.52v20.52Z"/>
      <path class="cls-1" d="M68.43,28.19h-22.7c-.6,0-1.09.49-1.09,1.09v22.7c0,.6.49,1.09,1.09,1.09h22.7c.6,0,1.09-.49,1.09-1.09v-22.7c0-.6-.49-1.09-1.09-1.09ZM67.34,50.89h-20.52v-20.52h20.52v20.52Z"/>
      <path class="cls-1" d="M49.08,48.56c.21.22.49.32.78.32s.56-.11.77-.32l6.44-6.37,6.44,6.37c.21.21.49.32.77.32s.56-.11.78-.32c.42-.43.42-1.12,0-1.54l-6.42-6.35,6.42-6.35c.43-.42.43-1.12,0-1.54-.42-.43-1.12-.43-1.54,0l-6.44,6.37-6.44-6.37c-.43-.42-1.12-.42-1.54,0-.42.43-.42,1.12,0,1.54l6.42,6.35-6.42,6.35c-.43.42-.43,1.12,0,1.54Z"/>
      <path class="cls-1" d="M53.17,18.53c.21.23.5.37.81.37h0c.31,0,.6-.13.81-.36l11.55-12.78c.4-.45.37-1.14-.08-1.54-.45-.4-1.14-.37-1.54.08l-10.73,11.87-4.6-5.23c-.4-.45-1.09-.5-1.54-.1-.45.4-.5,1.09-.1,1.54l5.41,6.15Z"/>
      <path class="cls-1" d="M53.17,75.31c.21.23.5.37.81.37h0c.31,0,.6-.13.81-.36l11.55-12.78c.4-.45.37-1.14-.08-1.54-.45-.4-1.14-.37-1.54.08l-10.73,11.87-4.6-5.23c-.4-.45-1.09-.5-1.54-.1-.45.4-.5,1.09-.1,1.54l5.41,6.15Z"/>
    </g>
  </g>
</svg>