<?xml version="1.0" encoding="UTF-8"?>
<svg id="Layer_2" xmlns="http://www.w3.org/2000/svg" viewBox="0 0 101.58 101.12">
  <defs>
    <style>
      .cls-1 {
        fill: #222935;
      }
    </style>
  </defs>
  <g id="Layer_2-2" data-name="Layer_2">
    <g>
      <path class="cls-1" d="M21.43,62.13c6.05,0,10.98-4.93,10.98-10.98s-4.93-10.98-10.98-10.98-10.98,4.93-10.98,10.98,4.93,10.98,10.98,10.98ZM21.43,42.36c4.85,0,8.8,3.95,8.8,8.8s-3.95,8.8-8.8,8.8-8.8-3.95-8.8-8.8,3.95-8.8,8.8-8.8Z"/>
      <path class="cls-1" d="M29.55,65.32H13.31c-7.34,0-13.31,5.97-13.31,13.31v21.4c0,.6.49,1.09,1.09,1.09s1.09-.49,1.09-1.09v-21.4c0-6.14,4.99-11.13,11.13-11.13h16.24c6.14,0,11.13,4.99,11.13,11.13v21.4c0,.6.49,1.09,1.09,1.09s1.09-.49,1.09-1.09v-21.4c0-7.34-5.97-13.31-13.31-13.31Z"/>
      <path class="cls-1" d="M9.71,78.31c-.6,0-1.09.49-1.09,1.09v20.62c0,.6.49,1.09,1.09,1.09s1.09-.49,1.09-1.09v-20.62c0-.6-.49-1.09-1.09-1.09Z"/>
      <path class="cls-1" d="M33.16,78.31c-.6,0-1.09.49-1.09,1.09v20.62c0,.6.49,1.09,1.09,1.09s1.09-.49,1.09-1.09v-20.62c0-.6-.49-1.09-1.09-1.09Z"/>
      <path class="cls-1" d="M99.68,40.49c-2.91-3.65-6.39-6.62-10.19-9.17,2.69-4.39,5.75-11.44,3.52-18.45-.62-1.94-1.54-3.44-2.75-4.48-2.73-2.34-6.47-2.2-10.06-1.86-.11.01-.21.02-.31.03-.03-.06-.07-.11-.1-.17C77.51,2.51,72.71,0,67.57,0h0c-4.1,0-8.48,1.44-13.04,4.28-2.74,1.71-5.4,3.92-7.65,6.5-4.1,1.95-7.22,4.45-9.29,7.49-2.36,3.45-3.62,7.93-3.74,13.32-.09,3.78.4,6.94,1.5,9.65,1.88,4.65,5.82,8.57,11.09,11.04,4.15,1.94,8.96,2.99,15.16,3.32.36.02.73.03,1.1.05.42.71.84,1.42,1.27,2.11,1.8,2.96,3.51,5.75,3.99,8.95.08.54.55.93,1.08.93.05,0,.11,0,.17-.01.6-.09,1.01-.65.91-1.24-.55-3.63-2.45-6.74-4.29-9.76-.2-.33-.4-.65-.6-.98,2.03-.09,4.1-.42,6.01-1.23.1.03.2.07.31.1,3.96,1.2,8.62,1.14,14.25-.16,5.34-1.24,9.69-3.07,13.3-5.59.87-.61,1.73-1.31,2.18-2.36.72-1.68.19-3.67-1.59-5.9ZM80.77,18.22c.98-3.37.98-6.73.05-9.56,3-.27,6.04-.33,8.03,1.38.9.77,1.6,1.94,2.09,3.48,1.97,6.19-.82,12.58-3.28,16.61-1.69-1.05-3.44-2.02-5.22-2.95-.03-3.08-.79-5.92-1.84-8.39.06-.19.12-.38.18-.58ZM86.46,31.97c-2.57,3.68-5.21,6.16-8.07,7.59-.19.1-.39.19-.59.28-.06-.21-.13-.42-.2-.62,2.52-2.42,4.23-5.85,4.7-9.62,1.42.75,2.81,1.54,4.16,2.38ZM80.21,28.51c-.23,3.26-1.57,6.33-3.59,8.55-.94-1.67-2.23-3.16-3.79-4.37,1.04-1.35,1.93-2.78,2.76-4.11.36-.58.73-1.17,1.09-1.77,1.19.55,2.36,1.11,3.53,1.7ZM58.36,37.34c.02.49.05.97.11,1.45-.64-.34-1.25-.7-1.83-1.1-3.21-2.18-5.64-5.35-6.8-8.79-.31-2.59-.11-5.37.26-8.1.6-.94,1.46-1.75,2.29-2.51.34-.31.69-.62,1.04-.93,5.06,1.68,9.14,5.76,13.1,10.35-.57.63-1.15,1.26-1.71,1.92-1.81,0-3.4.56-4.52,1.65-1.37,1.34-2.02,3.37-1.94,6.06ZM76.09,15.12c.74,1.09,1.5,2.37,2.16,3.79-.64,1.77-1.5,3.46-2.45,5.1-.81-.37-1.63-.73-2.44-1.08,1.77-2.7,2.67-5.28,2.72-7.81ZM73.92,8.83c.28.03.56.06.84.1-.13.19-.24.38-.33.59-.16-.24-.33-.46-.51-.68ZM68.02,26.09c-1.63-1.89-3.33-3.72-5.14-5.36,2.07.94,4.15,1.83,6.19,2.72.3.13.61.26.91.39-.09.12-.19.23-.29.35-.54.64-1.11,1.28-1.68,1.9ZM68.77,30.41c-.16-.06-.32-.12-.48-.17-.29-.1-.58-.19-.86-.26.18-.2.36-.39.54-.59.27.33.55.67.81,1.02ZM71.37,25.59c.24-.29.47-.57.69-.85.87.38,1.75.77,2.62,1.16-.31.51-.63,1.02-.94,1.53-.71,1.14-1.43,2.31-2.23,3.4-.5-1.21-1.35-2.22-2.05-3.05,0,0,0,0-.01-.01.65-.71,1.3-1.43,1.92-2.17ZM71.33,22.04c-.46-.2-.93-.4-1.39-.6-4.33-1.87-8.82-3.81-12.97-6-.23-.12-.49-.26-.76-.39,2.5-1.97,5.13-3.78,7.86-5.39.67-.4,1.37-.8,2.09-1.09,1.34-.05,2.67-.05,4.01,0,.51.25.94.56,1.28.85,1.44,1.25,2.38,3.2,2.45,5.08.1,2.38-.75,4.87-2.57,7.55ZM64.03,34.37c.53-.87,1.12-1.69,1.76-2.49.78.11,1.44.31,1.79.42.67.23,1.33.51,1.95.85-.28.27-.57.54-.88.78-1.38,1.12-3.42,2.11-5.48,2.03.26-.55.55-1.08.86-1.6ZM71.03,37.22c.3-.74.61-1.6.79-2.52,1.31,1.1,2.38,2.43,3.13,3.88-.56.42-1.16.78-1.78,1.07-1.15.54-2.43.91-3.89,1.1.67-1.13,1.25-2.32,1.75-3.54ZM80.2,26.07c-.8-.39-1.6-.77-2.4-1.15.57-1,1.11-2.02,1.59-3.07.41,1.33.7,2.74.81,4.21ZM78.63,9.02c.73,1.98.89,4.34.46,6.78-.53-.92-1.08-1.76-1.61-2.5l-.06-.08c-.58-.81-1.17-1.65-1.1-2.4.09-.97,1.22-1.51,2.3-1.8ZM55.67,6.13c4.21-2.62,8.21-3.95,11.89-3.95h0c4.17,0,8.04,1.89,10.05,4.85-.26.08-.51.18-.75.28-.17-.21-.41-.35-.69-.39-1.83-.27-3.68-.45-5.53-.53-.98-.39-2.01-.54-3.03-.44-.67.06-1.31.23-1.92.45-4.57.21-9.12.99-13.48,2.33-.07.02-.15.04-.22.07,1.18-.99,2.42-1.89,3.67-2.67ZM48.2,12.57c1.43-.65,2.98-1.24,4.66-1.75,2.62-.8,5.32-1.4,8.05-1.78-2.42,1.54-4.76,3.23-6.98,5.05-1.47-.46-3.1-.6-4.6.22-1.51.83-2.31,2.37-2.89,3.76-2.15,5.12-2.9,10.76-2.23,16.25-.62-1.38-1.11-2.79-1.42-4.27-1.31-6.39,1.27-12.59,5.42-17.48ZM48.01,20s0,.04,0,.06c-.01.03-.03.05-.04.08.02-.05.03-.09.05-.14ZM47.35,50.29c-4.7-2.2-8.34-5.8-9.99-9.88-.98-2.43-1.42-5.3-1.34-8.78.11-4.95,1.25-9.04,3.36-12.14,1.09-1.59,2.51-3.03,4.26-4.3-2.74,4.58-4.12,9.85-3,15.29.91,4.45,3.43,8.41,5.66,11.91.3.48.92.64,1.42.39.5-.26.73-.85.52-1.38-2.27-5.7-2.69-12.05-1.26-17.99-.11,1.02-.08,2.12.1,3.3.13.89.34,1.77.62,2.63.37,2.88,1.31,5.59,3.22,7.89,2.21,2.66,5.28,4.15,8.31,4.96.02.06.04.12.06.18-.23,3.06.19,6.17,1.3,9.02.27.68.57,1.35.9,2.01-5.8-.32-10.29-1.31-14.12-3.1ZM60.9,35.69s-.1.04-.14.06c-.06.03-.12.07-.17.11.13-1.34.55-2.35,1.24-3.02.31-.3.66-.52,1.03-.68-.24.35-.47.71-.69,1.07-.48.79-.9,1.61-1.26,2.46ZM61.78,40.18c.14-.71.33-1.41.55-2.1,2.17.28,4.58-.33,6.69-1.72,0,.01-.01.02-.02.04-.65,1.59-1.46,3.11-2.41,4.53-.56,0-1.13-.02-1.73-.05-.27-.02-.55-.04-.84-.06-.77-.17-1.52-.38-2.25-.62,0,0,0,0,0,0ZM63.71,42.97c.39.08.78.16,1.17.23-.59.7-1.22,1.36-1.89,1.99-.37-.6-.7-1.22-1-1.86-.04-.19-.07-.38-.09-.57.62.1,1.22.17,1.81.22ZM63.98,53.47c-.51-.94-.98-1.9-1.36-2.87-.28-.72-.51-1.46-.69-2.21.01,0,.03,0,.04,0,.21.05.42.03.61-.04,1.55,1.91,3.45,3.54,5.6,4.72-1.37.29-2.79.39-4.2.4ZM72.01,51.51c-.29.2-.59.37-.9.54-2.68-1.03-5.05-2.82-6.85-5.06,1.15-1.07,2.21-2.23,3.17-3.48.88.07,1.77.09,2.66.07,2.16-.04,4.17-.32,6.01-.83.19,3.45-1.37,6.92-4.09,8.75ZM99.26,45.52c-.22.52-.73.95-1.43,1.44-3.37,2.36-7.47,4.08-12.54,5.25-4.43,1.03-8.18,1.23-11.4.62,3.08-2.46,4.75-6.7,4.33-10.8.39-.16.76-.33,1.13-.51,3.21-1.6,6.14-4.34,8.93-8.36,3.64,2.43,6.94,5.26,9.68,8.7,1.24,1.55,1.67,2.79,1.29,3.68Z"/>
    </g>
  </g>
</svg>