<?xml version="1.0" encoding="UTF-8"?>
<svg id="Layer_2" xmlns="http://www.w3.org/2000/svg" viewBox="0 0 75.35 95.89">
  <defs>
    <style>
      .cls-1 {
        fill: #222935;
      }
    </style>
  </defs>
  <g id="Layer_2-2" data-name="Layer_2">
    <g>
      <path class="cls-1" d="M43.41,40.31h-13.9c-5.46,0-9.9,4.44-9.9,9.9v16.73c0,2.77,2.26,5.03,5.03,5.03,1.06,0,2.04-.33,2.85-.89v19.78c0,2.77,2.26,5.03,5.03,5.03,1.6,0,3.02-.75,3.94-1.91.92,1.16,2.34,1.91,3.94,1.91,2.77,0,5.03-2.26,5.03-5.03v-19.78c.81.56,1.79.89,2.85.89,2.77,0,5.03-2.26,5.03-5.03v-16.73c0-5.46-4.44-9.9-9.9-9.9ZM51.12,56.25v10.69c0,1.57-1.28,2.85-2.85,2.85s-2.85-1.28-2.85-2.85v-14.15c0-.6-.49-1.09-1.09-1.09s-1.09.49-1.09,1.09v38.08c0,1.57-1.28,2.85-2.85,2.85s-2.85-1.28-2.85-2.85v-20.46c0-.6-.49-1.09-1.09-1.09s-1.09.49-1.09,1.09v20.46c0,1.57-1.28,2.85-2.85,2.85s-2.85-1.28-2.85-2.85v-38.08c0-.6-.49-1.09-1.09-1.09s-1.09.49-1.09,1.09v14.15c0,1.57-1.28,2.85-2.85,2.85s-2.85-1.28-2.85-2.85v-16.73c0-4.25,3.46-7.71,7.71-7.71h13.9c4.25,0,7.71,3.46,7.71,7.71v6.04Z"/>
      <path class="cls-1" d="M36.46,38.7c4.46,0,8.09-3.63,8.09-8.09v-3.21c0-4.46-3.63-8.09-8.09-8.09s-8.09,3.63-8.09,8.09v3.21c0,4.46,3.63,8.09,8.09,8.09ZM30.54,27.4c0-3.26,2.65-5.91,5.91-5.91s5.91,2.65,5.91,5.91v3.21c0,3.26-2.65,5.91-5.91,5.91s-5.91-2.65-5.91-5.91v-3.21Z"/>
      <path class="cls-1" d="M74.88,31.4c-.73-2.05-2.24-3.7-4.53-4.94-2.18-1.18-4.3-1.66-6.35-1.43-.88.1-1.7.32-2.44.67-1.56.73-1.96,2.77-.8,4.05l.08.09c.78.86,2.02,1.06,3.06.56.32-.16.65-.26,1-.32.92-.16,1.86.02,2.82.53.82.45,1.39,1.08,1.71,1.9.32.82.24,1.66-.23,2.53-.19.36-.43.67-.7.94-.28.27-.62.48-1.03.65-.41.17-.75.28-1.02.35-.27.07-.67.17-1.21.3-.54.14-.89.22-1.07.27-1.68.39-3.03.86-4.07,1.42-.01,0-.02.01-.03.02-1.59.87-1.56,3.18.04,4.05l.79.43c.81.44,1.81.36,2.53-.22.08-.06.16-.12.24-.18.49-.33.93-.55,1.34-.64.41-.1,1.02-.24,1.84-.43.82-.19,1.42-.33,1.79-.42,1.43-.4,2.59-.91,3.47-1.51.89-.6,1.7-1.58,2.43-2.93.95-1.76,1.06-3.66.33-5.71Z"/>
      <path class="cls-1" d="M59.19,45.41l-.63-.34c-1.21-.65-2.72-.21-3.37,1-.65,1.21-.21,2.72,1,3.37l.63.34c1.21.65,2.72.21,3.37-1,.65-1.21.21-2.72-1-3.37Z"/>
      <path class="cls-1" d="M14.18,61.06l-.41.39c-.77.75-.79,1.97-.05,2.75h0c.75.77,1.97.79,2.75.05l.41-.39c.77-.75.79-1.97.05-2.75-.75-.77-1.97-.79-2.75-.05Z"/>
      <path class="cls-1" d="M13.55,57.38c-.03-.07-.05-.15-.08-.22-.13-.44-.19-.82-.16-1.15.02-.32.06-.82.11-1.47.05-.66.09-1.14.11-1.43.03-1.16-.07-2.14-.3-2.94-.24-.8-.77-1.64-1.61-2.5-1.08-1.12-2.48-1.65-4.18-1.59-1.7.06-3.28.8-4.75,2.21-1.39,1.35-2.25,2.81-2.56,4.39-.14.68-.16,1.34-.08,1.98.18,1.33,1.6,2.11,2.83,1.55l.08-.04c.82-.38,1.27-1.26,1.14-2.15-.04-.28-.04-.55,0-.82.1-.73.45-1.38,1.06-1.97.53-.51,1.13-.78,1.82-.83.68-.04,1.3.21,1.83.76.22.23.4.48.53.74.13.27.21.57.24.92.03.34.03.62.02.84s-.03.54-.06.98c-.03.43-.04.72-.05.86-.11,1.34-.07,2.46.1,3.37,0,0,0,.02,0,.03.28,1.39,2,1.91,3.02.92l.51-.49c.52-.5.7-1.27.43-1.94Z"/>
      <path class="cls-1" d="M21.24,24.66l.54-.15c1.03-.29,1.63-1.37,1.34-2.4-.29-1.03-1.37-1.63-2.4-1.34l-.54.15c-1.03.29-1.63,1.37-1.34,2.4.29,1.03,1.37,1.63,2.4,1.34Z"/>
      <path class="cls-1" d="M19.92,18.93l.68-.19c.69-.2,1.21-.79,1.3-1.51,0-.08.02-.15.04-.23.09-.45.22-.82.4-1.09.17-.27.44-.69.79-1.25.35-.56.61-.96.77-1.21.58-1.01.95-1.92,1.12-2.74.17-.82.09-1.81-.24-2.97-.43-1.5-1.41-2.63-2.93-3.37-1.53-.75-3.27-.84-5.23-.28-1.86.53-3.31,1.42-4.33,2.67-.44.54-.77,1.11-1,1.71-.47,1.26.42,2.62,1.76,2.7h.09c.9.06,1.71-.5,2.02-1.36.09-.26.22-.5.38-.73.43-.59,1.05-1.01,1.87-1.24.7-.2,1.37-.16,1.99.13.62.28,1.04.8,1.25,1.54.09.3.13.61.12.91,0,.3-.08.61-.22.92-.14.32-.26.57-.38.75-.11.18-.28.46-.51.83-.23.37-.38.61-.45.73-.73,1.13-1.23,2.14-1.5,3.02,0,0,0,.02,0,.03-.41,1.36.87,2.63,2.23,2.24Z"/>
      <path class="cls-1" d="M43.95,12.9l.33.2c.63.38,1.45.18,1.84-.45h0c.38-.63.18-1.45-.45-1.84l-.33-.2c-.63-.38-1.45-.18-1.84.45h0c-.38.63-.18,1.45.45,1.84Z"/>
      <path class="cls-1" d="M52.18.95c-1.14-.69-2.26-1.01-3.37-.94-.48.03-.92.13-1.33.29-.86.35-1.13,1.43-.54,2.15l.04.05c.39.48,1.06.63,1.63.38.18-.07.36-.12.55-.15.5-.06,1,.06,1.5.36.43.26.72.62.87,1.07.15.45.09.9-.19,1.35-.11.19-.25.35-.4.48-.16.14-.34.24-.57.32s-.41.13-.56.16c-.15.03-.37.07-.66.13-.29.06-.49.1-.58.11-.91.16-1.65.38-2.23.65,0,0-.01,0-.02,0-.88.43-.92,1.67-.09,2.17l.41.25c.42.26.96.24,1.37-.05.04-.03.09-.06.13-.09.27-.17.52-.27.74-.31.22-.04.55-.1,1-.18.45-.08.77-.14.97-.18.78-.18,1.41-.42,1.91-.71.49-.3.95-.8,1.39-1.51.56-.92.67-1.94.33-3.06-.34-1.12-1.1-2.05-2.3-2.78Z"/>
    </g>
  </g>
</svg>