<?xml version="1.0" encoding="UTF-8"?>
<svg id="Layer_2" xmlns="http://www.w3.org/2000/svg" viewBox="0 0 129.61 107.94">
  <defs>
    <style>
      .cls-1 {
        fill: #4d4d4d;
      }
    </style>
  </defs>
  <g id="_x2014_ÎÓÈ_x5F_1">
    <g>
      <path class="cls-1" d="M41.1,107.94c-1.12,0-2.03-.91-2.03-2.03s.91-2.04,2.03-2.04h10.68v-18.68H9.53c-5.25,0-9.53-4.27-9.53-9.53V9.52C0,4.27,4.27,0,9.53,0h110.56c5.25,0,9.53,4.27,9.53,9.52v66.15c0,5.25-4.27,9.53-9.53,9.53h-42.27v18.68h10.69c1.12,0,2.03.91,2.03,2.04s-.91,2.03-2.03,2.03h-47.4ZM55.86,103.87h17.9v-18.68h-17.9v18.68ZM4.07,75.67c0,3.01,2.45,5.45,5.46,5.45h110.56c3.01,0,5.46-2.45,5.46-5.45v-1.4H4.07v1.4ZM9.53,4.07c-3.01,0-5.46,2.45-5.46,5.45v60.68h121.47V9.52c0-3.01-2.45-5.45-5.46-5.45H9.53Z"/>
      <path class="cls-1" d="M51.52,54.32c-.99,0-1.83-.71-2-1.68-1.07-6.03-4-8.41-6.72-9.94-1.81-1.02-3.88-1.56-5.98-1.56-2.36,0-4.69.67-6.73,1.93-2.46,1.52-4.88,3.73-5.97,9.57-.18.96-1.02,1.66-2.01,1.66-.12,0-.24-.01-.37-.03-.53-.1-1-.4-1.3-.85-.31-.45-.42-.99-.32-1.52,1.08-5.82,3.5-9.6,7.83-12.28.99-.61,2.05-1.13,3.14-1.53l.86-.31-.73-.55c-1.14-.86-2.03-1.93-2.66-3.18-.64-1.29-.97-2.67-.97-4.11,0-5.04,4.1-9.14,9.14-9.14s9.15,4.1,9.15,9.14c0,1.44-.33,2.82-.97,4.11-.62,1.23-1.51,2.3-2.64,3.16l-.73.55.86.31c.86.31,1.66.68,2.39,1.09,3.08,1.74,7.33,4.95,8.72,12.77.1.53-.02,1.07-.33,1.52-.31.45-.78.74-1.31.84-.12.02-.24.03-.36.03ZM36.74,24.86c-2.8,0-5.07,2.28-5.07,5.07,0,.8.18,1.57.54,2.29.86,1.72,2.6,2.79,4.53,2.79s3.67-1.07,4.54-2.8c.36-.71.54-1.48.54-2.28,0-2.8-2.28-5.07-5.08-5.07Z"/>
      <path class="cls-1" d="M71.89,28.87c-3.29,0-5.97-2.68-5.97-5.97s2.68-6.05,5.97-6.05h31.67c3.29,0,5.97,2.68,5.97,5.97s-2.68,6.05-5.97,6.05h-31.67ZM71.89,20.92c-1.05,0-1.9.85-1.9,1.9,0,1.11.83,1.98,1.9,1.98h31.67c1.05,0,1.9-.85,1.9-1.9,0-1.11-.83-1.98-1.9-1.98h-31.67Z"/>
      <path class="cls-1" d="M77.92,39.59c-1.12,0-2.03-.91-2.03-2.04s.91-2.03,2.03-2.03h19.6c1.12,0,2.03.91,2.03,2.03s-.91,2.04-2.03,2.04h-19.6Z"/>
      <path class="cls-1" d="M77.92,47.64c-1.12,0-2.03-.91-2.03-2.04s.91-2.03,2.03-2.03h19.6c1.12,0,2.03.91,2.03,2.03s-.91,2.04-2.03,2.04h-19.6Z"/>
      <path class="cls-1" d="M77.58,55.68c-1.12,0-2.03-.91-2.03-2.03s.91-2.03,2.03-2.03h20.3c1.12,0,2.03.91,2.03,2.03s-.91,2.03-2.03,2.03h-20.3Z"/>
    </g>
  </g>
</svg>