<?xml version="1.0" encoding="UTF-8"?>
<svg id="Layer_2" xmlns="http://www.w3.org/2000/svg" viewBox="0 0 53.86 91.03">
  <defs>
    <style>
      .cls-1 {
        fill: #222935;
      }
    </style>
  </defs>
  <g id="Layer_2-2" data-name="Layer_2">
    <path class="cls-1" d="M41.94,57.19c-4.42-4.23-8.72-7.85-12.88-11.34l-.39-.33.39-.33c4.16-3.5,8.46-7.11,12.88-11.34,6.13-5.87,11.92-11.42,11.92-32.75,0-.6-.49-1.09-1.09-1.09s-1.09.49-1.09,1.09c0,2.64-.09,5.02-.25,7.17h-25.51c-.6,0-1.09.49-1.09,1.09s.49,1.09,1.09,1.09h25.31c-.36,3.31-.92,6.05-1.64,8.37-.15-.08-.33-.14-.52-.14h-5.81c-.6,0-1.09.49-1.09,1.09s.49,1.09,1.09,1.09h5.61c-1.4,3.56-3.22,6.04-5.26,8.24h-22.46c-.6,0-1.09.49-1.09,1.09s.49,1.09,1.09,1.09h20.31c-.33.32-.67.65-1.01.97-4.37,4.18-8.64,7.78-12.77,11.25l-.73.61-.73-.61c-4.13-3.47-8.41-7.06-12.77-11.25-3.29-3.16-6.34-6.08-8.43-11.39h28.93c.6,0,1.09-.49,1.09-1.09s-.49-1.09-1.09-1.09H4.24c-.7-2.29-1.25-4.99-1.6-8.24h15.15c.6,0,1.09-.49,1.09-1.09s-.49-1.09-1.09-1.09H2.44c-.16-2.16-.25-4.54-.25-7.17,0-.6-.49-1.09-1.09-1.09S0,.49,0,1.09c0,21.33,5.79,26.88,11.92,32.75,4.42,4.23,8.72,7.85,12.88,11.34l.39.33-.39.33c-4.16,3.5-8.46,7.11-12.88,11.34C5.79,63.06,0,68.61,0,89.94c0,.6.49,1.09,1.09,1.09s1.09-.49,1.09-1.09c0-2.47.08-4.72.22-6.77h20.04c.6,0,1.09-.49,1.09-1.09s-.49-1.09-1.09-1.09H2.59c.33-3.24.85-5.94,1.52-8.24,0,0,0,0,.01,0h9.71c.6,0,1.09-.49,1.09-1.09s-.49-1.09-1.09-1.09H4.84c1.34-3.57,3.1-6.08,5.07-8.27.08.02.16.03.24.03h22.4c.6,0,1.09-.49,1.09-1.09s-.49-1.09-1.09-1.09H12c.47-.46.95-.92,1.43-1.38,4.37-4.19,8.64-7.78,12.77-11.25l.73-.61.73.61c4.13,3.47,8.41,7.06,12.77,11.25,3.38,3.23,6.49,6.22,8.59,11.8h-26.57c-.6,0-1.09.49-1.09,1.09s.49,1.09,1.09,1.09h26.61c.23,0,.45-.07.62-.2.7,2.34,1.24,5.11,1.58,8.43h-16.02c-.6,0-1.09.49-1.09,1.09s.49,1.09,1.09,1.09h16.21c.15,2.05.22,4.29.22,6.77,0,.6.49,1.09,1.09,1.09s1.09-.49,1.09-1.09c0-21.33-5.79-26.88-11.92-32.75Z"/>
  </g>
</svg>