<?xml version="1.0" encoding="UTF-8"?>
<svg id="Layer_2" xmlns="http://www.w3.org/2000/svg" viewBox="0 0 128.52 60.3">
  <defs>
    <style>
      .cls-1 {
        fill: #222935;
      }
    </style>
  </defs>
  <g id="Layer_2-2" data-name="Layer_2">
    <path class="cls-1" d="M128.06,44.67l-8.45-6.05.19-10.39c0-.42-.22-.8-.59-.99-.37-.19-.81-.16-1.15.09l-8.36,6.17-3.11-1.07,3.43-1.97c.36-.21.57-.6.55-1.02-.03-.41-.29-.78-.67-.94l-10.93-4.56-2.44-11.58c-.09-.41-.39-.73-.8-.83-.4-.1-.83.03-1.1.35l-7.71,8.98-3.72-.4,3.29-3.2c.3-.29.4-.72.28-1.12-.13-.4-.47-.68-.88-.74l-14.06-2.04-6.29-12.74c-.18-.37-.56-.61-.98-.61s-.8.24-.98.61l-6.29,12.74-14.06,2.04c-.41.06-.75.35-.88.74-.13.4-.02.83.28,1.12l3.23,3.15-4.26.46-7.71-8.98c-.27-.32-.7-.45-1.1-.35-.4.1-.71.43-.8.83l-2.44,11.58-10.93,4.56c-.38.16-.64.52-.67.94-.03.41.19.81.55,1.02l3.43,1.97-3.11,1.07-8.36-6.17c-.33-.25-.78-.28-1.15-.09-.37.19-.6.57-.59.99l.19,10.39L.46,44.67c-.34.24-.51.65-.44,1.06.07.41.36.75.76.87l9.94,3.03,3.14,9.91c.13.4.47.69.88.75.06,0,.11.01.17.01.35,0,.69-.17.89-.47l5.95-8.52,10.39.08h0c.41,0,.79-.23.98-.6.19-.37.15-.82-.1-1.15l-.94-1.25,8.25-7.46,11.52,2.73c.4.1.83-.05,1.09-.37s.33-.76.16-1.14l-.15-.35,11.62-6.11,11.14,5.85-.27.6c-.17.38-.11.82.16,1.14.26.32.69.46,1.09.37l11.52-2.73,8.25,7.46-.94,1.25c-.25.33-.29.78-.1,1.15.19.37.56.61.98.6l10.39-.08,5.95,8.52c.21.29.54.47.89.47.05,0,.11,0,.16-.01.41-.06.75-.35.88-.75l3.14-9.91,9.94-3.03c.4-.12.69-.46.76-.87.07-.41-.1-.82-.44-1.06ZM21.19,49.13c-.36,0-.7.17-.9.47l-5.02,7.18-2.64-8.35c-.11-.34-.38-.61-.72-.71l-8.38-2.55,7.12-5.09c.29-.21.46-.55.46-.91l-.16-8.75,7.05,5.2c.29.21.66.27,1,.15l5.45-1.88,2.1,1.21-2.04,6.12c-.11.34-.05.72.16,1l5.27,6.99-8.76-.06ZM26.76,41.35l1.72-5.16.29.17.7,8.57-2.7-3.58ZM40.27,38.68c-.35-.08-.72.01-.98.25l-7.57,6.84-.83-10.17c-.03-.36-.23-.68-.54-.86l-1.94-1.11s0,0,0,0l-6.9-3.97,9.41-3.93c.33-.14.57-.43.65-.78l2.1-9.98,6.64,7.74c.23.27.59.41.94.37l6.63-.71,2.06,2.01-3.86,6.33c-.19.31-.21.69-.06,1.01l4.17,9.31-9.92-2.36ZM48.25,31.36l3.3-5.41,1.25,1.22-1.78,10.38-2.77-6.19ZM64.56,33.38c-.17,0-.35.04-.51.13l-11.12,5.85,2.12-12.39c.06-.35-.06-.72-.31-.97l-9-8.77,12.44-1.81c.36-.05.66-.27.82-.6l5.56-11.27,5.56,11.27c.16.32.47.55.82.6l12.44,1.81-3.19,3.11c-.16.09-.29.22-.39.38l-2.94,2.87s-.02,0-.03.01c-.15.09-.27.22-.36.36l-2.08,2.03c-.26.25-.37.61-.31.97l2.12,12.39-11.12-5.85c-.16-.08-.33-.13-.51-.13ZM76.31,27.16l.88-.85,3.07,5.04-2.33,5.22-1.61-9.41ZM88.25,38.68l-9.57,2.27-.09-.51,3.9-8.71c.15-.33.12-.71-.06-1.01l-3.63-5.96,2.38-2.32,6.09.65c.36.04.71-.1.94-.37l6.64-7.74,2.1,9.98c.07.35.32.64.65.78l9.41,3.93-6.9,3.97s0,0,0,0l-1.94,1.11c-.31.18-.52.5-.54.86l-.83,10.17-7.57-6.84c-.27-.24-.63-.34-.98-.25ZM99.75,36.35l.29-.17,1.72,5.16-2.7,3.58.7-8.57ZM116.61,47.71c-.34.1-.61.37-.72.71l-2.64,8.35-5.02-7.18c-.21-.29-.55-.47-.9-.47l-8.76.06,5.27-6.99c.22-.29.28-.66.16-1l-2.04-6.12,2.1-1.21,5.45,1.88c.34.12.72.06,1-.15l7.05-5.2-.16,8.75c0,.36.16.7.46.91l7.12,5.09-8.38,2.55Z"/>
  </g>
</svg>