<?xml version="1.0" encoding="UTF-8"?>
<svg id="Layer_2" xmlns="http://www.w3.org/2000/svg" viewBox="0 0 92.38 78.53">
  <defs>
    <style>
      .cls-1 {
        fill: #222935;
      }
    </style>
  </defs>
  <g id="Layer_2-2" data-name="Layer_2">
    <g>
      <path class="cls-1" d="M23.21,27.79c4.12,0,7.47-3.35,7.47-7.47s-3.35-7.47-7.47-7.47-7.47,3.35-7.47,7.47,3.35,7.47,7.47,7.47ZM23.21,15.04c2.91,0,5.28,2.37,5.28,5.28s-2.37,5.28-5.28,5.28-5.28-2.37-5.28-5.28,2.37-5.28,5.28-5.28Z"/>
      <path class="cls-1" d="M69.16,27.79c4.12,0,7.47-3.35,7.47-7.47s-3.35-7.47-7.47-7.47-7.47,3.35-7.47,7.47,3.35,7.47,7.47,7.47ZM69.16,15.04c2.91,0,5.28,2.37,5.28,5.28s-2.37,5.28-5.28,5.28-5.28-2.37-5.28-5.28,2.37-5.28,5.28-5.28Z"/>
      <path class="cls-1" d="M91.92,48.21l-8.82-14.34c-1.83-2.97-5.13-4.81-8.61-4.81h-6.37c-1.96,0-3.86.56-5.5,1.63l-6.81,4.42c-.25.16-.56.22-.86.16l-5.97-1.31c-.49-.11-.98-.09-1.44.03V13.12h14.09c.6,0,1.09-.49,1.09-1.09V2.43c0-.6-.49-1.09-1.09-1.09h-14.09v-.25c0-.6-.49-1.09-1.09-1.09s-1.09.49-1.09,1.09v33.06c-.6-.26-1.27-.34-1.94-.2l-5.97,1.31c-.29.06-.61,0-.86-.16l-6.81-4.42c-1.64-1.07-3.55-1.63-5.5-1.63h-6.37c-3.49,0-6.79,1.84-8.61,4.81L.46,48.21c-.49.79-.59,1.75-.28,2.63s.99,1.56,1.87,1.88c1.29.46,2.74,0,3.54-1.11l8.35-11.66-2.01,34.62c-.06,1.02.31,2.03,1.01,2.78s1.69,1.17,2.71,1.17c1.84,0,3.39-1.32,3.68-3.14l2.01-12.53,1.8,12.53c.29,1.82,1.84,3.14,3.68,3.14,1.02,0,2.01-.43,2.71-1.17.7-.74,1.07-1.76,1.01-2.76l-1.41-34.13,6.99,2.4c.77.26,1.6.24,2.35-.08l6.81-2.84s.03-.02.05-.02v9.77c0,.6.49,1.09,1.09,1.09s1.09-.49,1.09-1.09v-9.56l6.36,2.65c.75.31,1.58.34,2.35.08l6.99-2.4-1.41,34.11c-.06,1.02.31,2.03,1.01,2.78s1.69,1.17,2.71,1.17c1.84,0,3.39-1.32,3.69-3.16l1.8-12.52,2.01,12.53c.29,1.82,1.84,3.14,3.68,3.14,1.02,0,2.01-.43,2.71-1.17.7-.74,1.07-1.76,1.01-2.78l-2.01-34.62,8.35,11.66c.8,1.11,2.25,1.57,3.54,1.11.88-.31,1.56-1,1.87-1.88.31-.88.21-1.84-.28-2.63ZM60.53,3.52v7.42h-13V3.52h13ZM44.99,37.39c-.1.25-.29.44-.53.54l-6.81,2.84c-.26.11-.54.12-.8.03l-8.5-2.91c-.34-.12-.72-.06-1.01.16-.29.22-.45.56-.44.92l1.47,35.75c.02.43-.12.84-.42,1.15-.3.31-.7.49-1.13.49-.76,0-1.41-.55-1.53-1.28l-2.77-19.3c-.08-.54-.54-.94-1.08-.94h-.1c-.54,0-.99.39-1.08.92l-3.1,19.3c-.12.75-.76,1.3-1.53,1.3-.43,0-.83-.17-1.13-.49-.3-.31-.44-.72-.42-1.15l2.23-38.38c.03-.49-.27-.93-.73-1.09-.46-.16-.97,0-1.25.39l-10.55,14.72c-.23.32-.65.46-1.03.32-.35-.12-.49-.4-.54-.55-.05-.15-.11-.45.08-.77l8.82-14.34c1.43-2.33,4.02-3.77,6.75-3.77h6.37c1.54,0,3.03.44,4.32,1.28l6.81,4.42c.74.48,1.65.65,2.51.46l5.97-1.31c.44-.1.9.13,1.09.54.11.24.12.51.02.76ZM90.14,50.12c-.05.15-.19.42-.54.55-.37.13-.8,0-1.03-.32l-10.55-14.72c-.28-.4-.79-.56-1.25-.39-.46.16-.75.61-.73,1.09l2.23,38.38c.02.43-.12.84-.42,1.15-.3.31-.7.49-1.13.49-.76,0-1.41-.55-1.53-1.3l-3.1-19.3c-.08-.53-.54-.92-1.08-.92h-.1c-.54,0-1,.4-1.08.94l-2.77,19.28c-.12.75-.76,1.3-1.53,1.3-.43,0-.83-.17-1.13-.49s-.44-.72-.42-1.17l1.47-35.73c.01-.36-.15-.7-.44-.92-.29-.22-.67-.27-1.01-.16l-8.5,2.91c-.26.09-.55.08-.8-.03l-6.81-2.84c-.16-.07-.29-.17-.39-.3v-1.19c.23-.29.6-.43.97-.35l5.97,1.31c.86.19,1.77.02,2.51-.46l6.81-4.42c1.29-.84,2.78-1.28,4.32-1.28h6.37c2.73,0,5.32,1.45,6.75,3.77l8.82,14.34c.19.32.13.62.08.77Z"/>
    </g>
  </g>
</svg>