<?xml version="1.0" encoding="UTF-8"?>
<svg id="Layer_2" xmlns="http://www.w3.org/2000/svg" viewBox="0 0 100.74 78.56">
  <defs>
    <style>
      .cls-1 {
        fill: #222935;
      }
    </style>
  </defs>
  <g id="Layer_2-2" data-name="Layer_2">
    <g>
      <path class="cls-1" d="M76.71,27.79c4.12,0,7.47-3.35,7.47-7.47s-3.35-7.47-7.47-7.47-7.47,3.35-7.47,7.47,3.35,7.47,7.47,7.47ZM76.71,15.04c2.91,0,5.28,2.37,5.28,5.28s-2.37,5.28-5.28,5.28-5.28-2.37-5.28-5.28,2.37-5.28,5.28-5.28Z"/>
      <path class="cls-1" d="M100.53,35.91V1.09c0-.6-.49-1.09-1.09-1.09s-1.09.49-1.09,1.09v.25h-14.09c-.6,0-1.09.49-1.09,1.09v9.6c0,.6.49,1.09,1.09,1.09h14.09v20.86c-.46-.12-.95-.13-1.44-.03l-5.97,1.31c-.29.06-.61,0-.86-.16l-6.81-4.42c-1.64-1.07-3.55-1.63-5.5-1.63h-6.37c-3.49,0-6.79,1.84-8.61,4.81l-4.61,7.5v-2.01c0-5.38-4.37-9.75-9.75-9.75h-8.1c-1.27,0-2.48.25-3.6.69-.02-.01-.04-.02-.07-.03-1.12-.44-2.31-.66-3.52-.66h-8.1c-1.28,0-2.49.25-3.61.7-.05-.03-.11-.06-.17-.08-1.09-.41-2.24-.61-3.41-.61h-8.1c-5.38,0-9.75,4.37-9.75,9.75v16.68c0,1.98,1.61,3.59,3.59,3.59h.03c.53,0,1.03-.12,1.48-.32v14.41c0,2.67,2.17,4.83,4.83,4.83,1.51,0,2.86-.69,3.74-1.78.89,1.08,2.23,1.78,3.74,1.78h.24c1.53,0,2.9-.72,3.78-1.83.89,1.11,2.25,1.83,3.78,1.83s2.86-.69,3.74-1.78c.89,1.08,2.23,1.78,3.74,1.78h.24c1.53,0,2.9-.72,3.78-1.83.89,1.11,2.25,1.83,3.78,1.83s2.86-.69,3.74-1.78c.89,1.08,2.23,1.78,3.74,1.78h.24c2.67,0,4.83-2.17,4.83-4.83v-14.43c.46.21.97.34,1.51.34,1.98,0,3.59-1.61,3.59-3.59v-3.59c.35-.21.67-.49.91-.84l8.35-11.66-2.01,34.62c-.06,1.02.31,2.03,1.01,2.78s1.69,1.17,2.71,1.17c1.84,0,3.39-1.32,3.68-3.14l2.01-12.53,1.8,12.53c.29,1.82,1.84,3.14,3.68,3.14,1.02,0,2.01-.43,2.71-1.17s1.07-1.76,1.01-2.76l-1.41-34.13,6.99,2.4c.77.26,1.6.24,2.35-.08l6.36-2.65v9.56c0,.6.49,1.09,1.09,1.09s1.09-.49,1.09-1.09v-11.53c.28-.73.28-1.52,0-2.25ZM85.34,10.94V3.52h13v7.42h-13ZM17.66,76.38h-.24c-1.46,0-2.65-1.19-2.65-2.65v-20.32c0-.6-.49-1.09-1.09-1.09s-1.09.49-1.09,1.09v20.32c0,1.46-1.19,2.65-2.65,2.65s-2.65-1.19-2.65-2.65v-20.32c0-.12-.02-.23-.06-.33l.06-11.35c0-.6-.48-1.09-1.09-1.1-.6,0-1.09.48-1.1,1.09l-.07,14.33c0,.77-.64,1.4-1.41,1.4h-.03c-.78,0-1.41-.63-1.41-1.41v-16.68c0-4.17,3.39-7.57,7.57-7.57h8.1c.32,0,.65.03.96.07-2.15,1.79-3.53,4.49-3.53,7.5v16.68c0,1.98,1.61,3.59,3.59,3.59h.03c.5,0,.97-.1,1.4-.29v14.38c0,1.46-1.19,2.65-2.65,2.65ZM32.94,76.38h-.24c-1.46,0-2.65-1.19-2.65-2.65v-20.32c0-.6-.49-1.09-1.09-1.09s-1.09.49-1.09,1.09v20.32c0,1.46-1.19,2.65-2.65,2.65s-2.65-1.19-2.65-2.65v-20.32c0-.12-.02-.23-.06-.33l.06-11.35c0-.6-.48-1.09-1.09-1.1-.59,0-1.09.48-1.1,1.09l-.06,11.48c-.01.07-.02.14-.02.21v2.7c-.04.74-.65,1.34-1.4,1.34h-.03c-.78,0-1.41-.63-1.41-1.41v-16.68c0-4.17,3.39-7.57,7.57-7.57h8.1c.33,0,.65.02.97.06-2.16,1.79-3.53,4.49-3.53,7.5v16.68c0,1.98,1.61,3.59,3.59,3.59h.03c.5,0,.97-.1,1.4-.29v14.38c0,1.46-1.19,2.65-2.65,2.65ZM54.57,57.46c-.77,0-1.4-.63-1.41-1.4l-.1-13.78c0-.6-.49-1.08-1.09-1.08h0c-.6,0-1.09.5-1.08,1.1l.08,10.72c-.05.12-.08.26-.08.4v20.32c0,1.46-1.19,2.65-2.65,2.65h-.24c-1.46,0-2.65-1.19-2.65-2.65v-20.32c0-.6-.49-1.09-1.09-1.09s-1.09.49-1.09,1.09v20.32c0,1.46-1.19,2.65-2.65,2.65s-2.65-1.19-2.65-2.65v-20.32c0-.12-.02-.23-.06-.33l.06-11.35c0-.6-.48-1.09-1.09-1.1-.6,0-1.09.48-1.1,1.09l-.06,11.48c-.01.07-.02.14-.02.21v2.7c-.04.74-.65,1.34-1.4,1.34h-.03c-.78,0-1.41-.63-1.41-1.41v-16.68c0-4.17,3.39-7.57,7.57-7.57h8.1c4.17,0,7.57,3.39,7.57,7.57v5.55l-2.03,3.29c-.49.79-.59,1.75-.28,2.63.31.88.99,1.56,1.87,1.88.14.05.29.09.44.12v3.21c0,.78-.63,1.41-1.41,1.41ZM97.95,37.94l-6.81,2.84c-.26.11-.54.12-.8.03l-8.5-2.91c-.34-.12-.72-.06-1.01.16s-.45.56-.44.92l1.47,35.75c.02.43-.12.84-.42,1.15-.3.31-.7.49-1.13.49-.76,0-1.41-.55-1.53-1.28l-2.77-19.3c-.08-.54-.54-.94-1.08-.94h-.1c-.54,0-.99.39-1.08.92l-3.1,19.3c-.12.75-.76,1.3-1.53,1.3-.43,0-.83-.17-1.13-.49-.3-.31-.44-.72-.42-1.15l2.23-38.38c.03-.49-.27-.93-.73-1.09-.46-.16-.97,0-1.25.39l-10.55,14.72c-.23.32-.65.46-1.03.32-.35-.12-.49-.4-.54-.55-.05-.15-.11-.45.08-.77l8.82-14.34c1.43-2.33,4.02-3.77,6.75-3.77h6.37c1.54,0,3.03.44,4.32,1.28l6.81,4.42c.74.48,1.65.65,2.51.46l5.97-1.31c.37-.08.74.07.97.35v1.19c-.1.13-.23.24-.39.3Z"/>
      <path class="cls-1" d="M44.25,27.2c3.88,0,7.04-3.16,7.04-7.04s-3.16-7.04-7.04-7.04-7.04,3.16-7.04,7.04,3.16,7.04,7.04,7.04ZM44.25,15.31c2.68,0,4.86,2.18,4.86,4.86s-2.18,4.86-4.86,4.86-4.86-2.18-4.86-4.86,2.18-4.86,4.86-4.86Z"/>
      <path class="cls-1" d="M13.68,27.2c3.88,0,7.04-3.16,7.04-7.04s-3.16-7.04-7.04-7.04-7.04,3.16-7.04,7.04,3.16,7.04,7.04,7.04ZM13.68,15.31c2.68,0,4.86,2.18,4.86,4.86s-2.18,4.86-4.86,4.86-4.86-2.18-4.86-4.86,2.18-4.86,4.86-4.86Z"/>
      <path class="cls-1" d="M28.96,27.2c3.88,0,7.04-3.16,7.04-7.04s-3.16-7.04-7.04-7.04-7.04,3.16-7.04,7.04,3.16,7.04,7.04,7.04ZM28.96,15.31c2.68,0,4.86,2.18,4.86,4.86s-2.18,4.86-4.86,4.86-4.86-2.18-4.86-4.86,2.18-4.86,4.86-4.86Z"/>
    </g>
  </g>
</svg>