<?xml version="1.0" encoding="UTF-8"?>
<svg id="Layer_2" xmlns="http://www.w3.org/2000/svg" viewBox="0 0 81.4 98.53">
  <defs>
    <style>
      .cls-1 {
        fill: #222935;
      }
    </style>
  </defs>
  <g id="Layer_2-2" data-name="Layer_2">
    <g>
      <path class="cls-1" d="M21.43,59.54c6.05,0,10.98-4.93,10.98-10.98s-4.93-10.98-10.98-10.98-10.98,4.93-10.98,10.98,4.93,10.98,10.98,10.98ZM21.43,39.77c4.85,0,8.8,3.95,8.8,8.8s-3.95,8.8-8.8,8.8-8.8-3.95-8.8-8.8,3.95-8.8,8.8-8.8Z"/>
      <path class="cls-1" d="M29.55,62.73H13.31c-7.34,0-13.31,5.97-13.31,13.31v21.4c0,.6.49,1.09,1.09,1.09s1.09-.49,1.09-1.09v-21.4c0-6.14,4.99-11.13,11.13-11.13h16.24c6.14,0,11.13,4.99,11.13,11.13v21.4c0,.6.49,1.09,1.09,1.09s1.09-.49,1.09-1.09v-21.4c0-7.34-5.97-13.31-13.31-13.31Z"/>
      <path class="cls-1" d="M9.71,75.72c-.6,0-1.09.49-1.09,1.09v20.62c0,.6.49,1.09,1.09,1.09s1.09-.49,1.09-1.09v-20.62c0-.6-.49-1.09-1.09-1.09Z"/>
      <path class="cls-1" d="M33.16,75.72c-.6,0-1.09.49-1.09,1.09v20.62c0,.6.49,1.09,1.09,1.09s1.09-.49,1.09-1.09v-20.62c0-.6-.49-1.09-1.09-1.09Z"/>
      <path class="cls-1" d="M54.52,11.72c-9.08,0-16.47,7.39-16.47,16.47,0,4.82,2.04,10.52,5.33,14.86,2.4,3.17,3.71,7.04,3.71,10.91,0,.6.49,1.09,1.09,1.09h6.34s0,0,0,0h.03s0,0,0,0h6.3c.6,0,1.09-.49,1.09-1.09,0-3.87,1.32-7.75,3.71-10.91,3.29-4.34,5.33-10.04,5.33-14.86,0-9.08-7.39-16.47-16.47-16.47ZM63.92,41.74c-2.46,3.25-3.9,7.17-4.13,11.14h-3.81l5.05-18.15c.11-.41-.02-.85-.35-1.13-.33-.28-.78-.34-1.17-.15-4.48,2.11-9.99,0-10.04-.03-.39-.15-.82-.07-1.13.2-.31.28-.43.7-.32,1.1l5.05,18.15h-3.84c-.22-3.97-1.67-7.89-4.13-11.14-2.97-3.92-4.89-9.24-4.89-13.55,0-7.88,6.41-14.29,14.29-14.29s14.29,6.41,14.29,14.29c0,4.31-1.92,9.62-4.89,13.55ZM54.53,49.96l-3.87-13.91c1.86.45,4.78.86,7.71.11l-3.84,13.8Z"/>
      <path class="cls-1" d="M80.31,25.79h-6.25c-.6,0-1.09.49-1.09,1.09s.49,1.09,1.09,1.09h6.25c.6,0,1.09-.49,1.09-1.09s-.49-1.09-1.09-1.09Z"/>
      <path class="cls-1" d="M28.73,27.97h6.25c.6,0,1.09-.49,1.09-1.09s-.49-1.09-1.09-1.09h-6.25c-.6,0-1.09.49-1.09,1.09s.49,1.09,1.09,1.09Z"/>
      <path class="cls-1" d="M60.8,56.27h-12.5c-.6,0-1.09.49-1.09,1.09s.49,1.09,1.09,1.09h12.5c.6,0,1.09-.49,1.09-1.09s-.49-1.09-1.09-1.09Z"/>
      <path class="cls-1" d="M58.98,59.66h-8.86c-.6,0-1.09.49-1.09,1.09s.49,1.09,1.09,1.09h8.86c.6,0,1.09-.49,1.09-1.09s-.49-1.09-1.09-1.09Z"/>
      <path class="cls-1" d="M54.52,8.44c.6,0,1.09-.49,1.09-1.09V1.09c0-.6-.49-1.09-1.09-1.09s-1.09.49-1.09,1.09v6.25c0,.6.49,1.09,1.09,1.09Z"/>
      <path class="cls-1" d="M68.33,14.16c.28,0,.56-.11.77-.32l4.42-4.42c.43-.43.43-1.12,0-1.54-.43-.43-1.12-.43-1.54,0l-4.42,4.42c-.43.43-.43,1.12,0,1.54.21.21.49.32.77.32Z"/>
      <path class="cls-1" d="M39.93,13.84c.21.21.49.32.77.32s.56-.11.77-.32c.43-.43.43-1.12,0-1.54l-4.42-4.42c-.43-.43-1.12-.43-1.54,0-.43.43-.43,1.12,0,1.54l4.42,4.42Z"/>
    </g>
  </g>
</svg>