<?xml version="1.0" encoding="UTF-8"?>
<svg id="Layer_2" xmlns="http://www.w3.org/2000/svg" viewBox="0 0 92.45 92.47">
  <defs>
    <style>
      .cls-1 {
        fill: #222935;
      }
    </style>
  </defs>
  <g id="Layer_2-2" data-name="Layer_2">
    <g>
      <path class="cls-1" d="M38.04,52.35h-1.13c-2.76,0-5,2.24-5,5s2.24,5,5,5h1.13c2.76,0,5-2.24,5-5s-2.24-5-5-5ZM38.04,60.17h-1.13c-1.55,0-2.82-1.26-2.82-2.82s1.26-2.82,2.82-2.82h1.13c1.55,0,2.82,1.26,2.82,2.82s-1.26,2.82-2.82,2.82Z"/>
      <path class="cls-1" d="M49.96,21.5c-2.74-2.46-6.34-3.71-10.7-3.71-4.11,0-7.63,1-10.47,2.97-1.24.86-2.29,1.87-3.13,3.01-.97,1.31-1.25,2.97-.77,4.53.48,1.58,1.66,2.8,3.21,3.34l.18.06c2.16.76,4.53-.01,5.9-1.92.27-.37.58-.7.93-.98.96-.76,2.15-1.14,3.62-1.14,1.22,0,2.22.35,3.08,1.08.8.68,1.2,1.61,1.2,2.83,0,.52-.07,1.02-.22,1.49-.14.44-.39.88-.73,1.3-.41.5-.76.88-1.04,1.13l-2.71,2.48c-2.09,1.85-3.69,3.61-4.76,5.24l-.03.05c-.94,1.46-1,3.24-.17,4.77.83,1.53,2.43,2.48,4.17,2.48h1.42c1.91,0,3.62-1.13,4.35-2.87.05-.12.1-.23.16-.35.36-.7.74-1.23,1.13-1.58l4.38-3.9s.02-.02.04-.03c1.75-1.7,3.05-3.37,3.88-4.96.85-1.64,1.29-3.79,1.29-6.38,0-3.45-1.41-6.47-4.18-8.96ZM50.92,35.83c-.72,1.38-1.88,2.85-3.45,4.39l-4.36,3.89c-.59.52-1.13,1.27-1.61,2.21-.08.17-.16.33-.23.5-.39.93-1.3,1.53-2.33,1.53h-1.42c-.95,0-1.79-.5-2.25-1.34-.45-.82-.41-1.77.09-2.54l.02-.04c.96-1.46,2.43-3.08,4.39-4.81l2.72-2.49c.36-.33.77-.78,1.25-1.36.53-.64.91-1.33,1.13-2.04.21-.68.32-1.4.32-2.14,0-1.88-.66-3.39-1.97-4.5-1.25-1.06-2.77-1.6-4.5-1.6-1.96,0-3.63.54-4.98,1.61-.51.4-.96.88-1.35,1.42-.8,1.11-2.16,1.57-3.4,1.13l-.18-.06c-.9-.31-1.57-1.02-1.85-1.93-.28-.9-.12-1.84.44-2.59.7-.94,1.58-1.79,2.62-2.51,2.47-1.71,5.57-2.58,9.23-2.58s6.91,1.06,9.24,3.15c2.33,2.09,3.46,4.49,3.46,7.34,0,2.24-.35,4.05-1.04,5.37Z"/>
      <path class="cls-1" d="M39.1,7.43c-.03-.6-.54-1.07-1.14-1.04-8.27.38-16.05,3.82-21.91,9.68-3.38,3.38-5.94,7.35-7.61,11.79-.21.56.07,1.19.64,1.41.13.05.26.07.38.07.44,0,.86-.27,1.02-.71,1.56-4.15,3.95-7.85,7.1-11.01,5.47-5.47,12.74-8.68,20.47-9.04.6-.03,1.07-.54,1.04-1.14Z"/>
      <path class="cls-1" d="M9.29,46.44c-.13-.59-.72-.96-1.31-.82-.59.13-.96.72-.82,1.31,1.24,5.46,3.88,10.55,7.62,14.73.22.24.51.36.81.36.26,0,.52-.09.73-.28.45-.4.49-1.09.08-1.54-3.5-3.9-5.96-8.66-7.12-13.75Z"/>
      <path class="cls-1" d="M91.81,88.74l-12.84-12.84c-.57-.57-1.38-.76-2.11-.56l-8.65-8.65c14.65-15.47,14.39-39.96-.76-55.12C59.99,4.11,50.07,0,39.51,0S19.02,4.11,11.56,11.58c-15.41,15.41-15.41,40.49,0,55.9,7.47,7.47,17.39,11.58,27.95,11.58s19.8-3.83,27.17-10.82l8.65,8.65c-.19.73,0,1.54.56,2.11l12.84,12.84c.43.43.99.64,1.54.64s1.12-.21,1.54-.64c.85-.85.85-2.24,0-3.09ZM13.1,65.93C-1.46,51.37-1.46,27.68,13.1,13.12,20.16,6.07,29.53,2.18,39.51,2.18s19.35,3.88,26.41,10.94c14.56,14.56,14.56,38.25,0,52.81-7.05,7.05-16.43,10.94-26.41,10.94s-19.35-3.88-26.41-10.94Z"/>
    </g>
  </g>
</svg>