<?xml version="1.0" encoding="UTF-8"?>
<svg id="Layer_2" xmlns="http://www.w3.org/2000/svg" viewBox="0 0 104.25 80">
  <defs>
    <style>
      .cls-1 {
        fill: #222935;
      }
    </style>
  </defs>
  <g id="Layer_2-2" data-name="Layer_2">
    <g>
      <path class="cls-1" d="M39.71,64.22c-.6,0-1.09.49-1.09,1.09v13.59c0,.6.49,1.09,1.09,1.09s1.09-.49,1.09-1.09v-13.59c0-.6-.49-1.09-1.09-1.09Z"/>
      <path class="cls-1" d="M61.06,64.22c-.6,0-1.09.49-1.09,1.09v13.59c0,.6.49,1.09,1.09,1.09s1.09-.49,1.09-1.09v-13.59c0-.6-.49-1.09-1.09-1.09Z"/>
      <path class="cls-1" d="M76.36,64.22c-.6,0-1.09.49-1.09,1.09v13.59c0,.6.49,1.09,1.09,1.09s1.09-.49,1.09-1.09v-13.59c0-.6-.49-1.09-1.09-1.09Z"/>
      <path class="cls-1" d="M95.11,55.66h-10.7c-1.89,0-3.68.56-5.21,1.63-1.48-1.03-3.27-1.63-5.2-1.63h-10.7c-1.95,0-3.76.62-5.24,1.66-1.54-1.09-3.35-1.66-5.25-1.66h-10.7c-5.04,0-9.15,4.1-9.15,9.15v14.1c0,.6.49,1.09,1.09,1.09s1.09-.49,1.09-1.09v-14.1c0-3.84,3.12-6.96,6.96-6.96h10.7c1.28,0,2.5.34,3.58.99-1.39,1.6-2.23,3.69-2.23,5.97v14.1c0,.6.49,1.09,1.09,1.09s1.09-.49,1.09-1.09v-14.1c0-3.84,3.12-6.96,6.96-6.96h10.7c3.84,0,6.96,3.12,6.96,6.96v14.1c0,.6.49,1.09,1.09,1.09s1.09-.49,1.09-1.09v-14.1c0-2.3-.85-4.39-2.25-6,1.06-.63,2.26-.96,3.52-.96h10.7c3.84,0,6.96,3.12,6.96,6.96v14.1c0,.6.49,1.09,1.09,1.09s1.09-.49,1.09-1.09v-14.1c0-5.04-4.1-9.15-9.15-9.15Z"/>
      <path class="cls-1" d="M97.48,64.22c-.6,0-1.09.49-1.09,1.09v13.59c0,.6.49,1.09,1.09,1.09s1.09-.49,1.09-1.09v-13.59c0-.6-.49-1.09-1.09-1.09Z"/>
      <path class="cls-1" d="M14.52,28.07c4.2,0,7.62-3.42,7.62-7.62s-3.42-7.62-7.62-7.62-7.62,3.42-7.62,7.62,3.42,7.62,7.62,7.62ZM14.52,15.01c3,0,5.44,2.44,5.44,5.44s-2.44,5.44-5.44,5.44-5.44-2.44-5.44-5.44,2.44-5.44,5.44-5.44Z"/>
      <path class="cls-1" d="M19.88,29.43h-10.72c-5.05,0-9.16,4.11-9.16,9.16v16.68c0,2.17,1.77,3.94,3.94,3.94.63,0,1.22-.15,1.75-.42v19.55c0,.6.49,1.09,1.09,1.09s1.09-.49,1.09-1.09v-39.23c0-.6-.49-1.09-1.09-1.09s-1.09.49-1.09,1.09v16.17c0,.97-.79,1.75-1.75,1.75s-1.75-.79-1.75-1.75v-16.68c0-3.85,3.13-6.98,6.98-6.98h10.72c3.85,0,6.98,3.13,6.98,6.98v16.68c0,.97-.79,1.75-1.75,1.75s-1.75-.79-1.75-1.75v-16.17c0-.6-.49-1.09-1.09-1.09s-1.09.49-1.09,1.09v39.23c0,.6.49,1.09,1.09,1.09s1.09-.49,1.09-1.09v-19.55c.53.26,1.12.42,1.75.42,2.17,0,3.94-1.77,3.94-3.94v-16.68c0-5.05-4.11-9.16-9.16-9.16Z"/>
      <path class="cls-1" d="M14.6,56.15h0c-.6,0-1.09.49-1.09,1.09l-.02,21.09c0,.6.49,1.09,1.09,1.09h0c.6,0,1.09-.49,1.09-1.09l.02-21.09c0-.6-.49-1.09-1.09-1.09Z"/>
      <path class="cls-1" d="M34.03,47.76h5.87c.52,3.69,3.7,6.54,7.53,6.54s7.01-2.85,7.53-6.54h6.13c.52,3.69,3.7,6.54,7.53,6.54s7.01-2.85,7.53-6.54h6.05c.52,3.69,3.7,6.54,7.53,6.54s7.01-2.85,7.53-6.54h5.8c.6,0,1.09-.49,1.09-1.09V1.09c0-.6-.49-1.09-1.09-1.09H34.03c-.6,0-1.09.49-1.09,1.09v45.58c0,.6.49,1.09,1.09,1.09ZM47.44,52.12c-2.99,0-5.42-2.43-5.42-5.43s2.43-5.42,5.42-5.42,5.42,2.43,5.42,5.42-2.43,5.43-5.42,5.43ZM68.64,52.12c-2.99,0-5.42-2.43-5.42-5.43s2.43-5.42,5.42-5.42,5.42,2.43,5.42,5.42-2.43,5.43-5.42,5.43ZM89.76,52.12c-2.99,0-5.42-2.43-5.42-5.43s2.43-5.42,5.42-5.42,5.42,2.43,5.42,5.42-2.43,5.43-5.42,5.43ZM35.13,2.18h66.87v43.4h-4.71c-.54-3.67-3.71-6.49-7.53-6.49s-6.99,2.83-7.53,6.49h-6.07c-.54-3.67-3.71-6.49-7.53-6.49s-6.99,2.83-7.53,6.49h-6.15c-.54-3.67-3.71-6.49-7.53-6.49s-6.99,2.83-7.53,6.49h-4.79V2.18Z"/>
      <path class="cls-1" d="M63.25,19.53l7.29,10.3c.33.47.97.6,1.46.3l25.4-15.51-.28,1.23c-.14.59.23,1.17.82,1.31.08.02.17.03.25.03.5,0,.95-.34,1.06-.85l.82-3.55c.13-.57-.21-1.15-.78-1.3l-4.09-1.09c-.58-.16-1.18.19-1.34.77-.16.58.19,1.18.77,1.34l1.42.38-24.31,14.84-7.33-10.36c-.35-.49-1.03-.61-1.52-.26l-24.84,17.47c-.49.35-.61,1.03-.26,1.52.21.3.55.46.89.46.22,0,.44-.06.63-.2l23.95-16.84Z"/>
    </g>
  </g>
</svg>