<?xml version="1.0" encoding="UTF-8"?>
<svg id="Layer_2" xmlns="http://www.w3.org/2000/svg" viewBox="0 0 101.87 81.61">
  <defs>
    <style>
      .cls-1 {
        fill: #222935;
      }
    </style>
  </defs>
  <g id="Layer_2-2" data-name="Layer_2">
    <g>
      <path class="cls-1" d="M14.18,15.19c4.19,0,7.59-3.41,7.59-7.59S18.37,0,14.18,0s-7.59,3.41-7.59,7.59,3.41,7.59,7.59,7.59ZM14.18,2.18c2.98,0,5.41,2.43,5.41,5.41s-2.43,5.41-5.41,5.41-5.41-2.43-5.41-5.41,2.43-5.41,5.41-5.41Z"/>
      <path class="cls-1" d="M70.93,55.83c0-3.98-3.24-7.22-7.22-7.22s-7.22,3.24-7.22,7.22,3.24,7.22,7.22,7.22,7.22-3.24,7.22-7.22ZM58.66,55.83c0-2.78,2.26-5.04,5.04-5.04s5.04,2.26,5.04,5.04-2.26,5.04-5.04,5.04-5.04-2.26-5.04-5.04Z"/>
      <path class="cls-1" d="M56.38,76.11c-.6,0-1.09.49-1.09,1.09v3.23c0,.6.49,1.09,1.09,1.09s1.09-.49,1.09-1.09v-3.23c0-.6-.49-1.09-1.09-1.09Z"/>
      <path class="cls-1" d="M70.97,76.11c-.6,0-1.09.49-1.09,1.09v3.23c0,.6.49,1.09,1.09,1.09s1.09-.49,1.09-1.09v-3.23c0-.6-.49-1.09-1.09-1.09Z"/>
      <path class="cls-1" d="M46.23,55.83c0-3.98-3.24-7.22-7.22-7.22s-7.22,3.24-7.22,7.22,3.24,7.22,7.22,7.22,7.22-3.24,7.22-7.22ZM33.97,55.83c0-2.78,2.26-5.04,5.04-5.04s5.04,2.26,5.04,5.04-2.26,5.04-5.04,5.04-5.04-2.26-5.04-5.04Z"/>
      <path class="cls-1" d="M31.69,76.11c-.6,0-1.09.49-1.09,1.09v3.23c0,.6.49,1.09,1.09,1.09s1.09-.49,1.09-1.09v-3.23c0-.6-.49-1.09-1.09-1.09Z"/>
      <path class="cls-1" d="M46.27,76.11c-.6,0-1.09.49-1.09,1.09v3.23c0,.6.49,1.09,1.09,1.09s1.09-.49,1.09-1.09v-3.23c0-.6-.49-1.09-1.09-1.09Z"/>
      <path class="cls-1" d="M95.62,55.83c0-3.98-3.24-7.22-7.22-7.22s-7.22,3.24-7.22,7.22,3.24,7.22,7.22,7.22,7.22-3.24,7.22-7.22ZM83.36,55.83c0-2.78,2.26-5.04,5.04-5.04s5.04,2.26,5.04,5.04-2.26,5.04-5.04,5.04-5.04-2.26-5.04-5.04Z"/>
      <path class="cls-1" d="M93.25,64.34h-9.7c-3.22,0-6.03,1.78-7.5,4.41-1.47-2.63-4.28-4.41-7.5-4.41h-9.7c-3.22,0-6.03,1.78-7.5,4.41-1.47-2.63-4.28-4.41-7.5-4.41h-9.7c-4.73,0-8.59,3.85-8.59,8.59v7.33c0,.6.49,1.09,1.09,1.09s1.09-.49,1.09-1.09v-7.33c0-3.53,2.87-6.4,6.4-6.4h9.7c3.53,0,6.4,2.87,6.4,6.4v7.59c0,.6.49,1.09,1.09,1.09s1.09-.49,1.09-1.09v-.21s0-.03,0-.05v-7.33c0-3.53,2.87-6.4,6.4-6.4h9.7c3.53,0,6.4,2.87,6.4,6.4v7.59c0,.6.49,1.09,1.09,1.09s1.09-.49,1.09-1.09v-.21s0-.03,0-.05v-7.33c0-3.53,2.87-6.4,6.4-6.4h9.7c3.53,0,6.4,2.87,6.4,6.4v7.59c0,.6.49,1.09,1.09,1.09s1.09-.49,1.09-1.09v-7.59c0-4.73-3.85-8.59-8.59-8.59Z"/>
      <path class="cls-1" d="M81.08,76.11c-.6,0-1.09.49-1.09,1.09v3.23c0,.6.49,1.09,1.09,1.09s1.09-.49,1.09-1.09v-3.23c0-.6-.49-1.09-1.09-1.09Z"/>
      <path class="cls-1" d="M95.66,76.11c-.6,0-1.09.49-1.09,1.09v3.23c0,.6.49,1.09,1.09,1.09s1.09-.49,1.09-1.09v-3.23c0-.6-.49-1.09-1.09-1.09Z"/>
      <path class="cls-1" d="M100.78,0H30.93c-.6,0-1.09.49-1.09,1.09v16.33l-10.51-.03s0,0,0,0h-10.29c-4.98,0-9.04,4.05-9.04,9.04v5.75c0,.12.02.23.06.34v10.22c0,2.06,1.67,3.73,3.73,3.73.56,0,1.09-.13,1.57-.35v16.83c0,2.73,2.22,4.96,4.96,4.96,1.56,0,2.96-.73,3.87-1.86.91,1.13,2.3,1.86,3.87,1.86,2.73,0,4.96-2.22,4.96-4.96l-.03-32.61c0-1.87,1.2-3.51,2.98-4.08l2.02-.64c.6-.19,1.22-.32,1.85-.4v19.35c0,.6.49,1.09,1.09,1.09h69.85c.6,0,1.09-.49,1.09-1.09V1.09c0-.6-.49-1.09-1.09-1.09ZM27.33,23.52l-2.02.64c-2.7.85-4.51,3.33-4.51,6.16l.03,32.61c0,1.53-1.24,2.77-2.77,2.77s-2.77-1.24-2.77-2.78l-.03-18.62c0-.6-.49-1.09-1.09-1.09h0c-.6,0-1.09.49-1.09,1.09l.03,18.62c0,1.53-1.24,2.77-2.77,2.77s-2.77-1.24-2.77-2.77v-23.02c0-.08-.01-.16-.03-.24v-8.72c0-.6-.49-1.09-1.09-1.09s-1.09.49-1.09,1.09v11.77c0,.85-.69,1.54-1.54,1.54s-1.54-.69-1.54-1.54v-11.77c0-.12-.02-.23-.06-.34v-4.19c0-3.78,3.07-6.85,6.85-6.85h10.21l21.64.06c.85-.02,1.56.66,1.58,1.51.02.85-.66,1.56-1.51,1.58l-10.14.23c-1.18.03-2.36.22-3.48.58ZM99.69,43.46H32.02v-18.36l8.98-.2c2.05-.05,3.69-1.75,3.64-3.81-.05-2.05-1.74-3.69-3.78-3.64l-8.84-.02V2.18h67.67v41.28Z"/>
      <path class="cls-1" d="M38.05,38.7c.21.31.55.48.9.48.21,0,.42-.06.61-.19l21.81-14.79,7.13,6.18c.39.34.96.36,1.37.05l21.06-15.8-.29,1.82c-.09.6.31,1.15.91,1.25.06,0,.11.01.17.01.53,0,.99-.38,1.08-.92l.78-4.92c.05-.29-.03-.6-.21-.83-.18-.24-.45-.39-.75-.42l-4.66-.52c-.6-.07-1.14.37-1.21.96-.07.6.37,1.14.96,1.21l2.37.26-20.82,15.62-7.1-6.15c-.37-.32-.92-.36-1.33-.08l-22.51,15.26c-.5.34-.63,1.02-.29,1.52Z"/>
    </g>
  </g>
</svg>