<?xml version="1.0" encoding="UTF-8"?>
<svg id="Layer_2" xmlns="http://www.w3.org/2000/svg" viewBox="0 0 73.93 73.92">
  <defs>
    <style>
      .cls-1 {
        fill: #222935;
      }
    </style>
  </defs>
  <g id="Layer_2-2" data-name="Layer_2">
    <path class="cls-1" d="M68.39,5.54c-7.39-7.38-19.4-7.38-26.79,0l-12.62,12.62c-1.92,1.92-3.34,4.16-4.26,6.55-2.46.95-4.67,2.38-6.56,4.27l-12.62,12.62c-3.58,3.58-5.55,8.33-5.55,13.39s1.97,9.82,5.55,13.39c3.69,3.69,8.54,5.54,13.39,5.54,4.85,0,9.7-1.85,13.39-5.54l12.62-12.62c1.92-1.92,3.34-4.16,4.26-6.55,2.47-.95,4.67-2.39,6.56-4.27l12.62-12.62c7.38-7.38,7.38-19.4,0-26.79ZM28.99,44.95c1.68,1.68,3.61,2.99,5.74,3.93l-10.95,10.95c-2.67,2.67-7.01,2.67-9.67,0-2.67-2.67-2.67-7.01,0-9.67l10.95-10.95c.92,2.09,2.22,4.04,3.93,5.74ZM43.41,54.22l-12.62,12.62c-6.53,6.53-17.16,6.53-23.7,0-3.17-3.16-4.91-7.37-4.91-11.85s1.74-8.68,4.91-11.85l12.62-12.62c1.24-1.24,2.65-2.26,4.18-3.05-.69,3.13-.58,6.39.33,9.47l-11.67,11.67c-3.52,3.52-3.52,9.24,0,12.76,1.76,1.76,4.07,2.64,6.38,2.64s4.62-.88,6.38-2.64l12.62-12.62c3.52-3.52,3.52-9.24,0-12.76-.5-.5-1.05-.93-1.64-1.3-1.33-2.57-.92-5.82,1.24-7.98,2.21.84,4.18,2.11,5.87,3.8,6.53,6.53,6.53,17.16,0,23.7ZM44.95,28.98c-1.68-1.68-3.61-2.99-5.74-3.93l10.95-10.95c1.29-1.29,3.01-2,4.84-2s3.55.71,4.84,2c1.29,1.29,2,3.01,2,4.84s-.71,3.55-2,4.84l-10.95,10.95c-.92-2.09-2.22-4.04-3.93-5.74ZM66.85,30.78l-12.62,12.62c-1.24,1.24-2.65,2.27-4.18,3.05.69-3.13.58-6.4-.33-9.48l11.67-11.67c1.7-1.7,2.64-3.97,2.64-6.38s-.94-4.68-2.64-6.38c-1.7-1.7-3.97-2.64-6.38-2.64s-4.68.94-6.38,2.64l-12.62,12.62c-3.52,3.52-3.52,9.24,0,12.76.5.5,1.05.93,1.64,1.3,1.33,2.57.91,5.82-1.24,7.97-2.21-.84-4.18-2.11-5.87-3.8-6.53-6.53-6.53-17.16,0-23.7l12.62-12.62c6.53-6.53,17.16-6.53,23.7,0,6.53,6.53,6.53,17.16,0,23.7Z"/>
  </g>
</svg>