<?xml version="1.0" encoding="UTF-8"?>
<svg id="Layer_2" xmlns="http://www.w3.org/2000/svg" viewBox="0 0 99.54 94.68">
  <defs>
    <style>
      .cls-1 {
        fill: #4d4d4d;
      }
    </style>
  </defs>
  <g id="_x2014_ÎÓÈ_x5F_1">
    <g>
      <path class="cls-1" d="M86.39,94.68H13.97c-1.15,0-2.08-.93-2.08-2.08v-13.05c0-1.15.93-2.08,2.08-2.08s2.08.93,2.08,2.08v10.97h68.26v-10.63c0-1.15.93-2.08,2.08-2.08s2.08.93,2.08,2.08v12.7c0,1.15-.93,2.08-2.08,2.08Z"/>
      <path class="cls-1" d="M95.63,33.94c0-.12-.01-.24-.03-.36l-5.54-31.86c-.17-1-1.04-1.72-2.05-1.72H12.27c-1.01,0-1.87.73-2.05,1.72l-5.54,31.86c-.02.12-.03.24-.03.36,0,4.97,2.86,9.46,7.24,11.61v7.16c0,1.15.93,2.08,2.08,2.08s2.08-.93,2.08-2.08v-5.92c.05,0,.11,0,.16,0,.45.05.91.08,1.37.08,4.55,0,8.55-2.36,10.86-5.91,2.31,3.56,6.31,5.91,10.85,5.91s8.54-2.36,10.85-5.91c2.31,3.56,6.32,5.91,10.86,5.91s8.54-2.36,10.85-5.91c2.31,3.55,6.31,5.91,10.85,5.91.49,0,.97-.04,1.45-.09.06,0,.12,0,.17-.01v5.58c0,1.15.93,2.08,2.08,2.08s2.08-.93,2.08-2.08v-6.85c4.33-2.17,7.16-6.64,7.16-11.56ZM85.66,42.21c-.92.35-1.93.52-2.97.52-4.84,0-8.77-3.94-8.77-8.78,0-1.15-.93-2.08-2.08-2.08s-2.08.93-2.08,2.08c0,4.84-3.93,8.78-8.77,8.78s-8.78-3.94-8.78-8.78c0-1.15-.93-2.08-2.08-2.08s-2.08.93-2.08,2.08c0,4.84-3.93,8.78-8.77,8.78s-8.77-3.94-8.77-8.78c0-1.15-.93-2.08-2.08-2.08s-2.08.93-2.08,2.08c0,4.84-3.94,8.78-8.78,8.78-.99,0-1.97-.17-2.91-.51-3.45-1.21-5.78-4.46-5.86-8.11L14.02,4.16h72.24l5.21,29.96c-.07,3.62-2.38,6.85-5.81,8.09Z"/>
      <g>
        <path class="cls-1" d="M0,65.94c0-1.97.29-3.62.88-4.96.44-.98,1.04-1.87,1.8-2.65.76-.78,1.59-1.36,2.5-1.74,1.21-.51,2.59-.77,4.17-.77,2.85,0,5.13.88,6.84,2.65,1.71,1.77,2.57,4.23,2.57,7.37s-.85,5.56-2.55,7.33c-1.7,1.76-3.97,2.64-6.81,2.64s-5.16-.88-6.86-2.63c-1.7-1.75-2.54-4.17-2.54-7.25ZM4.02,65.81c0,2.19.51,3.85,1.52,4.98,1.01,1.13,2.29,1.7,3.85,1.7s2.83-.56,3.83-1.68c1-1.12,1.5-2.8,1.5-5.05s-.49-3.87-1.46-4.96c-.97-1.09-2.26-1.64-3.87-1.64s-2.91.55-3.89,1.66c-.98,1.1-1.48,2.77-1.48,4.99Z"/>
        <path class="cls-1" d="M21.84,73.7v-13.78c0-2.08,1.68-3.76,3.76-3.76h.04l7.91,12.91v-11.12c0-.99.8-1.8,1.8-1.8h.04c.99,0,1.8.8,1.8,1.8v13.78c0,2.08-1.68,3.76-3.76,3.76h-.16l-7.8-12.61v10.82c0,.99-.8,1.8-1.8,1.8h-.04c-.99,0-1.8-.8-1.8-1.8Z"/>
        <path class="cls-1" d="M41.42,73.01v-15.09c0-.89.72-1.61,1.61-1.61h.68c.89,0,1.61.72,1.61,1.61v14.31h8.1c.89,0,1.61.72,1.61,1.61v.03c0,.89-.72,1.61-1.61,1.61h-9.52c-1.37,0-2.48-1.11-2.48-2.48Z"/>
        <path class="cls-1" d="M57.7,73.56v-15.47c0-1.07.87-1.93,1.93-1.93h.04c1.07,0,1.93.87,1.93,1.93v15.47c0,1.07-.87,1.93-1.93,1.93h-.04c-1.07,0-1.93-.87-1.93-1.93Z"/>
        <path class="cls-1" d="M65.36,73.7v-14.65c0-1.6,1.3-2.9,2.9-2.9h.9l7.91,12.91v-11.12c0-.99.8-1.8,1.8-1.8h.04c.99,0,1.8.8,1.8,1.8v14.65c0,1.6-1.3,2.9-2.9,2.9h-1.02l-7.8-12.61v10.82c0,.99-.8,1.8-1.8,1.8h-.04c-.99,0-1.8-.8-1.8-1.8Z"/>
        <path class="cls-1" d="M84.83,73.02v-14.38c0-1.37,1.11-2.48,2.48-2.48h10.25c.89,0,1.61.72,1.61,1.61v.05c0,.89-.72,1.61-1.61,1.61h-8.82v4.29h8.1c.89,0,1.61.72,1.61,1.61v.03c0,.89-.72,1.61-1.61,1.61h-8.1v5.26h9.19c.89,0,1.61.72,1.61,1.61v.03c0,.89-.72,1.61-1.61,1.61h-10.62c-1.37,0-2.48-1.11-2.48-2.48Z"/>
      </g>
    </g>
  </g>
</svg>