<?xml version="1.0" encoding="UTF-8"?>
<svg id="Layer_2" xmlns="http://www.w3.org/2000/svg" viewBox="0 0 113.38 86.2">
  <defs>
    <style>
      .cls-1 {
        fill: #222935;
      }
    </style>
  </defs>
  <g id="Layer_2-2" data-name="Layer_2">
    <g>
      <path class="cls-1" d="M56.69,23.16c3.95,0,7.16-3.21,7.16-7.16s-3.21-7.17-7.16-7.17-7.16,3.21-7.16,7.17,3.21,7.16,7.16,7.16ZM56.69,11.02c2.75,0,4.98,2.23,4.98,4.98s-2.23,4.98-4.98,4.98-4.98-2.23-4.98-4.98,2.23-4.98,4.98-4.98Z"/>
      <path class="cls-1" d="M10.43,66.35c0,3.22,2.62,5.84,5.84,5.84s5.84-2.62,5.84-5.84-2.62-5.84-5.84-5.84-5.84,2.62-5.84,5.84ZM19.93,66.35c0,2.02-1.64,3.66-3.66,3.66s-3.66-1.64-3.66-3.66,1.64-3.66,3.66-3.66,3.66,1.64,3.66,3.66Z"/>
      <path class="cls-1" d="M50.81,66.35c0,3.22,2.62,5.84,5.84,5.84s5.84-2.62,5.84-5.84-2.62-5.84-5.84-5.84-5.84,2.62-5.84,5.84ZM60.31,66.35c0,2.02-1.64,3.66-3.66,3.66s-3.66-1.64-3.66-3.66,1.64-3.66,3.66-3.66,3.66,1.64,3.66,3.66Z"/>
      <path class="cls-1" d="M97.04,60.51c-3.22,0-5.84,2.62-5.84,5.84s2.62,5.84,5.84,5.84,5.84-2.62,5.84-5.84-2.62-5.84-5.84-5.84ZM97.04,70.01c-2.02,0-3.66-1.64-3.66-3.66s1.64-3.66,3.66-3.66,3.66,1.64,3.66,3.66-1.64,3.66-3.66,3.66Z"/>
      <path class="cls-1" d="M97.2,53.6l-35.87-13.06c9.1-2.11,15.9-10.27,15.9-20,0-11.32-9.21-20.54-20.54-20.54s-20.54,9.21-20.54,20.54c0,9.7,6.75,17.84,15.8,19.98l-35.94,13.09c-8.86.15-16.01,7.4-16.01,16.29s7.31,16.3,16.3,16.3,16.3-7.31,16.3-16.3c0-7.45-5.03-13.75-11.88-15.68l34.8-12.67v12.1c-8.44.6-15.13,7.66-15.13,16.25s7.31,16.3,16.3,16.3,16.3-7.31,16.3-16.3-6.77-15.74-15.28-16.26v-12.09l34.86,12.7c-6.8,1.96-11.79,8.24-11.79,15.66,0,8.99,7.31,16.3,16.3,16.3s16.3-7.31,16.3-16.3-7.24-16.23-16.17-16.3ZM49.49,32.26c-.6,0-1.09.49-1.09,1.09v3.55c-1.11-.56-2.15-1.23-3.11-2v-2.03c0-3.54,2.88-6.41,6.41-6.41h9.97c3.54,0,6.41,2.88,6.41,6.41v2.03c-.96.77-2,1.44-3.11,2v-3.55c0-.6-.49-1.09-1.09-1.09s-1.09.49-1.09,1.09v4.49c-1.91.68-3.97,1.05-6.11,1.05s-4.2-.37-6.11-1.05v-4.49c0-.6-.49-1.09-1.09-1.09ZM38.33,20.54c0-10.12,8.23-18.35,18.35-18.35s18.35,8.23,18.35,18.35c0,4.74-1.81,9.07-4.77,12.33,0-4.74-3.86-8.59-8.6-8.59h-9.97c-4.74,0-8.59,3.85-8.6,8.59-2.96-3.26-4.77-7.59-4.77-12.33ZM11.73,83.25v-3.33c0-.6-.49-1.09-1.09-1.09s-1.09.49-1.09,1.09v2.37c-.69-.38-1.34-.81-1.96-1.3v-1.45c0-2.63,2.14-4.78,4.78-4.78h7.8c2.63,0,4.78,2.14,4.78,4.78v1.5c-.61.48-1.27.91-1.96,1.28v-2.4c0-.6-.49-1.09-1.09-1.09s-1.09.49-1.09,1.09v3.35c-1.42.48-2.93.74-4.51.74s-3.14-.27-4.57-.76ZM30.42,69.9c0,3.45-1.25,6.62-3.31,9.07-.29-3.57-3.29-6.38-6.94-6.38h-7.8c-3.62,0-6.6,2.78-6.93,6.32-2.03-2.45-3.25-5.58-3.25-9,0-7.78,6.33-14.12,14.12-14.12s14.12,6.33,14.12,14.12ZM52.12,83.25v-3.33c0-.6-.49-1.09-1.09-1.09s-1.09.49-1.09,1.09v2.37c-.69-.38-1.34-.81-1.96-1.3v-1.45c0-2.63,2.14-4.78,4.78-4.78h7.8c2.63,0,4.78,2.14,4.78,4.78v1.5c-.61.48-1.27.91-1.96,1.28v-2.41c0-.6-.49-1.09-1.09-1.09s-1.09.49-1.09,1.09v3.35c-1.42.48-2.93.74-4.51.74s-3.14-.27-4.57-.76ZM70.8,69.9c0,3.45-1.25,6.62-3.31,9.07-.29-3.57-3.29-6.38-6.94-6.38h-7.8c-3.62,0-6.6,2.78-6.93,6.32-2.03-2.45-3.25-5.58-3.25-9,0-7.78,6.33-14.12,14.12-14.12s14.12,6.33,14.12,14.12ZM92.5,83.25v-3.33c0-.6-.49-1.09-1.09-1.09s-1.09.49-1.09,1.09v2.37c-.69-.38-1.34-.81-1.96-1.3v-1.45c0-2.63,2.14-4.78,4.78-4.78h7.8c2.63,0,4.78,2.14,4.78,4.78v1.5c-.61.48-1.27.91-1.96,1.28v-2.41c0-.6-.49-1.09-1.09-1.09s-1.09.49-1.09,1.09v3.35c-1.42.48-2.93.74-4.51.74s-3.14-.27-4.57-.76ZM107.88,78.97c-.29-3.57-3.29-6.38-6.94-6.38h-7.8c-3.62,0-6.6,2.78-6.93,6.32-2.03-2.45-3.25-5.58-3.25-9,0-7.78,6.33-14.12,14.12-14.12s14.12,6.33,14.12,14.12c0,3.45-1.25,6.62-3.31,9.07Z"/>
    </g>
  </g>
</svg>