<?xml version="1.0" encoding="UTF-8"?>
<svg id="Layer_2" xmlns="http://www.w3.org/2000/svg" viewBox="0 0 87.91 105.9">
  <defs>
    <style>
      .cls-1 {
        fill: #222935;
      }
    </style>
  </defs>
  <g id="Layer_2-2" data-name="Layer_2">
    <g>
      <path class="cls-1" d="M17.42,65.32H7.42c-4.09,0-7.42,3.33-7.42,7.42v12.03c0,2.16,1.76,3.92,3.92,3.92.63,0,1.22-.15,1.74-.41v13.69c0,2.16,1.76,3.92,3.92,3.92,1.11,0,2.12-.47,2.83-1.22.71.75,1.72,1.22,2.83,1.22,2.16,0,3.92-1.76,3.92-3.92v-13.69c.53.26,1.11.41,1.74.41,2.16,0,3.92-1.76,3.92-3.92v-12.03c0-4.09-3.33-7.42-7.42-7.42ZM22.66,77.09v7.68c0,.96-.78,1.74-1.74,1.74s-1.74-.78-1.74-1.74v-10.17c0-.6-.49-1.09-1.09-1.09s-1.09.49-1.09,1.09v27.38c0,.96-.78,1.74-1.74,1.74s-1.74-.78-1.74-1.74v-14.71c0-.6-.49-1.09-1.09-1.09s-1.09.49-1.09,1.09v14.71c0,.96-.78,1.74-1.74,1.74s-1.74-.78-1.74-1.74v-27.38c0-.6-.49-1.09-1.09-1.09s-1.09.49-1.09,1.09v10.17c0,.96-.78,1.74-1.74,1.74s-1.74-.78-1.74-1.74v-12.03c0-2.89,2.35-5.24,5.24-5.24h10c2.89,0,5.24,2.35,5.24,5.24v4.34Z"/>
      <path class="cls-1" d="M12.42,64.78c3.38,0,6.13-2.75,6.13-6.13v-2.31c0-3.38-2.75-6.13-6.13-6.13s-6.13,2.75-6.13,6.13v2.31c0,3.38,2.75,6.13,6.13,6.13ZM8.48,56.35c0-2.17,1.77-3.94,3.94-3.94s3.94,1.77,3.94,3.94v2.31c0,2.17-1.77,3.94-3.94,3.94s-3.94-1.77-3.94-3.94v-2.31Z"/>
      <path class="cls-1" d="M69.48,28.78c1.95,0,3.54-1.59,3.54-3.54s-1.59-3.54-3.54-3.54h-.71c-1.95,0-3.54,1.59-3.54,3.54s1.59,3.54,3.54,3.54h.71ZM67.41,25.23c0-.75.61-1.36,1.36-1.36h.71c.75,0,1.36.61,1.36,1.36s-.61,1.36-1.36,1.36h-.71c-.75,0-1.36-.61-1.36-1.36Z"/>
      <path class="cls-1" d="M76.63,15.77c1.13-1.1,1.97-2.18,2.51-3.22.57-1.09.85-2.5.85-4.19,0-2.29-.93-4.28-2.76-5.92-1.8-1.61-4.15-2.43-6.98-2.43-2.66,0-4.95.65-6.8,1.94-.81.57-1.51,1.23-2.06,1.98-.69.93-.89,2.1-.55,3.21.34,1.12,1.17,1.98,2.27,2.36l.11.04c1.53.54,3.2,0,4.17-1.35.15-.2.32-.38.51-.53.53-.42,1.19-.62,2.02-.62.66,0,1.21.19,1.67.58.41.35.61.82.61,1.47,0,.29-.04.56-.12.81-.07.23-.2.45-.39.68-.24.3-.45.52-.61.67l-1.7,1.55c-1.34,1.18-2.37,2.32-3.06,3.37l-.02.04c-.67,1.04-.72,2.31-.12,3.41.59,1.09,1.73,1.77,2.97,1.77h.89c1.36,0,2.58-.81,3.1-2.05.03-.06.06-.13.09-.19.25-.49.47-.75.61-.87l2.75-2.45s.02-.02.04-.03ZM72.39,16.62c-.41.37-.77.86-1.1,1.5-.06.11-.11.23-.16.34-.18.43-.61.71-1.09.71h-.89c-.45,0-.84-.24-1.05-.63-.1-.18-.29-.66.04-1.18,0,0,.02-.02.02-.02.58-.89,1.48-1.87,2.69-2.94l1.71-1.56c.24-.22.51-.51.83-.9.36-.44.63-.92.78-1.41.15-.47.22-.96.22-1.47,0-1.28-.48-2.37-1.38-3.13-.86-.73-1.9-1.1-3.08-1.1-1.32,0-2.46.37-3.37,1.1-.35.28-.66.6-.92.97-.39.55-1.06.78-1.67.56l-.11-.04c-.44-.15-.77-.5-.91-.94-.13-.44-.06-.9.21-1.27.41-.56.93-1.05,1.55-1.48,1.48-1.03,3.35-1.55,5.56-1.55s4.12.61,5.52,1.87c1.37,1.23,2.03,2.64,2.03,4.3,0,1.34-.2,2.41-.61,3.18-.43.82-1.13,1.71-2.08,2.64l-2.73,2.43Z"/>
      <path class="cls-1" d="M27.86,99.62h-1.64c-.6,0-1.09.49-1.09,1.09s.49,1.09,1.09,1.09h1.64c.6,0,1.09-.49,1.09-1.09s-.49-1.09-1.09-1.09Z"/>
      <path class="cls-1" d="M7.59,29.91c.06,0,.12,0,.19-.02.59-.1.99-.67.89-1.26-.12-.71-.18-1.43-.18-2.16,0-.27,0-.55.03-.82.04-.6-.42-1.12-1.02-1.16-.6-.04-1.12.42-1.16,1.02-.02.32-.03.64-.03.96,0,.85.07,1.7.22,2.53.09.53.55.91,1.07.91Z"/>
      <path class="cls-1" d="M27.9,39.03h-3.24c-.6,0-1.09.49-1.09,1.09s.49,1.09,1.09,1.09h3.24c.6,0,1.09-.49,1.09-1.09s-.49-1.09-1.09-1.09Z"/>
      <path class="cls-1" d="M34.39,39.03h-3.24c-.6,0-1.09.49-1.09,1.09s.49,1.09,1.09,1.09h3.24c.6,0,1.09-.49,1.09-1.09s-.49-1.09-1.09-1.09Z"/>
      <path class="cls-1" d="M34.02,12.83c0-.6-.49-1.09-1.09-1.09h-3.24c-.6,0-1.09.49-1.09,1.09s.49,1.09,1.09,1.09h3.24c.6,0,1.09-.49,1.09-1.09Z"/>
      <path class="cls-1" d="M34.35,99.62h-3.24c-.6,0-1.09.49-1.09,1.09s.49,1.09,1.09,1.09h3.24c.6,0,1.09-.49,1.09-1.09s-.49-1.09-1.09-1.09Z"/>
      <path class="cls-1" d="M82.42,56.9c.48.92.92,1.88,1.3,2.84.17.43.58.69,1.02.69.13,0,.27-.02.4-.08.56-.22.84-.85.62-1.42-.41-1.04-.88-2.07-1.4-3.06-.28-.53-.94-.74-1.47-.46-.53.28-.74.94-.46,1.47Z"/>
      <path class="cls-1" d="M79.09,50.17c-.46.39-.52,1.08-.14,1.54.67.8,1.3,1.64,1.87,2.5.21.32.56.49.91.49.21,0,.42-.06.61-.18.5-.34.64-1.01.3-1.51-.62-.93-1.3-1.83-2.01-2.69-.39-.46-1.08-.52-1.54-.14Z"/>
      <path class="cls-1" d="M7.69,23.44c.11.03.22.05.33.05.46,0,.9-.3,1.04-.77.3-.95.71-1.86,1.22-2.72.31-.52.14-1.19-.37-1.5-.52-.31-1.19-.14-1.5.37-.6,1-1.09,2.08-1.43,3.19-.18.58.14,1.19.72,1.37Z"/>
      <path class="cls-1" d="M23.2,13.92h3.24c.6,0,1.09-.49,1.09-1.09s-.49-1.09-1.09-1.09h-3.24c-.6,0-1.09.49-1.09,1.09s.49,1.09,1.09,1.09Z"/>
      <path class="cls-1" d="M85.46,61.37c-.58.16-.92.76-.77,1.34.27,1,.49,2.03.66,3.05.09.54.55.92,1.08.92.06,0,.12,0,.17-.01.6-.1,1-.66.91-1.25-.18-1.1-.41-2.21-.71-3.28-.16-.58-.76-.92-1.34-.77Z"/>
      <path class="cls-1" d="M40.51,12.83c0-.6-.49-1.09-1.09-1.09h-3.24c-.6,0-1.09.49-1.09,1.09s.49,1.09,1.09,1.09h3.24c.6,0,1.09-.49,1.09-1.09Z"/>
      <path class="cls-1" d="M18.42,38.76c-.59-.12-1.17.25-1.29.84-.13.59.25,1.17.84,1.29,1,.21,2.04.32,3.07.32h.37c.6,0,1.09-.49,1.09-1.09s-.49-1.09-1.09-1.09h-.37c-.88,0-1.77-.09-2.62-.27Z"/>
      <path class="cls-1" d="M8.09,30.91c-.55.24-.81.88-.57,1.44.47,1.07,1.06,2.08,1.76,3.02.21.28.54.43.87.43.23,0,.46-.07.66-.22.48-.36.58-1.05.21-1.53-.6-.79-1.11-1.66-1.5-2.57-.24-.55-.88-.81-1.44-.57Z"/>
      <path class="cls-1" d="M16.78,14.6c.11,0,.23-.02.34-.05.94-.31,1.92-.51,2.92-.58.6-.05,1.05-.57,1-1.17-.05-.6-.57-1.05-1.17-1-1.17.09-2.32.32-3.43.69-.57.19-.88.8-.7,1.38.15.46.58.75,1.04.75Z"/>
      <path class="cls-1" d="M11.32,17.99c.28,0,.56-.11.78-.33.7-.71,1.48-1.33,2.33-1.86.51-.32.67-.99.35-1.5-.32-.51-.99-.67-1.5-.35-.99.62-1.91,1.35-2.73,2.18-.42.43-.42,1.12.01,1.54.21.21.49.31.77.31Z"/>
      <path class="cls-1" d="M11.56,36.35c-.38.47-.31,1.15.15,1.54.9.74,1.9,1.37,2.95,1.88.15.07.31.11.47.11.41,0,.8-.23.98-.62.26-.54.03-1.2-.51-1.46-.9-.43-1.74-.97-2.51-1.6-.47-.38-1.15-.31-1.54.15Z"/>
      <path class="cls-1" d="M40.84,99.62h-3.24c-.6,0-1.09.49-1.09,1.09s.49,1.09,1.09,1.09h3.24c.6,0,1.09-.49,1.09-1.09s-.49-1.09-1.09-1.09Z"/>
      <path class="cls-1" d="M76.8,91.44c-.75.72-1.54,1.41-2.36,2.05-.48.37-.56,1.06-.19,1.53.22.28.54.42.86.42.23,0,.47-.08.67-.23.88-.68,1.73-1.42,2.54-2.2.43-.42.45-1.11.03-1.54-.42-.43-1.11-.45-1.54-.03Z"/>
      <path class="cls-1" d="M73.05,43.73c-.95-.59-1.94-1.13-2.94-1.62-.54-.26-1.2-.03-1.46.51-.26.54-.03,1.2.51,1.46.93.45,1.86.95,2.74,1.5.18.11.38.16.57.16.37,0,.72-.18.93-.52.32-.51.16-1.19-.35-1.5Z"/>
      <path class="cls-1" d="M67,40.82c-1.05-.37-2.14-.69-3.22-.95-.59-.14-1.17.22-1.31.81-.14.59.22,1.17.81,1.31,1.01.24,2.02.54,3,.88.12.04.24.06.36.06.45,0,.87-.28,1.03-.73.2-.57-.1-1.19-.66-1.39Z"/>
      <path class="cls-1" d="M66.24,97.97c-.98.35-1.99.64-3,.88-.59.14-.95.73-.81,1.31.12.5.57.84,1.06.84.08,0,.17,0,.25-.03,1.09-.26,2.17-.57,3.23-.94.57-.2.87-.82.67-1.39-.2-.57-.82-.87-1.39-.67Z"/>
      <path class="cls-1" d="M75.8,45.65c-.48-.37-1.16-.29-1.53.19-.37.48-.29,1.16.19,1.53.82.64,1.61,1.33,2.36,2.05.21.2.49.31.76.31s.57-.11.78-.33c.42-.43.41-1.12-.03-1.54-.8-.78-1.66-1.52-2.54-2.2Z"/>
      <path class="cls-1" d="M40.88,39.03h-3.24c-.6,0-1.09.49-1.09,1.09s.49,1.09,1.09,1.09h3.24c.6,0,1.09-.49,1.09-1.09s-.49-1.09-1.09-1.09Z"/>
      <path class="cls-1" d="M87.87,68.76c-.03-.6-.54-1.07-1.15-1.03-.6.03-1.06.54-1.03,1.15.03.51.04,1.03.04,1.54s-.01,1.06-.04,1.58c-.03.6.43,1.12,1.03,1.15.02,0,.04,0,.06,0,.58,0,1.06-.45,1.09-1.03.03-.56.05-1.13.05-1.7s-.01-1.11-.04-1.66Z"/>
      <path class="cls-1" d="M86.6,74.2c-.59-.1-1.16.31-1.25.9-.17,1.03-.39,2.05-.66,3.05-.16.58.18,1.18.76,1.34.1.03.19.04.29.04.48,0,.92-.32,1.05-.8.29-1.08.53-2.18.71-3.28.1-.6-.31-1.16-.9-1.25Z"/>
      <path class="cls-1" d="M82.32,86.35c-.5-.34-1.18-.2-1.51.3-.58.86-1.21,1.7-1.88,2.5-.39.46-.33,1.15.14,1.54.2.17.45.25.7.25.31,0,.62-.13.84-.39.72-.86,1.39-1.76,2.02-2.69.34-.5.2-1.18-.3-1.51Z"/>
      <path class="cls-1" d="M85.12,80.51c-.56-.22-1.19.05-1.42.62-.38.96-.82,1.92-1.3,2.84-.28.53-.07,1.19.46,1.47.16.09.34.13.51.13.39,0,.77-.21.97-.58.52-.99.99-2.02,1.4-3.05.22-.56-.05-1.19-.62-1.42Z"/>
      <path class="cls-1" d="M71.87,95.27c-.88.55-1.81,1.05-2.74,1.5-.54.26-.77.91-.51,1.46.19.39.58.62.99.62.16,0,.32-.03.47-.11,1.01-.48,2-1.02,2.95-1.61.51-.32.67-.99.35-1.5s-.99-.67-1.5-.35Z"/>
      <path class="cls-1" d="M47.33,99.62h-3.24c-.6,0-1.09.49-1.09,1.09s.49,1.09,1.09,1.09h3.24c.6,0,1.09-.49,1.09-1.09s-.49-1.09-1.09-1.09Z"/>
      <path class="cls-1" d="M60.47,39.28c-1.1-.14-2.23-.22-3.35-.24-.6-.01-1.1.47-1.11,1.07-.01.6.47,1.1,1.07,1.11,1.04.02,2.09.09,3.12.22.05,0,.09,0,.14,0,.54,0,1.01-.4,1.08-.96.08-.6-.35-1.14-.95-1.22Z"/>
      <path class="cls-1" d="M47,12.83c0-.6-.49-1.09-1.09-1.09h-3.24c-.6,0-1.09.49-1.09,1.09s.49,1.09,1.09,1.09h3.24c.6,0,1.09-.49,1.09-1.09Z"/>
      <path class="cls-1" d="M53.49,12.83c0-.6-.49-1.09-1.09-1.09h-3.24c-.6,0-1.09.49-1.09,1.09s.49,1.09,1.09,1.09h3.24c.6,0,1.09-.49,1.09-1.09Z"/>
      <path class="cls-1" d="M47.37,39.03h-3.24c-.6,0-1.09.49-1.09,1.09s.49,1.09,1.09,1.09h3.24c.6,0,1.09-.49,1.09-1.09s-.49-1.09-1.09-1.09Z"/>
      <path class="cls-1" d="M53.82,99.62h-3.24c-.6,0-1.09.49-1.09,1.09s.49,1.09,1.09,1.09h3.24c.6,0,1.09-.49,1.09-1.09s-.49-1.09-1.09-1.09Z"/>
      <path class="cls-1" d="M53.86,39.03h-3.24c-.6,0-1.09.49-1.09,1.09s.49,1.09,1.09,1.09h3.24c.6,0,1.09-.49,1.09-1.09s-.49-1.09-1.09-1.09Z"/>
      <path class="cls-1" d="M60.16,99.4c-1.03.13-2.08.2-3.12.22-.6.01-1.08.51-1.07,1.11.01.6.5,1.07,1.09,1.07,0,0,.01,0,.02,0,1.12-.02,2.25-.1,3.35-.24.6-.07,1.02-.62.95-1.22-.07-.6-.62-1.02-1.22-.95Z"/>
      <path class="cls-1" d="M58.43,12.83c0-.6-.49-1.09-1.09-1.09h-1.64c-.6,0-1.09.49-1.09,1.09s.49,1.09,1.09,1.09h1.64c.6,0,1.09-.49,1.09-1.09Z"/>
    </g>
  </g>
</svg>