<?xml version="1.0" encoding="UTF-8"?>
<svg id="Layer_2" xmlns="http://www.w3.org/2000/svg" viewBox="0 0 80.78 94.96">
  <defs>
    <style>
      .cls-1 {
        fill: #222935;
      }
    </style>
  </defs>
  <g id="Layer_2-2" data-name="Layer_2">
    <g>
      <path class="cls-1" d="M79.69,58.06h-26.2c-.6,0-1.09.49-1.09,1.09v8.55h-25.11c-.6,0-1.09.49-1.09,1.09v7.59H1.09c-.6,0-1.09.49-1.09,1.09v16.39c0,.6.49,1.09,1.09,1.09h78.6c.6,0,1.09-.49,1.09-1.09v-34.72c0-.6-.49-1.09-1.09-1.09ZM2.18,78.56h24.01v14.21H2.18v-14.21ZM28.38,77.47v-7.59h24.01v22.89h-24.01v-15.3ZM78.6,92.78h-24.02v-32.53h24.02v32.53Z"/>
      <path class="cls-1" d="M57.57,40.76c.4,0,.79-.08,1.15-.21v12.33c0,2.4,1.95,4.35,4.35,4.35,1.3,0,2.46-.57,3.26-1.48.8.9,1.96,1.48,3.26,1.48h.21c2.4,0,4.35-1.95,4.35-4.35v-12.34c.36.14.76.22,1.17.22,1.8,0,3.27-1.47,3.27-3.27v-14.52c0-4.76-3.87-8.63-8.63-8.63h-7.05c-4.76,0-8.63,3.87-8.63,8.63v14.52c0,1.8,1.47,3.27,3.29,3.27ZM56.46,22.97c0-3.55,2.89-6.44,6.44-6.44h7.05c3.55,0,6.44,2.89,6.44,6.44v14.52c0,.6-.49,1.08-1.08,1.08s-1.08-.48-1.08-1.08l-.09-11.99c0-.6-.49-1.08-1.09-1.08h0c-.6,0-1.09.5-1.08,1.1l.07,9.31c-.04.12-.07.24-.07.37v17.68c0,1.19-.97,2.16-2.16,2.16h-.21c-1.19,0-2.16-.97-2.16-2.16v-17.68c0-.6-.49-1.09-1.09-1.09s-1.09.49-1.09,1.09v17.68c0,1.19-.97,2.16-2.16,2.16s-2.16-.97-2.16-2.16v-17.68c0-.11-.02-.21-.05-.31l.05-9.85c0-.6-.48-1.09-1.09-1.1-.59,0-1.09.48-1.1,1.09l-.06,12.47c0,.6-.49,1.08-1.11,1.08s-1.08-.49-1.08-1.08v-14.52Z"/>
      <path class="cls-1" d="M66.32,12.53c3.46,0,6.27-2.81,6.27-6.27s-2.81-6.27-6.27-6.27-6.27,2.81-6.27,6.27,2.81,6.27,6.27,6.27ZM66.32,2.18c2.25,0,4.08,1.83,4.08,4.08s-1.83,4.08-4.08,4.08-4.08-1.83-4.08-4.08,1.83-4.08,4.08-4.08Z"/>
    </g>
  </g>
</svg>