<?xml version="1.0" encoding="UTF-8"?>
<svg id="Layer_2" xmlns="http://www.w3.org/2000/svg" viewBox="0 0 89.6 89.79">
  <defs>
    <style>
      .cls-1 {
        fill: #222935;
      }
    </style>
  </defs>
  <g id="Layer_2-2" data-name="Layer_2">
    <g>
      <path class="cls-1" d="M79.69,52.89h-26.2c-.6,0-1.09.49-1.09,1.09v8.55h-25.11c-.6,0-1.09.49-1.09,1.09v7.59H1.09c-.6,0-1.09.49-1.09,1.09v16.39c0,.6.49,1.09,1.09,1.09h78.6c.6,0,1.09-.49,1.09-1.09v-34.72c0-.6-.49-1.09-1.09-1.09ZM2.18,73.4h24.01v14.21H2.18v-14.21ZM28.38,72.31v-7.59h24.01v22.89h-24.01v-15.3ZM78.6,87.61h-24.02v-32.53h24.02v32.53Z"/>
      <path class="cls-1" d="M51.38,13.76c3.79,0,6.88-3.09,6.88-6.88s-3.09-6.88-6.88-6.88-6.88,3.09-6.88,6.88,3.09,6.88,6.88,6.88ZM51.38,2.18c2.59,0,4.69,2.11,4.69,4.69s-2.11,4.69-4.69,4.69-4.69-2.11-4.69-4.69,2.11-4.69,4.69-4.69Z"/>
      <path class="cls-1" d="M88.51,2.89h-15.3v-.35c0-.6-.49-1.09-1.09-1.09s-1.09.49-1.09,1.09v16.64c-.43-.11-.89-.12-1.34-.02l-5.42,1.19c-.24.05-.5,0-.7-.13l-6.18-4.01c-1.51-.98-3.25-1.49-5.05-1.49h-5.78c-3.2,0-6.23,1.69-7.9,4.42l-8.01,13.01c-.46.75-.56,1.65-.27,2.48.29.83.93,1.47,1.76,1.77,1.21.43,2.58,0,3.33-1.04l7.38-10.3-1.8,31.07c-.06.95.29,1.9.95,2.6.66.7,1.58,1.09,2.54,1.09,1.72,0,3.17-1.23,3.44-2.93l2.64-16.46,7.48,1.04c.51.07.89.51.89,1.02v6.15c0,1.78,1.44,3.22,3.22,3.22,1.67,0,3.08-1.3,3.21-2.97l.91-11.68c.12-1.57-.9-2.99-2.42-3.37l-7.94-1.99.72-6.62,6.42,2.2c.72.25,1.5.22,2.2-.07l5.74-2.39v26.03c0,.6.49,1.09,1.09,1.09s1.09-.49,1.09-1.09v-28.28c.11-.45.11-.91,0-1.36v-5.92h15.3c.6,0,1.09-.49,1.09-1.09V3.98c0-.6-.49-1.09-1.09-1.09ZM70.62,22.77l-6.18,2.57c-.21.09-.44.09-.66.02l-7.71-2.64c-.31-.11-.66-.07-.94.11-.28.18-.46.47-.5.8l-.96,8.92c-.06.54.29,1.04.82,1.18l8.87,2.22c.49.12.82.58.78,1.08l-.91,11.68c-.04.54-.5.96-1.03.96-.57,0-1.04-.47-1.04-1.04v-6.15c0-1.59-1.19-2.96-2.77-3.18l-8.54-1.19c-.59-.08-1.13.32-1.23.91l-2.81,17.51c-.1.64-.64,1.1-1.29,1.1-.36,0-.7-.15-.95-.41-.25-.26-.37-.61-.35-.97l2.02-34.83c.03-.49-.27-.93-.73-1.09-.12-.04-.24-.06-.36-.06-.34,0-.68.16-.89.46l-9.58,13.36c-.18.26-.52.36-.82.26-.28-.1-.39-.31-.43-.43-.04-.12-.09-.36.07-.61l8.01-13.01c1.28-2.08,3.6-3.38,6.04-3.38h5.78c1.37,0,2.71.4,3.86,1.14l6.18,4.01c.69.45,1.55.6,2.36.43l5.42-1.19c.36-.08.71.1.87.42v.68c-.08.17-.22.31-.4.39ZM87.42,13.26h-14.21V5.08h14.21v8.18Z"/>
    </g>
  </g>
</svg>