<?xml version="1.0" encoding="UTF-8"?>
<svg id="Layer_2" xmlns="http://www.w3.org/2000/svg" viewBox="0 0 78.88 97.63">
  <defs>
    <style>
      .cls-1 {
        fill: #222935;
      }
    </style>
  </defs>
  <g id="Layer_2-2" data-name="Layer_2">
    <g>
      <path class="cls-1" d="M12.9,58.27h-5.2c-3.67,0-6.65,2.98-6.65,6.65v10.71c0,1.49,1.21,2.7,2.72,2.7.19,0,.38-.02.56-.06v8.71c0,1.93,1.57,3.49,3.49,3.49.93,0,1.78-.37,2.4-.96.63.6,1.47.96,2.4.96h.15c1.93,0,3.49-1.57,3.49-3.49v-8.72c.19.04.38.06.58.06,1.49,0,2.7-1.21,2.7-2.7v-10.71c0-3.67-2.98-6.65-6.65-6.65ZM17.37,75.62c0,.28-.23.51-.51.51s-.51-.23-.51-.51l-.06-8.85c0-.6-.5-1.08-1.1-1.08-.6,0-1.09.5-1.08,1.1l.05,6.83c-.03.1-.05.2-.05.31v13.04c0,.72-.59,1.31-1.31,1.31h-.15c-.72,0-1.31-.59-1.31-1.31v-13.04c0-.6-.49-1.09-1.09-1.09s-1.09.49-1.09,1.09v13.04c0,.72-.59,1.31-1.31,1.31s-1.31-.59-1.31-1.31v-13.04c0-.09-.01-.18-.04-.27l.04-7.23c0-.6-.48-1.09-1.09-1.1h0c-.6,0-1.09.49-1.09,1.09l-.05,9.2c0,.28-.23.51-.53.51-.28,0-.51-.23-.51-.51v-10.71c0-2.46,2-4.47,4.47-4.47h5.2c2.46,0,4.47,2,4.47,4.47v10.71Z"/>
      <path class="cls-1" d="M10.23,57.5c2.71,0,4.91-2.2,4.91-4.91s-2.2-4.91-4.91-4.91-4.91,2.2-4.91,4.91,2.2,4.91,4.91,4.91ZM10.23,49.86c1.5,0,2.73,1.22,2.73,2.73s-1.22,2.73-2.73,2.73-2.73-1.22-2.73-2.73,1.22-2.73,2.73-2.73Z"/>
      <path class="cls-1" d="M61.96,14h11.27v17.58c0,.6.49,1.09,1.09,1.09s1.09-.49,1.09-1.09V1.09c0-.6-.49-1.09-1.09-1.09s-1.09.49-1.09,1.09v.35h-11.27c-.6,0-1.09.49-1.09,1.09v10.37c0,.6.49,1.09,1.09,1.09ZM63.05,3.63h10.18v8.18h-10.18V3.63Z"/>
      <path class="cls-1" d="M74.51,33.22h-.47c-.6,0-1.09.49-1.09,1.09s.49,1.09,1.09,1.09h.47c.6,0,1.09-.49,1.09-1.09s-.49-1.09-1.09-1.09Z"/>
      <path class="cls-1" d="M71.86,34.31c0-.6-.49-1.09-1.09-1.09h-3.28c-.6,0-1.09.49-1.09,1.09s.49,1.09,1.09,1.09h3.28c.6,0,1.09-.49,1.09-1.09Z"/>
      <path class="cls-1" d="M41.29,35.4h3.28c.6,0,1.09-.49,1.09-1.09s-.49-1.09-1.09-1.09h-3.28c-.6,0-1.09.49-1.09,1.09s.49,1.09,1.09,1.09Z"/>
      <path class="cls-1" d="M34.74,35.4h3.28c.6,0,1.09-.49,1.09-1.09s-.49-1.09-1.09-1.09h-3.28c-.6,0-1.09.49-1.09,1.09s.49,1.09,1.09,1.09Z"/>
      <path class="cls-1" d="M60.94,35.4h3.28c.6,0,1.09-.49,1.09-1.09s-.49-1.09-1.09-1.09h-3.28c-.6,0-1.09.49-1.09,1.09s.49,1.09,1.09,1.09Z"/>
      <path class="cls-1" d="M47.84,35.4h3.28c.6,0,1.09-.49,1.09-1.09s-.49-1.09-1.09-1.09h-3.28c-.6,0-1.09.49-1.09,1.09s.49,1.09,1.09,1.09Z"/>
      <path class="cls-1" d="M54.39,35.4h3.28c.6,0,1.09-.49,1.09-1.09s-.49-1.09-1.09-1.09h-3.28c-.6,0-1.09.49-1.09,1.09s.49,1.09,1.09,1.09Z"/>
      <path class="cls-1" d="M45.11,56.41c-.6,0-1.09.49-1.09,1.09s.49,1.09,1.09,1.09h3.28c.6,0,1.09-.49,1.09-1.09s-.49-1.09-1.09-1.09h-3.28Z"/>
      <path class="cls-1" d="M38.56,56.41c-.6,0-1.09.49-1.09,1.09s.49,1.09,1.09,1.09h3.28c.6,0,1.09-.49,1.09-1.09s-.49-1.09-1.09-1.09h-3.28Z"/>
      <path class="cls-1" d="M28.75,58.38c.51,0,.97-.36,1.07-.88.12-.59-.27-1.16-.86-1.28-.97-.19-1.91-.52-2.79-.97-.54-.28-1.19-.07-1.47.47-.28.54-.07,1.19.47,1.47,1.06.55,2.2.94,3.38,1.17.07.01.14.02.21.02Z"/>
      <path class="cls-1" d="M58.21,56.41c-.6,0-1.09.49-1.09,1.09s.49,1.09,1.09,1.09h3.28c.6,0,1.09-.49,1.09-1.09s-.49-1.09-1.09-1.09h-3.28Z"/>
      <path class="cls-1" d="M51.66,56.41c-.6,0-1.09.49-1.09,1.09s.49,1.09,1.09,1.09h3.28c.6,0,1.09-.49,1.09-1.09s-.49-1.09-1.09-1.09h-3.28Z"/>
      <path class="cls-1" d="M36.38,57.51c0-.6-.49-1.09-1.09-1.09h-3.28c-.6,0-1.09.49-1.09,1.09s.49,1.09,1.09,1.09h3.28c.6,0,1.09-.49,1.09-1.09Z"/>
      <path class="cls-1" d="M71.79,63.49c.21.33.56.51.92.51.2,0,.4-.05.58-.17.51-.32.66-1,.34-1.51-.64-1.01-1.42-1.92-2.32-2.72-.45-.4-1.14-.36-1.54.09-.4.45-.36,1.14.09,1.54.74.66,1.39,1.41,1.92,2.25Z"/>
      <path class="cls-1" d="M64.93,56.57c-.6-.1-1.16.31-1.25.91s.31,1.16.91,1.25c.98.16,1.93.45,2.82.87.15.07.31.11.47.11.41,0,.8-.23.99-.62.26-.54.03-1.2-.52-1.45-1.08-.51-2.23-.87-3.41-1.06Z"/>
      <path class="cls-1" d="M73.42,69.11c0,.6.49,1.09,1.09,1.09s1.09-.49,1.09-1.09c0-1.2-.17-2.39-.5-3.53-.17-.58-.77-.91-1.35-.75-.58.17-.91.77-.75,1.35.27.95.41,1.93.41,2.93Z"/>
      <path class="cls-1" d="M20.42,50.84c-.52.31-.69.97-.39,1.49.61,1.03,1.35,1.97,2.22,2.79.21.2.48.3.75.3.29,0,.58-.11.79-.34.41-.44.4-1.13-.04-1.54-.72-.68-1.34-1.46-1.84-2.31-.31-.52-.97-.69-1.49-.39Z"/>
      <path class="cls-1" d="M19.73,49.85c.09,0,.18-.01.27-.03.58-.15.94-.74.79-1.33-.21-.84-.32-1.71-.32-2.59,0-.12,0-.24,0-.35.02-.6-.45-1.11-1.05-1.13-.6-.02-1.11.45-1.13,1.05,0,.14,0,.28,0,.43,0,1.06.13,2.11.39,3.12.13.49.57.82,1.06.82Z"/>
      <path class="cls-1" d="M19.61,43.34c.11.04.23.05.34.05.46,0,.89-.29,1.04-.75.25-.78.61-1.52,1.04-2.23.74.45,1.61.72,2.54.72,2.71,0,4.91-2.2,4.91-4.91,0-.24-.02-.47-.06-.7.51-.08,1.03-.12,1.56-.12h.49c.6,0,1.09-.49,1.09-1.09s-.49-1.09-1.09-1.09h-.49c-.8,0-1.59.08-2.37.22-.89-1.29-2.37-2.13-4.05-2.13-2.71,0-4.91,2.2-4.91,4.91,0,.97.29,1.88.78,2.64-.64.96-1.16,2.01-1.52,3.1-.19.57.13,1.19.7,1.38ZM24.56,33.49c1.51,0,2.73,1.22,2.73,2.73s-1.22,2.73-2.73,2.73-2.73-1.22-2.73-2.73,1.22-2.73,2.73-2.73Z"/>
      <path class="cls-1" d="M74.56,76.02c-.6-.04-1.12.42-1.16,1.02l-.21,3.27c-.04.6.42,1.12,1.02,1.16.02,0,.05,0,.07,0,.57,0,1.05-.44,1.09-1.02l.21-3.27c.04-.6-.42-1.12-1.02-1.16Z"/>
      <path class="cls-1" d="M70.09,88.53c-.7.7-1.49,1.3-2.36,1.78-.53.29-.72.96-.42,1.48.2.36.57.56.96.56.18,0,.36-.04.53-.14,1.04-.58,2-1.3,2.85-2.15.43-.43.42-1.12,0-1.54-.43-.43-1.12-.42-1.54,0Z"/>
      <path class="cls-1" d="M58.68,91.62h-3.28c-.6,0-1.09.49-1.09,1.09s.49,1.09,1.09,1.09h3.28c.6,0,1.09-.49,1.09-1.09s-.49-1.09-1.09-1.09Z"/>
      <path class="cls-1" d="M64.97,91.36c-.76.17-1.54.26-2.33.26h-.68c-.6,0-1.09.49-1.09,1.09s.49,1.09,1.09,1.09h.68c.95,0,1.89-.11,2.81-.31.59-.13.96-.72.82-1.31-.13-.59-.72-.96-1.31-.82Z"/>
      <path class="cls-1" d="M45.58,91.62h-2.31c-.5-2.18-2.45-3.82-4.79-3.82s-4.3,1.64-4.79,3.84c-.53.07-.94.53-.94,1.08s.41,1,.94,1.08c.49,2.19,2.45,3.84,4.79,3.84s4.29-1.64,4.79-3.82h2.31c.6,0,1.09-.49,1.09-1.09s-.49-1.09-1.09-1.09ZM38.48,95.44c-1.51,0-2.73-1.22-2.73-2.73s1.22-2.73,2.73-2.73,2.73,1.22,2.73,2.73-1.22,2.73-2.73,2.73Z"/>
      <path class="cls-1" d="M52.13,91.62h-3.28c-.6,0-1.09.49-1.09,1.09s.49,1.09,1.09,1.09h3.28c.6,0,1.09-.49,1.09-1.09s-.49-1.09-1.09-1.09Z"/>
      <path class="cls-1" d="M74.2,82.56c-.59-.13-1.17.24-1.3.83-.21.97-.56,1.9-1.04,2.77-.29.53-.1,1.19.43,1.48.17.09.35.13.52.13.39,0,.76-.2.96-.57.58-1.05,1-2.18,1.26-3.34.13-.59-.24-1.17-.83-1.3Z"/>
      <path class="cls-1" d="M24.02,91.62h-3.28c-.6,0-1.09.49-1.09,1.09s.49,1.09,1.09,1.09h3.28c.6,0,1.09-.49,1.09-1.09s-.49-1.09-1.09-1.09Z"/>
      <path class="cls-1" d="M10.92,91.62h-3.28c-.6,0-1.09.49-1.09,1.09s.49,1.09,1.09,1.09h3.28c.6,0,1.09-.49,1.09-1.09s-.49-1.09-1.09-1.09Z"/>
      <path class="cls-1" d="M4.37,91.62H1.09c-.6,0-1.09.49-1.09,1.09s.49,1.09,1.09,1.09h3.28c.6,0,1.09-.49,1.09-1.09s-.49-1.09-1.09-1.09Z"/>
      <path class="cls-1" d="M17.47,91.62h-3.28c-.6,0-1.09.49-1.09,1.09s.49,1.09,1.09,1.09h3.28c.6,0,1.09-.49,1.09-1.09s-.49-1.09-1.09-1.09Z"/>
      <path class="cls-1" d="M30.57,91.62h-3.28c-.6,0-1.09.49-1.09,1.09s.49,1.09,1.09,1.09h3.28c.6,0,1.09-.49,1.09-1.09s-.49-1.09-1.09-1.09Z"/>
      <path class="cls-1" d="M76.05,72.79l2.5-2.5c.43-.43.43-1.12,0-1.54-.43-.43-1.12-.43-1.54,0l-2.5,2.5-2.5-2.5c-.43-.43-1.12-.43-1.54,0-.43.43-.43,1.12,0,1.54l2.5,2.5-2.5,2.5c-.43.43-.43,1.12,0,1.54.21.21.49.32.77.32s.56-.11.77-.32l2.5-2.5,2.5,2.5c.21.21.49.32.77.32s.56-.11.77-.32c.43-.43.43-1.12,0-1.54l-2.5-2.5Z"/>
    </g>
  </g>
</svg>