<?xml version="1.0" encoding="UTF-8"?>
<svg id="Layer_2" xmlns="http://www.w3.org/2000/svg" viewBox="0 0 92.46 102.62">
  <defs>
    <style>
      .cls-1 {
        fill: #222935;
      }
    </style>
  </defs>
  <g id="Layer_2-2" data-name="Layer_2">
    <g>
      <path class="cls-1" d="M81.32,39.49h-15.87c-6.14,0-11.14,5-11.14,11.14v19.09c0,3.08,2.51,5.59,5.59,5.59,1.28,0,2.46-.44,3.4-1.17v22.89c0,3.08,2.51,5.59,5.59,5.59,1.84,0,3.48-.9,4.5-2.28,1.02,1.38,2.65,2.28,4.5,2.28,3.08,0,5.59-2.51,5.59-5.59v-22.89c.94.73,2.12,1.17,3.4,1.17,3.08,0,5.59-2.51,5.59-5.59v-19.09c0-6.14-5-11.14-11.14-11.14ZM90.28,69.72c0,1.88-1.53,3.4-3.4,3.4s-3.4-1.53-3.4-3.4v-16.15c0-.6-.49-1.09-1.09-1.09s-1.09.49-1.09,1.09v43.46c0,1.88-1.53,3.4-3.4,3.4s-3.4-1.53-3.4-3.4v-23.35c0-.6-.49-1.09-1.09-1.09s-1.09.49-1.09,1.09v23.35c0,1.88-1.53,3.4-3.4,3.4s-3.4-1.53-3.4-3.4v-43.46c0-.6-.49-1.09-1.09-1.09s-1.09.49-1.09,1.09v16.15c0,1.88-1.53,3.4-3.4,3.4s-3.4-1.53-3.4-3.4v-19.09c0-4.94,4.02-8.96,8.96-8.96h15.87c4.94,0,8.96,4.02,8.96,8.96v19.09Z"/>
      <path class="cls-1" d="M73.38,37.34c5.01,0,9.09-4.08,9.09-9.09v-3.66c0-5.01-4.08-9.09-9.09-9.09s-9.09,4.08-9.09,9.09v3.66c0,5.01,4.08,9.09,9.09,9.09ZM66.48,24.59c0-3.81,3.1-6.9,6.9-6.9s6.9,3.1,6.9,6.9v3.66c0,3.81-3.1,6.9-6.9,6.9s-6.9-3.1-6.9-6.9v-3.66Z"/>
      <path class="cls-1" d="M35.11,12.21c-1.96-1.76-4.51-2.64-7.66-2.64s-5.52.71-7.56,2.13c-.88.61-1.62,1.32-2.21,2.12-1.24,1.67-.49,4.07,1.48,4.76l.14.05c1.32.46,2.76-.03,3.57-1.17.25-.35.54-.66.87-.92.89-.7,1.99-1.05,3.3-1.05,1.13,0,2.1.34,2.91,1.03.81.69,1.21,1.62,1.21,2.81,0,.49-.07.95-.21,1.4-.14.44-.38.87-.72,1.28-.34.41-.63.73-.88.96-.25.23-.62.57-1.11,1.02-.5.45-.82.75-.98.9-1.56,1.38-2.73,2.66-3.51,3.85,0,.01-.02.02-.02.04-1.19,1.84.17,4.27,2.37,4.27h1.09c1.12,0,2.13-.66,2.56-1.69.05-.11.1-.22.15-.33.33-.63.68-1.12,1.05-1.45.38-.33.94-.84,1.71-1.52.76-.68,1.31-1.17,1.66-1.47,1.28-1.25,2.22-2.45,2.82-3.6.6-1.15.89-2.65.89-4.51,0-2.41-.98-4.5-2.93-6.26Z"/>
      <path class="cls-1" d="M26.52,36.11h-.87c-1.66,0-3,1.34-3,3s1.34,3,3,3h.87c1.66,0,3-1.34,3-3s-1.34-3-3-3Z"/>
      <path class="cls-1" d="M60.9,25.34c0-7.8-5.67-14.47-13.3-15.76C45.05,3.74,39.37,0,32.95,0c-3.82,0-7.47,1.35-10.36,3.82-2.08-.95-4.29-1.43-6.6-1.43C7.17,2.39,0,9.56,0,18.38c0,2.62.65,5.2,1.87,7.5-1.23,2.3-1.87,4.88-1.87,7.5,0,8.82,7.17,15.99,15.99,15.99,1.37,0,2.74-.18,4.06-.52,2.7,1.91,5.87,2.92,9.2,2.92,6.77,0,12.69-4.17,15-10.45.22,0,.44.01.65.01,8.82,0,15.99-7.17,15.99-15.99ZM44.91,39.14c-.42,0-.87-.02-1.32-.06-.52-.05-.99.27-1.15.77-1.79,5.82-7.1,9.74-13.19,9.74-3.03,0-5.91-.97-8.33-2.8-.19-.15-.42-.22-.66-.22-.1,0-.21.02-.31.05-1.29.39-2.62.58-3.96.58-7.61,0-13.8-6.19-13.8-13.8,0-2.44.65-4.85,1.88-6.95.2-.34.2-.76,0-1.1-1.23-2.1-1.88-4.51-1.88-6.95,0-7.61,6.19-13.8,13.8-13.8,2.21,0,4.32.51,6.28,1.51.41.21.91.14,1.24-.17,2.57-2.41,5.92-3.73,9.43-3.73,5.73,0,10.77,3.45,12.86,8.78.15.37.48.63.88.69,6.86.88,12.03,6.76,12.03,13.69,0,7.61-6.19,13.8-13.8,13.8Z"/>
    </g>
  </g>
</svg>