<?xml version="1.0" encoding="UTF-8"?>
<svg id="Layer_2" xmlns="http://www.w3.org/2000/svg" viewBox="0 0 60.12 90.89">
  <defs>
    <style>
      .cls-1 {
        fill: #222935;
      }
    </style>
  </defs>
  <g id="Layer_2-2" data-name="Layer_2">
    <g>
      <path class="cls-1" d="M30.96,47.67c0,3.42,2.78,6.21,6.21,6.21s6.21-2.78,6.21-6.21-2.78-6.21-6.21-6.21-6.21,2.78-6.21,6.21ZM37.16,43.65c2.22,0,4.02,1.8,4.02,4.02s-1.8,4.02-4.02,4.02-4.02-1.81-4.02-4.02,1.8-4.02,4.02-4.02Z"/>
      <path class="cls-1" d="M26.62,45.67c2.84,0,5.15-2.31,5.15-5.15s-2.31-5.15-5.15-5.15-5.15,2.31-5.15,5.15,2.31,5.15,5.15,5.15ZM26.62,37.56c1.63,0,2.96,1.33,2.96,2.96s-1.33,2.96-2.96,2.96-2.96-1.33-2.96-2.96,1.33-2.96,2.96-2.96Z"/>
      <path class="cls-1" d="M29.95,33.37c2.13,0,3.87-1.73,3.87-3.87s-1.73-3.87-3.87-3.87-3.87,1.73-3.87,3.87,1.73,3.87,3.87,3.87ZM29.95,27.82c.93,0,1.68.75,1.68,1.68s-.75,1.68-1.68,1.68-1.68-.75-1.68-1.68.75-1.68,1.68-1.68Z"/>
      <path class="cls-1" d="M59.79,56.38s0-.05-.01-.07c-.63-4.14-2.11-8.11-4.38-11.67-3.01-4.7-7.25-8.47-12.26-10.89-2.53-1.22-4.16-3.82-4.16-6.61V7.54c1.16-.15,2.05-1.14,2.05-2.34v-2.84c0-1.3-1.06-2.36-2.36-2.36h-17.2c-1.3,0-2.36,1.06-2.36,2.36v2.84c0,1.2.9,2.19,2.05,2.34v19.59c0,2.8-1.6,5.38-4.08,6.57C6.67,38.7.05,49.23,0,60.71c0,.01,0,.03,0,.04,0,.29,0,.59,0,.88.42,16.19,13.88,29.26,30.06,29.26.1,0,.2,0,.3,0,7.97-.08,15.44-3.24,21.05-8.9,5.61-5.67,8.7-13.18,8.7-21.16,0-1.5-.11-2.98-.33-4.45ZM21.28,2.36c0-.1.08-.18.18-.18h17.2c.1,0,.18.08.18.18v2.84c0,.1-.08.18-.18.18h-17.2c-.1,0-.18-.08-.18-.18v-2.84ZM18.01,35.68c3.23-1.55,5.32-4.9,5.32-8.54V7.57h13.45v19.57c0,3.63,2.12,6.99,5.39,8.58,8.05,3.89,13.7,11.48,15.3,20.11-3.15,1.09-14.86,4.49-26.04-.36-11.47-4.98-24.52.89-29.18,3.37.71-9.91,6.68-18.81,15.75-23.16ZM30.34,88.7c-.09,0-.18,0-.28,0-15,0-27.48-12.11-27.87-27.13,0-.07,0-.13,0-.19,2.84-1.62,16.78-8.94,28.37-3.91,11.57,5.02,23.32,1.88,27.23.56.09.92.15,1.85.15,2.79,0,15.22-12.38,27.73-27.59,27.88Z"/>
    </g>
  </g>
</svg>