<?xml version="1.0" encoding="UTF-8"?>
<svg id="Layer_2" xmlns="http://www.w3.org/2000/svg" viewBox="0 0 65.61 91.87">
  <defs>
    <style>
      .cls-1 {
        fill: #222935;
      }
    </style>
  </defs>
  <g id="Layer_2-2" data-name="Layer_2">
    <g>
      <path class="cls-1" d="M64.53,76.83s0,0,0-.01c.02-.05.04-.11.05-.17,0,0,0-.01,0-.02,0,0,0,0,0,0,.68-3.32,1.02-6.73,1.02-10.15,0-10.89-3.41-21.27-9.86-30.01-.02-.02-.03-.04-.05-.06-1.72-14.68-9.78-27.93-22.29-36.24-.37-.24-.84-.24-1.21,0C19.69,8.49,11.63,21.74,9.91,36.42c-.02.02-.04.04-.05.06C3.41,45.21,0,55.59,0,66.48c0,3.42.34,6.83,1.02,10.14,0,0,0,0,0,0,0,0,0,.01,0,.02.01.06.03.11.05.16,0,0,0,.02,0,.02.02.06.06.12.09.18,0,.01.02.03.03.04.03.04.06.08.09.11.02.02.04.03.05.05.03.03.06.06.09.08.02.02.04.03.07.04.04.02.07.04.11.06.01,0,.02.02.04.02,0,0,.02,0,.03,0,.05.02.1.03.14.05.02,0,.04.01.06.01.07.01.13.02.2.02h0s0,0,0,0c.07,0,.13,0,.2-.02,0,0,.01,0,.02,0,.01,0,.02,0,.03,0,.05-.01.1-.03.15-.05.01,0,.03,0,.04-.02.06-.03.11-.06.16-.09.01,0,.03-.02.04-.03.04-.03.08-.06.11-.09.01-.01.03-.03.04-.04.03-.04.07-.08.1-.12,0-.01.02-.02.02-.03.03-.05.06-.1.09-.16.47-1.08.99-2.16,1.55-3.23,2.32-4.42,5.27-8.41,8.77-11.88.48,1.14.99,2.27,1.56,3.39.19.37.56.6.97.6h2.65v3.12c0,.6.49,1.09,1.09,1.09h26.23c.6,0,1.09-.49,1.09-1.09v-3.12h2.65c.41,0,.79-.23.97-.6.56-1.12,1.08-2.25,1.56-3.39,3.5,3.47,6.45,7.46,8.77,11.88.56,1.06,1.08,2.15,1.55,3.23.02.06.05.11.09.16,0,.01.02.02.02.03.03.04.06.08.1.12.01.01.03.03.04.04.04.03.07.07.11.09.01,0,.03.02.04.03.05.03.11.07.16.09.01,0,.03.01.04.02.05.02.1.04.15.05,0,0,.02,0,.03,0,0,0,.01,0,.02,0,.06.01.13.02.2.02,0,0,0,0,0,0h0c.07,0,.14,0,.2-.02.02,0,.04-.01.06-.01.05-.01.1-.03.15-.05,0,0,.02,0,.03,0,.01,0,.02-.01.04-.02.04-.02.08-.04.12-.06.02-.01.04-.03.06-.04.03-.03.07-.05.1-.08.02-.02.04-.03.05-.05.03-.04.06-.08.09-.12,0-.01.02-.03.03-.04.04-.06.07-.12.09-.18ZM32.8,2.41c3.49,2.39,6.61,5.2,9.31,8.32-2.54,1.75-5.76,2.7-9.2,2.7s-6.79-1.01-9.33-2.8c2.68-3.09,5.77-5.86,9.23-8.23ZM2.71,72.63c-.04.07-.07.14-.11.21-.27-2.1-.42-4.22-.42-6.35,0-9.21,2.55-18.04,7.4-25.73-.02.53-.03,1.07-.03,1.61,0,5.95,1.01,11.71,2.99,17.19-3.96,3.78-7.27,8.18-9.84,13.07ZM44.83,67.78h-24.05v-2.03h24.05v2.03ZM48.99,63.56H16.62c-3.24-6.63-4.88-13.76-4.88-21.2,0-11.07,3.76-21.6,10.44-30.03,2.95,2.13,6.71,3.29,10.73,3.29s7.67-1.13,10.6-3.2c6.63,8.42,10.36,18.91,10.36,29.94,0,7.45-1.64,14.58-4.88,21.2ZM53.06,59.55c1.99-5.48,2.99-11.24,2.99-17.19,0-.54,0-1.07-.03-1.61,4.85,7.7,7.4,16.52,7.4,25.73,0,2.13-.14,4.25-.42,6.35-.04-.07-.07-.14-.11-.21-2.57-4.9-5.88-9.29-9.84-13.07Z"/>
      <path class="cls-1" d="M32.8,18.35c-6.8,0-12.33,5.53-12.33,12.34s5.53,12.34,12.33,12.34,12.34-5.53,12.34-12.34-5.53-12.34-12.34-12.34ZM32.8,40.84c-5.6,0-10.15-4.55-10.15-10.15s4.55-10.15,10.15-10.15,10.15,4.55,10.15,10.15-4.55,10.15-10.15,10.15Z"/>
      <path class="cls-1" d="M32.8,21.87c-3.68,0-7,2.32-8.28,5.76-.21.57.08,1.19.65,1.4.12.05.25.07.38.07.44,0,.86-.27,1.02-.71.96-2.59,3.46-4.34,6.23-4.34.6,0,1.09-.49,1.09-1.09s-.49-1.09-1.09-1.09Z"/>
      <path class="cls-1" d="M26.17,30.69c0-.6-.49-1.09-1.09-1.09s-1.09.49-1.09,1.09c0,1.53.4,3.04,1.15,4.36.2.35.57.55.95.55.18,0,.37-.05.54-.14.52-.3.71-.96.41-1.49-.57-.99-.86-2.13-.86-3.28Z"/>
      <path class="cls-1" d="M32.68,46.57c-.6,0-1.09.49-1.09,1.09v11.27c0,.6.49,1.09,1.09,1.09s1.09-.49,1.09-1.09v-11.27c0-.6-.49-1.09-1.09-1.09Z"/>
      <path class="cls-1" d="M40.25,71.2c-.57.21-.86.83-.65,1.4,2.08,5.68-1.02,10.1-3.33,12.42-.15-1.5-.9-2.55-1.65-3.36-.42-.46-.87-.88-1.36-1.32-.99-.91-2-1.85-2.72-3.15-.66-1.2-.42-2.67.71-4.36.34-.5.2-1.18-.3-1.51-.5-.34-1.18-.2-1.51.3-2.02,3.02-1.56,5.27-.81,6.63.88,1.61,2.09,2.72,3.15,3.7.16.14.31.29.46.43-.81.66-1.69,1.14-2.56,1.62-1.59.87-3.32,1.82-4.05,3.82-1.89-3.17-4.12-9.2,1.38-14.82.42-.43.41-1.12-.02-1.54s-1.12-.41-1.54.02c-9.22,9.42.06,19.94.15,20.05.21.23.51.36.81.36.15,0,.3-.03.44-.09.43-.19.69-.64.64-1.11-.29-2.84,1.03-3.57,3.22-4.77.94-.51,1.97-1.08,2.95-1.89.51.86.62,1.82.08,3.33-.16.44-.02.94.36,1.23.2.15.43.23.67.23.21,0,.43-.06.61-.19.1-.07,2.5-1.7,4.48-4.55,2.67-3.86,3.29-8.08,1.77-12.22-.21-.57-.83-.86-1.4-.65Z"/>
    </g>
  </g>
</svg>