<?xml version="1.0" encoding="UTF-8"?>
<svg id="Layer_2" xmlns="http://www.w3.org/2000/svg" viewBox="0 0 66.31 77.51">
  <defs>
    <style>
      .cls-1 {
        fill: #222935;
      }
    </style>
  </defs>
  <g id="Layer_2-2" data-name="Layer_2">
    <g>
      <path class="cls-1" d="M65.24,11.2C44,10.83,34.05.45,33.95.35c-.21-.22-.5-.35-.8-.35h0c-.3,0-.59.13-.8.35-.1.1-10.05,10.48-31.28,10.86-.6.01-1.07.5-1.07,1.09v26.27s0,.03,0,.05c.01.28.35,7,4.56,15.18,3.88,7.53,11.92,17.75,28.22,23.66.12.04.25.07.37.07s.25-.02.37-.07c16.3-5.91,24.34-16.13,28.22-23.66,4.21-8.18,4.55-14.9,4.56-15.18,0-.02,0-.03,0-.05V12.29c0-.6-.48-1.08-1.07-1.09ZM64.13,38.53c-.02.4-.43,6.71-4.32,14.26-3.67,7.13-11.27,16.78-26.65,22.47-15.33-5.67-22.93-15.28-26.6-22.37-3.92-7.56-4.35-13.95-4.37-14.35V13.36c18.33-.6,28.21-8.24,30.97-10.75,2.76,2.51,12.64,10.14,30.97,10.75v25.18Z"/>
      <path class="cls-1" d="M18.63,35c-.2-.21-.48-.32-.77-.32s-.57.12-.77.32l-4.62,4.64c-.42.43-.42,1.11,0,1.54l13.81,13.88c.2.21.48.32.77.32s.57-.12.77-.32l26.4-26.54c.42-.43.42-1.11,0-1.54l-4.62-4.64c-.2-.21-.48-.32-.77-.32s-.57.12-.77.32l-21.01,21.12-8.42-8.46ZM48.83,24.66l3.08,3.09-24.86,24.99-12.27-12.33,3.08-3.09,8.42,8.46c.2.21.48.32.77.32s.57-.12.77-.32l21.01-21.12Z"/>
    </g>
  </g>
</svg>