<?xml version="1.0" encoding="UTF-8"?>
<svg id="Layer_2" xmlns="http://www.w3.org/2000/svg" viewBox="0 0 101.76 107.54">
  <defs>
    <style>
      .cls-1 {
        fill: #222935;
      }
    </style>
  </defs>
  <g id="Layer_2-2" data-name="Layer_2">
    <g>
      <path class="cls-1" d="M91.21,47.94h-34.94c-2.94,0-5.33,2.39-5.33,5.33s2.39,5.33,5.32,5.33l13.77.07c2.29,0,4.15,1.88,4.15,4.17v39.38c0,2.94,2.38,5.33,5.32,5.33,1.73,0,3.26-.83,4.23-2.11.97,1.28,2.51,2.11,4.23,2.11,2.94,0,5.33-2.39,5.33-5.33v-21.43c.88.65,1.97,1.04,3.14,1.04,2.94,0,5.33-2.39,5.33-5.33v-18c0-5.82-4.74-10.56-10.56-10.56ZM99.58,76.49c0,1.73-1.41,3.14-3.14,3.14s-3.14-1.41-3.14-3.14v-15.21c0-.6-.49-1.09-1.09-1.09s-1.09.49-1.09,1.09v40.93c0,1.73-1.41,3.14-3.14,3.14s-3.14-1.41-3.14-3.14v-21.99c0-.6-.49-1.09-1.09-1.09s-1.09.49-1.09,1.09v21.99c0,1.73-1.41,3.14-3.14,3.14s-3.14-1.41-3.14-3.14v-39.38c0-3.49-2.83-6.34-6.32-6.35l-13.78-.07c-1.73,0-3.14-1.41-3.14-3.14s1.41-3.14,3.14-3.14h34.94c4.62,0,8.37,3.76,8.37,8.37v18Z"/>
      <path class="cls-1" d="M83.74,46.07c4.75,0,8.62-3.87,8.62-8.62v-3.45c0-4.75-3.87-8.62-8.62-8.62s-8.62,3.87-8.62,8.62v3.45c0,4.75,3.87,8.62,8.62,8.62ZM77.3,34c0-3.55,2.89-6.43,6.43-6.43s6.43,2.89,6.43,6.43v3.45c0,3.55-2.89,6.43-6.43,6.43s-6.43-2.89-6.43-6.43v-3.45Z"/>
      <path class="cls-1" d="M25.5,47.96h-14.94c-5.82,0-10.56,4.74-10.56,10.56v17.98c0,2.94,2.39,5.33,5.33,5.33,1.18,0,2.26-.39,3.14-1.04v21.43c0,2.94,2.39,5.33,5.33,5.33,1.73,0,3.26-.83,4.23-2.11.97,1.28,2.51,2.11,4.23,2.11,2.94,0,5.33-2.39,5.33-5.33v-21.43c.88.65,1.97,1.04,3.14,1.04,2.94,0,5.33-2.39,5.33-5.33v-17.98c0-5.82-4.74-10.56-10.56-10.56ZM33.87,65.01v11.49c0,1.73-1.41,3.14-3.14,3.14s-3.14-1.41-3.14-3.14v-15.21c0-.6-.49-1.09-1.09-1.09s-1.09.49-1.09,1.09v40.93c0,1.73-1.41,3.14-3.14,3.14s-3.14-1.41-3.14-3.14v-21.99c0-.6-.49-1.09-1.09-1.09s-1.09.49-1.09,1.09v21.99c0,1.73-1.41,3.14-3.14,3.14s-3.14-1.41-3.14-3.14v-40.93c0-.6-.49-1.09-1.09-1.09s-1.09.49-1.09,1.09v15.21c0,1.73-1.41,3.14-3.14,3.14s-3.14-1.41-3.14-3.14v-17.98c0-4.62,3.76-8.37,8.37-8.37h14.94c4.62,0,8.37,3.76,8.37,8.37v6.49Z"/>
      <path class="cls-1" d="M18.03,46.07c4.75,0,8.62-3.87,8.62-8.62v-3.45c0-4.75-3.87-8.62-8.62-8.62s-8.62,3.87-8.62,8.62v3.45c0,4.75,3.87,8.62,8.62,8.62ZM11.59,34c0-3.55,2.89-6.43,6.43-6.43s6.43,2.89,6.43,6.43v3.45c0,3.55-2.89,6.43-6.43,6.43s-6.43-2.89-6.43-6.43v-3.45Z"/>
      <path class="cls-1" d="M55.16,24.78c1.81-1.76,3.15-3.48,4.01-5.12.88-1.69,1.33-3.91,1.33-6.59,0-3.56-1.45-6.67-4.31-9.24-2.83-2.54-6.55-3.83-11.04-3.83-4.24,0-7.88,1.03-10.81,3.07-1.28.89-2.37,1.93-3.23,3.1-1,1.35-1.29,3.05-.79,4.66.5,1.62,1.7,2.87,3.3,3.44l.18.06c2.22.78,4.66-.01,6.06-1.97.28-.39.6-.73.97-1.02,1-.8,2.24-1.18,3.77-1.18,1.27,0,2.32.37,3.22,1.13.84.71,1.25,1.68,1.25,2.96,0,.54-.08,1.07-.23,1.55-.14.46-.4.92-.77,1.36-.42.51-.79.91-1.08,1.18l-2.81,2.57c-2.16,1.91-3.82,3.73-4.92,5.41l-.04.06c-.96,1.49-1.03,3.32-.17,4.89.86,1.57,2.5,2.55,4.28,2.55h1.47c1.96,0,3.71-1.16,4.46-2.95.05-.12.11-.24.17-.36.38-.73.77-1.28,1.17-1.64l4.53-4.04s.02-.02.04-.03ZM49.14,27.22c-.6.54-1.16,1.3-1.66,2.27-.09.17-.17.34-.24.52-.41.98-1.37,1.61-2.45,1.61h-1.47c-1,0-1.88-.53-2.36-1.41-.47-.86-.43-1.85.09-2.67l.03-.04c.99-1.52,2.52-3.19,4.55-4.98l2.82-2.58c.37-.34.8-.8,1.29-1.4.54-.66.94-1.36,1.16-2.09.22-.7.33-1.44.33-2.21,0-1.93-.68-3.49-2.02-4.62-1.29-1.09-2.85-1.65-4.63-1.65-2.01,0-3.74.56-5.13,1.66-.53.42-.99.91-1.39,1.46-.83,1.16-2.27,1.64-3.57,1.18l-.18-.06c-.94-.33-1.64-1.06-1.94-2.02-.29-.94-.12-1.93.46-2.72.72-.98,1.64-1.86,2.72-2.61,2.56-1.78,5.78-2.68,9.57-2.68s7.17,1.1,9.58,3.27c2.42,2.17,3.59,4.66,3.59,7.62,0,2.32-.36,4.2-1.08,5.58-.74,1.43-1.95,2.96-3.58,4.55l-4.51,4.02Z"/>
      <path class="cls-1" d="M43.87,35.76h-1.17c-2.83,0-5.14,2.3-5.14,5.14s2.3,5.14,5.14,5.14h1.17c2.83,0,5.14-2.3,5.14-5.14s-2.3-5.14-5.14-5.14ZM43.87,43.85h-1.17c-1.63,0-2.95-1.33-2.95-2.95s1.32-2.95,2.95-2.95h1.17c1.63,0,2.95,1.33,2.95,2.95s-1.33,2.95-2.95,2.95Z"/>
    </g>
  </g>
</svg>